<svg width="34" height="37" viewBox="0 0 34 37" fill="none" xmlns="http://www.w3.org/2000/svg">
    <path fill-rule="evenodd" clip-rule="evenodd"
        d="M4.99237 0.056282C2.45596 0.386884 0.933124 1.57941 0.240015 3.77803L0.0354405 4.42685L0.0094811 15.1208C-0.0137318 24.6715 -0.00123987 25.8887 0.126077 26.5074C0.601232 28.8156 1.949 30.1522 4.33036 30.6768C4.71266 30.761 5.75521 30.8248 7.43132 30.8666C10.9028 30.9531 10.6202 30.7989 13.013 33.9109C13.8736 35.0301 14.7314 36.0776 14.9193 36.2386C16.1085 37.2583 17.8974 37.2532 19.0947 36.2267C19.2749 36.0722 20.1264 35.0301 20.9869 33.9109C23.3798 30.7989 23.0972 30.9531 26.5687 30.8666C28.2448 30.8248 29.2873 30.761 29.6696 30.6768C32.051 30.1522 33.3988 28.8156 33.8739 26.5074C34.0012 25.8887 34.0137 24.6715 33.9905 15.1208L33.9646 4.42685L33.76 3.77803C33.1548 1.85814 31.9477 0.737835 29.9124 0.206949L29.1823 0.0164505L17.3544 0.00155685C10.849 -0.00658266 5.28608 0.018009 4.99237 0.056282ZM17.8152 5.6915C19.7956 6.0951 21.1641 7.73261 21.1641 9.69839C21.1641 10.9347 20.7416 11.9025 19.8433 12.7237C17.6077 14.7675 13.9173 13.8073 12.9979 10.9426C12.799 10.3228 12.7659 9.28873 12.9262 8.70658C13.5041 6.60936 15.6935 5.25907 17.8152 5.6915ZM20.4911 16.8504C21.492 17.1007 22.1717 17.485 22.9391 18.2351C23.7066 18.9851 24.0999 19.6495 24.3559 20.6276C24.5876 21.5131 24.5927 22.7912 24.3672 23.4993C24.0339 24.5458 23.2033 25.3705 22.1681 25.6831C21.6181 25.8491 21.3537 25.858 17 25.858C12.6543 25.858 12.3817 25.8488 11.8484 25.6844C10.789 25.3578 9.98084 24.568 9.64674 23.5326C9.27524 22.3816 9.47423 20.6022 10.1063 19.4231C10.4832 18.72 11.5576 17.6702 12.2779 17.3014C13.3628 16.7458 13.7907 16.6895 16.9637 16.6842C19.515 16.6799 19.8771 16.697 20.4911 16.8504Z"
        fill="url(#paint0_radial_3881_569)" fill-opacity="1" />
    <defs>
        <radialGradient id="paint0_radial_3881_569" cx="0" cy="0" r="1"
            gradientUnits="userSpaceOnUse"
            gradientTransform="translate(17) rotate(90) scale(49.2563 45.2625)">
            <stop stop-color="white" />
            <stop offset="1" stop-color="white" stop-opacity="0" />
        </radialGradient>
    </defs>
</svg>
    