<svg width="39" height="39" viewBox="0 0 39 39" fill="none" xmlns="http://www.w3.org/2000/svg">
    <path fill-rule="evenodd" clip-rule="evenodd"
        d="M18.0187 3.06871C14.2515 3.73636 11.3487 6.59202 10.632 10.3354C10.5514 10.7562 10.515 11.2422 10.5158 11.8844C10.517 12.754 10.5338 12.8834 10.7526 13.7096C11.4485 16.3378 13.4014 20.3622 16.511 25.5763C17.0619 26.5 17.6294 27.3727 17.7721 27.5155C17.9147 27.6584 18.2245 27.8668 18.4603 27.9786C18.8478 28.1624 18.9483 28.182 19.5017 28.182C20.0565 28.182 20.1551 28.1627 20.5478 27.9764C20.7948 27.8593 21.1 27.6473 21.257 27.484C21.4086 27.3262 21.885 26.6055 22.3157 25.8824C25.6675 20.2546 27.5828 16.308 28.2791 13.5949C28.4744 12.8339 28.4941 12.6717 28.4914 11.8522C28.488 10.8297 28.3749 10.1169 28.0668 9.17356C27.0691 6.1202 24.544 3.84383 21.3715 3.13771C20.7179 2.99229 18.686 2.9504 18.0187 3.06871ZM20.558 7.94959C22.0538 8.41231 23.0544 9.77208 23.0582 11.3475C23.0606 12.3633 22.7182 13.1861 21.9913 13.9113C21.3227 14.5784 20.4853 14.9165 19.5017 14.9165C18.5273 14.9165 17.7073 14.587 17.0218 13.9199C16.2958 13.2134 15.9427 12.3699 15.9452 11.3475C15.9482 10.1188 16.5173 9.05492 17.5258 8.39289C18.4574 7.78126 19.5143 7.6268 20.558 7.94959ZM13.1186 25.0862C10.7663 25.6238 9.23554 26.4443 8.7541 27.4256C8.60142 27.7369 8.57408 27.8707 8.57976 28.2788C8.58376 28.568 8.62786 28.8564 8.6893 28.995C9.36901 30.5289 12.0413 31.5295 16.6325 31.9692C17.7388 32.0752 21.2221 32.0754 22.3708 31.9696C25.6993 31.6629 28.1377 31.0018 29.4167 30.0592C30.1187 29.5419 30.4133 29.0209 30.4236 28.2788C30.4293 27.8707 30.4019 27.7369 30.2493 27.4256C29.723 26.3529 28.0257 25.5124 25.2615 24.9557C25.0574 24.9146 25.0568 24.9153 24.5361 25.7967C24.2495 26.2818 24.015 26.6989 24.015 26.7235C24.015 26.7482 24.3849 26.8355 24.837 26.9176C26.3152 27.186 27.9604 27.7713 28.3034 28.1506C28.4303 28.291 28.4303 28.2913 28.27 28.4212C28.1818 28.4927 27.9499 28.6316 27.7548 28.7297C24.5937 30.3196 16.6638 30.5454 12.3449 29.1685C11.6995 28.9628 11.0029 28.6398 10.7336 28.4214C10.5781 28.2953 10.5766 28.287 10.6888 28.163C11.0344 27.7807 12.5279 27.238 14.0374 26.9462C14.5605 26.845 14.9884 26.7435 14.9884 26.7205C14.9884 26.6084 13.9405 24.9231 13.8732 24.927C13.8305 24.9295 13.4909 25.0011 13.1186 25.0862ZM5.73516 26.1567C4.63907 26.7407 3.72642 27.6007 3.30997 28.4419C3.05594 28.9553 3.0315 29.0491 3.00726 29.6037C2.98617 30.0864 3.00777 30.295 3.11545 30.6468C3.91062 33.2448 8.40277 35.1604 15.3752 35.8749C16.9993 36.0413 21.9962 36.0418 23.6281 35.8757C28.9865 35.3302 32.9121 34.0697 34.7983 32.2888C35.686 31.4507 36.0419 30.6528 35.9961 29.6037C35.9719 29.0487 35.9476 28.9555 35.6923 28.4398C35.2785 27.6038 34.3591 26.7379 33.2682 26.1567C32.7602 25.886 32.1652 26.0273 31.8769 26.4871C31.7726 26.6535 31.7501 26.7771 31.7694 27.0777C31.7918 27.4268 31.815 27.4769 32.0532 27.6909C32.1959 27.819 32.4839 28.0304 32.6932 28.1607C33.8081 28.8543 34.2375 29.5851 33.9065 30.2258C33.3235 31.3544 30.9827 32.4994 27.8016 33.2122C23.028 34.2817 16.5183 34.3217 11.6698 33.3114C8.29832 32.6088 5.93007 31.5278 5.17764 30.3478C4.72779 29.6423 5.10755 28.9088 6.31015 28.1607C6.51944 28.0304 6.80745 27.819 6.95014 27.6909C7.18831 27.4769 7.21152 27.4268 7.23396 27.0777C7.2533 26.7771 7.2308 26.6535 7.12648 26.4871C6.83814 26.0273 6.24316 25.886 5.73516 26.1567Z"
        fill="url(#paint0_radial_3881_601)" fill-opacity="1" />
    <defs>
        <radialGradient id="paint0_radial_3881_601" cx="0" cy="0" r="1"
            gradientUnits="userSpaceOnUse"
            gradientTransform="translate(19.5 3) rotate(90) scale(43.9313)">
            <stop stop-color="white" />
            <stop offset="1" stop-color="white" stop-opacity="0" />
        </radialGradient>
    </defs>
</svg>
    