<svg width="36" height="31" viewBox="0 0 36 31" fill="none" xmlns="http://www.w3.org/2000/svg">
    <path fill-rule="evenodd" clip-rule="evenodd"
        d="M9.22631 0.401311C8.28731 0.655346 7.51892 0.883078 7.51885 0.907271C7.51877 0.931536 9.16245 3.79576 11.1715 7.27221C13.4318 11.1836 14.794 13.6088 14.7449 13.6343C14.7012 13.6569 12.73 14.1909 10.3646 14.8209L6.06373 15.9664L4.32014 14.5939C2.64949 13.2787 2.56732 13.2238 2.3544 13.2815C2.23224 13.3146 1.6612 13.4679 1.08545 13.6222C0.509771 13.7764 0.0240046 13.9173 0.00597931 13.9352C-0.0119755 13.9532 0.0118938 14.0418 0.0589989 14.1321C0.307339 14.6081 4.45209 21.7654 4.52468 21.8437C4.5946 21.919 7.04427 21.2844 17.9112 18.3757C34.7301 13.8738 34.2383 14.0079 34.6156 13.821C35.0692 13.5963 35.5525 13.0985 35.7929 12.6085C35.9821 12.223 36 12.1227 36 11.448C36 10.7739 35.982 10.6729 35.7936 10.2891C35.5308 9.75348 35.0561 9.27931 34.5198 9.01677C34.1303 8.82596 34.0438 8.81126 33.3596 8.81942C32.6328 8.82807 32.5409 8.84973 27.9379 10.097L23.2556 11.366L23.0092 11.1358C20.5089 8.80162 11.1709 0.130186 11.0707 0.0496574C10.9441 -0.052252 10.8039 -0.0255263 9.22631 0.401311ZM1.11129 29.1714V31H18.0452H34.979V29.1714V27.3428H18.0452H1.11129V29.1714Z"
        fill="url(#paint0_radial_3881_585)" fill-opacity="1" />
    <defs>
        <radialGradient id="paint0_radial_3881_585" cx="0" cy="0" r="1"
            gradientUnits="userSpaceOnUse"
            gradientTransform="translate(18) rotate(90) scale(41.2688 47.925)">
            <stop stop-color="white" />
            <stop offset="1" stop-color="white" stop-opacity="0" />
        </radialGradient>
    </defs>
</svg>
    