<svg width="34" height="54" viewBox="0 0 34 54" fill="none" xmlns="http://www.w3.org/2000/svg">
    <path fill-rule="evenodd" clip-rule="evenodd"
        d="M3.32246 0.066824C2.48258 0.428555 0.994996 3.54337 0.4854 6.0071C-0.446094 10.511 0.408374 15.0128 2.91736 18.8197C3.50768 19.7155 3.80659 19.9842 4.32876 20.0885C5.49725 20.322 6.5735 19.2117 6.24384 18.1128C6.18024 17.9005 5.90689 17.4 5.63651 17.0006C3.8384 14.3445 3.04342 10.7742 3.53653 7.56894C3.80575 5.81959 4.43696 4.00038 5.20257 2.76767C5.59752 2.13158 5.7073 1.32803 5.46313 0.859192C5.1546 0.266578 4.80529 0.0401268 4.14566 0.00530443C3.8123 -0.0123178 3.44186 0.0154346 3.32246 0.066824ZM29.4175 0.0678792C29.1249 0.193662 28.6499 0.767176 28.5678 1.09377C28.4478 1.57136 28.6004 2.23214 28.9788 2.87319C29.7794 4.22958 30.3965 6.07158 30.6343 7.81396C31.0552 10.8997 30.2318 14.4299 28.4915 17.0006C27.8694 17.9196 27.7303 18.3581 27.8824 18.9218C28.1452 19.8966 29.2543 20.3928 30.1848 19.9518C30.6481 19.7322 31.3896 18.6924 32.1715 17.1658C34.1946 13.2159 34.5558 8.5523 33.1706 4.26619C32.7422 2.94041 31.6907 0.84674 31.2287 0.399536C30.9042 0.0855015 30.7746 0.0334789 30.2462 0.00551547C29.9115 -0.0122123 29.5385 0.0158567 29.4175 0.0678792ZM15.7347 4.91326C14.0092 5.3631 12.7678 6.61945 12.3085 8.38072C11.4122 11.8173 14.6592 15.0601 18.1002 14.1649C20.0359 13.6615 21.3836 12.1768 21.6881 10.2126C22.0628 7.79476 20.4655 5.4491 18.0586 4.88245C17.1937 4.67889 16.604 4.6867 15.7347 4.91326ZM7.41804 5.00147C7.22658 5.0956 6.95483 5.36911 6.81398 5.60907C5.8491 7.25332 5.82194 11.532 6.76464 13.3774C7.3483 14.52 9.02205 14.5182 9.63065 13.3744C9.88392 12.8984 9.87726 12.6025 9.59082 11.6063C9.25281 10.4309 9.25789 8.5885 9.60234 7.41688C9.88096 6.46929 9.85941 5.94949 9.52214 5.47643C9.08746 4.86672 8.1305 4.65072 7.41804 5.00147ZM25.17 5.00084C24.3545 5.40225 24.1542 6.15336 24.5257 7.41688C24.8701 8.5885 24.8752 10.4309 24.5372 11.6063C24.2508 12.6025 24.2441 12.8984 24.4974 13.3744C24.7912 13.9266 25.2846 14.217 25.9286 14.2164C26.6096 14.216 27.0737 13.9445 27.3634 13.3774C28.2942 11.5553 28.2792 7.28097 27.3361 5.62775C26.9177 4.89416 25.9536 4.61516 25.17 5.00084ZM12.7848 16.266C12.7848 16.2846 9.90822 24.3626 6.3924 34.2173C2.87658 44.0719 0 52.2819 0 52.4617C0 52.9108 0.322156 53.4768 0.739511 53.7614C1.13299 54.0296 2.00383 54.0832 2.39224 53.8632C2.5167 53.7927 5.83779 51.337 9.77245 48.4061C13.7072 45.4752 16.9854 43.0825 17.0575 43.0891C17.1296 43.0956 20.3699 45.498 24.2583 48.4277C28.1466 51.3576 31.4319 53.8096 31.5588 53.8767C31.9302 54.0732 32.7627 54.0252 33.1579 53.7846C33.601 53.5148 33.9634 52.7444 33.8823 52.2448C33.8507 52.0508 31.0581 44.1392 27.6763 34.6636C24.2946 25.188 21.4357 17.1661 21.323 16.837L21.1182 16.2387L20.3544 16.6009C19.9342 16.8001 19.2482 17.0457 18.8299 17.1465C18.4116 17.2472 18.0689 17.3596 18.0685 17.3961C18.0681 17.4326 18.5706 18.8749 19.1852 20.6013C19.7999 22.3275 20.2635 23.7747 20.2154 23.817C20.1674 23.8593 19.4368 24.4188 18.5918 25.0602L17.0556 26.2265L15.379 24.9711C14.4568 24.2806 13.6873 23.7007 13.669 23.6824C13.6507 23.6641 14.1336 22.2592 14.7424 20.5604C15.351 18.8616 15.8486 17.4397 15.8482 17.4008C15.8478 17.3617 15.5051 17.2472 15.0868 17.1465C14.6685 17.0457 13.9794 16.7988 13.5555 16.5977C13.1316 16.3966 12.7848 16.2474 12.7848 16.266ZM14.1981 28.2301C14.2511 28.3159 11.3058 30.6082 11.2342 30.5367C11.2127 30.5152 11.4864 29.6852 11.8424 28.6922L12.4897 26.8867L13.3179 27.5163C13.7732 27.8625 14.1694 28.1838 14.1981 28.2301ZM21.63 27.4335C21.6909 27.6222 21.9604 28.3876 22.2288 29.1343L22.7167 30.4922L22.3733 30.2344C22.1845 30.0927 21.519 29.5941 20.8946 29.1266L19.7593 28.2767L20.5248 27.6902C20.9458 27.3677 21.3418 27.1008 21.4047 27.0972C21.4676 27.0935 21.569 27.2449 21.63 27.4335ZM19.843 32.4335C21.2783 33.5163 22.5146 34.4588 22.5903 34.5281C22.7419 34.6669 22.8542 34.5759 19.1135 37.3496L17.0421 38.8854L14.2532 36.7865C12.7191 35.6321 11.4547 34.6521 11.4432 34.6087C11.4084 34.4765 16.9485 30.3702 17.0958 30.4192C17.1715 30.4443 18.4077 31.3507 19.843 32.4335ZM11.7091 38.9619C13.1093 40.0065 14.245 40.8936 14.233 40.9329C14.221 40.9724 12.1905 42.5094 9.72067 44.3487C7.25088 46.188 5.17732 47.7349 5.11286 47.7864C5.04831 47.8378 5.81613 45.58 6.81905 42.769C7.82197 39.9581 8.69874 37.4883 8.76741 37.2807C8.85353 37.0198 8.93414 36.9277 9.02776 36.9828C9.10236 37.0266 10.309 37.9172 11.7091 38.9619ZM26.9637 42.405C28.0023 45.3148 28.8385 47.7073 28.8221 47.7215C28.8056 47.7356 26.7644 46.2177 24.2859 44.3483L19.7797 40.9493L22.3841 38.9942C23.8165 37.9189 25.008 37.056 25.0319 37.0766C25.0559 37.0973 25.9251 39.495 26.9637 42.405Z"
        fill="url(#paint0_radial_3881_617)" fill-opacity="1" />
    <defs>
        <radialGradient id="paint0_radial_3881_617" cx="0" cy="0" r="1"
            gradientUnits="userSpaceOnUse"
            gradientTransform="translate(17) rotate(90) scale(71.8875 45.2625)">
            <stop stop-color="white" />
            <stop offset="1" stop-color="white" stop-opacity="0" />
        </radialGradient>
    </defs>
</svg>
    