<svg width="26" height="31" viewBox="0 0 26 31" fill="none" xmlns="http://www.w3.org/2000/svg">
    <path fill-rule="evenodd" clip-rule="evenodd"
        d="M0.642266 0.187818C0.204319 0.446503 -0.0617877 1.01808 0.0123397 1.54084C0.0795716 2.01494 0.493306 2.52941 0.904611 2.65026C1.06203 2.69642 1.67566 2.73447 2.26821 2.73472L3.34564 2.73521V6.67226V10.6093L2.15067 10.6106C1.06117 10.6119 0.928041 10.6284 0.642266 10.7971C0.204319 11.0558 -0.0617877 11.6274 0.0123397 12.1502C0.0795716 12.6243 0.493306 13.1387 0.904611 13.2596C1.07825 13.3105 2.56315 13.3438 4.68072 13.344C8.14473 13.3445 8.17325 13.3431 8.51968 13.158C9.43969 12.6664 9.48286 11.4258 8.6018 10.7978C8.35536 10.6221 8.256 10.6093 7.13445 10.6093H5.93149V6.31437C5.93149 1.59712 5.92498 1.52186 5.46031 0.853469C5.30187 0.625618 5.05457 0.419482 4.73996 0.253215L4.26095 0L2.60829 0.00132607C1.04519 0.00265223 0.938698 0.0127642 0.642266 0.187818ZM17.411 0.155079C16.9365 0.46681 16.7936 0.711238 16.7613 1.26665C16.7359 1.7018 16.7599 1.82721 16.915 2.07213C17.0162 2.23169 17.2559 2.44619 17.4479 2.54872C17.7905 2.73173 17.8487 2.73521 20.6012 2.73521H23.4055V4.01579V5.29637L20.8001 5.32123C18.3018 5.3451 18.1817 5.35348 17.8812 5.5253C17.4646 5.76351 17.103 6.17421 16.9079 6.63082C16.7599 6.97712 16.7483 7.17032 16.7467 9.32907L16.745 11.6542L16.947 12.083C17.1652 12.5461 17.4431 12.8335 17.9505 13.1206C18.2656 13.2989 18.3469 13.3037 21.5016 13.328C23.6054 13.3443 24.8378 13.3224 25.039 13.2651C25.4732 13.1414 25.8859 12.6393 25.9552 12.1502C26.0293 11.6274 25.7632 11.0558 25.3253 10.7971C25.0169 10.615 24.9652 10.6121 22.1322 10.6106L19.2525 10.6093V9.32973V8.05015L21.8187 8.02429C24.3243 7.99901 24.3938 7.99387 24.7563 7.80497C25.2469 7.54944 25.727 6.96236 25.8742 6.43786C26.0407 5.84465 26.0424 2.20118 25.8764 1.60996C25.7008 0.984511 25.3522 0.545219 24.7998 0.253215L24.3208 0L20.9834 0.000331359C17.8644 0.000580015 17.6308 0.0106924 17.411 0.155079ZM0.866999 17.7427C0.490955 17.8612 0.0762805 18.398 0.0123397 18.8489C-0.0617877 19.3717 0.204319 19.9433 0.642266 20.202C0.950608 20.3841 1.00233 20.387 3.83539 20.3885L6.71507 20.3898V21.6745V22.9592L3.95293 22.9597C2.32737 22.96 1.073 22.9948 0.904611 23.0442C0.493306 23.165 0.0795716 23.6795 0.0123397 24.1536C-0.0617877 24.6764 0.204319 25.2479 0.642266 25.5066C0.950608 25.6887 1.00233 25.6917 3.83539 25.6931L6.71507 25.6944V26.9792V28.2639L3.95293 28.2644C2.32737 28.2646 1.073 28.2994 0.904611 28.3488C0.493306 28.4697 0.0795716 28.9841 0.0123397 29.4583C-0.061631 29.9801 0.204162 30.5518 0.642266 30.8131L0.955701 31L4.36431 30.9789C7.68994 30.9581 7.78052 30.9533 8.08635 30.7785C8.50291 30.5402 8.86453 30.1295 9.05965 29.6729C9.21433 29.3111 9.21911 29.1507 9.21911 24.3268C9.21911 19.6907 9.20947 19.3312 9.07626 19.0222C8.86359 18.5288 8.54491 18.1705 8.09575 17.9199L7.69456 17.696L4.40349 17.6807C2.54615 17.672 1.00554 17.699 0.866999 17.7427ZM17.4479 17.8411C17.2559 17.9437 17.0193 18.1543 16.9219 18.3092C16.7472 18.5873 16.745 18.6248 16.7467 21.2931C16.7484 23.8309 16.7582 24.018 16.9079 24.3683C17.103 24.8249 17.4646 25.2356 17.8812 25.4738C18.1817 25.6456 18.3019 25.654 20.7965 25.6779L23.3984 25.7027L23.4215 27.9306C23.4433 30.0307 23.4539 30.1716 23.6063 30.3871C23.8835 30.7796 24.1565 30.9415 24.5973 30.9747C25.1408 31.0157 25.554 30.7723 25.8092 30.2608L25.9913 29.8955L25.9909 24.4174C25.9906 20.9697 25.961 18.8271 25.911 18.6366C25.7978 18.2054 25.3101 17.7638 24.8701 17.694C24.419 17.6225 23.896 17.8555 23.6334 18.245C23.4469 18.5215 23.4444 18.551 23.4215 20.742L23.3983 22.9592H21.3254H19.2525V20.775C19.2525 18.646 19.248 18.5837 19.0755 18.3092C18.8807 17.999 18.3141 17.6546 17.9987 17.6546C17.8877 17.6546 17.6399 17.7384 17.4479 17.8411Z"
        fill="url(#paint0_radial_3881_577)" fill-opacity="1" />
    <defs>
        <radialGradient id="paint0_radial_3881_577" cx="0" cy="0" r="1"
            gradientUnits="userSpaceOnUse"
            gradientTransform="translate(13) rotate(90) scale(41.2688 34.6125)">
            <stop stop-color="white" />
            <stop offset="1" stop-color="white" stop-opacity="0" />
        </radialGradient>
    </defs>
</svg>
    