<svg width="30" height="30" viewBox="0 0 30 30" fill="none" xmlns="http://www.w3.org/2000/svg">
    <path fill-rule="evenodd" clip-rule="evenodd"
        d="M4.6875 0.0845437C3.32098 0.463857 2.30631 1.49826 1.95809 2.86697C1.81471 3.43072 1.86621 4.46324 2.06426 4.99455C2.47617 6.09964 3.26104 6.88689 4.38035 7.31789C4.74012 7.45639 4.85127 7.47 5.625 7.47C6.39873 7.47 6.50988 7.45639 6.86965 7.31789C7.98644 6.88789 8.76076 6.11266 9.19025 4.99455C9.32859 4.63436 9.34219 4.52308 9.34219 3.74844C9.34219 2.9738 9.32859 2.86252 9.19025 2.50233C8.75988 1.38199 7.9749 0.597432 6.86965 0.18298C6.36316 -0.00697012 5.20523 -0.0591799 4.6875 0.0845437ZM14.0625 0.0861862C13.0069 0.362781 12.0942 1.10774 11.6338 2.06857C11.4926 2.36335 11.3485 2.74443 11.3135 2.91537C11.2219 3.36391 11.2355 4.254 11.3402 4.66006C11.6933 6.02983 12.7384 7.06746 14.1196 7.41967C14.6827 7.56322 15.714 7.51165 16.2446 7.31337C17.3509 6.90003 18.1479 6.1021 18.5607 4.99455C18.7588 4.46324 18.8103 3.43072 18.6669 2.86697C18.3151 1.48418 17.2787 0.437869 15.9105 0.084309C15.4726 -0.02891 14.4979 -0.0279127 14.0625 0.0861862ZM23.4375 0.0861862C22.3819 0.362781 21.4692 1.10774 21.0088 2.06857C20.7035 2.706 20.625 3.04924 20.625 3.74844C20.625 4.447 20.7035 4.79088 21.0075 5.42555C21.4225 6.29176 22.1504 6.94057 23.1304 7.31789C23.4901 7.45639 23.6013 7.47 24.375 7.47C25.1487 7.47 25.2599 7.45639 25.6196 7.31789C26.739 6.88689 27.5238 6.09964 27.9357 4.99455C28.1338 4.46324 28.1853 3.43072 28.0419 2.86697C27.6901 1.48418 26.6537 0.437869 25.2855 0.084309C24.8476 -0.02891 23.8729 -0.0279127 23.4375 0.0861862ZM2.10246 9.46107C1.60148 9.64029 1.1891 10.0148 0.985664 10.4753C0.905977 10.6556 0.752227 11.6822 0.437461 14.1354C0.196875 16.0107 0 17.6759 0 17.8358C0 18.1994 0.115137 18.4273 0.395098 18.6177C0.596426 18.7547 0.663691 18.7661 1.27336 18.7661C1.67344 18.7661 1.93359 18.7891 1.93359 18.8246C1.93359 19.049 2.70937 26.4819 2.75695 26.7135C2.86781 27.2529 3.21961 27.698 3.76629 27.9904C4.00582 28.1186 4.06488 28.1228 5.625 28.1228C7.19279 28.1228 7.24312 28.1192 7.48799 27.9883C7.87559 27.7811 8.16492 27.4874 8.3458 27.1175C8.50283 26.7965 8.52551 26.6362 8.82527 23.7266C8.99836 22.0469 9.14004 20.5934 9.14021 20.4966C9.14045 20.3471 9.09773 20.2966 8.85563 20.1604C8.06502 19.7159 7.55754 18.8341 7.55361 17.8979C7.55191 17.502 8.28111 11.5154 8.44424 10.5857C8.47793 10.3938 8.58246 10.0667 8.67656 9.85892C8.77066 9.65114 8.84766 9.45843 8.84766 9.43063C8.84766 9.35495 7.22268 9.36821 7.07133 9.44512C7.00096 9.4809 6.64676 9.80384 6.28418 10.1628L5.625 10.8154L4.96582 10.1628C4.6033 9.80384 4.24904 9.4809 4.17867 9.44512C3.99545 9.35196 2.37246 9.36445 2.10246 9.46107ZM11.4775 9.46107C10.9757 9.64058 10.5641 10.0148 10.3597 10.4773C10.2789 10.6604 10.1279 11.6685 9.81158 14.1387C9.57147 16.0135 9.375 17.6777 9.375 17.837C9.375 18.1994 9.49037 18.4275 9.7701 18.6177C9.97143 18.7547 10.0387 18.7661 10.6484 18.7661C11.1321 18.7661 11.3086 18.7854 11.3086 18.8383C11.3086 19.1468 12.0804 28.3107 12.1272 28.5575C12.2334 29.1181 12.582 29.5685 13.1413 29.8677C13.3808 29.9958 13.4399 30 15 30C16.5678 30 16.6181 29.9964 16.863 29.8655C17.4094 29.5734 17.8198 29.0204 17.9005 28.4677C17.9329 28.2464 18.6914 19.0236 18.6914 18.852C18.6914 18.7816 18.8109 18.7661 19.3516 18.7661C19.9613 18.7661 20.0286 18.7547 20.2299 18.6177C20.5106 18.4268 20.625 18.1993 20.625 17.8319C20.625 17.6699 20.4269 15.9989 20.1848 14.1187C19.6981 10.3394 19.6923 10.314 19.2196 9.88649C18.7526 9.46401 18.5872 9.41373 17.5887 9.39038C17.095 9.37883 16.6208 9.38704 16.5348 9.40863C16.4468 9.43074 16.0768 9.74623 15.6882 10.1306L14.9978 10.8132L14.3397 10.1617C13.9778 9.80337 13.624 9.4809 13.5537 9.44512C13.3704 9.35196 11.7475 9.36445 11.4775 9.46107ZM21.1377 9.41432C21.1189 9.43315 21.1521 9.53211 21.2115 9.6343C21.5079 10.1443 21.5912 10.6759 22.4626 17.6222C22.4747 17.719 22.4621 17.9795 22.4345 18.2011C22.3351 18.9989 21.7901 19.8261 21.1345 20.1743C20.9207 20.2879 20.8594 20.3527 20.8594 20.465C20.8594 20.6382 21.4293 26.2616 21.4809 26.5976C21.5688 27.1695 21.9551 27.6906 22.512 27.9883C22.7521 28.1166 22.8313 28.1236 24.2381 28.1411C25.165 28.1526 25.7995 28.1359 25.9465 28.0963C26.5035 27.9462 27.0589 27.3961 27.2122 26.843C27.2741 26.6194 28.0755 19.0938 28.0676 18.8101C28.0669 18.7859 28.3635 18.7661 28.7266 18.7661C29.3363 18.7661 29.4036 18.7547 29.6049 18.6177C29.8856 18.4268 30 18.1993 30 17.8319C30 17.6699 29.8019 15.9989 29.5598 14.1187C29.0731 10.3394 29.0673 10.314 28.5946 9.88649C28.1276 9.46401 27.9622 9.41373 26.9637 9.39038C26.47 9.37883 25.9958 9.38704 25.9098 9.40863C25.8218 9.43074 25.4518 9.74623 25.0632 10.1306L24.3728 10.8132L23.7147 10.1617C23.3528 9.80337 22.999 9.4809 22.9287 9.44512C22.7968 9.37812 21.2012 9.35067 21.1377 9.41432Z"
        fill="url(#paint0_radial_3881_609)" fill-opacity="1" />
    <defs>
        <radialGradient id="paint0_radial_3881_609" cx="0" cy="0" r="1"
            gradientUnits="userSpaceOnUse"
            gradientTransform="translate(15) rotate(90) scale(39.9375)">
            <stop stop-color="white" />
            <stop offset="1" stop-color="white" stop-opacity="0" />
        </radialGradient>
    </defs>
</svg>
    