<svg width="30" height="34" viewBox="0 0 30 34" fill="none" xmlns="http://www.w3.org/2000/svg">
    <path fill-rule="evenodd" clip-rule="evenodd"
        d="M12.0316 0.135627C9.40036 0.608657 7.25097 1.76548 5.42728 3.69013C3.2724 5.96441 2.11989 8.74351 1.95272 12.0687L1.90851 12.9483H1.73034C1.44632 12.9483 0.89659 13.1947 0.614653 13.4484C0.471853 13.5768 0.275179 13.8529 0.177537 14.0619L0 14.4419V18.4247V22.4076L0.146021 22.7466C0.414758 23.3707 1.02531 23.8336 1.65171 23.8881C1.94968 23.9141 1.98947 23.9349 1.98947 24.0644C1.98947 24.2968 2.23408 25.029 2.44509 25.4279C2.91872 26.3233 3.77691 27.0655 4.72326 27.3983L5.24211 27.5808L8.33684 27.6037L11.4316 27.6266L11.6211 27.8137C11.9525 28.141 12.0006 28.1495 13.5274 28.1494C15.1453 28.1493 15.28 28.1185 15.5557 27.6849C15.6963 27.4639 15.7025 27.4062 15.6833 26.5017L15.6632 25.5508L15.4032 25.2961C15.0743 24.9739 14.8622 24.9421 13.257 24.9747C11.9618 25.001 11.7675 25.0493 11.5494 25.3991L11.4449 25.5666L8.46979 25.5471C5.52575 25.5277 5.49145 25.5259 5.18242 25.3761C5.01063 25.2929 4.7748 25.1484 4.65834 25.055C4.43716 24.8777 4.05246 24.3075 3.98059 24.0505C3.94408 23.9199 3.96183 23.9011 4.1213 23.9011C4.686 23.9011 5.39842 23.3708 5.65705 22.758C5.77851 22.4702 5.80939 22.2651 5.8296 21.6107L5.85423 20.8138L5.29863 20.6936C4.59139 20.5405 4.16318 20.3263 3.72707 19.9075C3.31516 19.5118 2.96514 18.8226 2.8728 18.2256C2.77124 17.5683 2.79581 13.862 2.90539 13.3183C3.05931 12.5546 3.49175 11.932 4.14474 11.5339C4.45339 11.3458 5.38598 11.0939 7.2588 10.6928C9.94775 10.1169 12.1957 9.88122 15 9.88122C17.8043 9.88122 20.0523 10.1169 22.7412 10.6928C24.7803 11.1295 25.5423 11.3413 25.9165 11.5755C26.5325 11.9608 26.9439 12.5704 27.0954 13.3224C27.2043 13.8622 27.2283 17.5718 27.1272 18.2256C27.0349 18.8226 26.6848 19.5118 26.2729 19.9075C25.8368 20.3263 25.4086 20.5405 24.7014 20.6936L24.1458 20.8138L24.1704 21.6107C24.1906 22.2651 24.2215 22.4702 24.3429 22.758C24.6072 23.3842 25.3141 23.9011 25.906 23.9011H26.1158V28.5655C26.1158 32.9776 26.1221 33.2423 26.2328 33.4611C26.596 34.1796 27.5934 34.1796 27.9567 33.4611C28.0674 33.2423 28.0737 32.9778 28.0737 28.5739V23.918L28.3827 23.8868C28.985 23.826 29.5916 23.356 29.854 22.7466L30 22.4076V18.4247V14.4419L29.8225 14.0619C29.7248 13.8529 29.5281 13.5768 29.3853 13.4484C29.1034 13.1947 28.5537 12.9483 28.2697 12.9483H28.0915L28.0473 12.0687C27.8801 8.74351 26.7276 5.96441 24.5727 3.69013C22.7152 1.72977 20.4806 0.547587 17.803 0.108742C16.8405 -0.0489789 12.9579 -0.0309233 12.0316 0.135627ZM13.4526 11.1594C10.9857 11.2678 9.01743 11.5591 6.03158 12.2577C5.49316 12.3837 4.97072 12.5212 4.87055 12.5633C4.59688 12.6783 4.33712 12.9329 4.18143 13.2388C4.04552 13.5059 4.04211 13.5682 4.04211 15.8027C4.04211 17.5728 4.06175 18.1513 4.1287 18.3504C4.2372 18.6732 4.59322 19.0928 4.89695 19.2557C5.03495 19.3296 6.48208 19.6523 8.46973 20.0522C11.3206 20.6258 11.88 20.7204 12.2842 20.6974C13.0556 20.6535 13.6489 20.2384 13.942 19.5374C14.0299 19.327 14.2968 18.4606 14.5352 17.6121C14.7735 16.7635 14.9826 16.0692 15 16.0692C15.0174 16.0692 15.2265 16.7635 15.4648 17.6121C15.7032 18.4606 15.9701 19.327 16.058 19.5374C16.3511 20.2384 16.9444 20.6535 17.7158 20.6974C18.12 20.7204 18.6794 20.6258 21.5303 20.0522C23.5179 19.6523 24.9651 19.3296 25.1031 19.2557C25.4068 19.0928 25.7628 18.6732 25.8713 18.3504C25.9383 18.1513 25.9579 17.5728 25.9579 15.8027C25.9579 13.5682 25.9545 13.5059 25.8186 13.2388C25.6629 12.9329 25.4031 12.6783 25.1295 12.5633C24.9105 12.4713 23.3593 12.105 22.0105 11.8268C19.3653 11.2811 16.2358 11.0371 13.4526 11.1594Z"
        fill="url(#paint0_radial_3881_593)" fill-opacity="1" />
    <defs>
        <radialGradient id="paint0_radial_3881_593" cx="0" cy="0" r="1"
            gradientUnits="userSpaceOnUse"
            gradientTransform="translate(15) rotate(90) scale(45.2625 39.9375)">
            <stop stop-color="white" />
            <stop offset="1" stop-color="white" stop-opacity="0" />
        </radialGradient>
    </defs>
</svg>
    