<svg width="9" height="20" viewBox="0 0 9 20" fill="none" xmlns="http://www.w3.org/2000/svg">
    <path fill-rule="evenodd" clip-rule="evenodd"
        d="M5.7853 0.0786615C4.74911 0.34504 4.0031 1.17791 3.91824 2.16309C3.79196 3.62911 5.20299 4.84564 6.80332 4.65048C7.43835 4.57304 7.86836 4.36507 8.32941 3.91237C8.66512 3.58274 8.88435 3.20859 8.9649 2.8277C9.03418 2.50034 8.9965 1.87017 8.89049 1.58303C8.7009 1.06951 8.20459 0.532568 7.67459 0.26748C7.14143 0.00086682 6.38275 -0.0749732 5.7853 0.0786615ZM3.20697 6.84081C2.56004 6.95489 0.449056 7.6457 0.29301 7.7944C0.254207 7.83139 0 8.79854 0 8.90917C0 8.93001 0.156883 8.89491 0.348584 8.83114C0.895841 8.64913 1.18427 8.59526 1.61532 8.59444C2.60896 8.59256 2.92815 8.82798 3.01073 9.62375C3.07061 10.2009 2.92317 10.8759 2.14652 13.5811C1.83841 14.6542 1.54194 15.7537 1.48768 16.0244C1.35163 16.7032 1.31836 17.5457 1.41147 17.9563C1.63368 18.9363 2.42969 19.661 3.57305 19.9241C4.01633 20.0261 5.32983 20.0251 5.81637 19.9223C6.164 19.8489 6.92455 19.5935 7.9074 19.2203L8.46466 19.0087L8.60282 18.458C8.67879 18.1551 8.73133 17.8979 8.71958 17.8863C8.70779 17.8748 8.57099 17.9078 8.4155 17.9597C7.46201 18.2779 6.45522 18.2769 6.02517 17.9572C5.76156 17.7612 5.62997 17.3171 5.67483 16.7747C5.73483 16.0487 5.82191 15.6875 6.53326 13.2131C7.26318 10.6741 7.26242 10.6776 7.31341 9.63614C7.34409 9.01019 7.28302 8.68248 7.04893 8.21653C6.72325 7.56837 6.09795 7.1043 5.26756 6.89449C4.71572 6.75504 3.82502 6.73186 3.20697 6.84081Z"
        fill="white" />
</svg>
    