<svg width="1.66vh" height="1.66vh" viewBox="0 0 18 18" fill="none" xmlns="http://www.w3.org/2000/svg">
    <path fill-rule="evenodd" clip-rule="evenodd"
        d="M7.04732 0.0653836C6.80485 0.213252 6.82165 -0.0357616 6.8117 3.55797L6.80274 6.80266L3.55595 6.81163C0.334273 6.82052 0.308398 6.82115 0.206797 6.89351C-0.00459744 7.04405 8.02877e-06 6.99708 8.02877e-06 8.99994C8.02877e-06 11.0028 -0.00459744 10.9558 0.206797 11.1064C0.308398 11.1787 0.334273 11.1794 3.55595 11.1883L6.80274 11.1972L6.8117 14.444C6.8206 17.6657 6.82123 17.6916 6.89358 17.7932C7.04412 18.0046 6.99715 18 9 18C11.0028 18 10.9559 18.0046 11.1064 17.7932C11.1788 17.6916 11.1794 17.6657 11.1883 14.444L11.1973 11.1972L14.444 11.1883C17.6657 11.1794 17.6916 11.1787 17.7932 11.1064C18.0046 10.9558 18 11.0028 18 8.99994C18 6.99708 18.0046 7.04405 17.7932 6.89351C17.6916 6.82115 17.6657 6.82052 14.444 6.81163L11.1973 6.80266L11.1883 3.55586C11.1794 0.334155 11.1788 0.30828 11.1064 0.206677C10.9558 -0.00478871 11.0036 -0.000112902 8.99297 2.77239e-05C7.26402 0.000133193 7.1479 0.00403556 7.04732 0.0653836Z"
        fill="white" />
</svg>
    