<svg width="1.29vh" height="2.03vh" viewBox="0 0 14 22" fill="none"
    xmlns="http://www.w3.org/2000/svg">
    <path fill-rule="evenodd" clip-rule="evenodd"
        d="M5.95439 0.0536111C4.56514 0.318291 3.42451 0.947802 2.44292 1.99155C1.51956 2.97339 0.93871 4.09679 0.640007 5.47847C0.477861 6.22858 0.458217 7.44188 0.597152 8.12793C1.05234 10.3755 2.58876 13.0469 5.16683 16.0735C5.5158 16.4832 6.01656 17.0433 6.27959 17.3182L6.75785 17.8179L7.01013 17.818L7.26241 17.8181L8.04721 16.9576C10.9975 13.7227 12.8712 10.656 13.3776 8.23325C13.7182 6.60351 13.3724 4.67899 12.4728 3.19845C11.4906 1.58208 10.0734 0.52454 8.3326 0.108966C7.85073 -0.00604935 6.43988 -0.0389037 5.95439 0.0536111ZM7.54613 4.724C8.61765 5.02476 9.31975 6.1683 9.14614 7.33009C8.97139 8.49947 8.0934 9.3096 7.0008 9.3096C6.1437 9.3096 5.42006 8.82509 5.04882 8.00261C4.24503 6.22186 5.76642 4.22447 7.54613 4.724ZM2.7676 15.7948C1.13548 16.4364 0.150905 17.3304 0.0188198 18.2908C-0.0625149 18.8819 0.119323 19.4212 0.573275 19.9354C1.41602 20.8898 2.95923 21.5713 5.02689 21.9021C5.84262 22.0326 8.15899 22.0326 8.97472 21.9021C10.2297 21.7013 11.3152 21.363 12.1538 20.9112C13.2182 20.3377 13.874 19.5925 13.9813 18.8347C14.1257 17.8142 13.4313 16.8628 12.0199 16.1478C11.5385 15.9039 10.7694 15.6024 10.6861 15.6248C10.6263 15.641 9.66582 16.7966 9.66492 16.8534C9.66463 16.8727 9.70506 16.9023 9.75477 16.9193C9.99049 16.9999 10.4356 17.3703 10.5688 17.5966C11.0427 18.4018 10.3446 19.2252 8.83916 19.6368C6.79052 20.1968 4.12065 19.6916 3.44539 18.6163C3.08119 18.0363 3.36786 17.3739 4.15885 16.9679C4.25697 16.9175 4.33721 16.8624 4.33721 16.8454C4.33721 16.7759 3.36215 15.6387 3.29366 15.6283C3.25285 15.6222 3.01612 15.6971 2.7676 15.7948Z"
        fill="white" />
</svg>