<svg width="12" height="14" viewBox="0 0 12 14" fill="none" xmlns="http://www.w3.org/2000/svg">
    <path fill-rule="evenodd" clip-rule="evenodd"
        d="M0.560428 0.497793C0.210196 0.836937 0.0363018 1.02531 0.0147301 1.08891C-0.0146783 1.17567 -0.0069822 1.20088 0.12346 1.44564C0.456474 2.07039 0.591522 2.67091 0.588545 3.51367C0.586635 4.05396 0.546553 4.34396 0.366395 5.12162C0.129077 6.14575 0.0607947 6.61544 0.015039 7.53785C-0.0304078 8.45436 0.0231565 8.9586 0.230532 9.56637C0.734716 11.0442 2.0716 12.1303 5.3472 13.7235C5.69089 13.8907 5.94927 14 6.00053 14C6.0521 14 6.31885 13.8862 6.6817 13.7094C8.94025 12.6092 10.1807 11.8051 10.9369 10.9513C11.346 10.4894 11.5996 10.0674 11.7724 9.56102C11.9763 8.96325 12.0297 8.45526 11.9853 7.53547C11.9406 6.61109 11.8652 6.10635 11.6072 5.00391C11.4228 4.21632 11.3714 3.69698 11.4198 3.11035C11.4764 2.42476 11.6001 1.96801 11.8632 1.47279C12.0075 1.20127 12.0157 1.17567 11.9862 1.08872C11.9648 1.02536 11.7902 0.836336 11.4406 0.497793C10.8393 -0.0844922 10.8804 -0.0683594 10.4608 0.112602C9.07454 0.710555 7.79279 0.717664 6.39163 0.13516C6.21282 0.0608125 6.03429 0 5.99488 0C5.95551 0 5.82445 0.043832 5.70367 0.0974258C4.30074 0.719824 2.9672 0.722449 1.52621 0.105738C1.12242 -0.0671016 1.15921 -0.0820312 0.560428 0.497793ZM6.15746 3.27824C6.2333 3.32328 6.29793 3.45171 6.67285 4.30254C6.95205 4.9362 7.11768 5.27975 7.14788 5.2879C7.17341 5.29479 7.62403 5.35907 8.14928 5.43071L9.10428 5.56098L9.19916 5.65234C9.28455 5.73456 9.29247 5.75507 9.27843 5.857C9.26396 5.96206 9.21045 6.02126 8.54013 6.6742L7.81745 7.37814L8.10274 8.48515C8.25964 9.09398 8.38803 9.62508 8.38803 9.66536C8.38803 9.70982 8.35579 9.76998 8.30593 9.81851C8.14788 9.97237 8.11701 9.96114 7.01449 9.34886C6.44615 9.03323 6.00474 8.8045 5.97758 8.81155C5.9516 8.81833 5.49536 9.06563 4.96374 9.36116C4.16426 9.80555 3.97832 9.89844 3.8881 9.89844C3.76445 9.89844 3.65578 9.81438 3.62497 9.69495C3.61258 9.64688 3.70089 9.25594 3.89467 8.5009L4.18283 7.37833L3.44852 6.66159C2.78923 6.01811 2.71421 5.93578 2.71421 5.85586C2.71421 5.73264 2.78097 5.61889 2.87439 5.58294C2.91759 5.56629 3.36375 5.49664 3.86582 5.42817C4.3679 5.3597 4.80563 5.29788 4.83855 5.2908C4.88731 5.28032 4.97809 5.09715 5.32765 4.30382C5.70308 3.45182 5.76774 3.32328 5.8436 3.27824C5.8913 3.24994 5.96191 3.22675 6.00053 3.22675C6.03915 3.22675 6.10977 3.24994 6.15746 3.27824Z"
        fill="white" />
</svg>
    