<svg width="20" height="20" viewBox="0 0 20 20" fill="none" xmlns="http://www.w3.org/2000/svg">
    <path fill-rule="evenodd" clip-rule="evenodd"
        d="M3.7037 0.0606061C3.41935 0.12968 3.07272 0.320363 2.89098 0.507651C2.79573 0.6058 2.27434 1.58751 1.37355 3.36459L0.00122004 6.07201L0.000610019 11.9479L0 17.8238L0.101917 18.1502C0.364488 18.9912 0.955076 19.5981 1.78649 19.8813L2.13508 20H10H17.8649L18.2135 19.8813C19.0449 19.5981 19.6355 18.9912 19.8981 18.1502L20 17.8238L19.9994 11.9479L19.9988 6.07201L18.6264 3.36459C17.7161 1.56857 17.2047 0.606279 17.1074 0.505954C16.9202 0.313007 16.5359 0.110442 16.2397 0.0485497C15.8953 -0.0234406 4.00257 -0.0119935 3.7037 0.0606061ZM16.0783 1.50794C16.1175 1.54716 16.5993 2.4775 17.149 3.57538L18.1483 5.57148H10H1.85168L2.85102 3.57538C3.40065 2.4775 3.88248 1.54716 3.92174 1.50794C3.98723 1.44252 4.49281 1.4366 10 1.4366C15.5072 1.4366 16.0128 1.44252 16.0783 1.50794ZM7.56035 10.3701C7.87076 10.5811 7.88379 10.6247 7.91224 11.5483C7.93451 12.2701 7.95094 12.4147 8.03351 12.6166C8.43765 13.6047 9.50392 14.1641 10.4927 13.9069C11.161 13.733 11.7045 13.2572 11.9665 12.6166C12.0491 12.4147 12.0655 12.2701 12.0878 11.5483C12.111 10.7929 12.1221 10.7019 12.2045 10.5908C12.5215 10.1635 13.0564 10.1637 13.3729 10.5912C13.4583 10.7066 13.4638 10.7665 13.4595 11.5487C13.4557 12.2557 13.4408 12.4355 13.3619 12.726C13.0084 14.027 12.026 14.9667 10.715 15.258C10.1945 15.3737 9.44013 15.3315 8.93033 15.158C7.77237 14.7641 6.95068 13.8941 6.63847 12.7313C6.5593 12.4365 6.54427 12.2552 6.54048 11.5487C6.53621 10.7665 6.54166 10.7066 6.6271 10.5912C6.78144 10.3827 6.98388 10.2722 7.21133 10.2722C7.35216 10.2722 7.46139 10.3028 7.56035 10.3701Z"
        fill="white" />
</svg>
    