<svg width="15" height="15" viewBox="0 0 15 15" fill="none" xmlns="http://www.w3.org/2000/svg">
    <path fill-rule="evenodd" clip-rule="evenodd"
        d="M8.1869 0.0531819C8.0902 0.081074 7.91872 0.152562 7.80584 0.212097C7.61824 0.310979 7.2829 0.638214 3.90396 4.01937C0.0207935 7.90511 0.122799 7.79644 0.0273577 8.14846C-0.0252711 8.34262 0.000720982 8.70519 0.0822722 8.91424C0.118813 9.00787 0.212057 9.15949 0.289476 9.25117C0.549807 9.55933 5.81222 14.7872 5.91334 14.8381C6.33265 15.0491 6.74591 15.0539 7.15012 14.8524C7.24123 14.8069 8.35238 13.7156 10.9785 11.0923C14.4821 7.59235 14.6845 7.38453 14.7927 7.17646C15.0098 6.75895 14.9999 6.91813 14.9999 3.8275C14.9999 1.23016 14.9966 1.04769 14.9465 0.887221C14.8204 0.483312 14.5149 0.177817 14.1109 0.0517462C13.9502 0.00158729 13.7707 -0.00154764 11.1513 0.000415352C8.59897 0.00231975 8.34784 0.00680242 8.1869 0.0531819ZM11.7509 2.62567C12.2378 2.85362 12.502 3.29013 12.4742 3.82044C12.4254 4.74978 11.3735 5.29233 10.5922 4.79115C9.93713 4.37098 9.82262 3.4724 10.3515 2.90254C10.5978 2.63719 10.904 2.51498 11.2931 2.52679C11.5167 2.53359 11.5863 2.54862 11.7509 2.62567Z"
        fill="white" />
</svg>
    