<svg width="16" height="11" viewBox="0 0 16 11" fill="none" xmlns="http://www.w3.org/2000/svg">
    <path fill-rule="evenodd" clip-rule="evenodd"
        d="M6.98333 0.00892355C5.2947 0.113149 4.43304 0.290185 3.67855 0.687784C3.13699 0.973243 3.00544 1.13304 2.58618 2.01491L2.24214 2.73861L1.72144 2.74002C1.06619 2.74181 1.07354 2.73651 1.07354 3.20437C1.07354 3.55573 1.11243 3.67293 1.25056 3.73779C1.33327 3.7766 1.31851 3.78813 0.887962 4.02084C0.32573 4.32471 0.234311 4.39487 0.189304 4.55717C-0.0279899 5.3404 -0.0628811 7.76694 0.10887 10.148L0.130573 10.4491H0.326598H0.522623L0.522823 10.5609C0.52309 10.735 0.585994 10.9265 0.655443 10.9648C0.695209 10.9868 1.25056 10.9997 2.15646 10.9997C3.81591 10.9997 3.70152 11.0241 3.74142 10.6606L3.76463 10.4491H8.02005H12.2754V10.6234C12.2754 10.7953 12.3171 10.9239 12.389 10.9733C12.4092 10.9872 13.0807 10.9988 13.8813 10.9991C15.5544 10.9997 15.4318 11.0258 15.4687 10.6616L15.4903 10.4491H15.6819H15.8736L15.8941 10.1996C16.0412 8.4127 16.034 5.93035 15.8789 4.96083C15.7827 4.35901 15.7566 4.32643 15.113 4.00229L14.6836 3.78599L14.7808 3.72688C14.9088 3.64887 14.9576 3.47242 14.9416 3.14498C14.9221 2.74732 14.9187 2.74522 14.2846 2.73369L13.7651 2.72423L13.5271 2.19088C13.3963 1.89754 13.2253 1.55345 13.1472 1.42624C12.6804 0.665934 11.7037 0.260283 9.88868 0.0729936C9.41626 0.0242701 7.44076 -0.0193265 6.98333 0.00892355ZM9.19353 1.16046C10.4916 1.27064 11.4827 1.51987 11.8915 1.83891C12.106 2.00635 12.3575 2.35188 12.57 2.77092C12.746 3.11801 12.9836 3.67468 12.9643 3.69464C12.9497 3.70964 3.05191 3.70789 3.03736 3.69285C3.01863 3.67358 3.31949 2.98677 3.47762 2.68786C3.68957 2.28713 3.91047 1.99781 4.13384 1.82831C4.55063 1.51213 5.47834 1.27924 6.783 1.16332C7.26957 1.1201 8.69774 1.11842 9.19353 1.16046ZM2.02511 5.03347C2.38521 5.0984 2.75382 5.20252 3.01008 5.31167C3.2659 5.42061 3.65037 5.66563 3.77254 5.79756L3.86723 5.89982L3.70577 5.92092C2.97919 6.01585 1.39881 6.07624 1.24823 6.01482C1.11868 5.962 1.08245 5.83864 1.08018 5.44256C1.07728 4.93571 1.06339 4.95436 1.43266 4.96957C1.60241 4.97655 1.86902 5.00529 2.02511 5.03347ZM14.876 4.99885C14.9134 5.011 14.9189 5.08904 14.9047 5.40031C14.8763 6.02002 14.8532 6.04472 14.3016 6.04469C13.9246 6.04469 12.8781 5.98771 12.5461 5.9491C12.3146 5.92219 12.2285 5.85382 12.2932 5.74822C12.3391 5.67314 12.7528 5.41648 13.0024 5.30823C13.5599 5.0664 14.5706 4.89951 14.876 4.99885ZM9.12899 7.2337C10.1126 7.35523 11.0726 7.60838 11.6181 7.89006C11.9483 8.06055 11.9702 8.13295 11.8175 8.548L11.7258 8.79746H8.00903H4.29224L4.17264 8.53788C3.96927 8.09655 4.04346 8.00278 4.79657 7.74912C6.38794 7.21312 7.69948 7.05711 9.12899 7.2337Z"
        fill="white" />
</svg>
    