<svg width="337" height="212" viewBox="0 0 337 212" fill="none" xmlns="http://www.w3.org/2000/svg">
<path d="M-53.0283 23.3103C-53.0283 11.2766 -41.9834 2.27399 -30.1969 4.70065L194.516 50.9656C197.495 51.579 200.579 51.4681 203.506 50.642L358.841 6.81624C370.964 3.39566 383 12.5053 383 25.1024V154.664C383 165.972 373.183 174.777 361.942 173.552L83.7391 143.24C81.5248 142.999 79.2853 143.149 77.1229 143.683L-29.4701 170.025C-41.4493 172.985 -53.0283 163.919 -53.0283 151.58V23.3103Z" fill="#D9BC56"/>
<path d="M-62 59.1975C-62 47.1638 -50.9551 38.1612 -39.1685 40.5879L185.544 86.8528C188.524 87.4662 191.607 87.3553 194.535 86.5292L349.869 42.7034C361.993 39.2829 374.028 48.3925 374.028 60.9896V190.551C374.028 201.859 364.212 210.664 352.97 209.44L74.7675 179.127C72.5531 178.886 70.3136 179.036 68.1512 179.571L-38.4418 205.912C-50.421 208.873 -62 199.807 -62 187.467V59.1975Z" fill="#CBAF4D"/>
<path d="M-53.0283 42.1512C-53.0283 30.1174 -41.9834 21.1148 -30.1969 23.5415L194.516 69.8064C197.495 70.4199 200.579 70.3089 203.506 69.4829L358.841 25.6571C370.964 22.2365 383 31.3461 383 43.9432V173.505C383 184.813 373.183 193.618 361.942 192.393L83.7391 162.081C81.5248 161.84 79.2853 161.99 77.1229 162.524L-29.4701 188.866C-41.4493 191.826 -53.0283 182.76 -53.0283 170.421V42.1512Z" fill="url(#paint0_linear_22_10)"/>
<defs>
<linearGradient id="paint0_linear_22_10" x1="164.986" y1="18.8408" x2="164.986" y2="194.688" gradientUnits="userSpaceOnUse">
<stop stopColor="#F5D76A"/>
<stop offset="1" stopColor="#D9BC56"/>
</linearGradient>
</defs>
</svg>
