<svg width="337" height="483" viewBox="0 0 337 483" fill="none" xmlns="http://www.w3.org/2000/svg">
  <g>
    <path d="M121 145.882C121 167.486 103.539 185 82 185C60.4609 185 43 167.486 43 145.882C43 124.277 82 36.528 82 106.763C82 176.999 121 124.277 121 145.882Z" fill="#00F8B9"/>
    <path d="M166.12 243.895C166.12 265.462 103.498 307 81.9734 307C60.449 307 43 289.516 43 267.95C43 246.383 127.147 134.731 127.147 204.845C127.147 274.958 191.365 103.668 166.12 243.895Z" fill="#0032E5"/>
    <path d="M294 288.823C294 310.207 248.817 301.052 209.881 301.052C170.945 301.052 153 310.207 153 288.823C153 267.44 197.864 278.173 209.881 239.015C221.898 199.857 294 210.857 294 288.823Z" fill="#F87700"/>
    <path d="M280.318 161.239C166.475 276.796 235.353 173.564 196.606 173.564C157.858 173.564 140 182.79 140 161.239C140 139.687 154.516 132.297 166.475 92.8308C178.434 53.3649 335.406 105.322 280.318 161.239Z" fill="#F86969"/>
  </g>
</svg>
