<svg xmlns="http://www.w3.org/2000/svg" width="33" height="36" viewBox="0 0 33 36" fill="none">
  <g filter="url(#filter0_d_3798_236)">
    <path fillRule="evenodd" clipRule="evenodd" d="M13.7047 7.0297C13.6197 7.04419 13.4267 7.09957 13.2758 7.15274C12.4449 7.44561 11.8001 8.16181 11.5628 9.05536C11.5203 9.21548 11.4988 9.38044 11.4988 9.5461V12.9997V16.5109C11.4988 16.6372 11.527 16.7619 11.5814 16.876C11.7437 17.2163 12.051 17.4452 12.4193 17.5C12.6492 17.5342 20.3242 17.5342 20.5541 17.5C20.9224 17.4452 21.2297 17.2163 21.392 16.876C21.4464 16.7619 21.4746 16.6372 21.4746 16.5109V12.9997V9.5461C21.4746 9.38044 21.4531 9.21548 21.4106 9.05536C21.2286 8.37025 20.7719 7.74148 20.2014 7.39061C19.9474 7.23441 19.5215 7.07324 19.2406 7.02704C19.0115 6.98937 13.9269 6.9918 13.7047 7.0297ZM15.9247 11.3651C15.9247 12.1959 15.2381 12.8695 14.4072 12.8695C13.5764 12.8695 12.8898 12.1959 12.8898 11.3651C12.8898 10.5342 13.5764 9.8607 14.4072 9.8607C15.2381 9.8607 15.9247 10.5342 15.9247 11.3651ZM20.0836 11.3651C20.0836 12.1959 19.397 12.8695 18.5661 12.8695C17.7353 12.8695 17.0487 12.1959 17.0487 11.3651C17.0487 10.5342 17.7353 9.8607 18.5661 9.8607C19.397 9.8607 20.0836 10.5342 20.0836 11.3651ZM13.8418 14.5825C14.0695 14.6538 14.294 14.9818 14.2945 15.2439C14.2959 15.8935 13.542 16.233 13.1026 15.7806C12.6977 15.3638 12.8988 14.658 13.453 14.5513C13.5854 14.5257 13.6864 14.5339 13.8418 14.5825ZM19.6247 14.5805C20.0038 14.6986 20.1946 15.1833 20.0167 15.5765C19.8949 15.8459 19.5848 16.0226 19.3036 15.983C18.7209 15.9008 18.4783 15.1908 18.8839 14.7547C19.078 14.546 19.3263 14.4876 19.6247 14.5805ZM12.0025 19.6175C11.4811 20.3216 11.0353 20.9207 11.0119 20.9489C10.9712 20.9976 11.0015 20.9997 11.6551 20.9922L11.7739 20.9909C12.1311 20.9869 12.4658 20.816 12.6785 20.529C12.8909 20.2425 13.2265 20.0736 13.5832 20.0736H16.4867H19.3902C19.7468 20.0736 20.0824 20.2425 20.2948 20.529C20.5076 20.816 20.8423 20.9869 21.1995 20.9909L21.3162 20.9922L21.8635 20.9985C21.9192 20.9991 21.9514 20.9355 21.9179 20.891C21.8727 20.831 21.428 20.232 20.9297 19.5597L20.4261 18.8803C20.1729 18.5388 19.7729 18.3373 19.3477 18.3373H18.8059C18.7501 18.3373 18.7178 18.4006 18.7505 18.4458C18.7938 18.5055 18.9091 18.6619 19.0068 18.7935C19.1045 18.925 19.1844 19.0389 19.1844 19.0466C19.1844 19.0543 17.9704 19.0606 16.4867 19.0606C15.0029 19.0606 13.789 19.0543 13.789 19.0465C13.789 19.0388 13.8938 18.8923 14.022 18.7211C14.1501 18.5498 14.2647 18.3934 14.2765 18.3735C14.2936 18.345 14.1562 18.3373 13.6244 18.3373C13.2006 18.3373 12.8019 18.5382 12.5496 18.8788L12.0025 19.6175Z" fill="#6486F5"/>
  </g>
  <defs>
    <filter id="filter0_d_3798_236" x="0" y="0" width="32.9297" height="35.9985" filterUnits="userSpaceOnUse" color-interpolation-filters="sRGB">
      <feFlood flood-opacity="0" result="BackgroundImageFix"/>
      <feColorMatrix in="SourceAlpha" type="matrix" values="0 0 0 0 0 0 0 0 0 0 0 0 0 0 0 0 0 0 127 0" result="hardAlpha"/>
      <feOffset dy="4"/>
      <feGaussianBlur stdDeviation="5.5"/>
      <feComposite in2="hardAlpha" operator="out"/>
      <feColorMatrix type="matrix" values="0 0 0 0 0.392157 0 0 0 0 0.52549 0 0 0 0 0.960784 0 0 0 0.55 0"/>
      <feBlend mode="normal" in2="BackgroundImageFix" result="effect1_dropShadow_3798_236"/>
      <feBlend mode="normal" in="SourceGraphic" in2="effect1_dropShadow_3798_236" result="shape"/>
    </filter>
  </defs>
</svg>