<?xml version="1.0" encoding="utf-8"?><!-- Uploaded to: SVG Repo, www.svgrepo.com, Generator: SVG Repo Mixer Tools -->
<svg fill="#FFFFFF" width="800px" height="800px" viewBox="0 0 1024 1024" xmlns="http://www.w3.org/2000/svg"><path d="M75.249 184.32h92.805c11.311 0 20.48-9.169 20.48-20.48s-9.169-20.48-20.48-20.48H75.249c-11.311 0-20.48 9.169-20.48 20.48s9.169 20.48 20.48 20.48z"/><path d="M188.534 256.645V163.84c0-11.311-9.169-20.48-20.48-20.48s-20.48 9.169-20.48 20.48v92.805c0 11.311 9.169 20.48 20.48 20.48s20.48-9.169 20.48-20.48z"/><path d="M178.331 844.362c-87.4-87.4-137.372-205.543-137.372-331.641 0-119.519 44.857-231.97 124.29-318.029 7.672-8.312 7.153-21.268-1.159-28.94s-21.268-7.153-28.94 1.159C48.801 260.463-.001 382.804-.001 512.721c0 137.072 54.364 265.599 149.369 360.604 7.998 7.998 20.965 7.998 28.963 0s7.998-20.965 0-28.963zm769.796-5.999h-92.805c-11.311 0-20.48 9.169-20.48 20.48s9.169 20.48 20.48 20.48h92.805c11.311 0 20.48-9.169 20.48-20.48s-9.169-20.48-20.48-20.48z"/><path d="M834.842 766.038v92.805c0 11.311 9.169 20.48 20.48 20.48s20.48-9.169 20.48-20.48v-92.805c0-11.311-9.169-20.48-20.48-20.48s-20.48 9.169-20.48 20.48z"/><path d="M845.045 178.322c87.4 87.4 137.372 205.543 137.372 331.641 0 119.519-44.857 231.97-124.29 318.029-7.672 8.312-7.153 21.268 1.159 28.94s21.268 7.153 28.94-1.159c86.349-93.552 135.151-215.893 135.151-345.81 0-137.072-54.364-265.599-149.369-360.604-7.998-7.998-20.965-7.998-28.963 0s-7.998 20.965 0 28.963zm-87.918 495.217c16.962 0 30.72-13.758 30.72-30.72V379.047c0-16.968-13.754-30.72-30.72-30.72H268.351c-16.966 0-30.72 13.752-30.72 30.72v263.772c0 16.962 13.758 30.72 30.72 30.72h488.776zm0 40.96H268.351c-39.583 0-71.68-32.097-71.68-71.68V379.047c0-39.591 32.094-71.68 71.68-71.68h488.776c39.586 0 71.68 32.089 71.68 71.68v263.772c0 39.583-32.097 71.68-71.68 71.68z"/><path d="M586.34 510.932c0-40.651-32.952-73.605-73.605-73.605-40.644 0-73.595 32.956-73.595 73.605s32.951 73.605 73.595 73.605c40.653 0 73.605-32.954 73.605-73.605zm40.96 0c0 63.272-51.29 114.565-114.565 114.565-63.267 0-114.555-51.295-114.555-114.565s51.288-114.565 114.555-114.565c63.276 0 114.565 51.293 114.565 114.565z"/></svg>