<svg width="12" height="13" viewBox="0 0 12 13" fill="none" xmlns="http://www.w3.org/2000/svg">
<path fillRule="evenodd" clipRule="evenodd" d="M0 6.5V13H0.399971H0.799941V10.6301V8.26028L1.09992 8.13234C1.92191 7.78177 2.79278 7.62536 3.56025 7.69044C4.36144 7.75839 4.83549 7.90243 5.82624 8.37901C6.22344 8.57007 6.6873 8.77284 6.86096 8.83132C8.16503 9.27045 9.38734 9.27573 10.6946 8.84787C10.9831 8.75347 11.8338 8.3701 11.9396 8.28684L12 8.23926L11.9929 4.36114L11.9858 0.483057L11.6791 0.650939C10.4309 1.33433 9.41038 1.58389 8.32502 1.47116C7.59798 1.39562 7.12588 1.24462 6.14622 0.774262C5.07928 0.262006 4.49204 0.0886641 3.59611 0.0215313C2.77169 -0.0402695 1.83653 0.108367 1.01158 0.432301C0.9058 0.47384 0.814927 0.507812 0.809594 0.507812C0.804288 0.507812 0.799941 0.393555 0.799941 0.253906V0H0.399971H0V6.5Z" fill="black" fill-opacity="0.27"/>
</svg>
