<svg width="28" height="28" viewBox="0 0 28 28" fill="none" xmlns="http://www.w3.org/2000/svg">
<path fillRule="evenodd" clipRule="evenodd" d="M26.7742 0.0157875C24.7896 0.733256 0.519134 10.1181 0.374827 10.2239C0.0983525 10.4266 -0.0308733 10.7445 0.00623609 11.1307C0.0389024 11.47 0.191658 11.7144 0.474828 11.8802C0.579273 11.9413 3.47437 12.6326 6.90852 13.4164L13.1524 14.8416L14.6068 21.1389C15.661 25.7031 16.097 27.4863 16.1911 27.6185C16.5475 28.1189 17.4729 28.1292 17.8177 27.6366C17.9236 27.4854 27.8457 1.70185 27.9743 1.24389C28.0819 0.860508 27.8393 0.327162 27.4705 0.136533C27.2681 0.0318661 26.9042 -0.031197 26.7742 0.0157875Z" fill="white" fill-opacity="0.55"/>
</svg>
