<svg width="29" height="29" viewBox="0 0 29 29" fill="none" xmlns="http://www.w3.org/2000/svg">
<path fillRule="evenodd" clipRule="evenodd" d="M22.0008 0.119998C21.8983 0.201717 21.8001 0.39678 21.6923 0.732802L21.534 1.22571L21.2162 1.35929L20.8985 1.49288L20.5134 1.29941C19.749 0.915415 19.7229 0.923499 18.8631 1.81338C18.1326 2.56932 18.1299 2.579 18.4475 3.27612C18.6472 3.71457 18.6536 3.74785 18.5808 3.97164C18.4693 4.31427 18.3759 4.3931 17.8618 4.57831C17.167 4.82872 17.1906 4.78051 17.1906 5.94824C17.1906 7.13343 17.1787 7.11036 17.9132 7.35298L18.4063 7.51583L18.5352 7.8653L18.664 8.21472L18.4509 8.65163C18.1182 9.33353 18.1227 9.34798 18.9239 10.1606C19.7261 10.9742 19.7546 10.9834 20.4402 10.6501C20.6738 10.5365 20.8908 10.4436 20.9222 10.4436C20.9537 10.4436 21.1036 10.4978 21.2553 10.564C21.5273 10.6827 21.5335 10.6914 21.692 11.1851C21.9321 11.9331 21.9044 11.9187 23.1063 11.9187C24.2955 11.9187 24.2517 11.9407 24.4876 11.2223C24.6573 10.7057 24.6666 10.6939 25.0288 10.5347L25.2752 10.4264L25.7391 10.6415C26.4603 10.9759 26.464 10.9747 27.2666 10.1606C28.071 9.34486 28.076 9.32834 27.7402 8.6026L27.5275 8.14291L27.6682 7.80854L27.8089 7.47423L28.3026 7.30713C29.0055 7.06923 29 7.07985 29 5.95898V5.02756L28.8108 4.85922C28.7029 4.76317 28.4277 4.62923 28.1704 4.54751C27.7215 4.40496 27.7185 4.4026 27.5775 4.09042L27.4359 3.77664L27.6726 3.24957C27.8491 2.85655 27.8993 2.6819 27.8699 2.56313C27.8172 2.35007 26.5936 1.08304 26.4053 1.04658C26.3121 1.02852 26.088 1.10228 25.7751 1.25409L25.2895 1.48969L24.9765 1.34437C24.6648 1.19963 24.6629 1.19698 24.4948 0.707489C24.2434 -0.0250899 24.2919 0.000104346 23.1322 0.000104346C22.234 0.000104346 22.1384 0.0102528 22.0008 0.119998ZM24.0286 3.92244C25.4165 4.61118 25.7232 6.47832 24.6266 7.5625C24.2176 7.96679 23.7848 8.15683 23.1987 8.18946C22.6267 8.22132 22.2551 8.11966 21.8004 7.80683C20.3415 6.80319 20.6457 4.46001 22.3164 3.83252C22.7964 3.65226 23.5655 3.69262 24.0286 3.92244ZM7.97323 5.97414C7.86973 6.06666 7.73168 6.37282 7.51824 6.98362L7.21184 7.8604L6.77314 8.0226C6.53189 8.11181 6.23125 8.2438 6.10507 8.31591L5.87563 8.44701L5.14845 8.05181C4.20765 7.54049 4.19403 7.53571 3.96762 7.63478C3.86517 7.67962 3.3167 8.19224 2.74875 8.77389C1.95641 9.58541 1.71615 9.86632 1.71615 9.98114C1.71615 10.0634 1.89032 10.4998 2.10318 10.951C2.3161 11.402 2.48801 11.7977 2.48522 11.8302C2.48242 11.8626 2.36194 12.1796 2.21755 12.5345L1.95501 13.1799L1.10846 13.4802C0.619442 13.6537 0.206578 13.8366 0.130951 13.9133C0.00162891 14.0444 0 14.0657 0 15.6359C0 17.206 0.00162891 17.2273 0.130951 17.3584C0.206752 17.4353 0.621653 17.6189 1.11625 17.7943L1.9706 18.0973L2.04862 18.3269C2.09149 18.4532 2.22209 18.7632 2.33873 19.0159L2.55089 19.4753L2.16171 20.2845C1.90702 20.814 1.77287 21.1644 1.77345 21.2984C1.77426 21.4851 1.87083 21.6011 2.86678 22.6112C3.83539 23.5936 3.98065 23.7192 4.1479 23.7192C4.26018 23.7192 4.66496 23.5608 5.14769 23.3278L5.95887 22.9363L6.62858 23.2176L7.29834 23.4989L7.40707 23.8008C7.46687 23.9669 7.61539 24.3896 7.73709 24.7401C7.9225 25.2741 7.98567 25.3918 8.12663 25.4657C8.26578 25.5387 8.55032 25.5509 9.77431 25.5364C11.1656 25.5199 11.2604 25.5118 11.3651 25.4008C11.4264 25.3359 11.6127 24.8814 11.7792 24.3908L12.0819 23.4987L12.3238 23.4258C12.4569 23.3857 12.7554 23.2594 12.9872 23.1452L13.4087 22.9375L13.7144 23.0703C13.8825 23.1433 14.2486 23.3192 14.5279 23.4612C15.308 23.8576 15.2355 23.8868 16.4181 22.7014C17.4164 21.7007 17.5978 21.4777 17.5978 21.251C17.5978 21.1884 17.4125 20.7568 17.1861 20.292C16.9323 19.7711 16.785 19.4006 16.8023 19.3262C16.8266 19.2212 17.2953 18.1085 17.3313 18.0702C17.3387 18.0623 17.7485 17.9098 18.2421 17.7312C18.7356 17.5525 19.1722 17.3613 19.2121 17.3063C19.3162 17.1632 19.3162 14.1085 19.2121 13.9654C19.1722 13.9104 18.7356 13.7192 18.2421 13.5405C17.7485 13.3619 17.3396 13.2094 17.3333 13.2015C17.327 13.1937 17.225 12.9483 17.1067 12.6562C16.9883 12.3641 16.8612 12.0518 16.8243 11.962C16.7634 11.8139 16.7934 11.7251 17.1484 11.0027C17.3636 10.5647 17.5396 10.1328 17.5396 10.0428C17.5396 9.90869 17.3367 9.67427 16.4164 8.74527C15.6385 7.96012 15.2537 7.61147 15.1648 7.61147C15.0943 7.61147 14.6684 7.79857 14.2184 8.0272L13.4002 8.44294L12.7242 8.14792C11.9561 7.81267 12.0742 7.96962 11.6349 6.70171C11.5121 6.34739 11.3637 6.00884 11.3051 5.94942C11.2073 5.85018 11.0737 5.84139 9.66023 5.84139C8.14769 5.84139 8.11936 5.84363 7.97323 5.97414ZM10.8399 11.9971C11.4257 12.202 11.8457 12.4689 12.2984 12.9238C12.7278 13.3555 13.0044 13.7927 13.2211 14.3825C13.4003 14.8704 13.4672 15.9256 13.3526 16.4546C13.0288 17.9485 11.8215 19.1427 10.3287 19.4458C8.97871 19.7198 7.57258 19.1975 6.66377 18.0845C6.3704 17.7251 6.05393 17.0863 5.9331 16.6094C5.81547 16.145 5.81646 15.1798 5.93502 14.7213C6.27296 13.4144 7.2329 12.3761 8.46439 11.9855C9.00512 11.8141 9.06382 11.807 9.77332 11.8285C10.2708 11.8436 10.5082 11.8811 10.8399 11.9971ZM19.9248 13.4453C19.9248 13.4737 19.964 13.6098 20.012 13.7478C20.0818 13.9483 20.0993 14.3367 20.0993 15.6836C20.0993 17.2722 20.0923 17.3833 19.9777 17.6234C19.7966 18.0029 19.5397 18.1788 18.7489 18.4646C18.3557 18.6068 18.0071 18.7438 17.9741 18.769C17.9411 18.7943 17.8656 18.952 17.8062 19.1193L17.6983 19.4237L18.0348 20.1266C18.4215 20.9345 18.4845 21.2682 18.3283 21.683C18.252 21.8858 17.9648 22.2151 17.0697 23.1265C16.0237 24.1915 15.6007 24.5453 15.3731 24.5453C15.264 24.5453 14.8636 25.3941 14.8636 25.6255C14.8636 25.7964 14.9667 25.9226 15.755 26.7161C16.494 27.46 16.6755 27.6136 16.8167 27.6144C16.9103 27.615 17.281 27.4784 17.6404 27.3109L18.2937 27.0063L18.6293 27.1582C18.8139 27.2418 19.0327 27.3272 19.1156 27.3479C19.2469 27.3807 19.2956 27.4701 19.4938 28.0438C19.6188 28.4058 19.7778 28.7691 19.847 28.851L19.9729 29H21.2564H22.54L22.6821 28.8525C22.7712 28.76 22.8988 28.4628 23.0241 28.056L23.224 27.4069L23.6541 27.2194C23.8907 27.1162 24.1306 27.0299 24.1871 27.0276C24.2437 27.0253 24.5508 27.1562 24.8696 27.3184C25.2032 27.4882 25.5281 27.6134 25.6351 27.6134C25.797 27.6134 25.9365 27.4971 26.7149 26.7136C27.2066 26.2187 27.6244 25.7511 27.6434 25.6744C27.6677 25.5759 27.583 25.3375 27.3548 24.863L27.0317 24.1911L27.2086 23.7634C27.3059 23.5282 27.4024 23.2996 27.4231 23.2554C27.4439 23.2113 27.7694 23.0615 28.1466 22.9227C28.5238 22.7838 28.8692 22.6208 28.9143 22.5604C28.9785 22.4745 28.9967 22.1866 28.9981 21.2309C29.0005 19.7092 29.0368 19.7765 28.015 19.411C27.4033 19.1923 27.318 19.1451 27.2845 19.0075C27.2637 18.9217 27.1789 18.6976 27.0961 18.5096L26.9456 18.1677L27.246 17.536C27.4111 17.1886 27.5462 16.8245 27.546 16.7267C27.5457 16.5762 27.4086 16.4102 26.6522 15.6443C25.5761 14.5545 25.6412 14.5748 24.7787 15.0619L24.1934 15.3926L23.7025 15.1939L23.2116 14.9951L22.9749 14.3039C22.8223 13.8585 22.6906 13.5737 22.6048 13.5032C22.4841 13.4041 22.3516 13.3937 21.1982 13.3937C20.4978 13.3937 19.9248 13.4169 19.9248 13.4453ZM22.4187 18.2587C22.9532 18.403 23.3667 18.6462 23.7707 19.0541C24.3729 19.6621 24.6553 20.34 24.657 21.1821C24.6598 22.5238 23.8699 23.6461 22.6163 24.0818C22.0782 24.2689 21.281 24.2677 20.7392 24.0792C19.7988 23.7521 19.0776 22.985 18.7959 22.0122C18.6907 21.6487 18.6757 20.8729 18.7662 20.4741C18.9957 19.4636 19.8831 18.5476 20.9137 18.2573C21.273 18.1561 22.0413 18.1568 22.4187 18.2587Z" fill="white" fill-opacity="0.55"/>
</svg>
