<svg width="16" height="16" viewBox="0 0 16 16" fill="none" xmlns="http://www.w3.org/2000/svg">
<g id="Frame 117">
<path id="image 162 (Traced)" fillRule="evenodd" clipRule="evenodd" d="M2.92774 0.0739318C1.51859 0.487519 0.490787 1.55694 0.0801487 3.03682C-0.025933 3.41904 -0.0269346 4.52764 0.0784794 4.916C0.797848 7.5672 2.18797 9.97167 4.11058 11.8903C6.03203 13.8078 8.30035 15.1333 10.9526 15.8884C11.3184 15.9926 11.4126 16.0022 12.0416 15.9997C12.6667 15.9972 12.7648 15.9864 13.1057 15.8832C13.8347 15.6626 14.3058 15.386 14.8516 14.8579C15.721 14.0167 16.1984 12.7414 15.9212 12.0001C15.7756 11.6107 15.5929 11.4648 14.2472 10.6633C12.5979 9.68107 12.6351 9.69748 12.0625 9.69748C11.633 9.69748 11.5853 9.70608 11.3228 9.83048C10.9047 10.0287 10.6721 10.2771 10.0888 11.1484C9.80039 11.5792 9.53932 11.9316 9.50856 11.9316C9.40569 11.9316 8.35322 11.3686 7.91488 11.079C6.86779 10.3873 5.854 9.41259 5.15058 8.42122C4.74399 7.8482 4.07086 6.62698 4.07086 6.46232C4.07086 6.43927 4.43233 6.1786 4.87419 5.88307C5.68236 5.34258 5.95654 5.10296 6.1089 4.80404C6.3701 4.29178 6.39234 3.67223 6.16691 3.19016C5.92678 2.67668 4.58228 0.46572 4.42741 0.329667C4.15615 0.0913453 3.95997 0.0164286 3.57008 0.00235559C3.30675 -0.00716561 3.14124 0.0112923 2.92774 0.0739318ZM14.8167 0.265692C14.7479 0.301563 13.9357 1.08527 13.0118 2.00732L11.3321 3.68372V2.91626C11.3321 2.21545 11.3247 2.13682 11.2466 2.01028C10.9951 1.60313 10.3886 1.57665 10.1148 1.96088L10.0176 2.09723V3.85113C10.0176 5.59852 10.0179 5.60554 10.1107 5.73562C10.2989 5.99966 10.3149 6.00175 12.1459 6.00175C14.005 6.00175 14.0021 6.00217 14.1993 5.70401C14.4063 5.39102 14.3074 4.95016 13.9855 4.75105C13.8591 4.67288 13.7805 4.66544 13.0802 4.66544H12.3132L13.9887 2.98462C14.9102 2.06014 15.6962 1.23961 15.7355 1.16114C15.8902 0.851412 15.7175 0.389467 15.3968 0.255377C15.2156 0.179625 14.9738 0.183926 14.8167 0.265692Z" fill="black" fill-opacity="0.58"/>
</g>
</svg>
