<svg width="353" height="128" viewBox="0 0 353 128" fill="none" xmlns="http://www.w3.org/2000/svg">
<path d="M0 126.297L20.6744 1.70342H54.4831L38.43 99.0418H88.7783L84.1569 126.297H0Z" fill="white"/>
<path d="M222.006 48.4259H188.198C188.441 45.5463 188.279 42.9506 187.711 40.6388C187.144 38.327 186.171 36.3397 184.793 34.6768C183.414 32.9734 181.61 31.6755 179.381 30.7833C177.151 29.891 174.496 29.4449 171.415 29.4449C165.496 29.4449 160.206 30.9252 155.544 33.8859C150.883 36.8061 147.011 41.0038 143.93 46.4791C140.849 51.9138 138.66 58.403 137.363 65.9468C136.228 73.2472 136.187 79.3105 137.241 84.1369C138.336 88.9632 140.464 92.5729 143.626 94.9658C146.829 97.3587 150.984 98.5551 156.092 98.5551C159.497 98.5551 162.618 98.1496 165.456 97.3384C168.334 96.5273 170.888 95.3714 173.118 93.8707C175.388 92.3295 177.313 90.5044 178.894 88.3954C180.516 86.2459 181.752 83.8733 182.604 81.2776H216.655C215.358 86.5501 213.048 91.9442 209.723 97.4601C206.399 102.935 202.102 107.985 196.832 112.608C191.562 117.191 185.36 120.902 178.225 123.741C171.091 126.58 163.064 128 154.146 128C142.471 128 132.397 125.445 123.925 120.335C115.493 115.224 109.372 107.762 105.561 97.9468C101.791 88.1318 101.041 76.1673 103.311 62.0532C105.581 48.4259 110.061 37.0089 116.749 27.8023C123.438 18.5957 131.566 11.6603 141.133 6.9962C150.7 2.33207 160.875 0 171.658 0C179.806 0 187.103 1.07478 193.549 3.22433C200.035 5.37389 205.487 8.51711 209.906 12.654C214.365 16.7503 217.649 21.7997 219.757 27.8023C221.865 33.8048 222.615 40.6793 222.006 48.4259Z" fill="white"/>
<path d="M353 1.70342L332.326 126.297H304.111L270.059 60.8365H269.33L258.384 126.297H224.576L245.25 1.70342H273.951L307.516 66.9202H308.489L319.191 1.70342H353Z" fill="white"/>
</svg>
