<svg width="30" height="36" viewBox="0 0 30 36" fill="none" xmlns="http://www.w3.org/2000/svg">
  <path fillRule="evenodd" clipRule="evenodd" d="M8.50881 0.0765573C7.50434 0.158271 6.35031 0.465395 5.37672 0.910057C2.49647 2.22558 0.486479 4.89541 0.090428 7.93156C0.033323 8.36973 7.76918e-05 12.0711 7.76918e-05 18.0008C7.76918e-05 28.5304 -0.0208869 28.1487 0.625952 29.4158C0.914371 29.9809 1.142 30.2761 1.70209 30.8112C2.11858 31.2093 2.61901 31.5921 2.91208 31.7371L3.41181 31.9842L2.80138 32.5894C2.10901 33.2759 1.92989 33.6117 1.92989 34.2232C1.92989 35.4748 3.32594 36.351 4.54181 35.8626C4.74672 35.7803 5.50303 35.1236 6.58127 34.0917L8.29512 32.4516H15H21.7049L23.4187 34.0917C25.2324 35.8273 25.4778 35.9947 26.2033 35.9915C27.2431 35.987 28.0701 35.1846 28.0701 34.1803C28.0701 33.613 27.8789 33.2638 27.1986 32.5894L26.5882 31.9842L27.0879 31.7371C27.381 31.5921 27.8814 31.2093 28.2979 30.8112C28.858 30.2761 29.0856 29.9809 29.374 29.4158C30.0209 28.1487 29.9999 28.5304 29.9999 18.0008C29.9999 12.0711 29.9667 8.36973 29.9096 7.93156C29.6618 6.0319 28.7882 4.26699 27.3908 2.84294C26.6103 2.04756 25.8281 1.49378 24.7807 0.994976C23.6426 0.453083 22.5819 0.16915 21.3196 0.068546C20.1163 -0.0273351 9.70643 -0.0207574 8.50881 0.0765573ZM22.116 5.77335C23.092 6.21793 23.7399 6.89331 24.1099 7.85204C24.2934 8.32757 24.2982 8.44959 24.2982 12.6345C24.2982 16.8193 24.2934 16.9414 24.1099 17.4169C23.6613 18.5791 22.7614 19.3728 21.5351 19.6878C21.1894 19.7766 19.8045 19.8006 14.994 19.8013C9.63748 19.8023 8.83328 19.7857 8.41512 19.6666C7.15987 19.3088 6.33759 18.5761 5.89014 17.4169C5.70663 16.9414 5.7018 16.8193 5.7018 12.6345C5.7018 8.44959 5.70663 8.32757 5.89014 7.85204C6.3304 6.71142 7.33653 5.82201 8.48653 5.5568C8.66916 5.51463 11.6484 5.48706 15.1754 5.49481L21.5351 5.50873L22.116 5.77335ZM8.47161 23.7229C9.44266 24.27 9.65152 25.5729 8.89679 26.3761C8.49389 26.8047 8.106 26.9703 7.50434 26.9703C6.44022 26.9703 5.7018 26.26 5.7018 25.2366C5.7018 24.6805 5.85856 24.3197 6.26434 23.9415C6.85715 23.3892 7.72644 23.3031 8.47161 23.7229ZM23.0106 23.5189C23.4149 23.6268 23.965 24.086 24.1576 24.4762C24.3521 24.8702 24.3391 25.6353 24.1313 26.0249C23.8 26.6458 23.2388 26.9703 22.4957 26.9703C21.894 26.9703 21.5061 26.8047 21.1032 26.3761C19.8842 25.0789 21.2409 23.0465 23.0106 23.5189Z" fill="#8F92AC" fill-opacity="0.15"/>
</svg>