<svg xmlns="http://www.w3.org/2000/svg" width="16" height="19" viewBox="0 0 16 19" fill="none">
  <path fillRule="evenodd" clipRule="evenodd" d="M4.53803 0.0404053C4.00231 0.0835321 3.38683 0.245625 2.86758 0.480308C1.33145 1.17461 0.259455 2.58369 0.0482283 4.1861C0.0177723 4.41736 4.14356e-05 6.37084 4.14356e-05 9.50041C4.14356e-05 15.0577 -0.0111397 14.8562 0.333841 15.525C0.487665 15.8233 0.609067 15.979 0.907779 16.2615C1.12991 16.4716 1.39681 16.6736 1.55311 16.7501L1.81963 16.8806L1.49407 17.2C1.12481 17.5623 1.02928 17.7395 1.02928 18.0622C1.02928 18.7228 1.77383 19.1853 2.4223 18.9275C2.53158 18.884 2.93495 18.5375 3.51001 17.9928L4.42407 17.1272H8H11.5759L12.49 17.9928C13.4573 18.9089 13.5881 18.9972 13.9751 18.9955C14.5296 18.9931 14.9707 18.5696 14.9707 18.0396C14.9707 17.7402 14.8687 17.5559 14.5059 17.2L14.1804 16.8806L14.4469 16.7501C14.6032 16.6736 14.8701 16.4716 15.0922 16.2615C15.3909 15.979 15.5123 15.8233 15.6662 15.525C16.0111 14.8562 16 15.0577 16 9.50041C16 6.37084 15.9822 4.41736 15.9518 4.1861C15.8196 3.1835 15.3537 2.25203 14.6084 1.50044C14.1922 1.08066 13.775 0.788382 13.2163 0.525126C12.6094 0.239127 12.0437 0.0892734 11.3705 0.0361771C10.7287 -0.0144269 5.17676 -0.0109553 4.53803 0.0404053ZM11.7952 3.04705C12.3157 3.28168 12.6613 3.63814 12.8586 4.14413C12.9565 4.3951 12.959 4.45951 12.959 6.66819C12.959 8.87687 12.9565 8.94127 12.8586 9.19224C12.6193 9.80563 12.1394 10.2245 11.4854 10.3908C11.301 10.4376 10.5624 10.4503 7.99682 10.4507C5.13999 10.4512 4.71108 10.4425 4.48807 10.3796C3.8186 10.1907 3.38005 9.80408 3.14141 9.19224C3.04353 8.94127 3.04096 8.87687 3.04096 6.66819C3.04096 4.45951 3.04353 4.3951 3.14141 4.14413C3.37621 3.54214 3.91282 3.07273 4.52615 2.93275C4.62355 2.9105 6.2125 2.89595 8.09357 2.90004L11.4854 2.90738L11.7952 3.04705ZM4.51819 12.5204C5.03609 12.8092 5.14748 13.4968 4.74495 13.9207C4.53008 14.1469 4.3232 14.2343 4.00231 14.2343C3.43478 14.2343 3.04096 13.8595 3.04096 13.3193C3.04096 13.0258 3.12456 12.8354 3.34098 12.6358C3.65715 12.3443 4.12077 12.2988 4.51819 12.5204ZM12.2723 12.4127C12.4879 12.4697 12.7813 12.712 12.884 12.918C12.9878 13.126 12.9808 13.5298 12.87 13.7354C12.6934 14.0631 12.394 14.2343 11.9977 14.2343C11.6768 14.2343 11.4699 14.1469 11.255 13.9207C10.6049 13.2361 11.3285 12.1634 12.2723 12.4127Z" fill="#D5D8FB"/>
</svg>