<svg width="89" height="108" viewBox="0 0 89 108" fill="none" xmlns="http://www.w3.org/2000/svg">
<path d="M6.85535 85.9H8.35035V95H7.18035L2.89035 88.825V95H1.39535V85.9H2.56535L6.85535 92.075V85.9ZM13.1448 95.169C12.1915 95.169 11.3811 94.8397 10.7138 94.181C10.0465 93.5223 9.71281 92.712 9.71281 91.75C9.71281 90.788 10.0465 89.9777 10.7138 89.319C11.3811 88.6603 12.1915 88.331 13.1448 88.331C14.1068 88.331 14.9171 88.6603 15.5758 89.319C16.2431 89.9777 16.5768 90.788 16.5768 91.75C16.5768 92.712 16.2431 93.5223 15.5758 94.181C14.9171 94.8397 14.1068 95.169 13.1448 95.169ZM11.7018 93.219C12.0918 93.609 12.5728 93.804 13.1448 93.804C13.7168 93.804 14.1978 93.609 14.5878 93.219C14.9778 92.829 15.1728 92.3393 15.1728 91.75C15.1728 91.1607 14.9778 90.671 14.5878 90.281C14.1978 89.891 13.7168 89.696 13.1448 89.696C12.5728 89.696 12.0918 89.891 11.7018 90.281C11.3118 90.671 11.1168 91.1607 11.1168 91.75C11.1168 92.3393 11.3118 92.829 11.7018 93.219ZM24.7623 85.9C26.0103 85.9 27.046 86.3377 27.8693 87.213C28.7013 88.0883 29.1173 89.1673 29.1173 90.45C29.1173 91.724 28.7013 92.803 27.8693 93.687C27.046 94.5623 26.0103 95 24.7623 95H21.1873V85.9H24.7623ZM24.7623 93.57C25.6203 93.57 26.318 93.2753 26.8553 92.686C27.4013 92.0967 27.6743 91.3513 27.6743 90.45C27.6743 89.54 27.4013 88.7947 26.8553 88.214C26.318 87.6247 25.6203 87.33 24.7623 87.33H22.6823V93.57H24.7623ZM33.4573 95.169C32.504 95.169 31.6936 94.8397 31.0263 94.181C30.359 93.5223 30.0253 92.712 30.0253 91.75C30.0253 90.788 30.359 89.9777 31.0263 89.319C31.6936 88.6603 32.504 88.331 33.4573 88.331C34.4193 88.331 35.2296 88.6603 35.8883 89.319C36.5556 89.9777 36.8893 90.788 36.8893 91.75C36.8893 92.712 36.5556 93.5223 35.8883 94.181C35.2296 94.8397 34.4193 95.169 33.4573 95.169ZM32.0143 93.219C32.4043 93.609 32.8853 93.804 33.4573 93.804C34.0293 93.804 34.5103 93.609 34.9003 93.219C35.2903 92.829 35.4853 92.3393 35.4853 91.75C35.4853 91.1607 35.2903 90.671 34.9003 90.281C34.5103 89.891 34.0293 89.696 33.4573 89.696C32.8853 89.696 32.4043 89.891 32.0143 90.281C31.6243 90.671 31.4293 91.1607 31.4293 91.75C31.4293 92.3393 31.6243 92.829 32.0143 93.219ZM41.2268 95.169C40.2475 95.169 39.4285 94.8397 38.7698 94.181C38.1198 93.5223 37.7948 92.712 37.7948 91.75C37.7948 90.7793 38.1198 89.969 38.7698 89.319C39.4285 88.6603 40.2475 88.331 41.2268 88.331C41.8595 88.331 42.4358 88.4827 42.9558 88.786C43.4758 89.0893 43.8658 89.4967 44.1258 90.008L42.9168 90.71C42.7695 90.398 42.5442 90.1553 42.2408 89.982C41.9462 89.8 41.6038 89.709 41.2138 89.709C40.6418 89.709 40.1608 89.904 39.7708 90.294C39.3895 90.684 39.1988 91.1693 39.1988 91.75C39.1988 92.3307 39.3895 92.816 39.7708 93.206C40.1608 93.596 40.6418 93.791 41.2138 93.791C41.5952 93.791 41.9375 93.7 42.2408 93.518C42.5528 93.336 42.7868 93.0933 42.9428 92.79L44.1518 93.479C43.8745 93.999 43.4758 94.4107 42.9558 94.714C42.4358 95.0173 41.8595 95.169 41.2268 95.169ZM49.5857 88.5H50.9897V95H49.5857V94.168C49.1611 94.8353 48.4894 95.169 47.5707 95.169C46.8254 95.169 46.2231 94.9307 45.7637 94.454C45.3044 93.9773 45.0747 93.323 45.0747 92.491V88.5H46.4787V92.348C46.4787 92.8333 46.6087 93.206 46.8687 93.466C47.1287 93.726 47.4841 93.856 47.9347 93.856C48.4287 93.856 48.8274 93.7043 49.1307 93.401C49.4341 93.089 49.5857 92.6167 49.5857 91.984V88.5ZM59.7295 88.331C60.4662 88.331 61.0598 88.5693 61.5105 89.046C61.9612 89.5227 62.1865 90.164 62.1865 90.97V95H60.7825V91.061C60.7825 90.6103 60.6698 90.2637 60.4445 90.021C60.2192 89.7697 59.9115 89.644 59.5215 89.644C59.0882 89.644 58.7415 89.787 58.4815 90.073C58.2302 90.359 58.1045 90.788 58.1045 91.36V95H56.7005V91.061C56.7005 90.6103 56.5922 90.2637 56.3755 90.021C56.1675 89.7697 55.8685 89.644 55.4785 89.644C55.0538 89.644 54.7072 89.7913 54.4385 90.086C54.1698 90.372 54.0355 90.7967 54.0355 91.36V95H52.6315V88.5H54.0355V89.28C54.4515 88.6473 55.0712 88.331 55.8945 88.331C56.7265 88.331 57.3418 88.6733 57.7405 89.358C58.1738 88.6733 58.8368 88.331 59.7295 88.331ZM64.7941 92.348C64.8981 92.842 65.1365 93.2233 65.5091 93.492C65.8818 93.752 66.3368 93.882 66.8741 93.882C67.6195 93.882 68.1785 93.6133 68.5511 93.076L69.7081 93.752C69.0668 94.6967 68.1178 95.169 66.8611 95.169C65.8038 95.169 64.9501 94.8483 64.3001 94.207C63.6501 93.557 63.3251 92.738 63.3251 91.75C63.3251 90.7793 63.6458 89.969 64.2871 89.319C64.9285 88.6603 65.7518 88.331 66.7571 88.331C67.7105 88.331 68.4905 88.6647 69.0971 89.332C69.7125 89.9993 70.0201 90.8097 70.0201 91.763C70.0201 91.9103 70.0028 92.1053 69.9681 92.348H64.7941ZM64.7811 91.204H68.6031C68.5078 90.6753 68.2868 90.2767 67.9401 90.008C67.6021 89.7393 67.2035 89.605 66.7441 89.605C66.2241 89.605 65.7908 89.748 65.4441 90.034C65.0975 90.32 64.8765 90.71 64.7811 91.204ZM74.6745 88.331C75.4199 88.331 76.0222 88.5693 76.4815 89.046C76.9409 89.5227 77.1705 90.177 77.1705 91.009V95H75.7665V91.152C75.7665 90.6667 75.6365 90.294 75.3765 90.034C75.1165 89.774 74.7612 89.644 74.3105 89.644C73.8165 89.644 73.4179 89.8 73.1145 90.112C72.8112 90.4153 72.6595 90.8833 72.6595 91.516V95H71.2555V88.5H72.6595V89.332C73.0842 88.6647 73.7559 88.331 74.6745 88.331ZM82.3093 89.852H80.6973V92.972C80.6973 93.2407 80.7579 93.4357 80.8793 93.557C81.0006 93.6697 81.1783 93.7347 81.4123 93.752C81.6549 93.7607 81.9539 93.7563 82.3093 93.739V95C81.2346 95.13 80.4633 95.039 79.9953 94.727C79.5273 94.4063 79.2933 93.8213 79.2933 92.972V89.852H78.0973V88.5H79.2933V87.096L80.6973 86.68V88.5H82.3093V89.852ZM84.6025 90.294C84.6025 90.5107 84.7195 90.684 84.9535 90.814C85.1961 90.9353 85.4865 91.0437 85.8245 91.139C86.1711 91.2257 86.5178 91.3297 86.8645 91.451C87.2111 91.5723 87.5015 91.7803 87.7355 92.075C87.9781 92.361 88.0995 92.725 88.0995 93.167C88.0995 93.791 87.8568 94.2807 87.3715 94.636C86.8948 94.9913 86.2925 95.169 85.5645 95.169C84.9231 95.169 84.3728 95.0347 83.9135 94.766C83.4541 94.4973 83.1205 94.1247 82.9125 93.648L84.1215 92.946C84.3468 93.57 84.8278 93.882 85.5645 93.882C86.3011 93.882 86.6695 93.6393 86.6695 93.154C86.6695 92.946 86.5481 92.777 86.3055 92.647C86.0715 92.517 85.7811 92.4087 85.4345 92.322C85.0965 92.2267 84.7541 92.1183 84.4075 91.997C84.0608 91.8757 83.7661 91.6763 83.5235 91.399C83.2895 91.113 83.1725 90.7533 83.1725 90.32C83.1725 89.722 83.3978 89.241 83.8485 88.877C84.3078 88.513 84.8755 88.331 85.5515 88.331C86.0888 88.331 86.5655 88.4523 86.9815 88.695C87.4061 88.929 87.7311 89.2583 87.9565 89.683L86.7735 90.346C86.5481 89.852 86.1408 89.605 85.5515 89.605C85.2828 89.605 85.0575 89.6657 84.8755 89.787C84.6935 89.8997 84.6025 90.0687 84.6025 90.294Z" fill="white" fill-opacity="0.55"/>
<path fillRule="evenodd" clipRule="evenodd" d="M30.3279 0.344289C29.7152 0.636294 27.7054 2.56819 20.5804 9.71375C15.6438 14.6646 11.4954 18.9336 11.3617 19.2004C10.7791 20.3638 10.9042 21.6429 11.709 22.7533C12.4762 23.8114 13.9582 24.2651 15.3934 23.881C16.0749 23.6985 16.7723 23.0412 25.2767 14.5671C31.3752 8.4902 34.5283 5.24019 34.7313 4.82216C35.1356 3.98965 35.1379 2.62896 34.7363 1.84211C33.8882 0.181088 32.0093 -0.457375 30.3279 0.344289ZM51.5525 0.165816C51.1313 0.291534 46.685 4.64385 31.3591 19.9333C20.5499 30.7168 11.5776 39.786 11.4208 40.0869C10.6933 41.4826 10.9517 43.0039 12.0952 44.0571C13.1628 45.0405 14.4659 45.2694 15.7407 44.6974C16.7547 44.2424 55.255 5.76852 55.7104 4.75522C56.9395 2.0195 54.4718 -0.704491 51.5525 0.165816ZM70.0758 3.05471C69.7787 3.11117 69.3272 3.26943 69.0725 3.40625C68.8178 3.54308 56.3774 15.894 41.4272 30.8527C12.5736 59.7228 13.8884 58.3452 13.8884 59.7071C13.8884 61.0124 14.9876 62.4451 16.3085 62.8611C17.0047 63.0805 17.2404 63.089 18.0108 62.9219L18.9051 62.728L46.1215 35.5541C61.0905 20.6085 73.4491 8.17197 73.5852 7.91745C74.4544 6.2916 73.7965 4.14174 72.2025 3.39962C71.3868 3.01985 70.7779 2.92112 70.0758 3.05471ZM72.2369 21.2704C71.2229 21.7254 32.7226 60.1993 32.2673 61.2126C31.2621 63.4498 32.8586 65.9945 35.2674 65.9945C36.6673 65.9945 35.716 66.8844 56.6852 45.9571C68.0006 34.6641 76.511 26.0529 76.6539 25.752C78.0115 22.893 75.1319 19.9714 72.2369 21.2704ZM72.2369 42.2499C71.324 42.6603 53.7159 60.181 53.2468 61.1457C52.8419 61.978 52.8396 63.3384 53.2414 64.1257C53.8327 65.284 55.01 65.9938 56.3377 65.9922C57.6491 65.9905 57.9678 65.7104 67.4068 56.2541C73.8589 49.7902 76.4621 47.0835 76.6408 46.6526C77.8138 43.8257 74.9962 41.009 72.2369 42.2499Z" fill="url(#paint0_radial_52_43)" fill-opacity="0.55"/>
<defs>
<radialGradient id="paint0_radial_52_43" cx="0" cy="0" r="1" gradientUnits="userSpaceOnUse" gradientTransform="translate(44 33) rotate(90) scale(49)">
<stop stopColor="white"/>
<stop offset="1" stopColor="white" stopOpacity="0"/>
</radialGradient>
</defs>
</svg>
