<svg width="40" height="28" viewBox="0 0 40 28" fill="none" xmlns="http://www.w3.org/2000/svg">
<path fillRule="evenodd" clipRule="evenodd" d="M35.3736 0.0888793C35.2708 0.133062 34.2266 1.13864 33.0532 2.32349L30.9197 4.47792L31.3316 4.63613C31.5582 4.72309 31.8647 4.92163 32.013 5.07721L32.2824 5.36007L33.9446 3.69015L35.6068 2.02014L36.7753 3.19267C37.418 3.83746 37.9438 4.4077 37.9438 4.45978C37.9438 4.51186 36.9908 5.51368 35.8261 6.68603L33.7083 8.81761L33.9658 9.55396C34.1074 9.95894 34.2522 10.3214 34.2877 10.3595C34.3232 10.3976 35.623 9.14804 37.1761 7.58275C39.7726 4.966 40 4.71106 40 4.41663C40 4.12606 39.8248 3.91868 38.1074 2.17722C36.5481 0.596041 35.8035 -0.0463012 35.5869 0.00258189C35.5724 0.0058721 35.4764 0.0446965 35.3736 0.0888793ZM21.6375 3.00278C19.8399 3.66505 18.3085 4.24535 18.2344 4.29235C18.1197 4.36511 18.1331 4.47172 18.3241 5.00746C18.4476 5.35368 18.5911 5.63626 18.6429 5.63532C18.6948 5.63438 20.2724 5.06978 22.1486 4.38072C25.0851 3.30219 25.5556 3.10346 25.5281 2.95296C25.4541 2.54713 25.1175 1.78343 25.0159 1.79076C24.9553 1.79509 23.4351 2.34051 21.6375 3.00278ZM22.6627 4.98292C22.2514 5.13484 21.7389 5.32548 21.5237 5.40651L21.1325 5.55391L21.4599 6.46342C21.6399 6.96363 21.7994 7.38524 21.8143 7.40019C21.8834 7.46966 24.204 6.54408 24.1978 6.44951C24.1827 6.21938 23.5918 4.75806 23.5037 4.73305C23.4523 4.71848 23.0739 4.83091 22.6627 4.98292ZM23.2301 7.70148C19.4298 9.09314 16.2123 10.3122 16.0802 10.4106C15.7414 10.663 15.4351 11.1453 15.3589 11.5464C15.3207 11.7476 15.3588 12.2735 15.4516 12.8237C15.589 13.6399 15.5918 13.7762 15.4738 13.895C15.3558 14.0138 14.5648 13.9927 9.25938 13.7299C3.21113 13.4302 3.17823 13.4296 2.78074 13.6098C2.27211 13.8406 2.07154 14.0667 1.08214 15.525L0.273038 16.7174L1.20636 17.3831C1.71975 17.7491 2.19501 18.07 2.26258 18.0961C2.3338 18.1235 2.53082 17.9476 2.73185 17.6767C2.92233 17.4201 3.27889 17.0914 3.52423 16.9464C3.91827 16.7134 4.06248 16.6827 4.76457 16.6827H5.55901L8.36289 18.1194C9.90502 18.9096 12.2746 20.1152 13.6286 20.7986L16.0903 22.041L17.0867 22.036L18.083 22.0309L25.7002 19.2327C29.8897 17.6937 33.5352 16.3355 33.8013 16.2145C34.423 15.9316 34.7826 15.4149 34.8367 14.7264C34.8715 14.2839 34.736 13.8552 33.3784 10.1153C32.4349 7.51619 31.8015 5.90446 31.6649 5.75509C31.3907 5.4553 30.7846 5.17112 30.4201 5.17121C30.2659 5.17131 27.0304 6.30991 23.2301 7.70148ZM2.23996 20.7955C2.23716 21.0814 1.5488 22.46 0.939521 23.3999C0.167332 24.591 -0.00277 25.0153 3.38758e-05 25.7426C0.00536125 27.1116 1.1614 28.0895 2.66092 27.9935C4.00033 27.9077 4.86589 27.0954 4.93468 25.8595C4.97944 25.0541 4.80009 24.579 3.98089 23.3334C3.41684 22.4758 2.7084 21.0549 2.7084 20.7814C2.7084 20.7245 2.60325 20.678 2.47474 20.678C2.34623 20.678 2.24061 20.7309 2.23996 20.7955Z" fill="white" fill-opacity="0.55"/>
</svg>
