<svg width="42" height="24" viewBox="0 0 42 24" fill="none" xmlns="http://www.w3.org/2000/svg">
<path fillRule="evenodd" clipRule="evenodd" d="M2.70514 0.188721C1.39297 0.643231 0.526641 1.55958 0.132234 2.91011C0.0143555 3.31362 0 4.29997 0 12.0056C0 20.3607 0.00533203 20.6662 0.161109 21.1783C0.330258 21.7341 0.687914 22.3764 1.05418 22.7817C1.4006 23.165 2.19942 23.6547 2.77126 23.8341C3.29036 23.997 3.5741 23.9996 20.9938 23.9996C40.3314 23.9996 39.0004 24.0319 39.9492 23.5393C40.8043 23.0955 41.5321 22.1874 41.8372 21.1843C41.9952 20.6645 42 20.3917 42 11.9993C42 3.60688 41.9952 3.33412 41.8372 2.81436C41.5321 1.81117 40.8043 0.903153 39.9492 0.45931C39.0003 -0.0333669 40.3355 -0.0011163 20.9646 0.00121709L3.24023 0.00338388L2.70514 0.188721ZM6.29565 4.74798C6.35193 4.74865 6.5365 4.87724 6.70581 5.03382C6.95395 5.26325 7.1569 5.65092 7.75195 7.0322C8.15801 7.9748 8.50869 8.74599 8.53125 8.74599C8.55381 8.74599 8.90449 7.97664 9.31055 7.03637C10.088 5.23591 10.3106 4.89991 10.8249 4.75007C11.6909 4.49773 12.5982 5.38042 12.3872 6.27002C12.3519 6.41894 11.784 7.76838 11.1253 9.26867L9.92759 11.9965L11.1518 14.7893C11.8252 16.3253 12.3841 17.6854 12.3938 17.8116C12.4341 18.3357 12.3797 18.5134 12.0791 18.8404C11.7315 19.2184 11.3249 19.3539 10.8591 19.2471C10.3254 19.1249 10.1022 18.7955 9.31055 16.9622C8.90449 16.022 8.55381 15.2526 8.53125 15.2526C8.50869 15.2526 8.15801 16.022 7.75195 16.9622C6.96027 18.7955 6.73706 19.1249 6.20337 19.2471C5.31407 19.4509 4.46209 18.6189 4.66979 17.7494C4.70818 17.589 5.27879 16.2296 5.93783 14.7285L7.13614 11.9993L5.93841 9.27008C5.27961 7.76905 4.70605 6.41952 4.66372 6.27135C4.44757 5.51434 5.28437 4.55948 6.0293 4.71307C6.11953 4.73165 6.23938 4.7474 6.29565 4.74798ZM21.4803 4.75299C22.5023 4.92149 23.4449 5.62384 23.9037 6.55877C24.4393 7.65013 24.4152 10.4496 23.8611 11.5057L23.6021 11.9993L23.855 12.4813C24.1635 13.0692 24.2803 13.7518 24.279 14.9577C24.2771 16.7596 24.0119 17.609 23.2148 18.3664C22.3932 19.1471 21.7154 19.3324 19.6875 19.3302C18.1652 19.3285 17.8633 19.2685 17.4946 18.8939C16.9875 18.3788 16.9875 17.6201 17.4946 17.105C17.869 16.7245 18.1602 16.6704 19.8463 16.6681C21.7572 16.6654 21.6562 16.7578 21.6562 15.011C21.6562 13.7986 21.6452 13.7064 21.4779 13.5255C21.3334 13.3693 21.2126 13.3323 20.8422 13.3307C20.1474 13.3277 19.7739 13.2093 19.4633 12.8937C18.9563 12.3786 18.9563 11.62 19.4633 11.1049C19.7724 10.7908 20.1474 10.6709 20.8307 10.6679C21.1737 10.6664 21.3203 10.6242 21.4664 10.4848C21.649 10.3104 21.6562 10.2544 21.6562 9.01091C21.6562 7.23787 21.7582 7.33321 19.8578 7.33054C19.0648 7.32946 18.2715 7.29454 18.0949 7.25287C17.4397 7.09854 16.9974 6.37044 17.1476 5.69376C17.2324 5.31191 17.6889 4.83757 18.0563 4.74949C18.4664 4.65115 20.8775 4.65365 21.4803 4.75299ZM30.6684 4.75307C32.0599 4.98249 33.1904 6.1336 33.3756 7.50954C33.449 8.05439 33.3678 9.27683 33.2198 9.85618C32.9117 11.0617 32.5708 11.7036 30.8366 14.3436C30.0284 15.5739 29.3672 16.5997 29.3672 16.6232C29.3672 16.6468 29.9855 16.667 30.7412 16.6681C32.3694 16.6704 32.6642 16.7265 33.0367 17.105C33.7302 17.8095 33.3896 19.0285 32.4364 19.2531C32.0202 19.3512 27.0452 19.3519 26.6296 19.254C25.9854 19.1021 25.5236 18.3813 25.6658 17.7494C25.7027 17.5853 26.7111 15.964 27.9724 14.041C29.2049 12.1618 30.2981 10.4304 30.4016 10.1935C30.8681 9.12541 30.9915 7.87797 30.6654 7.52538C30.4987 7.34521 30.4242 7.33254 29.5312 7.33254C28.6456 7.33254 28.5629 7.34629 28.4041 7.52004C28.3073 7.62605 28.2068 7.88664 28.1731 8.11931C28.0151 9.20883 26.7759 9.65567 26.0258 8.89366C25.6846 8.54707 25.5958 8.18589 25.6864 7.51296C25.8667 6.17268 27.0062 4.98066 28.3193 4.75849C28.9327 4.65473 30.0559 4.65215 30.6684 4.75307ZM36.5909 4.79915C36.829 4.86341 37.2545 5.39342 37.3286 5.71817C37.4253 6.14152 37.4245 17.8603 37.3278 18.284C37.2333 18.698 36.7892 19.1559 36.3944 19.2464C35.7283 19.399 35.0116 18.9496 34.8597 18.284C34.7625 17.8582 34.7625 6.14043 34.8597 5.71459C34.9027 5.52584 35.0529 5.26766 35.2158 5.10216C35.5934 4.71857 35.9779 4.63382 36.5909 4.79915ZM16.0301 10.7456C16.9833 10.9702 17.3239 12.1892 16.6304 12.8937C16.2775 13.2524 15.9504 13.3287 14.7656 13.3287C13.5808 13.3287 13.2538 13.2524 12.9008 12.8937C12.3926 12.3775 12.3937 11.62 12.9033 11.1023C13.0582 10.945 13.3099 10.7862 13.4626 10.7496C13.8496 10.6568 15.6415 10.654 16.0301 10.7456Z" fill="white" fill-opacity="0.55"/>
</svg>
