<svg width="20" height="20" viewBox="0 0 20 20" fill="none" xmlns="http://www.w3.org/2000/svg">
<path fillRule="evenodd" clipRule="evenodd" d="M1.2602 0.0489043C1.17022 0.0922229 0.134238 1.30866 0.0482741 1.47197C-0.0160914 1.59423 -0.0160914 10.71 0.0482741 10.8322C0.142674 11.0116 1.17365 12.2129 1.27137 12.2574C1.33597 12.2869 1.58328 12.3042 1.9385 12.3042H2.50299V13.939C2.50299 15.5736 2.50299 15.5738 2.59165 15.7065C2.76178 15.9612 3.07939 16.0425 3.35403 15.9016C3.43371 15.8607 4.8335 15.0346 6.46463 14.0657L9.43032 12.3042H11.7257C13.3702 12.3042 14.0489 12.2915 14.1195 12.2594C14.2221 12.2126 15.2346 11.0225 15.3342 10.8316C15.3833 10.7375 15.3913 10.0853 15.3915 6.1644C15.3916 3.456 15.377 1.56791 15.3555 1.51127C15.3042 1.37643 14.3195 0.19382 14.1702 0.0878871L14.0464 0L7.69862 0.00265614C3.11059 0.00457013 1.3257 0.0173821 1.2602 0.0489043ZM7.98241 2.60494C8.19562 2.71239 8.24401 2.85731 8.24417 3.38854L8.24432 3.86703L8.80088 3.86711C9.47172 3.86715 9.58201 3.90535 9.72113 4.18573C9.79069 4.32588 9.80522 4.40104 9.78429 4.51256C9.74867 4.70251 9.56284 4.90977 9.38353 4.95957C9.30272 4.98203 8.78065 4.99953 8.18574 4.99972C7.20959 5.00008 7.12191 5.00574 7.00638 5.0762C6.85734 5.1671 6.77028 5.29108 6.73634 5.4608L6.71135 5.58572H8.01229C9.22879 5.58572 9.32362 5.59072 9.47289 5.66302C9.70465 5.7752 9.7803 5.92949 9.7994 6.32889C9.83249 7.02144 9.66946 7.54533 9.30588 7.91472C9.08517 8.13897 8.73011 8.33943 8.4455 8.40049L8.24432 8.44365V8.91109C8.24432 9.43314 8.20991 9.54474 8.00377 9.69153C7.85001 9.80106 7.55966 9.81184 7.40976 9.7136C7.20776 9.58122 7.17175 9.4747 7.15073 8.94695L7.13121 8.4567L6.53825 8.43717C6.0184 8.42006 5.93174 8.40767 5.83523 8.33674C5.50578 8.0946 5.52488 7.66743 5.87682 7.40447C5.97853 7.3285 6.05043 7.32283 7.14566 7.3044C8.16832 7.28721 8.31919 7.27666 8.41164 7.21596C8.54346 7.12944 8.62661 7.0041 8.65871 6.8434L8.68371 6.71848H7.36887C6.11862 6.71848 6.04629 6.71454 5.89643 6.63806C5.66513 6.52005 5.59042 6.32944 5.58933 5.85469C5.58823 5.37635 5.6369 5.11995 5.78699 4.81309C6.00407 4.36924 6.469 4.00679 6.95494 3.90254L7.15073 3.86055V3.39311C7.15073 2.79087 7.2053 2.67091 7.53119 2.55666C7.68636 2.50224 7.80361 2.51482 7.98241 2.60494ZM16.5243 8.05566C16.5243 10.9494 16.522 10.9884 16.3283 11.3683C16.2347 11.5517 15.1584 12.8531 14.9487 13.0364C14.8689 13.106 14.7295 13.201 14.6388 13.2474C14.2787 13.4315 14.2135 13.436 11.8995 13.4365L9.71574 13.437L8.15984 14.3606C7.30411 14.8686 6.60394 15.2977 6.60394 15.314C6.60394 15.3832 7.22311 16.0403 7.34719 16.1028C7.4708 16.1651 7.6539 16.1711 9.42993 16.1712L11.3771 16.1712L14.3706 18.041C16.017 19.0694 17.4025 19.9307 17.4494 19.955C17.5941 20.03 17.8658 20.0085 18.0125 19.9105C18.2837 19.7293 18.2818 19.7441 18.2818 17.8606L18.2819 16.1712H18.4714C18.8077 16.1712 18.8743 16.1244 19.4007 15.5179C19.6713 15.2061 19.9168 14.9048 19.9463 14.8483C19.9907 14.7631 19.9999 14.0625 20 10.7613C20.0001 6.9314 19.9973 6.77254 19.9268 6.65989C19.7919 6.44428 18.984 5.53052 18.8572 5.45021C18.7403 5.37611 18.6591 5.3701 17.6282 5.35889L16.5243 5.3469V8.05566Z" fill="white"/>
</svg>
