<svg width="12" height="12" viewBox="0 0 12 12" fill="none" xmlns="http://www.w3.org/2000/svg">
<path fillRule="evenodd" clipRule="evenodd" d="M6.35604 1.41394V2.8279L6.06856 2.85652C4.77415 2.98548 3.521 3.4938 2.50734 4.3011C2.22799 4.5236 1.6331 5.12262 1.42804 5.38794C0.77386 6.23432 0.323869 7.20075 0.126036 8.18421C0.00639847 8.77883 -0.00540575 9.0047 0.0015876 10.5622L0.0080412 12L0.439235 10.9956C0.676399 10.4431 0.922997 9.89097 0.987228 9.76857C1.45487 8.87764 2.21869 8.03708 3.09403 7.45009C3.98029 6.85583 5.08937 6.46961 6.16224 6.38167L6.35566 6.36581L6.36171 7.78642L6.36777 9.20701L9.18388 6.90905C10.7327 5.64518 12 4.60231 12 4.59156C12 4.57324 6.38894 0 6.36645 0C6.36073 0 6.35604 0.636269 6.35604 1.41394Z" fill="black" fill-opacity="0.27"/>
</svg>
