<svg width="14" height="13" viewBox="0 0 14 13" fill="none" xmlns="http://www.w3.org/2000/svg">
<path fillRule="evenodd" clipRule="evenodd" d="M10.974 0.0463802C10.9214 0.0722122 10.8492 0.133948 10.8136 0.18358C10.753 0.268042 10.7483 0.309722 10.7399 0.831645L10.7308 1.38944L7.35566 1.3987L3.98049 1.40793L3.65957 1.48618C2.73023 1.71278 2.03344 2.09434 1.39622 2.72554C1.03852 3.07987 0.848068 3.31793 0.628329 3.68547C0.228878 4.35354 -0.0231861 5.26828 0.00272048 5.95591C0.0110351 6.17649 0.0243385 6.23997 0.0778728 6.31468C0.208193 6.49643 0.231124 6.49965 1.39858 6.49965C2.31249 6.49965 2.46804 6.49333 2.55443 6.45255C2.72171 6.37357 2.77262 6.27024 2.81565 5.92238C2.8829 5.37863 3.01611 5.09358 3.36745 4.74157C3.5413 4.56736 3.65738 4.47971 3.82006 4.39974C4.26651 4.18035 3.99831 4.19582 7.54701 4.18511L10.7343 4.1755V4.70189C10.7343 5.12745 10.7434 5.24732 10.7816 5.32761C10.871 5.51493 11.0857 5.60378 11.3378 5.55766C11.4358 5.53975 11.5954 5.39204 12.6812 4.3145C13.3589 3.64197 13.9332 3.04998 13.9576 2.99901C14.014 2.88062 14.0142 2.68862 13.9578 2.57057C13.8991 2.44742 11.5008 0.0677715 11.3961 0.0287332C11.2769 -0.0157037 11.0843 -0.00766389 10.974 0.0463802ZM11.4408 6.54792C11.2773 6.62809 11.2271 6.73182 11.1843 7.0769C11.1176 7.6165 10.9718 7.92489 10.6204 8.27016C10.3831 8.50323 10.1754 8.62871 9.84447 8.73874L9.64025 8.80666L6.45299 8.81525L3.26572 8.82381V8.29742C3.26572 7.87186 3.25665 7.75199 3.21837 7.6717C3.12901 7.48438 2.91426 7.39553 2.6622 7.44165C2.56417 7.45956 2.40459 7.60727 1.31879 8.68481C0.641107 9.35734 0.0667575 9.94933 0.0424264 10.0003C-0.0141421 10.1189 -0.0141421 10.3107 0.0424264 10.4293C0.0667575 10.4803 0.641107 11.0723 1.31879 11.7448C2.40459 12.8224 2.56417 12.9701 2.6622 12.988C2.91426 13.0341 3.12901 12.9453 3.21837 12.7579C3.25662 12.6777 3.26572 12.558 3.26572 12.1343V11.6099L6.64262 11.6006L10.0195 11.5914L10.3404 11.5131C10.7759 11.407 11.0419 11.3116 11.408 11.1306C12.3277 10.6759 13.0652 9.94251 13.5202 9.03044C13.715 8.64009 13.7999 8.4024 13.9015 7.96424C13.9684 7.67565 13.9824 7.54611 13.9846 7.19625C13.987 6.80514 13.9826 6.76897 13.9221 6.68463C13.7917 6.50267 13.7695 6.4996 12.597 6.50032C11.68 6.50087 11.5236 6.50732 11.4408 6.54792Z" fill="black" fill-opacity="0.27"/>
</svg>
