<svg xmlns="http://www.w3.org/2000/svg" width="16" height="16" viewBox="0 0 16 16" fill="none">
  <path fillRule="evenodd" clipRule="evenodd" d="M5.71935 0.0294615C2.4687 0.398402 0 3.16329 0 6.43504C0 9.98502 2.88393 12.8727 6.43158 12.8751C7.7731 12.876 9.15137 12.4342 10.1851 11.6719L10.3848 11.5247L12.5604 13.6975C13.7569 14.8925 14.7839 15.8944 14.8426 15.9238C15.1327 16.0693 15.5286 16.0011 15.7648 15.7647C16.0011 15.5284 16.0693 15.1325 15.9238 14.8422C15.8944 14.7835 14.8933 13.7566 13.6991 12.56L11.5278 10.3846L11.6997 10.1449C13.1494 8.12371 13.2641 5.3397 11.9873 3.16948C10.9573 1.41887 9.14971 0.254027 7.11012 0.0266478C6.78103 -0.0100556 6.05461 -0.00858619 5.71935 0.0294615ZM7.20426 1.66889C8.20649 1.82217 9.1094 2.28516 9.84747 3.02429C10.7879 3.96613 11.262 5.11707 11.2587 6.45068C11.2555 7.73567 10.7997 8.86388 9.90895 9.79162C8.09573 11.6801 5.06059 11.7593 3.14855 9.96804C1.69146 8.60304 1.214 6.52396 1.93436 4.68088C2.6064 2.96145 4.24598 1.74774 6.06314 1.62446C6.46262 1.59739 6.83016 1.61168 7.20426 1.66889Z" fill="black" fill-opacity="0.51"/>
</svg>