<?xml version="1.0" encoding="utf-8"?><!-- Uploaded to: SVG Repo, www.svgrepo.com, Generator: SVG Repo Mixer Tools -->
<svg fill="#FFFFFF" width="800px" height="800px" viewBox="0 0 1024 1024" xmlns="http://www.w3.org/2000/svg"><path d="M379.141 467.247H225.275c-16.962 0-30.72-13.758-30.72-30.72V71.676c0-16.962 13.758-30.72 30.72-30.72h592.824c16.962 0 30.72 13.758 30.72 30.72v364.851c0 16.962-13.758 30.72-30.72 30.72h-76.288v40.96h76.288c39.583 0 71.68-32.097 71.68-71.68V71.676c0-39.583-32.097-71.68-71.68-71.68H225.275c-39.583 0-71.68 32.097-71.68 71.68v364.851c0 39.583 32.097 71.68 71.68 71.68h153.866v-40.96z"/><path d="M560.9 155.288c0-23.331-18.909-42.24-42.24-42.24s-42.24 18.909-42.24 42.24c0 23.331 18.909 42.24 42.24 42.24s42.24-18.909 42.24-42.24zm40.96 0c0 45.953-37.247 83.2-83.2 83.2s-83.2-37.247-83.2-83.2 37.247-83.2 83.2-83.2 83.2 37.247 83.2 83.2zm-318.72 160h474.88c11.311 0 20.48-9.169 20.48-20.48s-9.169-20.48-20.48-20.48H283.14c-11.311 0-20.48 9.169-20.48 20.48s9.169 20.48 20.48 20.48zm386.123 687.36V874.341a40.952 40.952 0 0117.858-33.817l36.384-24.853a81.929 81.929 0 0035.706-67.64v-79.596c0-11.311-9.169-20.48-20.48-20.48s-20.48 9.169-20.48 20.48v79.596a40.964 40.964 0 01-17.853 33.82l-36.379 24.85a81.908 81.908 0 00-35.716 67.64v128.307c0 11.311 9.169 20.48 20.48 20.48s20.48-9.169 20.48-20.48zM341.081 654.171v91.423c0 28.832 15.164 55.54 39.919 70.328l43.023 25.685a40.98 40.98 0 0119.96 35.172v125.87c0 11.311 9.169 20.48 20.48 20.48s20.48-9.169 20.48-20.48v-125.87a81.942 81.942 0 00-39.919-70.338l-43.023-25.685a40.963 40.963 0 01-19.96-35.162v-91.423c0-11.311-9.169-20.48-20.48-20.48s-20.48 9.169-20.48 20.48z"/><path d="M759.113 709.211V495.533c0-36.757-29.803-66.56-66.56-66.56h-2.222c-36.757 0-66.56 29.803-66.56 66.56v126.638c0 11.311 9.169 20.48 20.48 20.48s20.48-9.169 20.48-20.48V495.533c0-14.136 11.464-25.6 25.6-25.6h2.222c14.136 0 25.6 11.464 25.6 25.6v213.678c0 11.311 9.169 20.48 20.48 20.48s20.48-9.169 20.48-20.48z"/><path d="M664.734 576.049V449.411c0-36.757-29.803-66.56-66.56-66.56h-2.222c-36.757 0-66.56 29.803-66.56 66.56v165.55c0 11.311 9.169 20.48 20.48 20.48s20.48-9.169 20.48-20.48v-165.55c0-14.136 11.464-25.6 25.6-25.6h2.222c14.136 0 25.6 11.464 25.6 25.6v126.638c0 11.311 9.169 20.48 20.48 20.48s20.48-9.169 20.48-20.48z"/><path d="M570.921 616.966V403.288c0-36.757-29.803-66.56-66.56-66.56h-2.222c-36.757 0-66.56 29.803-66.56 66.56V566.79c0 11.311 9.169 20.48 20.48 20.48s20.48-9.169 20.48-20.48V403.288c0-14.136 11.464-25.6 25.6-25.6h2.222c14.136 0 25.6 11.464 25.6 25.6v213.678c0 11.311 9.169 20.48 20.48 20.48s20.48-9.169 20.48-20.48z"/><path d="M476.489 612.913V449.411c0-36.757-29.803-66.56-66.56-66.56h-2.222c-36.757 0-66.56 29.803-66.56 66.56v213.678c0 11.311 9.169 20.48 20.48 20.48s20.48-9.169 20.48-20.48V449.411c0-14.136 11.464-25.6 25.6-25.6h2.222c14.136 0 25.6 11.464 25.6 25.6v163.502c0 11.311 9.169 20.48 20.48 20.48s20.48-9.169 20.48-20.48z"/></svg>