<svg width="13" height="16" viewBox="0 0 13 16" fill="none" xmlns="http://www.w3.org/2000/svg">
<path fillRule="evenodd" clipRule="evenodd" d="M3.33859 0.946841C1.67433 1.46656 0.267528 1.91931 0.212368 1.95291C0.157238 1.98654 0.086912 2.06305 0.0560671 2.12293C0.00229171 2.22741 4.7051e-06 2.3813 4.7051e-06 5.89275C4.7051e-06 9.86726 -0.00333554 9.77834 0.167981 10.3486C0.270386 10.6895 0.524458 11.2298 0.738597 11.5621C1.68278 13.0274 3.66368 14.6266 6.02616 15.8308C6.4687 16.0564 6.5313 16.0564 6.97384 15.8308C9.33632 14.6266 11.3172 13.0274 12.2614 11.5621C12.4755 11.2298 12.7296 10.6895 12.832 10.3486C13.0033 9.77834 13 9.86726 13 5.89275C13 2.39127 12.9976 2.2271 12.9444 2.12293C12.9137 2.06305 12.8359 1.98375 12.7713 1.94672C12.5912 1.84342 6.63361 -0.00218584 6.48742 1.94348e-06C6.41773 0.00106458 5.05586 0.410554 3.33859 0.946841Z" fill="black" fill-opacity="0.4"/>
</svg>
