<svg width="60" height="49" viewBox="0 0 60 49" fill="none" xmlns="http://www.w3.org/2000/svg">
<g id="Frame 128">
<path id="image 173 (Traced)" fillRule="evenodd" clipRule="evenodd" d="M24.0361 0.110478C22.557 0.394249 21.1229 1.47207 20.5036 2.76519C20.0531 3.70594 19.9219 4.43861 19.9219 6.01423V7.31559H13.1787C5.61972 7.31559 5.32944 7.33953 3.75011 8.09465C2.59922 8.64489 1.38458 9.80746 0.795244 10.9228C0.060013 12.3142 0.000130451 12.7295 0.000130451 16.4364V19.7413L14.8541 24.5792C23.0237 27.2401 29.8395 29.4172 30 29.4172C30.1605 29.4172 36.9763 27.2401 45.146 24.5792L59.9999 19.7413V16.4364C59.9999 12.7295 59.94 12.3142 59.2048 10.9228C58.6154 9.80746 57.4008 8.64489 56.2499 8.09465C54.6706 7.33953 54.3803 7.31559 46.8213 7.31559H40.0781V6.01423C40.0781 4.43861 39.947 3.70594 39.4964 2.76519C38.8576 1.43119 37.4471 0.395394 35.8721 0.103493C35.1053 -0.0386218 24.7814 -0.0325523 24.0361 0.110478ZM34.9219 6.17043V7.31559H30H25.0781V6.17043V5.02527H30H34.9219V6.17043ZM0.000130451 33.3801C0.000130451 44.2764 -0.0292835 43.8318 0.795244 45.3922C1.38458 46.5075 2.59922 47.6701 3.75011 48.2204C5.48519 49.0499 3.78468 48.9994 30 48.9994C56.2153 48.9994 54.5148 49.0499 56.2499 48.2204C57.4008 47.6701 58.6154 46.5075 59.2048 45.3922C60.0293 43.8318 59.9999 44.2764 59.9999 33.3801C59.9999 27.9884 59.96 23.5769 59.9114 23.5769C59.8628 23.5769 53.4161 25.6725 45.5853 28.2338L31.3477 32.8908H30H28.6524L14.4147 28.2338C6.58393 25.6725 0.137239 23.5769 0.0886066 23.5769C0.039974 23.5769 0.000130451 27.9884 0.000130451 33.3801Z" fill="black" fill-opacity="0.79"/>
</g>
</svg>
