<svg width="18" height="15" viewBox="0 0 18 15" fill="none" xmlns="http://www.w3.org/2000/svg">
<path fillRule="evenodd" clipRule="evenodd" d="M0.174637 0.449825C0.650196 1.38756 1.30171 2.1232 2.1483 2.67816C2.4102 2.84987 2.62419 3.00512 2.62386 3.02321C2.62353 3.0413 2.58121 3.18945 2.52982 3.35242C2.41749 3.70874 2.41335 3.87348 2.50866 4.19259C2.64775 4.65835 3.20935 5.08928 3.98805 5.32775C4.18201 5.38712 4.36717 5.45509 4.39947 5.47879C4.49728 5.55046 4.46615 5.67243 4.31305 5.81721C3.94804 6.16245 3.19473 7.49736 3.27786 7.65173C3.30805 7.70783 3.95692 7.94797 5.32426 8.40915C6.42547 8.78062 7.32647 9.10071 7.32647 9.12053C7.32647 9.14035 7.15188 9.29453 6.93855 9.4632C6.67228 9.67366 6.31474 9.88539 5.79832 10.1385C4.57862 10.7362 3.27457 11.1615 1.01098 11.6998L0.878619 11.7313L1.16709 12.2789C1.57513 13.0537 2.19024 13.9538 2.5893 14.3601C2.93447 14.7116 3.36494 14.9992 3.54696 15C3.68331 15.0006 4.57575 14.0708 4.78335 13.7119C5.09335 13.1758 5.05616 13.2114 5.27353 13.2436C5.89151 13.3351 6.37262 13.3646 7.25749 13.3654C8.33805 13.3663 9.0221 13.2982 9.90885 13.1012C12.7085 12.4794 14.4559 10.7696 14.9878 8.13161C15.1475 7.33968 15.427 6.94124 16.0181 6.6628C16.3266 6.51751 16.3421 6.51526 17.1654 6.49927C17.6335 6.49016 18 6.46407 18 6.43981C18 6.34552 17.7147 5.77906 17.5043 5.45542C16.764 4.31694 15.7125 3.8948 14.5213 4.25785C14.0808 4.39207 13.3861 4.76045 12.9095 5.11256C12.6829 5.27992 12.4713 5.41666 12.4393 5.41638C12.4073 5.4161 11.6563 4.82052 10.7704 4.09283C9.86917 3.35246 8.989 2.66867 8.77205 2.5403C7.13984 1.57437 3.6724 0.506905 0.814202 0.0904662C-0.161462 -0.0516972 -0.0978442 -0.0874603 0.174637 0.449825ZM15.4464 5.11939C15.4839 5.21653 15.4059 5.34177 15.2944 5.36355C15.174 5.38707 15.075 5.24182 15.1353 5.12995C15.1934 5.02191 15.406 5.01472 15.4464 5.11939Z" fill="white"/>
</svg>
