<svg width="34" height="39" viewBox="0 0 34 39" fill="none" xmlns="http://www.w3.org/2000/svg">
<path fillRule="evenodd" clipRule="evenodd" d="M14.9506 0.107899C12.5115 0.530874 10.3075 1.86722 8.76651 3.85763C7.52058 5.46686 6.9127 7.27286 6.91406 9.36127C6.91565 11.9588 7.78147 14.0469 9.61871 15.884C11.0901 17.3553 12.7392 18.2368 14.7976 18.6526C15.7425 18.8434 17.7642 18.8423 18.6998 18.6505C20.7381 18.2325 22.4896 17.2904 23.9027 15.8519C26.0124 13.7042 26.928 10.8772 26.4668 7.93592C26.1611 5.98692 25.3031 4.3481 23.8209 2.8818C22.2552 1.33297 20.4987 0.424177 18.4587 0.107289C17.536 -0.0360167 15.7786 -0.0357117 14.9506 0.107899ZM7.46244 18.9461C5.58698 19.2713 3.91005 20.2623 2.77115 21.7185C0.945772 24.0524 -0.088005 27.9756 0.00588781 32.2123C0.03838 33.679 0.0595637 33.8717 0.257384 34.5003C0.938843 36.666 2.65145 38.2272 5.00467 38.8279L5.67904 39H16.9876H28.2961L28.9731 38.8275C31.1818 38.2647 32.837 36.8606 33.5745 34.924C33.9236 34.0074 34.0063 33.3941 33.9996 31.7714C33.9747 25.7387 31.998 21.2478 28.6545 19.6278C27.6775 19.1545 26.2819 18.8274 25.2396 18.8275C24.5811 18.8276 24.1828 18.9997 22.6419 19.9501C21.2786 20.7909 20.9588 20.9473 19.8944 21.2944C17.8847 21.9495 16.1363 21.9616 14.2003 21.3337C13.1847 21.0044 12.5237 20.684 11.2935 19.9248C9.74351 18.9683 9.40059 18.826 8.66545 18.8344C8.33695 18.838 7.79557 18.8884 7.46244 18.9461Z" fill="url(#paint0_radial_105_555)"/>
<defs>
<radialGradient id="paint0_radial_105_555" cx="0" cy="0" r="1" gradientUnits="userSpaceOnUse" gradientTransform="translate(17 19.5) rotate(90) scale(34 29.641)">
<stop stopColor="#FCFCFC"/>
<stop offset="1" stopColor="#FCFCFC" stopOpacity="0"/>
</radialGradient>
</defs>
</svg>
