<svg width="71" height="61" viewBox="0 0 71 61" fill="none" xmlns="http://www.w3.org/2000/svg">
<path fillRule="evenodd" clipRule="evenodd" d="M11.9383 0.0988408C10.1895 0.630279 9.80064 3.10944 11.2875 4.24871L11.7775 4.62429L18.0929 4.694L24.4082 4.7637L23.5871 5.30866C22.2961 6.16563 20.808 7.41364 19.2219 8.96934L17.76 10.4033L9.54952 10.4415C1.50367 10.4789 1.33126 10.4853 0.955618 10.7671C0.199342 11.3342 0 11.7491 0 12.7552C0 13.878 0.313172 14.4159 1.22478 14.8591C1.80407 15.1407 2.02035 15.1499 8.10679 15.1499C11.5629 15.1499 14.3699 15.197 14.3444 15.2544C14.319 15.3119 13.9127 16.1432 13.4414 17.1017C11.4923 21.0664 10.5358 24.9404 10.3823 29.4915C10.2424 33.6397 10.7672 36.9966 12.1723 40.9411C12.7475 42.5555 14.0709 45.2631 14.934 46.5909C15.3257 47.1933 15.6775 47.7684 15.7158 47.8687C15.772 48.016 15.1115 48.0511 12.2844 48.0511C9.01021 48.0511 8.75049 48.0696 8.27615 48.3373C7.5064 48.7719 7.08954 49.475 7.08954 50.3395C7.08954 51.5241 7.76808 52.3952 8.89499 52.6577C9.19456 52.7274 11.8036 52.7859 14.6931 52.7878L19.9467 52.7911L21.1494 53.8018C21.811 54.3578 22.8113 55.1262 23.3724 55.5096L24.3924 56.2067L13.0291 56.2764C4.4112 56.3292 1.5939 56.3875 1.36846 56.5172C0.887181 56.7942 0.365367 57.5028 0.20656 58.095C-0.0880101 59.1937 0.539444 60.3829 1.63499 60.8027C2.16638 61.0062 4.16021 61.0229 22.9743 60.982C43.5832 60.9371 43.739 60.9347 45.3932 60.6336C51.9891 59.4328 57.0769 56.88 61.6349 52.4845C64.3898 49.8278 66.1908 47.3755 67.8648 44.002C69.4152 40.8781 70.4319 37.4745 70.8604 33.9741C71.0465 32.4533 71.0465 28.5171 70.8604 26.9963C70.4319 23.4959 69.4152 20.0923 67.8648 16.9684C66.1908 13.5949 64.3898 11.1426 61.6349 8.48586C57.0762 4.08964 51.9739 1.53004 45.3932 0.33849C43.7574 0.0422393 43.4448 0.0362445 28.0411 0.00459804C18.9419 -0.0140832 12.1798 0.0255102 11.9383 0.0988408ZM43.311 11.8692C45.8568 12.2353 48.6498 13.2678 50.7462 14.618C52.7492 15.908 54.9755 18.0845 56.2231 19.972C59.3286 24.6706 60.2017 30.4333 58.6292 35.8526C57.9808 38.0869 56.7145 40.4639 55.1385 42.4049C52.4253 45.7463 48.8509 47.9281 44.4797 48.911C42.5801 49.338 38.9732 49.3677 37.1336 48.9716C32.9433 48.0691 29.5654 46.1335 26.8181 43.0601C24.4013 40.3565 22.9083 37.3136 22.2559 33.7614C22.02 32.4771 21.9856 31.8539 22.0442 29.9275C22.1408 26.7506 22.5936 24.8635 23.8973 22.2062C26.0069 17.9056 29.7059 14.5342 34.1633 12.8492C36.9922 11.7799 40.2569 11.4302 43.311 11.8692ZM37.203 16.6152C34.6567 17.2748 32.5656 18.474 30.6878 20.3513C29.6455 21.3932 28.1105 23.4871 28.1105 23.8669C28.1105 24.0078 33.6311 25.885 34.0449 25.8847C34.1404 25.8846 34.2185 25.8326 34.2185 25.7692C34.2185 25.5688 35.7878 24.094 36.4408 23.6806C36.7852 23.4627 37.3629 23.1708 37.7248 23.0321L38.383 22.7796V19.5921C38.383 15.9929 38.4968 16.2801 37.203 16.6152ZM42.9639 19.5798V22.7796L43.6233 23.0294C44.6313 23.4114 45.6183 24.0959 46.5532 25.0615L47.4014 25.9373L50.076 25.0566C51.547 24.5723 52.8915 24.1227 53.0636 24.0576L53.3766 23.9392L52.933 23.2041C51.5006 20.8305 49.4319 18.8906 47.0591 17.6965C46.0675 17.1976 44.3756 16.6081 43.5539 16.4754L42.9639 16.3801V19.5798ZM39.0923 27.367C37.6929 28.0672 36.9123 29.7032 37.2552 31.2171C37.9798 34.417 42.2996 34.9885 43.841 32.0884C44.068 31.6614 44.1375 31.2858 44.1375 30.4852C44.1375 29.6846 44.068 29.309 43.841 28.882C42.9327 27.173 40.8239 26.5002 39.0923 27.367ZM26.5351 28.77C26.2731 30.3614 26.5613 33.2287 27.1595 34.9843C27.7603 36.7473 28.8722 38.6777 30.0284 39.9652C30.5746 40.5733 30.5981 40.5841 30.7947 40.3137C30.9063 40.1604 31.7486 38.9998 32.6665 37.7346L34.3356 35.4343L34.059 35.0161C33.3175 33.8949 32.6977 31.9901 32.6935 30.8198L32.6915 30.2481L29.8224 29.3077C28.2445 28.7905 26.8789 28.3385 26.7878 28.3035C26.6853 28.2639 26.5891 28.4416 26.5351 28.77ZM51.6747 29.2697L48.6555 30.2616L48.6538 30.9659C48.6514 31.9618 48.3416 33.0239 47.6675 34.3462L47.085 35.4887L47.9686 36.7162C48.4546 37.3914 49.2862 38.5366 49.8167 39.2613L50.7812 40.5789L51.3777 39.9172C52.7639 38.3794 53.888 36.2578 54.4915 34.0402C54.8195 32.8344 55.0344 29.1592 54.8106 28.5799C54.6954 28.2815 54.6567 28.2902 51.6747 29.2697ZM36.0613 40.691L34.2254 43.2414L34.9507 43.569C37.7844 44.8492 41.2525 45.1166 44.3624 44.2949C44.9407 44.1421 45.8021 43.8425 46.2765 43.6292L47.1393 43.2414L45.3223 40.732C43.2836 37.9164 43.6035 38.1215 41.7082 38.4155C40.7057 38.5711 40.311 38.5481 38.383 38.2227L37.8971 38.1406L36.0613 40.691Z" fill="white" fill-opacity="0.55"/>
</svg>
