<svg width="25" height="25" viewBox="0 0 25 25" fill="none" xmlns="http://www.w3.org/2000/svg">
    <path fill-rule="evenodd" clip-rule="evenodd"
        d="M11.7327 0.0109415C9.08161 0.212578 6.82696 1.07065 4.76153 2.66392C4.22654 3.07664 3.06155 4.24183 2.6489 4.77692C1.20227 6.65286 0.382999 8.63502 0.060319 11.0398C-0.0201063 11.639 -0.0201063 13.3764 0.060319 13.9756C0.443073 16.8279 1.56966 19.1971 3.48945 21.1869C5.51731 23.2887 8.02087 24.5361 11.0234 24.9408C11.6693 25.0278 13.4052 25.0168 14.0826 24.9214C17.0103 24.509 19.52 23.2379 21.5246 21.1523C22.1095 20.5438 22.7727 19.7011 22.9178 19.3822C23.2034 18.7542 22.7395 18.0367 22.0479 18.0367C21.6432 18.0367 21.4521 18.1722 21.0012 18.779C19.9823 20.1504 18.7165 21.209 17.1852 21.9704C13.4527 23.8264 9.09692 23.3371 5.81186 20.6928C3.9745 19.2138 2.61573 16.9825 2.1436 14.6688C1.51722 11.5995 2.216 8.57557 4.14093 6.02568C4.52168 5.52132 5.50581 4.53702 6.01008 4.15621C7.33906 3.15262 8.8238 2.46605 10.3302 2.15853C12.2213 1.77248 13.9943 1.87685 15.842 2.48293C17.9214 3.165 19.7729 4.53037 21.0856 6.34964C21.5155 6.9455 21.6616 7.07091 22.0141 7.14699C22.3633 7.22234 22.8331 6.98078 23.0093 6.63534C23.1685 6.32332 23.1423 5.98023 22.9324 5.63029C22.3801 4.7092 21.0248 3.2586 20.0247 2.51792C18.22 1.18132 16.2799 0.387108 14.1317 0.105472C13.5527 0.0295345 12.1926 -0.0240427 11.7327 0.0109415ZM12.6867 7.90622C12.1668 8.00369 11.5153 8.34693 11.1855 8.69706C10.815 9.0904 10.5194 9.75584 10.4572 10.3366C10.4008 10.8628 10.6057 11.6124 10.9327 12.0761C10.9854 12.1509 11.0051 12.2197 10.9785 12.2361C10.8542 12.3129 10.4768 12.9703 10.3579 13.3169C10.2456 13.6444 10.2242 13.7883 10.2242 14.2202C10.2242 14.652 10.2456 14.7965 10.358 15.1254C10.6543 15.9918 11.2243 16.5963 12.0579 16.9278C13.8011 17.6212 15.7101 16.5124 16.0151 14.6296C16.1215 13.9723 15.9411 13.1961 15.5423 12.5962C15.4212 12.414 15.3011 12.252 15.2754 12.2361C15.2488 12.2197 15.2685 12.1509 15.3212 12.0761C15.6549 11.6029 15.8468 10.8949 15.7934 10.3344C15.7123 9.48379 15.2184 8.68145 14.5263 8.27578C13.9768 7.95368 13.2318 7.80401 12.6867 7.90622ZM6.95415 7.97697C6.73122 8.05658 4.91324 9.37536 4.71486 9.60132C4.3644 10.0006 4.41405 10.5658 4.83178 10.9326C5.17819 11.2369 5.61422 11.2486 6.03543 10.9651L6.27807 10.8018L6.27836 13.5263C6.27851 15.371 6.29612 16.3139 6.33291 16.4463C6.44983 16.8676 6.98091 17.2094 7.39713 17.1313C7.76486 17.0623 8.08862 16.7757 8.18304 16.4356C8.25637 16.1715 8.25358 8.88289 8.18005 8.61799C8.10922 8.36273 7.78062 8.03407 7.5254 7.96322C7.2781 7.89453 7.17816 7.89697 6.95415 7.97697ZM21.2722 9.35193C21.0247 9.43951 20.7334 9.74742 20.665 9.99387C20.6361 10.0982 20.6122 10.5304 20.6121 10.9542L20.6118 11.7248L19.8413 11.7251C18.9718 11.7254 18.7745 11.7636 18.5289 11.9794C18.2267 12.2448 18.117 12.5852 18.2157 12.9517C18.2897 13.2266 18.6084 13.5531 18.8753 13.6271C18.9828 13.657 19.4175 13.6816 19.8413 13.6817L20.6118 13.682L20.6121 14.4526C20.6124 15.3222 20.6506 15.5196 20.8663 15.7653C21.1316 16.0675 21.472 16.1772 21.8384 16.0785C22.1133 16.0045 22.4397 15.6857 22.5138 15.4188C22.5437 15.3113 22.5682 14.8765 22.5683 14.4526L22.5686 13.682L23.3391 13.6817C23.7629 13.6816 24.1976 13.657 24.3051 13.6271C24.572 13.5531 24.8907 13.2266 24.9647 12.9517C25.0634 12.5852 24.9537 12.2448 24.6516 11.9794C24.4059 11.7636 24.2086 11.7254 23.3391 11.7251L22.5686 11.7248L22.5683 10.9542C22.5682 10.5304 22.5437 10.0955 22.5138 9.988C22.4429 9.73274 22.1143 9.40408 21.8591 9.33324C21.609 9.26376 21.5127 9.26684 21.2722 9.35193ZM13.5586 9.94778C13.862 10.1702 13.9471 10.6854 13.7296 10.9823C13.5073 11.2857 12.9921 11.3709 12.6953 11.1533C12.3919 10.9309 12.3067 10.4157 12.5243 10.1188C12.7466 9.81538 13.2618 9.7302 13.5586 9.94778ZM13.507 13.3174C13.7487 13.4184 13.9036 13.5675 14.0129 13.8043C14.1825 14.1719 14.09 14.6779 13.8054 14.9396C13.4383 15.2771 12.8156 15.2771 12.4485 14.9396C12.077 14.598 12.0573 13.9229 12.4077 13.5417C12.66 13.2671 13.1483 13.1675 13.507 13.3174Z"
        fill="white" />
</svg>
    