<svg width="25" height="23" viewBox="0 0 25 23" fill="none" xmlns="http://www.w3.org/2000/svg">
    <path fill-rule="evenodd" clip-rule="evenodd"
        d="M12.1452 0.0186585C11.9209 0.0566239 11.4384 0.227918 11.2404 0.339924C10.9731 0.491021 0.498767 10.1301 0.332956 10.3776C0.0896673 10.7407 0.00123435 11.0406 1.1547e-05 11.5069C-0.00121125 11.9661 0.0945585 12.2818 0.347336 12.6517C0.752083 13.244 1.53707 13.6211 2.36515 13.6211H2.65623L2.65706 17.186C2.65799 21.1135 2.65681 21.0957 2.95973 21.6634C3.1676 22.0529 3.65457 22.5137 4.05022 22.6953C4.73479 23.0095 4.63516 23 7.2316 23C9.39429 23 9.592 22.9936 9.7132 22.9206C10.0322 22.7285 10.015 22.9003 10.0419 19.6283L10.0664 16.6574L10.1992 16.4258C10.357 16.1507 10.6145 15.9435 10.9161 15.849C11.2362 15.7487 13.7389 15.7487 14.059 15.849C14.3438 15.9382 14.615 16.1465 14.7511 16.3806C14.8595 16.5669 14.8598 16.576 14.8842 19.5363C14.9079 22.4027 14.9121 22.5104 15.0065 22.6579C15.0603 22.7419 15.1665 22.8532 15.2425 22.9053C15.3783 22.9984 15.4183 23 17.7125 23C20.2821 23 20.2628 23.0017 20.8759 22.7138C21.3376 22.4971 21.7667 22.1007 21.999 21.6764C22.3208 21.0889 22.317 21.1407 22.318 17.186L22.3189 13.6211H22.6099C23.2722 13.6211 23.8731 13.3991 24.318 12.9899C24.6511 12.6835 24.8479 12.3308 24.949 11.8589C25.017 11.5418 25.017 11.472 24.949 11.1549C24.7891 10.4083 25.1534 10.7796 19.265 5.36008C16.331 2.65968 13.8337 0.395523 13.7155 0.328589C13.293 0.0894612 12.57 -0.0532237 12.1452 0.0186585Z"
        fill="white" />
</svg>
    