<svg width="17" height="32" viewBox="0 0 17 32" fill="none" xmlns="http://www.w3.org/2000/svg">
    <path fill-rule="evenodd" clip-rule="evenodd"
        d="M15.4819 0.0597635C15.0226 0.215207 14.8286 0.485152 14.6291 1.24666C14.0157 3.58864 12.7094 5.46805 11.0593 6.38275C10.1043 6.91206 9.12169 7.13568 7.33812 7.22958C6.02914 7.29851 5.55217 7.35917 4.87065 7.54347C2.77103 8.11129 1.24201 9.34538 0.473595 11.0924C-0.198267 12.6198 -0.156726 14.0269 0.607456 15.6267C1.17871 16.8227 2.89941 19.1164 3.45022 19.4162C3.55625 19.4738 3.77021 19.5236 3.92571 19.5268C4.16625 19.5317 4.20868 19.5512 4.21011 19.6578C4.21107 19.7266 4.09985 22.2837 3.96301 25.3401C3.68612 31.5225 3.68057 31.2427 4.08853 31.6515C4.55364 32.1174 5.25316 32.1147 5.70004 31.6453C5.82311 31.5161 5.95268 31.3155 5.98802 31.1997C6.02336 31.0838 6.33584 28.4535 6.68235 25.3546C7.02892 22.2558 7.32412 19.6852 7.3383 19.6421C7.35255 19.5991 7.4463 19.5639 7.54672 19.5639C7.64714 19.5639 7.74143 19.5991 7.75633 19.6421C7.77123 19.6852 8.06643 22.2417 8.41234 25.3233C8.75825 28.405 9.06465 31.0171 9.09326 31.128C9.25317 31.7474 9.9177 32.1315 10.53 31.9583C10.8633 31.8641 11.2046 31.5098 11.3067 31.152C11.3732 30.9186 11.3398 29.8923 11.0712 23.9229C10.7617 17.0437 10.7584 16.9256 10.7765 13.3727L10.7949 9.7796L11.3313 9.55298C13.952 8.44577 15.8278 6.19362 16.6625 3.1523C16.8792 2.36312 17.0442 1.28028 16.9894 1.00783C16.8408 0.268983 16.1491 -0.165984 15.4819 0.0597635ZM7.27852 1.01071C5.90053 1.20183 4.92709 2.33933 4.92501 3.7608C4.92298 5.13369 5.84629 6.26493 7.15468 6.49268C8.12614 6.66177 9.17682 6.18042 9.72305 5.31593C10.0747 4.75939 10.1809 4.35453 10.1569 3.66189C10.1385 3.13151 10.1128 3.0152 9.92235 2.59763C9.59056 1.87037 9.0078 1.3313 8.33397 1.12827C8.00313 1.02861 7.52973 0.975899 7.27852 1.01071ZM4.32836 13.8394C4.32836 15.734 4.30827 16.6785 4.26846 16.6526C4.08358 16.5325 3.20658 14.9928 2.9419 14.3236C2.77705 13.9066 2.74957 13.7629 2.75291 13.3348C2.75631 12.8972 2.78134 12.7836 2.95126 12.4349C3.05818 12.2152 3.27101 11.8941 3.42412 11.7211C3.69339 11.4169 4.19217 10.992 4.28366 10.9888C4.30821 10.9879 4.32836 12.2707 4.32836 13.8394Z"
        fill="white" />
</svg>
    