<svg width="25" height="24" viewBox="0 0 25 24" fill="none" xmlns="http://www.w3.org/2000/svg">
    <path fill-rule="evenodd" clip-rule="evenodd"
        d="M11.4791 0.0321765C7.59844 0.36255 4.13241 2.34921 2.02381 5.45172C-0.686937 9.44029 -0.673532 14.6079 2.05791 18.5972C4.98612 22.8738 10.4293 24.8926 15.6169 23.6261C20.2507 22.4948 23.8128 18.8902 24.762 14.3719C24.9504 13.4752 25.0002 12.9789 25 12.001C24.9998 10.579 24.8274 9.54508 24.3673 8.20396C22.9982 4.21417 19.4875 1.18503 15.1694 0.267856C14.119 0.0447586 12.5262 -0.0569779 11.4791 0.0321765ZM8.63096 7.83964C8.95748 8.00007 9.2271 8.25743 9.37915 8.55391C9.47959 8.74978 9.49759 8.85311 9.49696 9.23104C9.49632 9.62165 9.48018 9.70644 9.36682 9.91367C9.20929 10.2017 8.86051 10.5189 8.5523 10.6547C8.37945 10.7308 8.22759 10.7556 7.93112 10.7562C7.58523 10.7568 7.49981 10.7385 7.21077 10.6019C6.63836 10.3315 6.32384 9.84625 6.32075 9.22879C6.31919 8.92142 6.34018 8.83307 6.47912 8.56227C6.66747 8.19509 6.97334 7.91537 7.33807 7.77673C7.70406 7.63758 8.27622 7.66542 8.63096 7.83964ZM17.6577 7.77603C18.1459 7.95129 18.4943 8.32316 18.6491 8.8341C18.7564 9.18832 18.7154 9.53959 18.5223 9.91949C18.352 10.2547 18.1253 10.4629 17.7435 10.6347C17.3813 10.7977 16.8057 10.8067 16.4607 10.6547C16.1524 10.5189 15.8037 10.2017 15.6461 9.91367C15.5328 9.70644 15.5166 9.62165 15.516 9.23104C15.5154 8.85893 15.534 8.74851 15.6284 8.56471C15.825 8.18161 16.2314 7.8527 16.665 7.72565C16.9062 7.655 17.3888 7.6795 17.6577 7.77603ZM6.68827 14.5141C7.19496 14.6797 8.31047 14.937 9.00846 15.0492C10.2031 15.2413 11.0524 15.3028 12.5065 15.3028C14.73 15.3028 16.5459 15.0601 18.2521 14.5349C18.971 14.3136 19.3088 14.3805 19.5187 14.7856C19.6071 14.9562 19.6067 14.9647 19.4822 15.4392C18.9121 17.6135 16.887 19.2739 14.1579 19.8046C13.6814 19.8973 13.459 19.9117 12.5065 19.9117C11.554 19.9117 11.3315 19.8973 10.8551 19.8046C9.02069 19.4478 7.51194 18.603 6.52848 17.3818C5.97501 16.6947 5.47286 15.5908 5.44864 15.0082C5.43925 14.7823 5.56508 14.5962 5.80745 14.4776C6.03724 14.3651 6.26092 14.3744 6.68827 14.5141Z"
        fill="white" />
</svg>
    