<svg width="15" height="15" viewBox="0 0 15 15" fill="none" xmlns="http://www.w3.org/2000/svg">
    <path fill-rule="evenodd" clip-rule="evenodd"
        d="M7.22817 0.0359793C7.04599 0.103959 6.86175 0.241361 6.76899 0.378402C6.72423 0.444579 6.28583 1.439 5.79476 2.58823C4.94367 4.58013 4.89803 4.67777 4.81758 4.67787C4.77119 4.6779 3.8239 4.74336 2.71248 4.82334C0.494882 4.98286 0.512334 4.98011 0.26804 5.21207C0.0122535 5.45492 -0.074875 5.89695 0.0697171 6.2183C0.119781 6.32964 0.512334 6.74342 1.67113 7.90632L3.20621 9.44684L2.74808 11.7248C2.25592 14.172 2.24845 14.229 2.38574 14.4983C2.48567 14.6944 2.71746 14.8913 2.91886 14.9512C3.13061 15.0142 3.25516 15.0158 3.44288 14.9583C3.52228 14.934 4.45656 14.3778 5.51906 13.7224C6.58157 13.0669 7.47361 12.5306 7.50138 12.5304C7.52914 12.5303 8.39339 13.0491 9.42197 13.6834C10.4505 14.3176 11.3505 14.867 11.4217 14.9042C11.8353 15.12 12.3945 14.9297 12.6143 14.4983C12.7515 14.229 12.7441 14.172 12.2519 11.7248L11.7938 9.44684L13.3289 7.90632C14.4877 6.74342 14.8802 6.32964 14.9303 6.2183C15.0749 5.89695 14.9877 5.45492 14.732 5.21207C14.4867 4.97922 14.5137 4.98342 12.2001 4.81639L10.0921 4.66424L9.18281 2.53926C8.20554 0.255455 8.19945 0.243917 7.89386 0.0889471C7.71116 -0.00371373 7.40069 -0.0284277 7.22817 0.0359793Z"
        fill="white" />
</svg>
    