<svg width="13" height="33" viewBox="0 0 13 33" fill="none" xmlns="http://www.w3.org/2000/svg">
    <path fill-rule="evenodd" clip-rule="evenodd"
        d="M5.83415 0.0853167C4.6754 0.359538 3.84318 1.19104 3.58992 2.3277C3.48935 2.77927 3.48461 2.92549 3.55725 3.34321C3.67115 3.99886 3.93439 4.50189 4.4019 4.95721C5.58466 6.10929 7.41534 6.10929 8.5981 4.95721C10.2852 3.31385 9.4223 0.547701 7.07233 0.0662829C6.61515 -0.0273903 6.28924 -0.0224279 5.83415 0.0853167ZM2.3666 6.94766C1.24386 7.32031 0.419174 8.18492 0.111131 9.31233C-0.0331207 9.84004 -0.0387738 18.9156 0.104919 19.2505C0.383652 19.9004 1.26514 20.1514 1.86992 19.7532C2.36988 19.4241 2.34371 19.6702 2.38252 14.9261C2.41273 11.2313 2.43144 10.6493 2.52209 10.5935C2.6951 10.4871 2.93126 10.5186 3.00816 10.6585C3.05702 10.7475 3.08088 14.1923 3.08193 21.314C3.0834 31.3907 3.08891 31.8497 3.21201 32.1137C3.39542 32.5071 3.8572 32.8687 4.29882 32.9649C4.9983 33.1174 5.71496 32.7616 6.02049 32.1099C6.14052 31.8539 6.14806 31.5207 6.14952 26.4216C6.15092 21.5896 6.16292 20.9937 6.2607 20.8984C6.40641 20.7566 6.5917 20.7634 6.73344 20.916C6.83882 21.0294 6.84908 21.5121 6.85047 26.4392C6.85194 31.5212 6.85948 31.854 6.97951 32.1099C7.28504 32.7616 8.00169 33.1174 8.70118 32.9649C9.1428 32.8687 9.60458 32.5071 9.78799 32.1137C9.91109 31.8497 9.9166 31.3907 9.91807 21.314C9.91912 14.1923 9.94298 10.7475 9.99184 10.6585C10.0687 10.5186 10.3049 10.4871 10.4779 10.5935C10.5686 10.6493 10.5873 11.2313 10.6175 14.9261C10.6563 19.6702 10.6301 19.4241 11.1301 19.7532C11.7349 20.1514 12.6163 19.9004 12.8951 19.2505C13.0388 18.9156 13.0331 9.84004 12.8889 9.31233C12.5766 8.16969 11.6966 7.2643 10.5683 6.92482C10.1378 6.79532 9.92554 6.78832 6.47523 6.79002C2.8665 6.79172 2.83223 6.79308 2.3666 6.94766Z"
        fill="white" />
</svg>
    