<svg width="22" height="32" viewBox="0 0 22 32" fill="none" xmlns="http://www.w3.org/2000/svg">
    <path fill-rule="evenodd" clip-rule="evenodd"
        d="M19.7558 0.0407888C19.4853 0.123155 19.2306 0.27756 19.0615 0.461819C18.9718 0.559519 17.6131 2.38947 16.0421 4.52829L13.1858 8.41714L11.3106 8.88649L9.43541 9.35584L5.86833 5.71747C3.24574 3.04239 2.21751 2.03347 1.98506 1.90692C1.28566 1.52619 0.444853 1.80033 0.113222 2.51715C-0.0377408 2.84348 -0.0377408 3.37999 0.113222 3.70632C0.19083 3.87412 1.57889 5.32998 4.32262 8.12148L8.41619 12.2863L9.21497 15.5382C9.65423 17.3267 10.1565 19.3689 10.3311 20.0764L10.6486 21.3627L10.3237 22.5129C10.1451 23.1455 9.99224 23.6681 9.98404 23.6742C9.97591 23.6804 9.05463 23.5216 7.93679 23.3213C3.91507 22.6007 3.99749 22.612 3.61058 22.7246C3.16 22.8557 2.7946 23.1292 2.57847 23.4972C2.42495 23.7586 2.40231 23.8614 2.40231 24.2978C2.40231 24.6695 2.43395 24.8624 2.525 25.0462C2.69135 25.382 3.07307 25.7403 3.39088 25.859C3.64384 25.9535 10.949 27.2707 11.2201 27.2707C11.7057 27.2707 12.3385 26.8933 12.621 26.4354C12.7251 26.2664 14.3155 20.7842 14.3155 20.5939C14.3155 20.5293 14.7644 20.3861 14.9668 20.3861C15.0549 20.3861 15.6741 21.1327 17.4958 23.4361L18.2003 24.3269L16.0586 26.8134C14.8806 28.1809 13.8447 29.4277 13.7566 29.584C13.6241 29.819 13.5963 29.9495 13.5963 30.3376C13.5963 30.7419 13.6224 30.854 13.7839 31.1464C14.2253 31.9448 15.1788 32.2268 16.0106 31.8051C16.2518 31.6828 16.7776 31.105 19.0386 28.4781C20.6829 26.5679 21.8239 25.1899 21.8976 25.0253C22.0474 24.691 22.0301 23.9804 21.8638 23.6406C21.7615 23.4317 18.0889 18.7785 17.6649 18.3206C17.4709 18.1112 17.4188 17.9253 16.4768 14.0785C15.935 11.8658 15.5067 10.0163 15.525 9.96845C15.5434 9.92063 16.7898 8.21042 18.2948 6.16804C19.7998 4.1256 21.1242 2.30128 21.2379 2.11402C21.5866 1.53965 21.5083 0.863885 21.0387 0.393848C20.7216 0.076464 20.1529 -0.0800688 19.7558 0.0407888ZM9.68781 2.41613C9.14705 2.59107 8.81649 2.78647 8.46378 3.13946C7.34325 4.26092 7.34594 6.08517 8.46972 7.20988C9.47174 8.21279 11.0764 8.33252 12.2043 7.48859C13.6159 6.43229 13.7704 4.3839 12.5318 3.14441C11.79 2.40199 10.6409 2.1077 9.68781 2.41613Z"
        fill="white" />
</svg>
    