<svg width="14" height="16" viewBox="0 0 14 16" fill="none" xmlns="http://www.w3.org/2000/svg">
<path fill-rule="evenodd" clip-rule="evenodd" d="M10.8183 0.0416365C10.7706 0.0651318 10.4316 0.387085 10.0651 0.757122L9.46619 1.36162C9.42685 1.40132 9.36497 1.40776 9.31831 1.37701C8.82689 1.05318 8.24912 1.02534 7.75284 1.30155C7.52599 1.42783 6.33277 2.61192 6.23878 2.80405C6.13345 3.01936 6.15515 3.1415 6.38182 3.60974C6.58385 4.02713 6.61286 4.16586 6.5253 4.29634C6.50152 4.33176 6.30452 4.54244 6.08749 4.7645C5.87048 4.98656 5.66705 5.21096 5.63545 5.26316C5.54943 5.4052 5.50124 5.59097 5.50124 5.78037C5.50124 5.99323 5.55128 6.15999 5.66741 6.33428C5.79227 6.52164 7.41084 8.12502 7.5582 8.20731C7.73664 8.30697 7.89749 8.34122 8.12507 8.32804C8.46029 8.30863 8.55947 8.24758 9.06651 7.74847C9.30627 7.51248 9.53456 7.30717 9.57381 7.29224C9.72799 7.23361 9.83175 7.25906 10.2182 7.4503C10.6773 7.67747 10.8112 7.70148 11.0277 7.59547C11.2208 7.50094 12.4064 6.30674 12.5317 6.08062C12.6579 5.85273 12.717 5.62366 12.7165 5.3636C12.7159 5.04068 12.6404 4.79508 12.4555 4.51441C12.4246 4.46746 12.4312 4.4052 12.4712 4.36572L13.0738 3.77142C13.4603 3.39026 13.7643 3.06909 13.7902 3.01472C13.8457 2.89759 13.848 2.68444 13.795 2.5561C13.7399 2.42263 11.4418 0.116316 11.2956 0.0477317C11.1654 -0.0133507 10.9358 -0.0162681 10.8183 0.0416365ZM4.26355 1.11593C4.11462 1.15188 4.05204 1.20533 3.40136 1.85231L2.90494 2.34591C2.84364 2.40686 2.73909 2.36715 2.73371 2.28088C2.71701 2.01331 2.6507 1.87434 2.48375 1.7571C2.3815 1.68531 2.35176 1.67781 2.16932 1.67781C1.99349 1.67781 1.95414 1.68688 1.86045 1.74887C1.80141 1.78794 1.72023 1.87586 1.68004 1.94423C1.63218 2.02567 1.60654 2.11825 1.60571 2.21271L1.59891 2.97974C1.59349 3.5908 1.60042 3.92903 1.61993 4.00655C1.66225 4.17461 1.76984 4.31184 1.91812 4.3868C2.00282 4.42961 2.09641 4.45189 2.19132 4.45183L2.99897 4.45135C3.86485 4.45083 3.96044 4.44648 4.05519 4.40319C4.46086 4.21788 4.51326 3.67929 4.15046 3.42412C4.04743 3.35166 4.01664 3.3441 3.78979 3.33577C3.69518 3.33229 3.65004 3.21782 3.71682 3.1507L4.1944 2.67066C4.88813 1.97338 4.95259 1.88789 4.95259 1.66479C4.95259 1.42642 4.78192 1.19822 4.55272 1.13015C4.41299 1.08866 4.38273 1.08715 4.26355 1.11593ZM10.1078 3.73284L11.4811 5.10629C11.5458 5.17101 11.5821 5.25878 11.5821 5.35029C11.5821 5.44179 11.5458 5.52956 11.4812 5.59432L11.1933 5.88268L10.9589 6.1175C10.8783 6.19826 10.7444 6.18679 10.6786 6.09352C10.6094 5.99524 10.4482 5.73228 10.3203 5.50918C10.0167 4.97952 9.85712 4.76838 9.46103 4.37221C9.06492 3.97608 8.8538 3.81648 8.32421 3.51287C8.10113 3.38497 7.83821 3.22371 7.73994 3.15445C7.64679 3.0888 7.63556 2.95492 7.71648 2.87467L7.9439 2.64914C8.15434 2.44045 8.3441 2.26282 8.36559 2.25446C8.38708 2.24608 8.45612 2.24352 8.51905 2.24876C8.63208 2.25821 8.65091 2.2758 10.1078 3.73284ZM3.72963 6.2385C3.61146 6.28947 1.94869 7.94391 1.87321 8.08561C1.76599 8.28688 1.80743 8.56805 1.97106 8.74983C2.00381 8.78621 2.002 8.84195 1.96695 8.87612L1.34953 9.47806C0.975453 9.84278 0.63484 10.1874 0.592621 10.2439C0.495891 10.3733 0.471539 10.5951 0.535661 10.763C0.597205 10.9242 2.94097 13.2616 3.08778 13.3083C3.2458 13.3584 3.46382 13.3312 3.58638 13.2458C3.64368 13.206 3.98943 12.8657 4.3547 12.4896L4.95812 11.8684C4.99208 11.8335 5.04754 11.8314 5.08396 11.8638C5.26739 12.027 5.54714 12.068 5.7481 11.9611C5.80685 11.9299 6.22841 11.5273 6.71501 11.0376C7.65507 10.0916 7.65144 10.0964 7.63152 9.82088C7.62342 9.70882 7.60123 9.6451 7.53951 9.55664C7.40751 9.36754 4.30293 6.28955 4.1945 6.24032C4.07699 6.18695 3.85115 6.18606 3.72963 6.2385ZM10.2799 8.92881C10.0499 9.03386 9.90804 9.28637 9.94395 9.52666C9.96729 9.68266 10.0984 9.86677 10.2384 9.94004C10.3409 9.99373 10.3889 10.0001 10.6877 10.0001C10.8716 10.0001 11.0222 10.0059 11.0222 10.0129C11.0222 10.0199 10.7886 10.3377 10.5032 10.7191C10.0883 11.2733 9.9781 11.4378 9.9539 11.5387C9.83412 12.0381 10.4276 12.4294 10.8342 12.1192C10.8819 12.0828 11.0674 11.8578 11.2465 11.6192C11.4256 11.3805 11.5832 11.1814 11.5967 11.1766C11.6102 11.1719 11.6212 11.1969 11.6212 11.2323C11.6212 11.3354 11.7764 11.5395 11.9077 11.6091C12.0052 11.6608 12.0542 11.6697 12.1996 11.6619C12.412 11.6506 12.5623 11.5591 12.663 11.3795C12.7057 11.3034 12.7281 11.2176 12.7281 11.1304V10.2997C12.7281 9.76961 12.719 9.30338 12.7079 9.26363C12.6791 9.16045 12.5116 8.98429 12.3895 8.92868C12.2948 8.88554 12.1988 8.88122 11.3347 8.88122C10.4694 8.88122 10.3747 8.88549 10.2799 8.92881ZM3.74724 11.4878C3.48696 11.7567 3.05694 11.7605 2.79204 11.4961L2.56645 11.271L2.34067 11.0457C2.07557 10.7812 2.07754 10.3511 2.34507 10.089C2.6144 9.82519 3.04587 9.82712 3.31283 10.0934L3.52586 10.3058L3.73869 10.5181C4.00601 10.7847 4.00982 11.2166 3.74724 11.4878Z" fill="#F86969"/>
</svg>
