<svg width="21" height="25" viewBox="0 0 21 25" fill="none" xmlns="http://www.w3.org/2000/svg">
    <path fill-rule="evenodd" clip-rule="evenodd"
        d="M3.5621 0.0567214C3.41755 0.0915643 3.1079 0.213979 2.87401 0.328721C2.2641 0.627989 1.81404 1.08227 1.51383 1.70167C1.39158 1.95402 1.26745 2.27699 1.23799 2.41939C1.20857 2.56184 1.18449 3.11557 1.18449 3.64994V4.62158L2.28261 4.63712C3.34569 4.65222 3.38937 4.65677 3.65217 4.77947C4.52568 5.18747 4.89194 6.21776 4.47214 7.08604C4.32531 7.38966 4.24175 7.48842 3.93581 7.71962C3.56205 8.00212 3.31153 8.04904 2.1763 8.04904H1.18449V9.41397V10.779L2.28261 10.7945C3.36883 10.8099 3.38374 10.8115 3.66027 10.946C4.18421 11.2008 4.5439 11.682 4.63451 12.2495C4.7496 12.9705 4.34752 13.7119 3.66027 14.0461C3.38374 14.1805 3.36883 14.1821 2.28261 14.1976L1.18449 14.2131V15.5781V16.943H2.1763C3.29179 16.943 3.53792 16.9867 3.91385 17.2513C5.01374 18.0256 4.85137 19.6673 3.61921 20.2304C3.39924 20.3309 3.29559 20.3406 2.28261 20.3549L1.18449 20.3705V21.3421C1.18449 21.8765 1.20857 22.4302 1.23799 22.5727C1.26745 22.7151 1.39158 23.038 1.51383 23.2904C1.82461 23.9316 2.26849 24.3714 2.9174 24.6811C3.17226 24.8027 3.51398 24.9267 3.67685 24.9566C3.88799 24.9953 6.06192 25.0067 11.2526 24.9964L18.5323 24.9818L18.8539 24.8734C19.8134 24.5501 20.5859 23.7644 20.8854 22.8072L21 22.4407V12.496V2.55139L20.8854 2.18488C20.5859 1.2277 19.8134 0.441997 18.8539 0.118637L18.5323 0.0102479L11.1786 0.00179377C5.29901 -0.00495002 3.77225 0.00604528 3.5621 0.0567214ZM0.718738 5.39673C0.500545 5.4518 0.246078 5.67337 0.125112 5.9138C-0.0367192 6.2353 -0.0335111 6.45941 0.137401 6.7834C0.248644 6.99427 0.324945 7.06982 0.537906 7.17997L0.800912 7.31602L1.91808 7.31572C2.53421 7.31558 3.11757 7.29285 3.2188 7.265C3.91242 7.07427 4.1314 6.11597 3.59463 5.6202C3.33828 5.38343 3.19304 5.36091 1.96339 5.36697C1.33141 5.37009 0.771349 5.38348 0.718738 5.39673ZM12.4865 6.27298C14.2835 6.76576 15.1678 8.77727 14.3255 10.456C14.0829 10.9395 13.53 11.4894 13.0419 11.7325C11.871 12.3158 10.5034 12.1065 9.59609 11.2053C8.97635 10.5898 8.71601 9.976 8.71315 9.12413C8.71182 8.72664 8.736 8.53395 8.82064 8.26894C9.31443 6.72247 10.926 5.84504 12.4865 6.27298ZM0.537906 11.6547C0.324945 11.7649 0.248644 11.8404 0.137401 12.0513C-0.038101 12.384 -0.038101 12.6081 0.137401 12.9408C0.248644 13.1516 0.324945 13.2272 0.537906 13.3373L0.800912 13.4734L1.96744 13.4723C3.23435 13.4711 3.38665 13.4439 3.63747 13.1737C4.08945 12.687 3.9325 11.8858 3.33137 11.611C3.1573 11.5315 2.99592 11.5207 1.96744 11.5197L0.800912 11.5187L0.537906 11.6547ZM13.6607 13.1587C14.6638 13.3597 15.513 14.0013 15.9531 14.8906C16.2601 15.5108 16.3361 15.9078 16.3361 16.8921V17.676H11.6721H7.00823L7.00862 17.053C7.00882 16.7103 7.02965 16.2517 7.05496 16.034C7.224 14.5785 8.23837 13.4736 9.698 13.1549C10.157 13.0546 13.1561 13.0575 13.6607 13.1587ZM0.537906 17.8121C0.324945 17.9222 0.248644 17.9978 0.137401 18.2087C0.0594712 18.3564 0 18.5471 0 18.6494C0 18.9206 0.214195 19.3026 0.458249 19.4666L0.666275 19.6063L1.85076 19.6222C3.12527 19.6393 3.29668 19.6173 3.55342 19.4034C4.13579 18.9182 3.93749 17.9247 3.2188 17.7271C3.11757 17.6992 2.53421 17.6765 1.91808 17.6763L0.800912 17.676L0.537906 17.8121Z"
        fill="url(#paint0_radial_3147_1750)" />
    <defs>
        <radialGradient id="paint0_radial_3147_1750" cx="0" cy="0" r="1"
            gradientUnits="userSpaceOnUse"
            gradientTransform="translate(10.5 12.5) rotate(90) scale(23.4375 19.6875)">
            <stop stop-color="white" />
            <stop offset="1" stop-color="white" stop-opacity="0" />
        </radialGradient>
    </defs>
</svg>
    