<svg width="23" height="23" viewBox="0 0 23 23" fill="none" xmlns="http://www.w3.org/2000/svg">
    <path fill-rule="evenodd" clip-rule="evenodd"
        d="M8.30589 0.166357C5.35347 1.05854 2.93277 3.03295 1.41915 5.78337C1.28264 6.03146 1.11765 6.35763 1.05257 6.50826L0.934217 6.78205H3.36073C5.26063 6.78205 5.79104 6.76873 5.80468 6.72062C5.81429 6.68686 5.90012 6.32348 5.99547 5.91321C6.53592 3.58702 7.45568 1.64298 8.61108 0.38466C8.80537 0.17309 8.93506 0.00152354 8.89927 0.00334192C8.86349 0.00520944 8.59648 0.0785342 8.30589 0.166357ZM14.342 0.331731C15.5665 1.63315 16.5952 3.86616 17.0984 6.31517C17.1429 6.53141 17.1941 6.72514 17.2124 6.74564C17.2306 6.76618 18.3318 6.77724 19.6596 6.77021L22.0737 6.75748L21.7862 6.18248C20.3119 3.2342 17.6951 1.02743 14.6258 0.144094C14.3504 0.0648226 14.1037 0 14.0775 0C14.0513 0 14.1704 0.149303 14.342 0.331731ZM10.9413 0.581831C9.87999 0.957154 8.83126 2.30968 8.07711 4.27564C7.79815 5.00294 7.37143 6.47769 7.3697 6.72062C7.36937 6.76927 8.22721 6.78205 11.5 6.78205C14.7728 6.78205 15.6306 6.76927 15.6303 6.72062C15.6296 6.62154 15.398 5.71737 15.2369 5.18483C14.5074 2.77351 13.221 0.93209 12.0086 0.563697C11.6913 0.467323 11.2437 0.474891 10.9413 0.581831ZM0.270515 8.81018C0.0318451 9.87319 0 10.1902 0 11.5C0 12.8098 0.0318451 13.1268 0.270515 14.1898L0.372774 14.6453H2.96505H5.55727L5.52769 14.3873C5.33051 12.668 5.33051 10.332 5.52769 8.61271L5.55727 8.3547H2.96505H0.372774L0.270515 8.81018ZM7.06187 8.539C6.85134 9.94209 6.85134 13.0579 7.06187 14.461L7.08953 14.6453H11.5H15.9105L15.9381 14.461C16.1475 13.0655 16.1475 9.93453 15.9381 8.539L15.9105 8.3547H11.5H7.08953L7.06187 8.539ZM17.4723 8.61271C17.6689 10.3267 17.6689 12.6733 17.4723 14.3873L17.4427 14.6453H20.035H22.6272L22.7295 14.1898C22.9682 13.1268 23 12.8098 23 11.5C23 10.1902 22.9682 9.87319 22.7295 8.81018L22.6272 8.3547H20.035H17.4427L17.4723 8.61271ZM1.05238 16.4913C1.11755 16.6422 1.28221 16.9685 1.41819 17.2166C2.75356 19.6526 4.9161 21.5606 7.44468 22.534C7.8848 22.7034 8.82636 23 8.92401 23C8.94707 23 8.82103 22.8428 8.64389 22.6507C7.40813 21.3103 6.43443 19.2031 5.91074 16.7359L5.80603 16.2425L3.36996 16.2298L0.933833 16.2171L1.05238 16.4913ZM7.3697 16.2794C7.37033 16.3666 7.59166 17.247 7.73729 17.7415C8.45364 20.1737 9.77931 22.0747 11.0159 22.4429C12.5052 22.8863 14.1692 21.1123 15.1723 18.0118C15.3438 17.4816 15.6297 16.4005 15.6303 16.2794C15.6306 16.2307 14.7727 16.2179 11.5 16.2179C8.22721 16.2179 7.36937 16.2307 7.3697 16.2794ZM17.1956 16.2794C17.1861 16.3132 17.0979 16.6836 16.9994 17.1026C16.4493 19.4437 15.5421 21.3595 14.3889 22.6153C14.1946 22.8269 14.0568 23 14.0825 23C14.2034 23 15.1845 22.6835 15.6891 22.4817C18.1797 21.4858 20.2492 19.6364 21.5809 17.2166C21.7174 16.9685 21.8823 16.6424 21.9474 16.4917L22.0658 16.2179H19.6393C17.7392 16.2179 17.2091 16.2313 17.1956 16.2794Z"
        fill="url(#paint0_radial_3147_1741)" />
    <defs>
        <radialGradient id="paint0_radial_3147_1741" cx="0" cy="0" r="1"
            gradientUnits="userSpaceOnUse"
            gradientTransform="translate(11.5 11.5) rotate(90) scale(21.5625)">
            <stop stop-color="white" />
            <stop offset="1" stop-color="white" stop-opacity="0" />
        </radialGradient>
    </defs>
</svg>
    