<svg width="21" height="20" viewBox="0 0 21 20" fill="none" xmlns="http://www.w3.org/2000/svg">
    <path fill-rule="evenodd" clip-rule="evenodd"
        d="M10.1615 0.0253203C9.97788 0.0841454 9.76944 0.227926 9.63724 0.387035C9.55842 0.481897 9.06975 1.56774 8.29477 3.37007C7.62462 4.92871 7.07299 6.20852 7.06901 6.2141C7.06498 6.21973 5.65491 6.35144 3.93551 6.50684C0.514912 6.81601 0.634459 6.7966 0.31494 7.09501C0.0791334 7.31523 0.00244897 7.50597 0.00117501 7.87535C-0.000756487 8.44636 -0.116564 8.32088 2.5623 10.6514C3.86536 11.785 4.92797 12.734 4.92357 12.7603C4.91917 12.7865 4.60943 14.1501 4.23522 15.7904C3.861 17.4307 3.55484 18.8273 3.55484 18.8941C3.55484 19.3236 3.92437 19.8171 4.33705 19.9386C4.60417 20.0174 4.76013 20.0198 4.99693 19.949C5.09658 19.9192 6.37626 19.1842 7.84062 18.3156L10.5032 16.7362L13.162 18.3154C14.6244 19.184 15.9026 19.9191 16.0025 19.9489C16.2443 20.0211 16.4049 20.0173 16.6699 19.9332C17.0865 19.8011 17.4452 19.3203 17.4452 18.8941C17.4452 18.8273 17.139 17.4307 16.7648 15.7904C16.3906 14.1501 16.0808 12.7869 16.0764 12.7611C16.072 12.7354 17.1344 11.7867 18.4373 10.6531C21.1164 8.32186 21.0008 8.44729 20.9988 7.87535C20.998 7.6217 20.9781 7.51237 20.9093 7.38339C20.8014 7.18094 20.5418 6.9421 20.333 6.85323C20.2206 6.80533 19.3223 6.70994 17.0577 6.50533C15.3416 6.3503 13.9344 6.21908 13.9308 6.21369C13.9271 6.20835 13.376 4.929 12.7059 3.37069C11.9119 1.52387 11.4435 0.484221 11.3607 0.384549C11.1532 0.134858 10.9092 0.0172487 10.5676 0.00224683C10.4061 -0.00488719 10.2234 0.00554886 10.1615 0.0253203Z"
        fill="url(#paint0_radial_3147_1709)" />
    <defs>
        <radialGradient id="paint0_radial_3147_1709" cx="0" cy="0" r="1"
            gradientUnits="userSpaceOnUse"
            gradientTransform="translate(10.5 10) rotate(90) scale(18.75 19.6875)">
            <stop stop-color="white" />
            <stop offset="1" stop-color="white" stop-opacity="0" />
        </radialGradient>
    </defs>
</svg>
    