<svg width="21" height="24" viewBox="0 0 21 24" fill="none" xmlns="http://www.w3.org/2000/svg">
    <path fill-rule="evenodd" clip-rule="evenodd"
        d="M0.0537884 23.4582C0.204013 23.8795 0.876197 24.1233 1.3581 23.9314C1.45598 23.8924 3.54639 22.3419 6.00345 20.4857C8.46045 18.6296 10.4833 17.1108 10.4987 17.1107C10.514 17.1107 12.5356 18.6288 14.9909 20.4843C17.4463 22.3399 19.5367 23.8905 19.6363 23.9302C19.847 24.0142 20.146 24.0233 20.3694 23.9526C20.6033 23.8785 20.8835 23.6303 20.9459 23.4417C20.9789 23.3421 21.0005 22.2721 21 20.7671C20.9992 18.4405 20.9917 18.245 20.8972 18.0704C20.8177 17.9235 19.7267 17.0748 15.9246 14.2022C13.2458 12.1782 10.9856 10.4968 10.902 10.4657C10.8185 10.4347 10.6369 10.4092 10.4987 10.4092C10.3604 10.4092 10.1789 10.4347 10.0953 10.4657C10.0117 10.4968 7.75156 12.1782 5.07271 14.2022C1.27061 17.0748 0.179655 17.9235 0.100157 18.0704C0.00540761 18.2454 -0.0015195 18.4365 0.00183258 20.7905C0.00378797 22.1831 0.027196 23.3836 0.0537884 23.4582ZM0.0552406 13.0542C0.11552 13.226 0.330941 13.426 0.565412 13.5278C0.812733 13.6351 1.2786 13.5967 1.52168 13.4489C1.62425 13.3865 3.67633 11.848 6.08183 10.0299C8.48732 8.21188 10.4749 6.72438 10.4987 6.72438C10.5224 6.72438 12.51 8.21188 14.9155 10.0299C17.321 11.848 19.3731 13.3865 19.4757 13.4489C19.9001 13.707 20.5285 13.6062 20.8349 13.231L20.9736 13.0611L20.9896 10.4788C21.0036 8.21802 20.9946 7.87237 20.9175 7.70231C20.8423 7.53679 20.1093 6.96411 15.9659 3.83411C13.291 1.81346 11.0232 0.124109 10.9263 0.0800834C10.8294 0.0360084 10.6369 -4.64956e-07 10.4987 -4.58912e-07C10.3604 -4.52868e-07 10.1679 0.0360084 10.0711 0.0800834C9.97415 0.124109 7.70726 1.81271 5.03355 3.83252C1.07162 6.82547 0.155912 7.53914 0.0840115 7.68993C0.00725109 7.85103 -0.00353144 8.20142 0.000826234 10.3942C0.00361961 11.7799 0.0280895 12.9768 0.0552406 13.0542Z"
        fill="url(#paint0_radial_3147_1694)" />
    <defs>
        <radialGradient id="paint0_radial_3147_1694" cx="0" cy="0" r="1"
            gradientUnits="userSpaceOnUse"
            gradientTransform="translate(10.5 12) scale(19.6875 22.5)">
            <stop stop-color="white" />
            <stop offset="1" stop-color="white" stop-opacity="0" />
        </radialGradient>
    </defs>
</svg>
    