<svg width="16" height="22" viewBox="0 0 16 22" fill="none" xmlns="http://www.w3.org/2000/svg">
    <path fill-rule="evenodd" clip-rule="evenodd"
        d="M5.24861 0.0812809C4.75279 0.187064 4.43457 0.301236 3.99596 0.530784C2.5922 1.26529 1.66669 2.67695 1.55175 4.25888C1.51751 4.73019 1.58845 5.3331 1.70058 5.52367C1.96002 5.96457 2.60602 5.95257 2.85041 5.50229C2.92284 5.36889 2.92887 5.29034 2.90355 4.81318C2.84464 3.70471 3.17331 2.87638 3.95795 2.1556C4.57308 1.59055 5.28294 1.32117 6.16704 1.31725C7.1016 1.31312 7.79852 1.59718 8.46311 2.25308C8.90938 2.69347 9.09149 2.97141 9.28812 3.5122C9.42173 3.8795 9.42523 3.90823 9.42611 4.64192C9.42711 5.4989 9.45471 5.59018 9.76457 5.76148C10.0736 5.93227 10.4558 5.82291 10.6418 5.51047C10.7708 5.29387 10.8293 4.63379 10.7677 4.09012C10.6474 3.02708 10.2368 2.16107 9.49223 1.39955C8.77468 0.665605 7.99537 0.249054 6.9882 0.0611481C6.51167 -0.0277718 5.71648 -0.0185657 5.24861 0.0812809ZM5.62035 2.67807C4.85504 2.92753 4.31693 3.52511 4.2005 4.25475C4.17212 4.4328 4.15576 6.33411 4.15559 9.48897L4.15524 14.4435L3.66502 13.9501C3.12179 13.4032 2.79137 13.2009 2.29651 13.1119C1.50268 12.9692 0.667304 13.3596 0.249462 14.0684C-0.122152 14.6989 -0.0748743 15.5372 0.366497 16.1432C0.535225 16.3749 4.77667 20.8258 5.16879 21.1826C5.52519 21.507 5.84253 21.6934 6.33056 21.8651L6.71372 22H10.0376H13.3614L13.7446 21.8651C14.2941 21.6717 14.5764 21.4929 15.0277 21.052C15.3647 20.7229 15.457 20.6007 15.6288 20.2561C16.0053 19.5014 15.9814 19.7997 15.9969 15.6623C16.006 13.2413 15.9951 11.9093 15.965 11.7492C15.8685 11.236 15.5262 10.7245 15.1006 10.4577C14.6043 10.1467 13.9493 10.0613 13.4159 10.238C13.219 10.3033 13.1405 10.3137 13.1278 10.2763C13.0856 10.1517 12.7238 9.76868 12.5081 9.62035C12.0327 9.29337 11.3413 9.19559 10.7919 9.37764C10.595 9.4429 10.5164 9.45335 10.5037 9.41597C10.4622 9.2935 10.1015 8.9096 9.89359 8.7666C9.53658 8.52101 9.13378 8.41269 8.6712 8.43781C8.46053 8.44925 8.25458 8.47274 8.21352 8.48999C8.1438 8.51933 8.13803 8.37698 8.12605 6.33428C8.11332 4.16118 8.11258 4.14561 8.01186 3.90032C7.79673 3.37635 7.3533 2.9271 6.86863 2.74208C6.56686 2.62687 5.88469 2.5919 5.62035 2.67807Z"
        fill="url(#paint0_radial_3147_1725)" />
    <defs>
        <radialGradient id="paint0_radial_3147_1725" cx="0" cy="0" r="1"
            gradientUnits="userSpaceOnUse"
            gradientTransform="translate(8 11) rotate(90) scale(20.625 15)">
            <stop stop-color="white" />
            <stop offset="1" stop-color="white" stop-opacity="0" />
        </radialGradient>
    </defs>
</svg>
    