<svg width="23" height="20" viewBox="0 0 23 20" fill="none" xmlns="http://www.w3.org/2000/svg">
    <path fill-rule="evenodd" clip-rule="evenodd"
        d="M10.6911 0.056899C9.49352 0.331809 8.53928 1.071 7.97566 2.16036C7.18046 3.69727 7.40889 5.54726 8.55393 6.84388C9.04844 7.40385 9.78895 7.85969 10.5338 8.06267C11.0427 8.20137 11.9573 8.20137 12.4662 8.06267C14.9979 7.37277 16.2393 4.50853 15.0243 2.16036C14.5132 1.17235 13.6234 0.4315 12.5785 0.123805C12.136 -0.00650276 11.1237 -0.0423766 10.6911 0.056899ZM4.13001 3.81877C3.11155 3.94257 2.24877 4.57982 1.79349 5.5444C1.37385 6.4335 1.38365 7.31573 1.82347 8.23987C2.18576 9.00111 2.86682 9.5803 3.70308 9.83834C4.07594 9.95338 4.90264 9.95191 5.27595 9.83557C7.38422 9.17854 8.16894 6.6072 6.7815 4.90227C6.13384 4.1064 5.13192 3.69694 4.13001 3.81877ZM18.151 3.81766C16.9702 3.95668 15.9531 4.85786 15.6298 6.05161C15.5069 6.50483 15.4971 7.15444 15.6062 7.59631C15.8682 8.65717 16.673 9.508 17.7241 9.83557C18.0974 9.95191 18.9241 9.95338 19.2969 9.83834C20.1332 9.5803 20.8142 9.00111 21.1765 8.23987C21.6164 7.31559 21.6262 6.43299 21.2064 5.5444C20.6396 4.3447 19.4386 3.666 18.151 3.81766ZM8.64543 9.11574C7.65129 9.38327 6.82675 10.1078 6.40958 11.0803C6.14592 11.695 6.14965 11.6241 6.16273 15.8023L6.17473 19.6296L6.34402 19.8033L6.51326 19.9769H11.5H16.4867L16.656 19.8033L16.8253 19.6296L16.8373 15.8023C16.8477 12.4816 16.8401 11.9341 16.7797 11.6673C16.5433 10.6213 15.8172 9.72859 14.846 9.29008C14.274 9.03182 14.2112 9.02693 11.4775 9.02896C9.18088 9.03067 8.93336 9.03823 8.64543 9.11574ZM2.77118 10.8256C1.57415 11.0324 0.563152 11.928 0.144276 13.1526L0.0180875 13.5215L0.00456083 15.8879C-0.00707837 17.9319 0.000696075 18.2882 0.0617682 18.5038C0.248804 19.1639 0.73446 19.6847 1.37336 19.9103C1.60718 19.9928 1.75992 20 3.28407 20H4.94061L4.90606 19.8732C4.88705 19.8035 4.87204 17.91 4.87271 15.6656L4.87397 11.5849L4.98928 11.1814L5.1046 10.7779L4.04435 10.7834C3.46118 10.7863 2.8883 10.8053 2.77118 10.8256ZM18.0096 11.1771L18.126 11.5849L18.1273 15.6656C18.128 17.91 18.113 19.8035 18.0939 19.8732L18.0594 20H19.7159C21.2401 20 21.3928 19.9928 21.6266 19.9103C22.2655 19.6847 22.7512 19.1639 22.9382 18.5038C22.9993 18.2882 23.0071 17.9319 22.9954 15.8879L22.9819 13.5215L22.8557 13.1526C22.4795 12.0525 21.7049 11.2836 20.6001 10.9136C20.3124 10.8173 20.1836 10.8066 19.0893 10.7888L17.8931 10.7692L18.0096 11.1771Z"
        fill="url(#paint0_radial_3147_1383)" />
    <defs>
        <radialGradient id="paint0_radial_3147_1383" cx="0" cy="0" r="1"
            gradientUnits="userSpaceOnUse"
            gradientTransform="translate(11.5 10) rotate(90) scale(18.75 21.5625)">
            <stop stop-color="white" />
            <stop offset="1" stop-color="white" stop-opacity="0" />
        </radialGradient>
    </defs>
</svg>
    