<svg width="24" height="20" viewBox="0 0 24 20" fill="none" xmlns="http://www.w3.org/2000/svg">
    <path fill-rule="evenodd" clip-rule="evenodd"
        d="M6.37253 2.85695C3.95749 4.45046 1.95948 5.78005 1.9325 5.81158C1.90558 5.8431 3.06928 7.41528 4.5186 9.30522L7.15365 12.7415L14.047 16.181C17.8383 18.0727 20.9499 19.6104 20.9617 19.5981C20.9733 19.5859 20.6993 18.1458 20.3527 16.398C19.9304 14.2684 19.6911 13.1956 19.6274 13.1457C19.5751 13.1048 18.3781 12.36 16.9675 11.4907L14.4026 9.91008L14.1589 9.24721C14.0248 8.88256 13.2227 6.66201 12.3765 4.31258C11.5302 1.96315 10.8211 0.0226051 10.8006 0.000286291C10.7802 -0.0220325 8.78758 1.26345 6.37253 2.85695ZM11.8719 0.097906C11.872 0.139431 12.6091 2.21183 13.5098 4.70339L15.1476 9.23337L17.6518 10.7785L20.1559 12.3236L21.6824 11.5812C22.5219 11.1729 23.2015 10.8171 23.1925 10.7905C23.1836 10.764 21.6658 8.7007 19.8197 6.2055L16.4632 1.66883L16.0199 1.50114C14.4296 0.89946 11.8718 0.0341949 11.8719 0.097906ZM17.3613 0.232216C17.3416 0.285993 17.3062 0.508452 17.2825 0.726607C17.24 1.12013 17.2418 1.12603 17.5136 1.49008C17.6643 1.69181 17.7945 1.84976 17.8029 1.84095C17.822 1.82095 17.4507 0.190558 17.4198 0.158107C17.4074 0.145126 17.381 0.178505 17.3613 0.232216ZM19.9973 1.8095C19.5647 2.38608 19.4105 2.62516 19.1778 3.08061L18.9768 3.474L19.2317 3.82706C19.501 4.20006 19.5981 4.26039 19.5981 4.05488C19.5981 3.81732 19.9225 2.62211 20.1453 2.03878C20.2681 1.71704 20.3555 1.44001 20.3394 1.42319C20.3233 1.40637 20.1694 1.58022 19.9973 1.8095ZM1.38944 6.97606C1.3693 7.05984 1.03156 8.65553 0.638908 10.522C0.0300484 13.4158 -0.0597542 13.9156 0.0292884 13.9156C0.189895 13.9156 5.86329 12.8035 5.90041 12.7648C5.92498 12.7391 2.55687 8.26055 1.57151 7.00858L1.42598 6.82373L1.38944 6.97606ZM22.0283 12.3735C20.9449 12.9119 20.6327 13.0944 20.6521 13.1782C20.6658 13.2377 20.9477 14.6553 21.2785 16.3284C21.6093 18.0015 21.893 19.384 21.909 19.4007C21.9351 19.4281 23.6443 17.765 23.9262 17.4379C24.0396 17.3063 24.0366 17.2337 23.816 14.7647C23.5588 11.887 23.5338 11.6613 23.4732 11.6705C23.4492 11.6741 22.799 11.9904 22.0283 12.3735ZM4.17712 14.1101C2.92318 14.3569 1.54681 14.6261 1.11857 14.7084C0.690269 14.7906 0.348284 14.882 0.358607 14.9115C0.368867 14.9409 1.47069 16.0654 2.80703 17.4104L5.23676 19.8558L10.4384 19.8994C13.2992 19.9234 16.4949 19.9613 17.5399 19.9838C18.8687 20.0123 19.4207 20.0036 19.3764 19.9548C19.3416 19.9165 16.506 18.4826 13.0751 16.7684C8.9176 14.6913 6.77361 13.6533 6.64701 13.6566C6.54251 13.6592 5.43106 13.8634 4.17712 14.1101Z"
        fill="url(#paint0_radial_3147_1717)" />
    <defs>
        <radialGradient id="paint0_radial_3147_1717" cx="0" cy="0" r="1"
            gradientUnits="userSpaceOnUse"
            gradientTransform="translate(12 10) rotate(90) scale(18.75 22.5)">
            <stop stop-color="white" />
            <stop offset="1" stop-color="white" stop-opacity="0" />
        </radialGradient>
    </defs>
</svg>
    