<svg width="21" height="21" viewBox="0 0 21 21" fill="none" xmlns="http://www.w3.org/2000/svg">
    <path fill-rule="evenodd" clip-rule="evenodd"
        d="M17.819 0.0111715C15.8301 0.176524 14.1151 0.580731 12.5425 1.2547C10.9614 1.93228 9.47627 2.97737 8.02469 4.43377C6.87229 5.59001 5.98366 6.748 5.27165 8.02124L5.03464 8.44515L8.79563 12.2041L12.5566 15.9631L12.9807 15.7263C15.9003 14.0954 18.529 11.2797 19.7369 8.48964C20.1811 7.46362 20.5837 6.10699 20.7689 5.01183C20.9571 3.89963 20.9981 3.37751 20.9997 2.07744C21.0012 0.851311 20.9993 0.821762 20.9065 0.633386C20.8543 0.527584 20.7368 0.373436 20.6453 0.29078C20.3372 0.012649 20.3032 0.00628771 19.0919 0.000788286C18.4934 -0.00196142 17.9206 0.00271719 17.819 0.0111715ZM15.3142 3.67719C16.15 3.96062 16.7545 4.47974 17.14 5.24527C17.3912 5.74432 17.464 6.10449 17.4395 6.72855C17.4058 7.5895 17.1602 8.15064 16.5459 8.77048C16.2542 9.06482 16.1327 9.1542 15.8068 9.31422C15.2562 9.58451 14.9843 9.64821 14.3903 9.64599C13.8161 9.64382 13.5248 9.57836 13.0352 9.34135C12.2634 8.96772 11.6514 8.21934 11.4244 7.37165C11.3135 6.95735 11.3255 6.16896 11.4488 5.77108C11.7852 4.6851 12.5654 3.9275 13.6512 3.63246C14.0562 3.52239 14.9267 3.54582 15.3142 3.67719ZM13.9215 4.81024C12.819 5.10651 12.2327 6.39161 12.7342 7.41269C13.2865 8.53716 14.7675 8.79588 15.6788 7.92709C15.951 7.6676 16.1052 7.40966 16.1957 7.06241C16.5478 5.71112 15.2718 4.4474 13.9215 4.81024ZM4.18392 5.73324C2.66914 5.86022 2.78301 5.7714 1.32067 7.96695C0.704326 8.89228 0.161405 9.72274 0.114142 9.81237C-0.0070317 10.0421 -0.0306013 10.4243 0.0595708 10.6957C0.150236 10.9685 0.439723 11.274 0.696114 11.3675C0.797742 11.4045 1.27406 11.496 1.75461 11.5707C2.62434 11.7058 2.62845 11.7061 2.64619 11.6218C3.07237 9.60085 3.86745 7.78633 5.09829 6.02602C5.22911 5.83896 5.33612 5.67734 5.33612 5.66692C5.33612 5.6404 5.19187 5.64869 4.18392 5.73324ZM4.35231 10.0067C4.06644 10.7549 3.77539 11.9363 3.77617 12.3454C3.77695 12.7747 3.79748 12.799 6.01972 15.0138C7.5726 16.5614 8.11133 17.0739 8.25152 17.1367C8.49888 17.2476 8.7636 17.243 9.35892 17.1174C10.1164 16.9575 11.3312 16.5701 11.3312 16.4884C11.3312 16.4534 4.54317 9.66992 4.5081 9.66992C4.4932 9.66992 4.4231 9.82148 4.35231 10.0067ZM2.35912 14.1249C2.18153 14.2161 0.171711 16.2281 0.0773507 16.4092C-0.0263719 16.6084 -0.0219783 16.7942 0.0911064 16.9914C0.249565 17.2676 0.625364 17.3863 0.893211 17.2449C0.954188 17.2127 1.4967 16.691 2.09879 16.0855C3.27156 14.9061 3.31328 14.8494 3.2415 14.5313C3.15712 14.1572 2.70343 13.9483 2.35912 14.1249ZM14.9652 15.9029C13.4429 16.9885 11.5915 17.8365 9.85068 18.2452L9.29408 18.3759L9.42836 19.2453C9.50218 19.7235 9.59326 20.1952 9.63071 20.2934C9.71797 20.5226 9.8965 20.7247 10.1357 20.8653C10.3018 20.9629 10.3682 20.9765 10.6742 20.9762C10.9263 20.9759 11.0593 20.9562 11.1532 20.9052C11.2246 20.8662 12.0511 20.326 12.9897 19.7046C15.2511 18.2074 15.1428 18.3501 15.2745 16.6936C15.3187 16.1374 15.355 15.6777 15.355 15.6721C15.3557 15.6365 15.2551 15.6961 14.9652 15.9029ZM4.20691 15.9551C4.079 16.0245 0.123299 19.9777 0.0569839 20.1024C-0.0274395 20.2612 -0.0166402 20.5415 0.0799786 20.6999C0.24357 20.9681 0.62598 21.0801 0.893211 20.9382C1.02711 20.8671 4.97995 16.9103 5.04441 16.7829C5.17191 16.5308 5.04992 16.1468 4.79242 15.9899C4.6448 15.8999 4.3418 15.8819 4.20691 15.9551ZM6.13925 17.7767C6.01594 17.8194 5.71984 18.0895 4.89441 18.9121C4.29877 19.5058 3.78488 20.0415 3.75252 20.1024C3.6054 20.3793 3.74644 20.7863 4.03482 20.9172C4.25426 21.0168 4.3976 21.017 4.58838 20.9181C4.78408 20.8167 6.83636 18.7566 6.89397 18.6038C6.96542 18.4143 6.94587 18.1897 6.84515 18.0418C6.66094 17.7712 6.41835 17.6802 6.13925 17.7767Z"
        fill="url(#paint0_radial_3147_1733)" />
    <defs>
        <radialGradient id="paint0_radial_3147_1733" cx="0" cy="0" r="1"
            gradientUnits="userSpaceOnUse"
            gradientTransform="translate(10.5 10.5) rotate(90) scale(19.6875)">
            <stop stop-color="white" />
            <stop offset="1" stop-color="white" stop-opacity="0" />
        </radialGradient>
    </defs>
</svg>
    