<svg width="34" height="34" viewBox="0 0 34 34" fill="none" xmlns="http://www.w3.org/2000/svg">
<path fill-rule="evenodd" clip-rule="evenodd" d="M15.5034 0.0631935C14.9275 0.230118 14.3066 0.875034 14.1443 1.47498C14.0344 1.88117 14.1036 2.49347 14.3032 2.88158C14.4313 3.13061 15.5798 4.31715 18.9447 7.67677C23.9034 12.6278 23.6823 12.4399 24.545 12.4358C25.3449 12.432 25.9966 12.0207 26.3511 11.296C26.4992 10.9934 26.5334 10.8337 26.5312 10.4551C26.5263 9.57259 26.7333 9.81517 21.6699 4.75861C17.2497 0.344501 17.095 0.197969 16.7456 0.0960736C16.3533 -0.0183758 15.8323 -0.0321257 15.5034 0.0631935ZM9.01994 9.00811L4.78599 13.2429L9.03674 17.4938L13.2875 21.7446L17.5214 17.5102L21.7554 13.2758L17.5046 9.02452L13.2539 4.77329L9.01994 9.00811ZM1.39088 14.1605C0.288691 14.573 -0.249885 15.671 0.111955 16.7678C0.210186 17.0655 0.632664 17.5087 4.77396 21.6592C9.83042 26.7268 9.59259 26.5236 10.4686 26.5227C11.8551 26.5213 12.768 25.1996 12.3261 23.8331C12.215 23.4897 11.9889 23.2511 7.72301 18.9763C4.49654 15.7431 3.14316 14.4298 2.9034 14.2993C2.50363 14.0817 1.77922 14.0152 1.39088 14.1605ZM21.3062 16.9318C20.754 17.0689 20.4785 17.2906 18.8865 18.8791C17.5225 20.2403 17.2517 20.5431 17.0961 20.8814C16.7377 21.6607 16.8902 22.525 17.4922 23.1271C17.8861 23.5211 18.2676 23.6682 18.8996 23.6698L19.4309 23.6712L22.7097 26.8928C24.513 28.6647 26.0184 30.1255 26.0551 30.1392C26.1193 30.1631 30.2901 26.0414 30.2901 25.9541C30.2901 25.9307 28.8044 24.4509 26.9885 22.6657L23.6869 19.42L23.6825 18.8886C23.6773 18.2729 23.5311 17.8994 23.1361 17.4926C22.6925 17.0358 21.8846 16.7882 21.3062 16.9318ZM29.5963 29.4797L27.4754 31.6017L28.2734 32.4491C28.7123 32.9152 29.2139 33.3947 29.388 33.5148C30.2729 34.1246 31.5906 34.1528 32.5634 33.5825C32.9186 33.3744 33.4858 32.7815 33.664 32.4324C33.9314 31.908 34.0287 31.4237 33.9929 30.7948C33.9424 29.9096 33.7136 29.4964 32.6139 28.3043C32.1337 27.7837 31.7354 27.3577 31.729 27.3577C31.7225 27.3577 30.7629 28.3127 29.5963 29.4797ZM5.75906 28.1597C4.11039 28.5648 2.74605 29.8568 2.22355 31.5077L2.07584 31.9743L1.35196 32.0075C0.551835 32.0442 0.365137 32.1183 0.129954 32.4926C0.0277385 32.6553 0.00263285 32.7871 0.022558 33.0564C0.0527113 33.4645 0.209655 33.7154 0.540013 33.8838C0.753876 33.993 1.38783 34 10.9628 34C20.5377 34 21.1717 33.993 21.3855 33.8838C21.7159 33.7154 21.8728 33.4645 21.903 33.0564C21.9229 32.7871 21.8978 32.6553 21.7956 32.4926C21.5604 32.1183 21.3737 32.0442 20.5736 32.0075L19.8497 31.9743L19.702 31.5077C19.1745 29.8409 17.8085 28.5575 16.1351 28.1563C15.6044 28.0291 15.3642 28.0231 10.9296 28.0272C6.57074 28.0314 6.24782 28.0396 5.75906 28.1597Z" fill="url(#paint0_radial_303_4071)" fill-opacity="0.55"/>
<defs>
<radialGradient id="paint0_radial_303_4071" cx="0" cy="0" r="1" gradientUnits="userSpaceOnUse" gradientTransform="translate(17 17) rotate(90) scale(29.0645)">
<stop stop-color="white"/>
<stop offset="1" stop-color="white" stop-opacity="0"/>
</radialGradient>
</defs>
</svg>
