<svg width="14" height="15" viewBox="0 0 14 15" fill="none" xmlns="http://www.w3.org/2000/svg">
<path fill-rule="evenodd" clip-rule="evenodd" d="M3.66032 0.0405819C3.60131 0.0631013 3.51575 0.125851 3.47019 0.180038C3.39393 0.270761 3.38774 0.30413 3.39234 0.601105C3.41208 1.88495 4.54208 3.06824 6.08623 3.4221L6.42947 3.50075L8.4345 3.51755C10.3823 3.53385 10.4447 3.53614 10.6221 3.59733C11.2242 3.80514 11.5606 4.17651 11.637 4.71803C11.6899 5.09326 11.8207 5.24084 12.1261 5.27005C12.3302 5.28955 12.5275 5.19888 12.6354 5.03603C12.7049 4.93126 12.7111 4.89206 12.6927 4.68029C12.6131 3.76664 11.9288 3.03224 10.8716 2.72591C10.6898 2.67322 10.5433 2.65806 10.1038 2.64642L9.56063 2.63205L9.74481 2.4479C10.2973 1.89547 10.6024 1.23842 10.6092 0.586444C10.6121 0.306094 10.6049 0.269735 10.5294 0.17995C10.3903 0.0144558 10.3044 0 9.45924 0C8.64827 0 8.35357 0.0299966 7.91215 0.157431C7.65565 0.231499 7.28392 0.382391 7.12812 0.475694L7.03167 0.533459L6.57501 0.341545C5.88317 0.050786 5.71402 0.0216398 4.64915 0.00958836C3.94911 0.00167136 3.74554 0.0080636 3.66032 0.0405819ZM4.2135 4.33235C1.84404 6.31779 0.538013 8.2685 0.291153 10.191C0.238849 10.5982 0.270169 11.2379 0.361294 11.6235L0.429949 11.914L0.305844 12.0305C0.237604 12.0946 0.140775 12.2212 0.0906498 12.3118C0.0111056 12.4557 -0.000371337 12.5138 8.92688e-06 12.7698C0.00042376 13.026 0.0122119 13.0844 0.093208 13.2317C0.249254 13.5156 0.478242 13.6914 0.94289 13.8841C2.24177 14.4228 3.68538 14.7709 5.34053 14.9447C5.9651 15.0102 7.9041 15.02 8.50363 14.9606C10.2216 14.7905 11.6903 14.4453 13.0259 13.8975C13.4919 13.7064 13.7298 13.5301 13.887 13.2593C13.9921 13.0782 14.0002 13.0433 14 12.7704C13.9998 12.5147 13.988 12.4552 13.9089 12.3118C13.8589 12.2212 13.7621 12.0946 13.6939 12.0305L13.5698 11.914L13.6398 11.6235C13.7406 11.2056 13.7647 10.4708 13.6928 10.0092C13.426 8.29572 12.2425 6.46988 10.3098 4.79016L9.86653 4.40493L8.18255 4.39018C6.63841 4.37663 6.47102 4.3703 6.16619 4.31376C5.74209 4.23512 5.35111 4.12414 5.0562 3.99873C4.92833 3.94433 4.80256 3.89985 4.77671 3.89985C4.75085 3.89985 4.49742 4.09446 4.2135 4.33235Z" fill="url(#paint0_radial_837_241)"/>
<defs>
<radialGradient id="paint0_radial_837_241" cx="0" cy="0" r="1" gradientUnits="userSpaceOnUse" gradientTransform="translate(7 7.5) rotate(90) scale(14.0625 13.125)">
<stop stop-color="white"/>
<stop offset="1" stop-color="white" stop-opacity="0"/>
</radialGradient>
</defs>
</svg>
