<svg width="300" height="164" viewBox="0 0 300 164" fill="none" xmlns="http://www.w3.org/2000/svg">
    <path
        d="M-161.22 171.564L-84.664 -26.2545H-65.8713L-142.427 171.564H-161.22ZM-112.538 171.564L-35.9822 -26.2545H-17.1895L-93.7451 171.564H-112.538ZM-63.856 171.564L12.6996 -26.2545H31.4924L-45.0633 171.564H-63.856ZM-15.1742 171.564L61.3814 -26.2545H80.1742L3.61853 171.564H-15.1742ZM33.5076 171.564L110.063 -26.2545H128.856L52.3004 171.564H33.5076ZM82.1895 171.564L158.745 -26.2545H177.538L100.982 171.564H82.1895ZM130.871 171.564L207.427 -26.2545H226.22L149.664 171.564H130.871ZM179.553 171.564L256.109 -26.2545H274.901L198.346 171.564H179.553ZM228.235 171.564L304.791 -26.2545H323.583L247.028 171.564H228.235ZM276.917 171.564L353.472 -26.2545H372.265L295.709 171.564H276.917Z"
        fill="url(#paint0_radial_2987_509)" fill-opacity="0.05" />
    <defs>
        <radialGradient id="paint0_radial_2987_509" cx="0" cy="0" r="1"
            gradientUnits="userSpaceOnUse"
            gradientTransform="translate(121.5 -42) rotate(104.96) scale(195.63 444.089)">
            <stop stop-color="white" />
            <stop offset="1" stop-color="white" stop-opacity="0" />
        </radialGradient>
    </defs>
</svg>
    