<svg width="369" height="222" viewBox="0 0 369 222" fill="none" xmlns="http://www.w3.org/2000/svg">
<path fill-rule="evenodd" clip-rule="evenodd" d="M167.396 0.200611C161.755 1.19058 157.088 5.1376 155.279 10.4487C154.583 12.4946 154.382 14.1259 154.378 17.7735L154.375 19.87H150.709L150 20.574V34.9142C150 48.4994 150.01 49.2862 150.19 49.859C150.638 51.2862 151.725 52.3658 153.161 52.8113C153.738 52.9905 154.587 53 170 53C185.414 53 186.262 52.9905 186.84 52.8113C188.276 52.3658 189.362 51.2862 189.81 49.859C189.99 49.2862 190 48.4994 190 34.9142V20.574L189.292 19.87H185.625L185.623 17.7735C185.619 14.1259 185.418 12.4946 184.721 10.4487C183.962 8.21786 182.831 6.40379 181.115 4.66519C178.737 2.25467 175.868 0.762372 172.518 0.19326C170.986 -0.0671209 168.905 -0.0641185 167.396 0.200611ZM172.182 6.93563C172.615 7.0431 173.461 7.3744 174.063 7.67174C175.032 8.15067 175.275 8.33113 176.198 9.25287C177.349 10.4024 177.933 11.3078 178.374 12.6228C178.779 13.8336 178.853 14.5556 178.854 17.3076L178.854 19.87H161.146L161.147 17.3076C161.148 14.5556 161.222 13.8336 161.627 12.6228C162.069 11.3035 162.651 10.4024 163.802 9.25753C164.653 8.41147 165.016 8.13338 165.782 7.73934C167.884 6.65775 169.995 6.39261 172.182 6.93563ZM171.295 28.9425C172.061 29.2019 172.611 29.5444 173.135 30.0887C173.99 30.9777 174.375 31.9028 174.375 33.0699C174.375 34.3559 174.012 35.249 173.109 36.1804L172.602 36.7023L172.953 39.812C173.145 41.5223 173.281 43.0698 173.254 43.2509C173.225 43.448 173.082 43.6838 172.897 43.8383L172.589 44.0963H167.412L167.104 43.8383C166.919 43.6838 166.776 43.448 166.746 43.2509C166.72 43.0698 166.855 41.5223 167.048 39.812L167.398 36.7023L166.892 36.1804C165.989 35.249 165.625 34.3559 165.625 33.0699C165.625 31.1997 166.755 29.6641 168.646 28.9634C169.272 28.7314 170.64 28.7207 171.295 28.9425Z" fill="white" fill-opacity="0.15"/>
<path d="M12.3582 193.835C15.0612 193.835 17.2236 194.659 18.8454 196.308C20.4942 197.957 21.3186 199.93 21.3186 202.228C21.3186 204.525 20.4807 206.485 18.8048 208.107C17.156 209.729 14.9801 210.539 12.2771 210.539H2.74903V221H0.478516V193.835H12.3582ZM2.74903 208.35H12.3176C14.3989 208.35 16.0343 207.755 17.2236 206.566C18.4399 205.377 19.0481 203.917 19.0481 202.187C19.0481 200.511 18.4264 199.065 17.183 197.849C15.9667 196.632 14.3314 196.024 12.2771 196.024H2.74903V208.35Z" fill="#F86969"/>
<path d="M48.8695 221H46.2747L42.5445 212.404H28.7187L24.9886 221H22.4342L34.4355 193.835H36.8682L48.8695 221ZM35.6519 196.592L29.6918 210.215H41.5715L35.6519 196.592Z" fill="#F86969"/>
<path d="M65.5424 209.607V207.417L79.3277 207.458C79.2736 211.512 77.9356 214.864 75.3137 217.513C72.7188 220.162 69.4752 221.487 65.5829 221.487C61.6095 221.487 58.2984 220.122 55.6494 217.391C53.0005 214.661 51.676 211.337 51.676 207.417C51.676 203.498 53.0005 200.173 55.6494 197.443C58.2984 194.713 61.596 193.348 65.5424 193.348C68.6508 193.348 71.4079 194.227 73.8135 195.984C76.2192 197.741 77.868 200.011 78.76 202.795H76.2462C75.4624 200.66 74.0838 198.917 72.1107 197.565C70.1645 196.214 67.9616 195.538 65.5018 195.538C62.2312 195.538 59.4877 196.687 57.2712 198.984C55.0818 201.282 53.9871 204.079 53.9871 207.377C53.9871 210.675 55.0953 213.486 57.3118 215.81C59.5552 218.108 62.3258 219.257 65.6235 219.257C68.5427 219.284 71.043 218.405 73.1243 216.621C75.2056 214.81 76.4625 212.472 76.895 209.607H65.5424Z" fill="#F86969"/>
<path d="M105.427 221H85.8842V193.835H105.427V196.024H88.1547V205.877H104.211V208.066H88.1547V218.811H105.427V221Z" fill="#F86969"/>
<path d="M123.024 221V193.835H125.295V221H123.024Z" fill="#F86969"/>
<path d="M139.38 193.835H152.355V196.024H139.462C138.029 196.024 136.88 196.47 136.015 197.362C135.15 198.227 134.718 199.241 134.718 200.403C134.718 201.322 135.029 202.187 135.65 202.998C136.272 203.782 137.137 204.323 138.245 204.62L148.544 207.296C150.328 207.755 151.693 208.607 152.639 209.85C153.612 211.094 154.098 212.472 154.098 213.986C154.098 215.878 153.422 217.527 152.071 218.932C150.747 220.311 148.963 221 146.719 221H133.177V218.77H146.638C148.152 218.77 149.354 218.311 150.246 217.391C151.165 216.445 151.625 215.337 151.625 214.067C151.625 213.067 151.287 212.134 150.611 211.269C149.963 210.404 149.057 209.823 147.895 209.526L137.556 206.85C135.88 206.417 134.583 205.62 133.664 204.458C132.772 203.295 132.326 201.984 132.326 200.525C132.326 198.714 132.961 197.146 134.231 195.822C135.502 194.497 137.218 193.835 139.38 193.835Z" fill="#F86969"/>
<path d="M189 206.809V206.85C190.405 207.363 191.513 208.215 192.324 209.404C193.135 210.566 193.541 211.918 193.541 213.459C193.541 215.594 192.811 217.378 191.351 218.811C189.919 220.243 188.121 220.959 185.959 220.959H173.917V221H171.646V193.835H185.432C187.486 193.835 189.202 194.497 190.581 195.822C191.986 197.146 192.689 198.822 192.689 200.849C192.689 202.147 192.365 203.322 191.716 204.377C191.067 205.431 190.162 206.242 189 206.809ZM185.35 196.024H173.917V205.917H185.391C186.797 205.917 187.972 205.458 188.918 204.539C189.892 203.62 190.378 202.444 190.378 201.011C190.378 199.579 189.892 198.389 188.918 197.443C187.945 196.497 186.756 196.024 185.35 196.024ZM173.917 218.77H185.959C187.472 218.77 188.729 218.27 189.729 217.27C190.756 216.243 191.27 214.972 191.27 213.459C191.27 211.945 190.743 210.688 189.689 209.688C188.662 208.661 187.405 208.147 185.918 208.147H173.917V218.77Z" fill="#F86969"/>
<path d="M200.59 221V193.835H202.861V218.77H219.119V221H200.59Z" fill="#F86969"/>
<path d="M235.329 221.487C231.248 221.487 227.882 220.122 225.233 217.391C222.584 214.661 221.26 211.337 221.26 207.417C221.26 203.498 222.584 200.173 225.233 197.443C227.882 194.713 231.248 193.348 235.329 193.348C239.438 193.348 242.816 194.713 245.465 197.443C248.114 200.173 249.439 203.498 249.439 207.417C249.439 211.337 248.114 214.661 245.465 217.391C242.816 220.122 239.438 221.487 235.329 221.487ZM235.329 219.297C238.762 219.297 241.587 218.148 243.803 215.851C246.019 213.526 247.128 210.715 247.128 207.417C247.128 204.12 246.019 201.322 243.803 199.025C241.587 196.7 238.762 195.538 235.329 195.538C231.95 195.538 229.139 196.7 226.896 199.025C224.679 201.322 223.571 204.12 223.571 207.417C223.571 210.715 224.679 213.526 226.896 215.851C229.112 218.148 231.923 219.297 235.329 219.297Z" fill="#F86969"/>
<path d="M279.166 211.553H281.558C280.747 214.526 279.153 216.932 276.774 218.77C274.422 220.581 271.652 221.487 268.462 221.487C264.435 221.487 261.124 220.135 258.529 217.432C255.961 214.702 254.677 211.377 254.677 207.458C254.677 203.539 255.961 200.214 258.529 197.484C261.124 194.727 264.435 193.348 268.462 193.348C271.652 193.348 274.409 194.254 276.733 196.065C279.085 197.849 280.666 200.214 281.477 203.16H279.126C278.369 200.89 277.031 199.052 275.112 197.646C273.192 196.241 270.99 195.538 268.503 195.538C265.151 195.538 262.394 196.7 260.232 199.025C258.069 201.349 256.988 204.16 256.988 207.458C256.988 210.756 258.069 213.553 260.232 215.851C262.394 218.121 265.151 219.257 268.503 219.257C271.044 219.257 273.274 218.54 275.193 217.108C277.112 215.675 278.436 213.824 279.166 211.553Z" fill="#F86969"/>
<path d="M303.215 205.877H305.364C306.823 205.877 307.931 206.255 308.688 207.012C309.472 207.769 309.864 208.864 309.864 210.296V221H307.553V210.62C307.553 208.891 306.688 208.026 304.958 208.026H290.484V221H288.213V193.835H290.484V205.877H300.782L307.391 193.835H309.905L303.215 205.877Z" fill="#F86969"/>
<path d="M337.372 221H317.83V193.835H337.372V196.024H320.1V205.877H336.156V208.066H320.1V218.811H337.372V221Z" fill="#F86969"/>
<path d="M344.358 220.959V193.835H354.616C358.508 193.835 361.738 195.119 364.306 197.687C366.874 200.227 368.158 203.444 368.158 207.336V207.458C368.158 211.35 366.874 214.58 364.306 217.148C361.738 219.689 358.508 220.959 354.616 220.959H344.358ZM354.616 196.024H346.629V218.77H354.616C357.833 218.77 360.509 217.702 362.644 215.567C364.779 213.405 365.847 210.702 365.847 207.458V207.336C365.847 204.093 364.779 201.403 362.644 199.268C360.509 197.106 357.833 196.024 354.616 196.024Z" fill="#F86969"/>
<path fill-rule="evenodd" clip-rule="evenodd" d="M324.613 74.155C320.479 74.4932 317.045 75.2083 315.23 76.1091C311.719 77.851 308.129 80.1854 307.31 81.2598C305.57 83.5413 301.607 90.5164 301 92.365C300.619 93.5279 298.79 104.942 296.462 120.683C293.241 142.468 292.563 147.669 292.563 150.6C292.563 154.652 293.135 157.007 294.974 160.53C296.154 162.788 299.906 167.309 301.794 168.746C302.422 169.224 303.589 170.207 304.386 170.93C306.024 172.416 308.432 173.609 311.855 174.63C313.139 175.013 314.978 175.605 315.942 175.944C318.617 176.885 322.16 177.503 326.791 177.837C330.646 178.114 331.312 178.079 334.881 177.407C339.633 176.513 342.592 175.208 346.592 172.243C350.7 169.198 353.538 165.439 355.188 160.857C355.856 158.999 356.809 155.449 357.305 152.968C358.11 148.938 358.207 147.814 358.212 142.452L358.219 136.449L357.099 133.428C356.484 131.767 355.654 129.848 355.254 129.163C354.099 127.184 349.721 122.168 347.472 120.246C343.662 116.992 336.667 114.646 328.118 113.755C325.376 113.469 325.059 113.503 321.195 114.491C318.019 115.304 317.145 115.434 317.145 115.094C317.145 114.855 317.711 111.202 318.402 106.976C319.977 97.3437 320.523 95.9559 323.691 93.5481C326.224 91.6223 327.109 91.3329 330.525 91.3142C333.322 91.2987 335.914 91.9904 338.975 93.5689C341.08 94.654 343.636 98.1583 344.708 101.429C345.165 102.821 345.651 104.083 345.79 104.234C346.022 104.487 364.314 99.0317 364.813 98.5613C365.059 98.3288 361.801 90.2793 360.701 88.4008C358.424 84.5137 352.602 79.1336 348.815 77.4166C343.408 74.9646 332.568 73.5037 324.613 74.155ZM331.132 126.15C338.796 129.185 340.925 139.422 334.949 144.503C331.398 147.523 331.584 147.221 331.364 150.325C331.254 151.864 330.952 153.823 330.693 154.679C330.433 155.535 330.219 157.035 330.217 158.012C330.214 159.963 329.337 162.685 328.278 164.031C327.309 165.263 324.95 166.66 323.852 166.652C321.709 166.637 319.314 164.855 318.147 162.407C317.734 161.541 317.717 160.877 318.023 157.554C318.218 155.436 318.598 153.082 318.868 152.324C319.138 151.566 319.44 149.543 319.539 147.83C319.715 144.791 319.7 144.692 318.893 143.733C317.72 142.339 316.909 140.348 316.469 137.784C316.139 135.857 316.158 135.351 316.618 133.89C317.444 131.273 319.32 128.627 321.269 127.334C322.203 126.714 323.161 126.202 323.401 126.197C323.64 126.19 324.185 125.98 324.613 125.728C325.694 125.092 329 125.306 331.132 126.15Z" fill="#98C34F"/>
<path fill-rule="evenodd" clip-rule="evenodd" d="M7.26441 87.4776C2.99646 89.6044 1.77763 96.2808 4.84821 100.712C7.26192 104.195 13.8207 104.499 16.3035 101.244C16.7528 100.655 17.209 99.7297 17.3175 99.1877C17.5098 98.2252 17.4884 98.2025 16.3769 98.2025C15.5669 98.2025 15.1889 98.3594 15.065 98.7471C14.3384 101.02 12.4649 102.148 10.0238 101.782C8.25765 101.517 6.4672 99.8688 5.95938 98.0398C4.67302 93.4065 6.57611 88.9167 10.0469 88.3961C12.1348 88.0831 14.0839 89.0558 14.7613 90.7486C15.2035 91.8544 15.364 91.9792 16.3452 91.9792C17.6875 91.9792 17.7541 91.4863 16.6635 89.6253C15.0233 86.8266 10.5992 85.816 7.26441 87.4776ZM24.6362 87.1154C23.0498 87.6895 21.3191 89.2998 20.5064 90.9583C19.4655 93.0823 19.463 97.0945 20.5014 99.2129C22.3774 103.041 27.0216 104.602 31.0088 102.745C36.7775 100.059 36.8668 90.4408 31.1501 87.5451C29.2707 86.5933 26.5713 86.415 24.6362 87.1154ZM73.8003 87.1154C72.214 87.6895 70.4833 89.2998 69.6705 90.9583C68.6297 93.0823 68.6272 97.0945 69.6656 99.2129C71.5416 103.041 76.1857 104.602 80.173 102.745C85.9417 100.059 86.031 90.4408 80.3143 87.5451C78.4348 86.5933 75.7355 86.415 73.8003 87.1154ZM156.26 87.3618C153.662 88.6479 152.885 91.6201 154.627 93.6054C155.597 94.7097 156.249 94.9954 160.153 96.0275C162.998 96.7796 163.996 97.4987 163.996 98.795C163.996 102.737 156.883 102.885 155.591 98.9702C155.277 98.0186 155.109 97.8914 154.17 97.8914C152.886 97.8914 152.811 98.3329 153.765 100.303C154.792 102.424 156.329 103.269 159.43 103.416C161.626 103.52 162.164 103.438 163.371 102.814C165.146 101.897 166.174 100.388 166.173 98.701C166.17 96.0679 164.574 94.7144 160.262 93.6913C157.23 92.9715 156.273 92.4662 156.018 91.4506C155.713 90.237 156.485 89.0966 157.939 88.6115C160.278 87.8314 162.855 88.7546 163.314 90.5373C163.533 91.3893 163.715 91.5249 164.753 91.6114C165.914 91.7082 165.936 91.6905 165.725 90.8335C165.057 88.1239 162.96 86.6894 159.668 86.6897C158.193 86.6897 157.235 86.8786 156.26 87.3618ZM187.429 87.4776C183.161 89.6044 181.943 96.2808 185.013 100.712C187.427 104.195 193.986 104.499 196.468 101.244C196.918 100.655 197.374 99.7297 197.482 99.1877C197.675 98.2252 197.653 98.2025 196.542 98.2025C195.732 98.2025 195.354 98.3594 195.23 98.7471C194.503 101.02 192.63 102.148 190.189 101.782C188.423 101.517 186.632 99.8688 186.124 98.0398C184.838 93.4065 186.741 88.9167 190.212 88.3961C192.3 88.0831 194.249 89.0558 194.926 90.7486C195.368 91.8544 195.529 91.9792 196.51 91.9792C197.852 91.9792 197.919 91.4863 196.828 89.6253C195.188 86.8266 190.764 85.816 187.429 87.4776ZM38.2848 103.181H40.463V96.3355H42.6719C46.4128 96.3355 47.4032 97.1623 48.7285 101.392L49.2892 103.181H51.9167L50.8992 100.589C49.7482 97.6577 49.0552 96.4752 48.323 96.1943C47.9322 96.0443 48.0539 95.8809 48.8641 95.468C50.4984 94.635 51.1982 93.4492 51.1982 91.5125C51.1982 89.5686 50.4981 88.3899 48.8424 87.5457C47.9649 87.0983 46.9327 87.0015 43.0301 87.0012L38.2848 87.0006V103.181ZM54.4654 103.181H56.6436V96.6467L59.5219 96.6448C63.1557 96.6427 64.442 96.2833 65.6207 94.9409C66.9149 93.4672 67.1775 91.5797 66.3488 89.7068C65.3273 87.3973 64.7246 87.1726 59.2253 87.0504L54.4654 86.9449V103.181ZM87.449 103.181H89.6271V96.3355H91.8361C95.5769 96.3355 96.5674 97.1623 97.8926 101.392L98.4534 103.181H101.081L100.063 100.589C98.9123 97.6577 98.2194 96.4752 97.4872 96.1943C97.0964 96.0443 97.218 95.8809 98.0283 95.468C99.6625 94.635 100.362 93.4492 100.362 91.5125C100.362 89.5686 99.6622 88.3899 98.0065 87.5457C97.129 87.0983 96.0969 87.0015 92.1943 87.0012L87.449 87.0006V103.181ZM107.466 88.1674C106.748 89.8829 101.763 102.89 101.763 103.047C101.763 103.121 102.298 103.181 102.953 103.181H104.144L105.877 98.2025H112.585L114.354 103.181H117.018L116.604 102.17C116.376 101.614 114.883 97.9732 113.286 94.0796L110.383 87.0006H109.168C108.06 87.0006 107.912 87.1017 107.466 88.1674ZM117.321 87.7785C117.321 88.5474 117.352 88.5564 119.966 88.5564H122.611V103.181H125.1V88.5564H127.745C130.359 88.5564 130.39 88.5474 130.39 87.7785V87.0006H117.321V87.7785ZM132.879 103.181H145.015V101.625H135.057V95.402H144.081V93.8462H135.057V88.5564H144.703V87.0006H132.879V103.181ZM169.286 103.181H181.421V101.625H171.464V95.402H180.488V93.8462H171.464V88.5564H181.11V87.0006H169.286V103.181ZM200.713 93.1579C200.713 98.9244 200.758 99.4033 201.413 100.704C202.385 102.631 204.13 103.492 207.06 103.492C209.766 103.492 211.588 102.693 212.604 101.059C213.276 99.9784 213.321 99.5514 213.416 93.4573L213.516 87.0006H211.358L211.247 93.1601C211.152 98.4829 211.06 99.4372 210.568 100.187C209.792 101.372 208.07 102.049 206.408 101.821C203.277 101.392 202.891 100.397 202.891 92.7509V87.0006H200.713V93.1579ZM217.205 103.181H219.383V96.3355H221.592C225.333 96.3355 226.323 97.1623 227.649 101.392L228.209 103.181H230.837L229.819 100.589C228.668 97.6577 227.975 96.4752 227.243 96.1943C226.852 96.0443 226.974 95.8809 227.784 95.468C229.419 94.635 230.118 93.4492 230.118 91.5125C230.118 89.5686 229.418 88.3899 227.763 87.5457C226.885 87.0983 225.853 87.0015 221.95 87.0012L217.205 87.0006V103.181ZM233.386 103.181H235.875V87.0006H233.386V103.181ZM238.364 87.7785C238.364 88.5474 238.395 88.5564 241.009 88.5564H243.654V103.181H246.143V88.5564H248.788C251.402 88.5564 251.433 88.5474 251.433 87.7785V87.0006H238.364V87.7785ZM254.149 90.5012C255.465 92.4267 256.933 94.5479 257.411 95.2153C258.233 96.3648 258.279 96.6075 258.279 99.805V103.181H260.457V96.3579L263.569 91.8084C265.28 89.306 266.68 87.2003 266.68 87.1297C266.68 87.0588 266.085 87.0012 265.358 87.0021L264.035 87.0037L261.751 90.5805C260.494 92.5477 259.408 94.1574 259.337 94.1574C259.267 94.1574 258.163 92.5471 256.885 90.579L254.562 87.0006H251.755L254.149 90.5012ZM29.8952 88.9454C32.0248 90.0192 32.8404 91.7241 32.8357 95.0909C32.8326 97.2161 32.6969 97.9894 32.1452 99.0268C30.8464 101.469 27.956 102.489 25.4623 101.386C23.2284 100.398 22.1042 98.2909 22.1042 95.0909C22.1042 91.9577 23.2207 89.8011 25.3406 88.838C27.0306 88.0707 28.2158 88.0984 29.8952 88.9454ZM79.0593 88.9454C81.189 90.0192 82.0045 91.7241 81.9999 95.0909C81.9967 97.2161 81.8611 97.9894 81.3094 99.0268C80.0106 101.469 77.1202 102.489 74.6265 101.386C72.3926 100.398 71.2684 98.2909 71.2684 95.0909C71.2684 91.9577 72.3848 89.8011 74.5048 88.838C76.1947 88.0707 77.38 88.0984 79.0593 88.9454ZM48.1186 89.591C49.1806 90.8257 49.156 92.8418 48.066 93.8655C47.3425 94.5451 46.9474 94.6266 43.8653 94.7321L40.463 94.8485V88.4876L43.9178 88.6059C47.2461 88.7198 47.4004 88.7559 48.1186 89.591ZM63.6825 89.5976C64.1461 90.1365 64.4227 90.8509 64.4227 91.5097C64.4227 94.2274 63.1498 95.0909 59.1429 95.0909H56.6436V88.4839L59.7929 88.6105C62.7745 88.7303 62.9817 88.7829 63.6825 89.5976ZM97.2828 89.591C98.3448 90.8257 98.3202 92.8418 97.2302 93.8655C96.5067 94.5451 96.1115 94.6266 93.0294 94.7321L89.6271 94.8485V88.4876L93.082 88.6059C96.4102 88.7198 96.5646 88.7559 97.2828 89.591ZM227.039 89.591C228.101 90.8257 228.076 92.8418 226.986 93.8655C226.263 94.5451 225.868 94.6266 222.785 94.7321L219.383 94.8485V88.4876L222.838 88.6059C226.166 88.7198 226.321 88.7559 227.039 89.591ZM110.663 93.311C111.291 94.9848 111.733 96.4261 111.646 96.5135C111.558 96.6013 110.368 96.6321 109 96.582L106.515 96.4911L107.78 92.9964C108.546 90.8824 109.139 89.6533 109.283 89.8848C109.414 90.0954 110.035 91.6373 110.663 93.311ZM16.1921 112.184C13.3636 112.971 12.6784 113.277 10.6462 114.657C3.94085 119.21 0.404141 127.624 1.08279 137.409C2.00135 150.654 9.19301 158.228 20.872 158.252C25.4523 158.262 29.5597 156.756 32.7616 153.895L34.5508 152.296L34.5455 155.354C34.5331 162.404 32.8771 165.745 28.3418 167.872C26.7235 168.631 26.3258 168.682 21.9486 168.682C17.4557 168.682 17.2142 168.649 15.4894 167.802C13.5652 166.857 12.3215 165.512 11.9867 164.014C11.4966 161.822 11.9157 161.991 6.99183 161.991C1.86351 161.991 2.15694 161.775 2.97997 164.96C4.26975 169.95 8.6382 173.386 15.5 174.807C18.041 175.333 19.2987 175.408 23.3489 175.276C30.7979 175.034 34.384 173.74 38.1292 169.941C40.3317 167.706 41.7372 165.01 42.7255 161.125C43.4066 158.446 43.4153 158.133 43.4172 135.542L43.4191 112.672H34.7064L34.6115 114.15C34.5595 114.963 34.445 115.628 34.3573 115.628C34.2698 115.628 33.7465 115.283 33.1945 114.862C31.6884 113.714 28.9499 112.549 26.5648 112.044C23.6059 111.417 18.7069 111.483 16.1921 112.184ZM73.2869 112.142C70.8446 112.987 68.9763 114.222 66.7702 116.45L64.7339 118.506V112.499L56.1768 112.672L56.0172 157.013H64.7339V125.709L66.2533 124.014C69.2536 120.665 73.1307 119.129 77.6992 119.478C79.0967 119.585 80.4621 119.758 80.7331 119.862C81.1669 120.028 81.2257 119.568 81.2257 116.006C81.2257 112.604 81.1473 111.93 80.7334 111.772C79.677 111.366 74.8343 111.607 73.2869 112.142ZM157.036 112.076C154.542 112.68 151.937 114.128 149.695 116.157L147.815 117.858V112.499L139.258 112.672V174.283L147.815 174.456V153.827L148.906 154.659C151.862 156.914 156.366 158.246 161.04 158.248C172.227 158.251 180.242 150.223 181.409 137.846C182.486 126.426 178.335 116.932 170.686 113.322C167.175 111.665 161.046 111.106 157.036 112.076ZM208.69 112.076C206.195 112.68 203.591 114.128 201.348 116.157L199.469 117.858V112.499L190.912 112.672V174.283L199.469 174.456V153.827L200.56 154.659C203.516 156.914 208.02 158.246 212.693 158.248C223.88 158.251 231.895 150.223 233.063 137.846C234.14 126.426 229.988 116.932 222.339 113.322C218.829 111.665 212.7 111.106 208.69 112.076ZM256.758 112.063C253.485 112.773 251.869 113.421 249.492 114.973C246.56 116.888 243.702 120.03 242.289 122.89C238.813 129.925 238.801 139.857 242.262 146.744C244.894 151.985 249.623 155.693 255.84 157.393C259.314 158.342 267.179 158.413 270.57 157.524C277.741 155.646 282.78 151.066 284.059 145.266L284.351 143.944H275.082L275.077 144.8C275.064 146.945 272.595 149.503 269.257 150.83C267.711 151.445 266.889 151.547 263.397 151.557L259.336 151.567L256.963 150.395C254.058 148.959 252.09 147.101 250.828 144.601C249.816 142.596 248.956 139.484 248.949 137.798L248.944 136.787H285.35V135.731C285.35 133.288 284.658 128.223 284.058 126.278C281.684 118.585 276.029 113.572 267.975 112.022C265.121 111.473 259.383 111.494 256.758 112.063ZM87.0426 112.715C86.7184 113.039 86.7983 140.844 87.1331 144.284C88.0106 153.299 92.7693 157.769 101.918 158.172C107.504 158.418 111.437 157.143 115.532 153.757L117.632 152.02V157.013H126.66L126.5 112.672H117.788L117.626 144.811L115.64 146.669C112.096 149.985 108.764 151.413 104.584 151.41C100.301 151.407 98.398 150.439 96.9395 147.522L96.006 145.655L95.6949 112.672L91.4767 112.586C89.1567 112.538 87.1612 112.596 87.0426 112.715ZM26.7929 118.611C28.8599 119.214 31.7914 120.815 33.4618 122.251L34.7064 123.321L34.3952 144.954L32.116 147.088C30.6504 148.461 28.9897 149.641 27.4647 150.395C25.1748 151.527 24.9788 151.567 21.8092 151.567C18.9919 151.567 18.3151 151.464 17.0415 150.837C13.9212 149.3 11.7676 146.254 10.6963 141.863C9.91865 138.675 10.0002 131.185 10.8472 128.022C12.2045 122.953 14.5706 119.957 18.2965 118.588C19.9236 117.99 24.7127 118.003 26.7929 118.611ZM165.612 118.992C168.742 120.534 170.994 123.836 171.931 128.257C172.517 131.025 172.53 138.138 171.954 140.832C170.91 145.716 168.728 149.015 165.425 150.707C163.542 151.671 159.944 151.986 156.995 151.446C154.651 151.017 151.222 149.333 149.293 147.664L147.815 146.385V125.525L149.89 123.376C153.764 119.362 156.591 118.066 161.195 118.192C163.544 118.256 164.451 118.421 165.612 118.992ZM217.266 118.992C220.396 120.534 222.648 123.836 223.584 128.257C224.17 131.025 224.184 138.138 223.607 140.832C222.563 145.716 220.381 149.015 217.078 150.707C215.196 151.671 211.597 151.986 208.648 151.446C206.305 151.017 202.876 149.333 200.947 147.664L199.469 146.385V125.525L201.543 123.376C205.418 119.362 208.244 118.066 212.849 118.192C215.198 118.256 216.105 118.421 217.266 118.992ZM268.251 119.245C272.288 121.144 274.578 124.176 275.686 129.086L275.949 130.253H249.019L249.33 128.775C250.108 125.077 252.377 121.667 255.137 120.05C257.848 118.461 259.386 118.096 262.946 118.195C265.841 118.276 266.446 118.395 268.251 119.245Z" fill="white"/>
</svg>
