<svg width="40" height="31" viewBox="0 0 40 31" fill="none" xmlns="http://www.w3.org/2000/svg">
    <path fill-rule="evenodd" clip-rule="evenodd"
        d="M5.69297 0.0427906C5.34531 0.158213 5.00695 0.461227 4.84352 0.803613C4.68984 1.12556 4.6875 1.2977 4.6875 12.3295V23.5287L4.8532 23.8758C5.07477 24.3398 5.51062 24.6283 6.03984 24.6609C8.82547 24.833 10.0193 24.9843 11.5234 25.3559C14.0636 25.9835 16.4684 27.2377 18.1641 28.8192L18.8672 29.4751L18.8893 18.0702C18.9015 11.7975 18.8919 6.55375 18.868 6.41741C18.7665 5.83784 17.5581 4.26756 16.5441 3.39717C14.5028 1.64524 11.9637 0.585601 8.82812 0.177067C7.68367 0.0278974 5.96 -0.0458558 5.69297 0.0427906ZM32.2266 0.0539605C28.5238 0.381928 25.6938 1.46636 23.4267 3.42577C22.4201 4.29584 21.2324 5.84418 21.132 6.41741C21.1081 6.55375 21.0985 11.7975 21.1107 18.0702L21.1328 29.4751L21.8359 28.8192C23.5316 27.2377 25.9364 25.9835 28.4766 25.3559C29.9807 24.9843 31.1745 24.833 33.9602 24.6609C34.4894 24.6283 34.9252 24.3398 35.1468 23.8758L35.3125 23.5287V12.3295C35.3125 1.22783 35.3111 1.12754 35.1535 0.797355C35.0641 0.610239 34.8558 0.366877 34.678 0.241869C34.3977 0.0449296 34.284 0.0175196 33.6846 0.00215108C33.3123 -0.00743445 32.6562 0.0159352 32.2266 0.0539605ZM1.44531 4.99978C1.40234 5.01554 1.23461 5.05088 1.07258 5.07837C0.721172 5.13802 0.253516 5.53015 0.105547 5.88918C0.0185156 6.10045 0 8.22353 0 18.0058V29.8662L0.162969 30.2075C0.354453 30.6087 0.628047 30.8261 1.10195 30.9538C1.39898 31.0339 1.57703 31.0184 2.42188 30.8386C5.66414 30.1487 8.90602 29.8637 11.9473 30.0012C13.3811 30.066 15.1715 30.2842 16.1572 30.5142C16.8969 30.6867 16.9445 30.6656 16.5654 30.3321C14.6678 28.663 12.0468 27.5549 8.94531 27.1106C8.47266 27.0429 7.46852 26.9534 6.71383 26.9115C5.65305 26.8528 5.24352 26.7983 4.90875 26.6713C3.84367 26.2672 3.14594 25.541 2.66813 24.339C2.55141 24.0454 2.53531 23.1043 2.5 14.5081L2.46094 5.00176L1.99219 4.98647C1.73438 4.97807 1.48828 4.9841 1.44531 4.99978ZM37.5586 5.00588C37.5263 5.03994 37.5 9.21005 37.5 14.2728C37.5 20.2027 37.4716 23.6295 37.4202 23.9042C37.2485 24.8224 36.6413 25.7568 35.8867 26.2635C35.2003 26.7246 34.7825 26.8287 33.2862 26.9115C32.5315 26.9534 31.5273 27.0429 31.0547 27.1106C27.9532 27.5549 25.3322 28.663 23.4346 30.3321C23.0555 30.6656 23.1031 30.6867 23.8428 30.5142C24.8285 30.2842 26.6189 30.066 28.0527 30.0012C31.094 29.8637 34.3359 30.1487 37.5781 30.8386C38.423 31.0184 38.601 31.0339 38.898 30.9538C39.372 30.8261 39.6455 30.6087 39.837 30.2075L40 29.8662V18.0135C40 9.8316 39.9743 6.09166 39.9169 5.93774C39.8025 5.63068 39.4656 5.28188 39.1522 5.14602C38.8559 5.01753 37.648 4.91129 37.5586 5.00588Z"
        fill="white" fill-opacity="0.12" />
</svg>
    