<svg width="367" height="766" viewBox="0 0 367 766" fill="none" xmlns="http://www.w3.org/2000/svg">
<path fill-rule="evenodd" clip-rule="evenodd" d="M-529.699 -333.652C-525.567 -331.875 -518.072 -330.305 -513.043 -330.158C-504.759 -329.921 -469.505 -315.216 -472.217 -313.135C-472.841 -312.654 -486.03 -313.589 -501.525 -315.208C-517.021 -316.832 -544.913 -318.398 -563.507 -318.688C-582.102 -318.981 -595.193 -320.074 -592.597 -321.118C-590.002 -322.167 -588.95 -324.759 -590.261 -326.878C-591.572 -329.001 -590.314 -332.21 -587.466 -334.013C-580.892 -338.18 -539.631 -337.92 -529.699 -333.652ZM-528.794 -300.826C-512.986 -299.718 -509.992 -298.5 -513.602 -294.634C-517.941 -289.99 -542.959 -290.006 -565.19 -294.668C-572.463 -296.194 -573.248 -297.317 -568.947 -300.037C-565.956 -301.931 -560.126 -303.193 -555.994 -302.844C-551.862 -302.491 -539.623 -301.585 -528.794 -300.826ZM-477.108 -244.691C-466.778 -244.037 -452.409 -241.88 -445.178 -239.9C-437.947 -237.92 -425.877 -235.339 -418.357 -234.163C-408.984 -232.698 -404.074 -229.692 -402.745 -224.601C-401.678 -220.521 -398.162 -217.181 -394.935 -217.181C-391.708 -217.181 -389.818 -215.065 -390.739 -212.484C-391.836 -209.392 -371.592 -199.616 -331.454 -183.862C-297.931 -170.705 -253.597 -151.953 -232.936 -142.192C-212.276 -132.431 -192.836 -123.507 -189.737 -122.365C-181.296 -119.247 -110.85 -59.4217 -110.85 -55.3715C-110.85 -53.4441 -107.642 -51.8661 -103.721 -51.8661C-99.2918 -51.8661 -85.0472 -37.9947 -66.1069 -15.2338C-49.338 4.91575 -32.4038 24.7798 -28.467 28.9127C-20.2966 37.494 9.56371 86.1867 26.2613 118.156C32.4595 130.021 39.3865 139.734 41.6554 139.741C46.8544 139.752 56.625 161.769 63.2514 188.404C66.0538 199.668 70.2873 209.53 72.6577 210.323C77.7327 212.014 78.5629 197.53 73.5705 194.445C71.696 193.288 68.9613 183.467 67.4925 172.62C66.0237 161.773 62.4851 148.334 59.6302 142.754C56.7715 137.171 54.5739 129.563 54.743 125.847C54.9271 121.763 57.3049 124.295 60.7421 132.234C67.9846 148.969 69.1641 150.062 73.1009 143.694C75.3173 140.106 79.5133 148.969 86.4853 171.981C109.422 247.676 118.295 266.053 118.295 237.851C118.295 220.527 105.775 178.936 82.094 117.589C72.9995 94.0354 66.6698 73.7468 68.0259 72.5031C69.382 71.2595 71.1927 72.1988 72.0491 74.5921C72.9094 76.9817 77.0265 82.8766 81.1962 87.6858C85.6664 92.8406 88.1194 99.889 87.1727 104.845C86.2036 109.913 88.3373 115.77 92.537 119.573C96.3761 123.044 99.5128 129.003 99.5128 132.817C99.5128 136.63 101.203 139.749 103.269 139.749C108.727 139.749 107.627 124.359 101.391 113.449C98.4384 108.282 96.0982 100.674 96.1921 96.5414C96.3123 91.3565 98.4046 93.3966 102.939 103.109C106.556 110.852 110.621 118.295 111.969 119.648C117.458 125.133 112.995 84.1991 106.575 70.1511C102.773 61.8366 98.769 49.1562 97.6796 41.9725C96.0606 31.3435 98.1004 33.8082 108.619 55.2127C115.726 69.6777 121.657 84.263 121.796 87.6294C121.935 90.9921 124.437 95.7223 127.352 98.1419C138.114 107.076 136.736 94.8544 123.768 66.394C116.485 50.3998 111.383 36.4533 112.435 35.4013C116.917 30.919 160.285 144.907 157.179 153.004C156.01 156.047 156.874 158.534 159.098 158.534C161.318 158.534 162.209 160.958 161.07 163.918C159.936 166.879 163.2 176.602 168.328 185.522C173.459 194.441 179.522 210.747 181.806 221.756C184.086 232.764 187.663 244.956 189.747 248.852C191.832 252.752 194.248 261.499 195.115 268.292C203.894 337.048 205.337 361.868 203.767 417.105C202.215 471.663 200.675 483.904 191.877 511.706C186.321 529.271 179.353 554.192 176.397 567.091C173.437 579.985 168.452 596.674 165.315 604.181C162.182 611.684 159.673 619.732 159.741 622.061C159.936 628.697 174.643 609.313 174.658 602.4C174.665 599.015 177.903 590.941 181.851 584.464C198.094 557.822 208.417 506.912 217.557 408.385L222.436 355.785L222.958 401.663C223.582 456.845 217.08 522.719 210.239 530.492C203.444 538.213 198.376 558.821 204.146 555.252C206.513 553.79 208.451 553.539 208.451 554.699C208.451 563.976 182.347 628.005 161.645 669.507C124.569 743.835 94.5167 786.467 41.6591 839.721C-15.6836 897.494 -90.9073 968.403 -103.773 976.808C-109.175 980.34 -121.008 988.136 -130.069 994.128C-139.126 1000.12 -160.06 1013.94 -176.589 1024.84C-214.939 1050.11 -242.001 1058.17 -279.119 1055.36C-295.734 1054.11 -309.392 1051.02 -313.115 1047.68C-316.965 1044.22 -325.06 1042.49 -334.361 1043.14C-360.488 1044.96 -378.966 1038.38 -396.772 1020.9C-437.285 981.121 -450.061 955.666 -446.519 921.766C-445.204 909.187 -442.883 899.67 -441.358 900.613C-439.832 901.556 -432.068 891.182 -424.104 877.563C-407.681 849.478 -370.942 813.323 -355.773 810.317C-350.195 809.213 -340.98 806.812 -335.301 804.982C-328.663 802.848 -324.97 803.013 -324.97 805.448C-324.97 807.529 -317.529 804.873 -308.434 799.542C-293.055 790.528 -292.033 790.371 -293.844 797.306C-296.207 806.339 -292.353 806.658 -276.5 798.745C-269.866 795.435 -260.794 793.681 -256.339 794.845C-251.854 796.021 -245.663 794.635 -242.467 791.742C-239.292 788.868 -228.241 782.92 -217.91 778.524L-199.128 770.537L-212.276 781.861C-232.895 799.624 -216.393 796.592 -184.609 776.781C-169.861 767.587 -150.752 758.938 -142.135 757.563C-129.888 755.602 -125.993 753.133 -124.257 746.228C-122.898 740.799 -120.076 738.157 -116.928 739.363C-109.457 742.23 -78.6536 705.519 -65.4082 677.96C-59.1988 665.043 -53.3612 654.478 -52.4333 654.478C-51.5055 654.478 -51.1674 655.744 -51.6858 657.296C-52.2004 658.848 -50.9345 660.959 -48.8684 661.992C-46.8024 663.026 -41.3818 656.477 -36.8251 647.441C-32.2685 638.405 -25.9276 628.129 -22.7383 624.605C-15.6122 616.726 -15.2253 611.688 -21.9457 614.269C-24.703 615.325 -26.9568 613.743 -26.9568 610.752C-26.9568 607.758 -24.8607 606.116 -22.2988 607.101C-17.5844 608.908 -12.2765 598.97 -5.83413 576.281C-2.7801 565.524 -3.16703 563.995 -8.68156 565.047C-12.1901 565.715 -15.6273 570.472 -16.3185 575.616C-17.0097 580.763 -21.2883 589.198 -25.8224 594.364C-30.3602 599.53 -42.0504 615.753 -51.806 630.417C-61.5578 645.082 -73.1429 660.298 -77.5455 664.232C-81.9518 668.166 -76.8768 659.731 -66.2723 645.487C-46.453 618.864 -43.8122 613.149 -51.3289 613.149C-53.7706 613.149 -52.6625 609.828 -48.7895 605.545C-43.5718 599.782 -42.9595 596.892 -46.2652 593.586C-48.6618 591.189 -51.1787 589.96 -51.8586 590.858C-52.5385 591.752 -61.3888 604.32 -71.5313 618.785C-101.542 661.598 -116.902 676.296 -138.262 682.638C-148.682 685.734 -161.293 690.945 -166.285 694.218C-171.277 697.486 -176.191 699.335 -177.205 698.324C-178.219 697.31 -169.196 689.724 -157.157 681.466C-125.775 659.937 -80.7986 611.35 -80.7986 598.974C-80.7986 594.582 -84.2996 596.284 -93.3791 605.087C-100.302 611.797 -107.684 616.775 -109.787 616.155C-111.891 615.535 -117.161 619.255 -121.5 624.421C-125.835 629.587 -129.438 632.604 -129.509 631.128C-129.577 629.647 -124.336 622.407 -117.864 615.032C-111.391 607.66 -107.113 600.604 -108.36 599.361C-109.603 598.113 -103.221 588.859 -94.1754 578.794C-73.9655 556.311 -44.293 495.765 -37.3736 462.879C-30.1499 428.549 -26.5249 387.72 -30.6983 387.72C-34.421 387.72 -43.0534 416.234 -43.5117 430.041C-43.8873 441.384 -57.6473 471.058 -57.8615 460.985C-57.9479 456.852 -55.54 450.187 -52.5047 446.178C-49.4732 442.165 -46.9902 432.855 -46.9902 425.487C-46.9902 418.12 -45.2998 406.194 -43.2337 398.988C-41.1676 391.782 -39.357 370.659 -39.2105 352.05C-39.064 333.441 -37.9671 314.14 -36.7763 309.166C-34.7553 300.739 -34.2745 300.577 -29.7216 306.807C-25.2627 312.901 -24.3048 312.968 -18.8954 307.558C-14.9699 303.632 -13.7716 298.387 -15.3568 292.071C-18.3207 280.251 -23.3882 279.706 -25.5557 290.974C-26.4535 295.625 -27.4151 292.383 -27.6969 283.771C-28.0087 274.228 -26.3746 267.477 -23.5121 266.473C-20.0261 265.256 -20.4243 262.998 -25.0598 257.708C-29.8155 252.286 -39.4772 216.56 -39.4772 204.405C-39.4772 203.534 -42.0128 203.789 -45.1119 204.98C-48.2111 206.167 -50.7467 205.502 -50.7467 203.504C-50.7467 201.501 -49.0563 199.863 -46.9902 199.863C-41.0174 199.863 -42.6289 190.835 -49.8076 184.057C-62.249 172.308 -65.6374 166.477 -69.176 150.731C-72.5681 135.631 -84.5551 117.657 -84.5551 127.673C-84.5551 136.57 -94.0364 131.813 -100.043 119.9C-132.383 55.7913 -149.843 28.9089 -156.473 33.0079C-158.239 34.0975 -159.685 32.0424 -159.685 28.4355C-159.685 19.7603 -174.23 4.54377 -180.297 6.86945C-183.148 7.96654 -186.747 3.94264 -189.192 -3.07196C-191.45 -9.55304 -198.591 -19.7988 -205.063 -25.8441C-213.609 -33.8318 -215.127 -36.8375 -210.615 -36.8375C-207.201 -36.8375 -200.488 -32.6107 -195.702 -27.4446C-177.427 -7.72331 -177.134 -20.3022 -195.371 -41.6128C-202.603 -50.0626 -208.467 -58.7829 -208.406 -60.9959C-208.343 -63.2051 -206.57 -62.0592 -204.462 -58.4411C-199.793 -50.4196 -191.837 -49.6418 -194.853 -57.5018C-196.04 -60.6014 -195.375 -63.1375 -193.377 -63.1375C-191.375 -63.1375 -189.737 -61.6835 -189.737 -59.9064C-189.737 -58.1292 -173.738 -40.959 -154.189 -21.7487C-133.506 -1.4263 -115.396 20.0834 -110.884 29.6829C-106.617 38.7564 -95.5578 55.4795 -86.3056 66.8373C-77.0534 78.1989 -66.9221 93.6334 -63.7855 101.136C-59.7547 110.789 -56.9186 113.61 -54.0862 110.777C-49.7512 106.441 -60.4948 87.295 -83.676 58.0306C-90.6331 49.2464 -94.6638 42.0627 -92.6315 42.0627C-90.5993 42.0627 -88.1838 44.178 -87.2597 46.7591C-86.3394 49.344 -84.2921 50.2533 -82.7106 48.7842C-79.5477 45.8424 -120.242 -0.949178 -181.886 -65.2528C-212.959 -97.6657 -227.929 -110.166 -249.874 -122.012C-265.351 -130.364 -293.994 -145.896 -313.52 -156.525C-333.05 -167.154 -351.645 -175.912 -354.842 -175.984C-358.042 -176.059 -364.883 -178.535 -370.048 -181.488C-381.877 -188.251 -397.531 -188.829 -395.423 -182.427C-394.574 -179.842 -390.329 -177.205 -385.991 -176.566C-381.656 -175.923 -376.197 -173.098 -373.861 -170.288C-370.443 -166.166 -371.303 -165.535 -378.286 -167.034C-386.716 -168.845 -386.753 -168.732 -379.661 -162.98C-370.619 -155.65 -376.197 -155.481 -388.831 -162.702C-399.428 -168.762 -411.369 -170.002 -411.369 -165.043C-411.369 -161.075 -382.497 -148.692 -357.84 -142.087C-348.024 -139.457 -339.996 -135.778 -339.996 -133.915C-339.996 -132.051 -336.195 -128.997 -331.544 -127.126C-324.797 -124.413 -324.456 -123.68 -329.846 -123.489C-333.561 -123.361 -343.599 -126.633 -352.152 -130.766C-368.095 -138.468 -381.318 -140.554 -381.318 -135.361C-381.318 -133.753 -378.684 -128.681 -375.469 -124.09C-372.253 -119.495 -370.987 -115.565 -372.651 -115.358C-380.397 -114.385 -402.369 -116.718 -405.735 -118.871C-422.421 -129.545 -505.282 -143.417 -505.282 -135.534C-505.282 -133.67 -493.873 -129.913 -479.925 -127.189C-446.489 -120.652 -403.917 -105.428 -394.225 -96.5461C-389.958 -92.6349 -383.718 -89.4376 -380.36 -89.4376C-376.998 -89.4376 -373.275 -87.8633 -372.088 -85.9397C-368.125 -79.53 -292.71 -40.944 -285.238 -41.5076C-272.744 -42.4506 -204.015 8.8645 -179.204 37.6555C-164.429 54.8032 -119.735 115.027 -117.383 120.963C-116.155 124.062 -109.01 140.97 -101.504 158.534C-88.2928 189.448 -78.6649 227.925 -85.1373 223.924C-86.8841 222.845 -88.3116 219.528 -88.3116 216.552C-88.3116 213.573 -92.4099 203.105 -97.4173 193.292C-109.04 170.512 -121.016 140.733 -123.754 127.801C-124.926 122.263 -128.814 114.805 -132.39 111.228C-135.966 107.651 -141.965 97.8526 -145.726 89.4554C-150.53 78.725 -153.468 75.6516 -155.613 79.1195C-157.84 82.7264 -160.752 80.6787 -166.42 71.515C-173.576 59.9467 -221.036 14.0982 -238.556 1.82359C-242.696 -1.07693 -246.084 -6.7352 -246.084 -10.7516C-246.084 -18.7431 -249.991 -20.1557 -255.858 -14.2871C-258.375 -11.7698 -264.389 -14.8882 -273.987 -23.6799C-281.887 -30.9162 -290.704 -36.8375 -293.581 -36.8375C-296.459 -36.8375 -315.264 -45.0656 -335.368 -55.1197C-419.551 -97.2186 -465.718 -110.421 -543.091 -114.517C-579.149 -116.425 -594.156 -115.381 -631.368 -108.374C-656.026 -103.73 -685.499 -96.0952 -696.863 -91.4063C-708.226 -86.7174 -724.285 -80.7323 -732.549 -78.1098C-740.813 -75.4835 -759.254 -64.7005 -773.532 -54.1466C-787.807 -43.5928 -801.515 -35.4022 -803.994 -35.9395C-809.745 -37.1944 -870.465 22.5556 -882.32 41.1384C-887.26 48.8782 -895.731 59.3118 -901.14 64.32C-906.73 69.4936 -910.982 77.5076 -910.982 82.8653C-910.982 88.054 -914.217 95.79 -918.172 100.058C-926.654 109.207 -957.011 189.674 -967.164 229.92C-998.253 353.155 -989.865 492.075 -945.204 593.488C-911.519 669.98 -824.324 778.746 -768.348 814.086C-760.024 819.342 -753.21 824.564 -753.21 825.688C-753.21 826.815 -756.966 825.102 -761.56 821.886C-770.974 815.288 -775.749 814.45 -775.749 819.387C-775.749 823.933 -699.496 879.994 -672.87 895.022C-661.086 901.676 -652.153 907.827 -653.017 908.694C-653.885 909.562 -660.545 906.76 -667.814 902.469C-675.082 898.178 -682.483 895.146 -684.252 895.729C-686.021 896.311 -693.602 892.103 -701.096 886.377C-708.587 880.651 -723.233 873.757 -733.642 871.055C-754.919 865.536 -794.46 835.791 -808.96 814.398C-818.389 800.485 -835.041 787.669 -838.801 791.43C-843.501 796.13 -772.706 862.294 -739.123 884.589C-720.014 897.277 -704.375 908.89 -704.375 910.393C-704.375 911.896 -699.304 914.24 -693.106 915.6C-686.908 916.96 -681.837 920.364 -681.837 923.159C-681.837 925.955 -678.328 929.359 -674.042 930.719C-669.752 932.079 -667.047 933.999 -668.032 934.983C-670.526 937.474 -705.829 919.196 -724.12 905.94C-732.474 899.888 -742.23 894.936 -745.802 894.936C-749.371 894.936 -754.472 892.306 -757.139 889.093C-759.806 885.877 -773.961 876.221 -788.588 867.633C-829.234 843.775 -851.31 826.556 -888.342 789.837C-906.993 771.341 -922.203 758.258 -922.139 760.76C-921.985 767.016 -871.877 817.546 -843.114 840.457C-830.143 850.789 -807.566 867.238 -792.942 877.014C-778.322 886.787 -762.113 899.042 -756.925 904.254C-751.737 909.461 -746.084 913.722 -744.36 913.722C-742.632 913.722 -736.114 917.358 -729.874 921.803C-723.631 926.248 -709.849 934.649 -699.24 940.472L-679.958 951.06L-694.984 948.832C-734.57 942.956 -780.534 922.25 -816.518 894.094C-832.058 881.929 -841.66 876.699 -844.053 879.092C-849.804 884.844 -770.482 942.058 -721.28 967.644C-700.442 978.48 -687.592 988.508 -685.146 995.842C-684.26 998.502 -672.588 1005.58 -659.208 1011.57C-645.827 1017.57 -637.416 1022.51 -640.515 1022.56C-647.119 1022.67 -693.316 1004.2 -720.123 990.736C-730.397 985.573 -741.197 981.35 -744.127 981.35C-754.446 981.35 -749.281 988.117 -734.427 994.061C-726.163 997.371 -719.401 1000.92 -719.401 1001.95C-719.401 1007.04 -815.06 960.566 -828.636 948.885C-836.288 942.295 -839.609 942.422 -839.609 949.298C-839.609 955.302 -811.003 974.802 -771.233 995.905C-757.391 1003.25 -746.737 1009.94 -747.564 1010.77C-752.042 1015.25 -856.983 951.008 -884.687 926.823C-900.949 912.628 -924.78 894.936 -927.635 894.936C-933.98 894.936 -927.887 903.179 -913.999 913.395C-901.122 922.866 -899.713 924.993 -906.298 924.993C-911.26 924.993 -919.802 918.486 -928.495 908.086C-936.267 898.787 -944.501 891.179 -946.797 891.179C-953.968 891.179 -1011.7 834.818 -1021.28 818.455C-1026.3 809.885 -1033.97 799.658 -1038.31 795.724C-1045.46 789.251 -1046.22 789.18 -1046.22 794.973C-1046.22 805.02 -1000.21 859.765 -961.744 895.496C-939.52 916.137 -928.063 929.302 -930.343 931.583C-932.62 933.86 -929.01 939.139 -920.445 946.048C-913.03 952.033 -899.837 962.974 -891.129 970.361C-869.451 988.752 -823.471 1018.92 -817.119 1018.92C-814.26 1018.92 -808.43 1022.16 -804.163 1026.11C-799.899 1030.06 -780.621 1041.18 -761.328 1050.82C-742.034 1060.46 -727.125 1069.23 -728.199 1070.3C-730.288 1072.39 -805.267 1039.23 -811.248 1033.57C-813.208 1031.71 -818.111 1030.19 -822.138 1030.19C-826.165 1030.19 -835.206 1024.28 -842.227 1017.04C-852.576 1006.39 -857.813 1003.89 -869.841 1003.89C-878.008 1003.89 -884.657 1005.16 -884.623 1006.71C-884.537 1010.33 -845.77 1033.09 -809.557 1050.79C-777.368 1066.52 -702.76 1092.5 -678.937 1096.27C-670.109 1097.67 -661.98 1100.28 -660.872 1102.07C-657.803 1107.04 -664.046 1106.16 -705.574 1095.77C-748.89 1084.93 -771.741 1076.7 -816.052 1055.94C-833.058 1047.98 -850.924 1041.46 -855.758 1041.46C-860.593 1041.46 -868.076 1037.41 -872.388 1032.45C-876.701 1027.49 -885.457 1022.28 -891.847 1020.88C-898.24 1019.47 -903.469 1016.04 -903.469 1013.24C-903.469 1007.64 -922.65 992.622 -929.802 992.622C-936.846 992.622 -963.573 970.067 -963.573 964.127C-963.573 961.043 -967.296 958.807 -972.435 958.807C-982.074 958.807 -1030.12 916.243 -1028.25 909.363C-1027.66 907.218 -1039.01 893.016 -1053.45 877.803C-1067.9 862.591 -1084.42 842.892 -1090.17 834.029C-1095.91 825.166 -1101.64 817.069 -1102.89 816.036C-1110.4 809.84 -1147.62 738.747 -1145.82 734.047C-1144.6 730.876 -1147.62 724.136 -1152.71 718.677C-1162.37 708.303 -1194.52 636.245 -1191.04 632.758C-1189.9 631.616 -1188.96 632.995 -1188.96 635.816C-1188.96 639.025 -1187.67 639.611 -1185.5 637.383C-1183.38 635.197 -1187.82 611.26 -1196.96 575.578C-1205.16 543.548 -1214.45 504.662 -1217.59 489.164C-1223.69 459.136 -1224.98 383.069 -1219.65 368.281C-1217.91 363.476 -1216.15 346.681 -1215.72 330.961C-1214.72 293.66 -1189.48 173.946 -1173.03 128.477C-1144.55 49.7611 -1092.97 -36.8713 -1038.62 -97.2637C-1025.23 -112.131 -1013.07 -127.441 -1011.59 -131.288C-1010.1 -135.136 -1006.28 -138.281 -1003.09 -138.281C-999.891 -138.281 -993.922 -139.971 -989.816 -142.038C-985.714 -144.104 -978.975 -147.501 -974.843 -149.582C-965.703 -154.192 -965.155 -150.668 -973.569 -141.373C-982.487 -131.514 -976.458 -127.986 -966.375 -137.161C-961.736 -141.384 -955.741 -144.04 -953.055 -143.063C-950.369 -142.087 -941.53 -145.682 -933.416 -151.055C-925.298 -156.428 -916.422 -160.823 -913.691 -160.823C-910.964 -160.823 -907.124 -162.386 -905.16 -164.299C-903.199 -166.211 -887.223 -174.886 -869.661 -183.58C-852.099 -192.275 -833.246 -202.547 -827.761 -206.405C-811.958 -217.53 -811.995 -214.596 -827.844 -200.274C-835.849 -193.041 -843.437 -187.123 -844.707 -187.123C-850.931 -187.123 -911.711 -147.696 -915.021 -141.512C-917.109 -137.608 -925.648 -130.101 -933.991 -124.834C-942.417 -119.514 -948.359 -113.153 -947.353 -110.53C-946.357 -107.93 -948.63 -103.876 -952.405 -101.517C-964.035 -94.2542 -998.82 -48.1277 -1022.43 -8.65884C-1046.68 31.8658 -1051.52 42.0627 -1046.54 42.0627C-1043.04 42.0627 -1016.16 -1.39629 -1016.16 -7.0508C-1016.16 -8.96695 -1013.15 -10.5374 -1009.46 -10.5374C-1005.77 -10.5374 -999.823 -15.5081 -996.236 -21.5834C-981.976 -45.7231 -896.892 -117.109 -856.513 -138.807C-848.249 -143.247 -836.416 -150.69 -830.218 -155.349C-817.998 -164.532 -753.086 -195.754 -728.793 -204.132C-689.549 -217.669 -597.319 -239.626 -564.593 -243.225C-529.462 -247.091 -517.952 -247.283 -477.108 -244.691ZM-176.589 -203.437C-166.259 -196.283 -151.045 -186.996 -142.781 -182.803C-134.516 -178.606 -120.865 -168.142 -112.443 -159.546C-104.025 -150.95 -80.3591 -127.96 -59.8524 -108.46C-26.2807 -76.528 1.64127 -46.298 -13.6289 -58.4073C-16.8632 -60.9734 -20.7624 -61.8187 -22.2913 -60.2858C-23.8239 -58.7567 -24.579 -59.1925 -23.9667 -61.2589C-22.0096 -67.8715 -32.3587 -82.577 -37.5614 -80.5782C-40.4314 -79.4774 -52.0352 -88.5997 -64.6645 -101.893C-107.503 -146.978 -143.081 -178.166 -170.087 -194.3C-195.36 -209.4 -205.807 -217.703 -198.41 -216.816C-196.739 -216.613 -186.919 -210.594 -176.589 -203.437ZM-956.597 -164.994C-953.464 -163.006 -952.95 -160.869 -955.264 -159.437C-957.337 -158.156 -959.997 -159.636 -961.184 -162.725C-963.671 -169.213 -963.438 -169.326 -956.597 -164.994ZM-31.2806 -131.706C-27.9185 -123.545 -26.6976 -122.756 -25.4618 -127.948C-24.6053 -131.567 -22.3101 -134.523 -20.3642 -134.523C-15.154 -134.523 -1.32636 -110.32 -5.69891 -108.851C-7.74995 -108.159 -9.42533 -104.887 -9.42533 -101.573C-9.42533 -91.6017 -30.2025 -114.1 -34.7816 -129.027C-39.5448 -144.555 -37.2834 -146.287 -31.2806 -131.706ZM-296.575 -106.138C-289.573 -100.525 -289.618 -100.457 -297.736 -104.391C-302.386 -106.645 -306.188 -109.275 -306.188 -110.233C-306.188 -113.108 -304.238 -112.277 -296.575 -106.138ZM29.7774 48.4761C31.8134 53.8301 31.3851 54.2622 27.6737 50.5801C25.1043 48.029 23.9511 44.997 25.1081 43.8436C26.2651 42.6864 28.3649 44.7716 29.7774 48.4761ZM41.1558 66.8111C44.6568 72.1537 46.6665 77.3836 45.6222 78.4319C44.5742 79.4764 41.0168 75.1031 37.7111 68.7122C30.4084 54.5853 32.4182 53.4732 41.1558 66.8111ZM-71.2533 252.715C-69.8897 254.916 -69.5817 257.528 -70.5659 258.512C-71.5501 259.496 -73.357 257.693 -74.5816 254.503C-77.121 247.883 -74.9572 246.718 -71.2533 252.715ZM-105.456 576.679C-106.869 580.383 -108.968 582.469 -110.125 581.311C-111.282 580.158 -110.129 577.126 -107.56 574.575C-103.848 570.893 -103.42 571.325 -105.456 576.679ZM-148.415 652.258C-148.415 652.972 -150.951 655.662 -154.05 658.235C-157.299 660.933 -159.685 661.297 -159.685 659.096C-159.685 656.999 -157.149 654.309 -154.05 653.118C-150.951 651.931 -148.415 651.544 -148.415 652.258ZM-909.104 942.231L-897.835 951.913L-910.043 943.835C-916.76 939.39 -922.252 935.021 -922.252 934.13C-922.252 931.316 -920.663 932.297 -909.104 942.231ZM-713.545 1024.76C-706.671 1030.28 -706.791 1030.35 -715.645 1026.14C-727.144 1020.66 -729.273 1018.92 -724.503 1018.92C-722.486 1018.92 -717.557 1021.55 -713.545 1024.76Z" fill="white" fill-opacity="0.05"/>
<path fill-rule="evenodd" clip-rule="evenodd" d="M-385.699 -321.652C-381.567 -319.875 -374.072 -318.305 -369.043 -318.158C-360.759 -317.921 -325.505 -303.216 -328.217 -301.135C-328.841 -300.654 -342.03 -301.589 -357.525 -303.208C-373.021 -304.832 -400.913 -306.398 -419.507 -306.688C-438.102 -306.981 -451.193 -308.074 -448.597 -309.118C-446.002 -310.167 -444.95 -312.759 -446.261 -314.878C-447.572 -317.001 -446.314 -320.21 -443.466 -322.013C-436.892 -326.18 -395.631 -325.92 -385.699 -321.652ZM-384.794 -288.826C-368.986 -287.718 -365.992 -286.5 -369.602 -282.634C-373.941 -277.99 -398.959 -278.006 -421.19 -282.668C-428.463 -284.194 -429.248 -285.317 -424.947 -288.037C-421.956 -289.931 -416.126 -291.193 -411.994 -290.844C-407.862 -290.491 -395.623 -289.585 -384.794 -288.826ZM-333.108 -232.691C-322.778 -232.037 -308.409 -229.88 -301.178 -227.9C-293.947 -225.92 -281.877 -223.339 -274.357 -222.163C-264.984 -220.698 -260.074 -217.692 -258.745 -212.601C-257.678 -208.521 -254.162 -205.181 -250.935 -205.181C-247.708 -205.181 -245.818 -203.065 -246.739 -200.484C-247.836 -197.392 -227.592 -187.616 -187.454 -171.862C-153.931 -158.705 -109.597 -139.953 -88.9363 -130.192C-68.2756 -120.431 -48.8358 -111.507 -45.7367 -110.365C-37.2959 -107.247 33.1495 -47.4217 33.1495 -43.3715C33.1495 -41.4441 36.3576 -39.8661 40.2793 -39.8661C44.7082 -39.8661 58.9528 -25.9947 77.8931 -3.23385C94.662 16.9157 111.596 36.7798 115.533 40.9127C123.703 49.494 153.564 98.1867 170.261 130.156C176.46 142.021 183.386 151.734 185.655 151.741C190.854 151.752 200.625 173.769 207.251 200.404C210.054 211.668 214.287 221.53 216.658 222.323C221.733 224.014 222.563 209.53 217.571 206.445C215.696 205.288 212.961 195.467 211.492 184.62C210.024 173.773 206.485 160.334 203.63 154.754C200.771 149.171 198.574 141.563 198.743 137.847C198.927 133.763 201.305 136.295 204.742 144.234C211.985 160.969 213.164 162.062 217.101 155.694C219.317 152.106 223.513 160.969 230.485 183.981C253.422 259.676 262.295 278.053 262.295 249.851C262.295 232.527 249.775 190.936 226.094 129.589C217 106.035 210.67 85.7468 212.026 84.5031C213.382 83.2595 215.193 84.1988 216.049 86.5921C216.909 88.9817 221.026 94.8766 225.196 99.6858C229.666 104.841 232.119 111.889 231.173 116.845C230.204 121.913 232.337 127.77 236.537 131.573C240.376 135.044 243.513 141.003 243.513 144.817C243.513 148.63 245.203 151.749 247.269 151.749C252.727 151.749 251.627 136.359 245.391 125.449C242.438 120.282 240.098 112.674 240.192 108.541C240.312 103.357 242.405 105.397 246.939 115.109C250.556 122.852 254.621 130.295 255.969 131.648C261.458 137.133 256.995 96.1991 250.575 82.1511C246.773 73.8366 242.769 61.1562 241.68 53.9725C240.061 43.3435 242.1 45.8082 252.619 67.2127C259.726 81.6777 265.657 96.263 265.796 99.6294C265.935 102.992 268.437 107.722 271.352 110.142C282.114 119.076 280.736 106.854 267.768 78.394C260.485 62.3998 255.383 48.4533 256.435 47.4013C260.917 42.919 304.285 156.907 301.179 165.004C300.01 168.047 300.874 170.534 303.098 170.534C305.318 170.534 306.209 172.958 305.07 175.918C303.936 178.879 307.2 188.602 312.328 197.522C317.459 206.441 323.522 222.747 325.806 233.756C328.086 244.764 331.663 256.956 333.747 260.852C335.832 264.752 338.248 273.499 339.115 280.292C347.894 349.048 349.337 373.868 347.767 429.105C346.215 483.663 344.675 495.904 335.877 523.706C330.321 541.271 323.353 566.192 320.397 579.091C317.437 591.985 312.452 608.674 309.315 616.181C306.182 623.684 303.673 631.732 303.741 634.061C303.936 640.697 318.643 621.313 318.658 614.4C318.665 611.015 321.903 602.941 325.851 596.464C342.094 569.822 352.417 518.912 361.557 420.385L366.436 367.785L366.958 413.663C367.582 468.845 361.08 534.719 354.239 542.492C347.444 550.213 342.376 570.821 348.146 567.252C350.513 565.79 352.451 565.539 352.451 566.699C352.451 575.976 326.347 640.005 305.645 681.507C268.569 755.835 238.517 798.467 185.659 851.721C128.316 909.494 53.0927 980.403 40.2268 988.808C34.8249 992.34 22.992 1000.14 13.9313 1006.13C4.87445 1012.12 -16.0605 1025.94 -32.589 1036.84C-70.939 1062.11 -98.0007 1070.17 -135.119 1067.36C-151.734 1066.11 -165.392 1063.02 -169.115 1059.68C-172.965 1056.22 -181.06 1054.49 -190.361 1055.14C-216.488 1056.96 -234.966 1050.38 -252.772 1032.9C-293.285 993.121 -306.061 967.666 -302.519 933.766C-301.204 921.187 -298.883 911.67 -297.358 912.613C-295.832 913.556 -288.068 903.182 -280.104 889.563C-263.681 861.478 -226.942 825.323 -211.773 822.317C-206.195 821.213 -196.98 818.812 -191.301 816.982C-184.663 814.848 -180.97 815.013 -180.97 817.448C-180.97 819.529 -173.529 816.873 -164.434 811.542C-149.055 802.528 -148.033 802.371 -149.844 809.306C-152.207 818.339 -148.353 818.658 -132.5 810.745C-125.866 807.435 -116.794 805.681 -112.339 806.845C-107.854 808.021 -101.663 806.635 -98.4665 803.742C-95.2923 800.868 -84.2407 794.92 -73.9104 790.524L-55.1279 782.537L-68.2756 793.861C-88.895 811.624 -72.3927 808.592 -40.6091 788.781C-25.8611 779.587 -6.7519 770.938 1.86548 769.563C14.1116 767.602 18.0071 765.133 19.7426 758.228C21.1025 752.799 23.9236 750.157 27.0715 751.363C34.5432 754.23 65.3464 717.519 78.5918 689.96C84.8012 677.043 90.6388 666.478 91.5667 666.478C92.4945 666.478 92.8326 667.744 92.3142 669.296C91.7996 670.848 93.0655 672.959 95.1316 673.992C97.1976 675.026 102.618 668.477 107.175 659.441C111.731 650.405 118.072 640.129 121.262 636.605C128.388 628.726 128.775 623.688 122.054 626.269C119.297 627.325 117.043 625.743 117.043 622.752C117.043 619.758 119.139 618.116 121.701 619.101C126.416 620.908 131.723 610.97 138.166 588.281C141.22 577.524 140.833 575.995 135.318 577.047C131.81 577.715 128.373 582.472 127.682 587.616C126.99 592.763 122.712 601.198 118.178 606.364C113.64 611.53 101.95 627.753 92.194 642.417C82.4422 657.082 70.8571 672.298 66.4545 676.232C62.0482 680.166 67.1232 671.731 77.7277 657.487C97.547 630.864 100.188 625.149 92.6711 625.149C90.2294 625.149 91.3375 621.828 95.2105 617.545C100.428 611.782 101.041 608.892 97.7348 605.586C95.3382 603.189 92.8213 601.96 92.1414 602.858C91.4615 603.752 82.6112 616.32 72.4687 630.785C42.4581 673.598 27.0978 688.296 5.73844 694.638C-4.68205 697.734 -17.2926 702.945 -22.285 706.218C-27.2773 709.486 -32.1908 711.335 -33.2051 710.324C-34.2193 709.31 -25.1963 701.724 -13.1567 693.466C18.225 671.937 63.2014 623.35 63.2014 610.974C63.2014 606.582 59.7004 608.284 50.6209 617.087C43.6977 623.797 36.3162 628.775 34.2126 628.155C32.109 627.535 26.8386 631.255 22.4999 636.421C18.1649 641.587 14.5624 644.604 14.491 643.128C14.4234 641.647 19.6637 634.407 26.1362 627.032C32.6086 619.66 36.8872 612.604 35.6401 611.361C34.3967 610.113 40.779 600.859 49.8246 590.794C70.0345 568.311 99.707 507.765 106.626 474.879C113.85 440.549 117.475 399.72 113.302 399.72C109.579 399.72 100.947 428.234 100.488 442.041C100.113 453.384 86.3527 483.058 86.1385 472.985C86.0521 468.852 88.46 462.187 91.4953 458.178C94.5268 454.165 97.0098 444.855 97.0098 437.487C97.0098 430.12 98.7002 418.194 100.766 410.988C102.832 403.782 104.643 382.659 104.789 364.05C104.936 345.441 106.033 326.14 107.224 321.166C109.245 312.739 109.726 312.577 114.278 318.807C118.737 324.901 119.695 324.968 125.105 319.558C129.03 315.632 130.228 310.387 128.643 304.071C125.679 292.251 120.612 291.706 118.444 302.974C117.547 307.625 116.585 304.383 116.303 295.771C115.991 286.228 117.625 279.477 120.488 278.473C123.974 277.256 123.576 274.998 118.94 269.708C114.184 264.286 104.523 228.56 104.523 216.405C104.523 215.534 101.987 215.789 98.8881 216.98C95.7889 218.167 93.2533 217.502 93.2533 215.504C93.2533 213.501 94.9437 211.863 97.0098 211.863C102.983 211.863 101.371 202.835 94.1924 196.057C81.751 184.308 78.3626 178.477 74.824 162.731C71.4319 147.631 59.4449 129.657 59.4449 139.673C59.4449 148.57 49.9636 143.813 43.9569 131.9C11.6173 67.7913 -5.8428 40.9089 -12.473 45.0079C-14.2386 46.0975 -15.6848 44.0424 -15.6848 40.4355C-15.6848 31.7603 -30.2299 16.5438 -36.2967 18.8694C-39.1478 19.9665 -42.7465 15.9426 -45.192 8.92804C-47.4497 2.44696 -54.5908 -7.79881 -61.0632 -13.8441C-69.6092 -21.8318 -71.1268 -24.8375 -66.6153 -24.8375C-63.2006 -24.8375 -56.4878 -20.6107 -51.702 -15.4446C-33.4267 4.27669 -33.1337 -8.30223 -51.3714 -29.6128C-58.6027 -38.0626 -64.4666 -46.7829 -64.4065 -48.9959C-64.3426 -51.2051 -62.5695 -50.0592 -60.4621 -46.4411C-55.7928 -38.4196 -47.8366 -37.6418 -50.853 -45.5018C-52.0401 -48.6014 -51.3752 -51.1375 -49.3767 -51.1375C-47.3745 -51.1375 -45.7367 -49.6835 -45.7367 -47.9064C-45.7367 -46.1292 -29.7378 -28.959 -10.1891 -9.74872C10.4941 10.5737 28.6042 32.0834 33.1157 41.6829C37.3831 50.7564 48.4422 67.4795 57.6944 78.8373C66.9466 90.1989 77.0779 105.633 80.2145 113.136C84.2453 122.789 87.0814 125.61 89.9138 122.777C94.2488 118.441 83.5052 99.295 60.324 70.0306C53.3669 61.2464 49.3362 54.0627 51.3685 54.0627C53.4007 54.0627 55.8162 56.178 56.7403 58.7591C57.6606 61.344 59.7079 62.2533 61.2894 60.7842C64.4523 57.8424 23.7583 11.0508 -37.8857 -53.2528C-68.9593 -85.6657 -83.9289 -98.1658 -105.874 -110.012C-121.351 -118.364 -149.994 -133.896 -169.52 -144.525C-189.05 -155.154 -207.645 -163.912 -210.842 -163.984C-214.042 -164.059 -220.883 -166.535 -226.048 -169.488C-237.877 -176.251 -253.531 -176.829 -251.423 -170.427C-250.574 -167.842 -246.329 -165.205 -241.991 -164.566C-237.656 -163.923 -232.197 -161.098 -229.861 -158.288C-226.443 -154.166 -227.303 -153.535 -234.286 -155.034C-242.716 -156.845 -242.753 -156.732 -235.661 -150.98C-226.619 -143.65 -232.197 -143.481 -244.831 -150.702C-255.428 -156.762 -267.369 -158.002 -267.369 -153.043C-267.369 -149.075 -238.497 -136.692 -213.84 -130.087C-204.024 -127.457 -195.996 -123.778 -195.996 -121.915C-195.996 -120.051 -192.195 -116.997 -187.544 -115.126C-180.797 -112.413 -180.456 -111.68 -185.846 -111.489C-189.561 -111.361 -199.599 -114.633 -208.152 -118.766C-224.095 -126.468 -237.318 -128.554 -237.318 -123.361C-237.318 -121.753 -234.684 -116.681 -231.469 -112.09C-228.253 -107.495 -226.987 -103.565 -228.651 -103.358C-236.397 -102.385 -258.369 -104.718 -261.735 -106.871C-278.421 -117.545 -361.282 -131.417 -361.282 -123.534C-361.282 -121.67 -349.873 -117.913 -335.925 -115.189C-302.489 -108.652 -259.917 -93.428 -250.225 -84.5461C-245.958 -80.6349 -239.718 -77.4376 -236.36 -77.4376C-232.998 -77.4376 -229.275 -75.8633 -228.088 -73.9397C-224.125 -67.53 -148.71 -28.944 -141.238 -29.5076C-128.744 -30.4506 -60.0151 20.8645 -35.2035 49.6555C-20.4293 66.8032 24.2654 127.027 26.617 132.963C27.8454 136.062 34.9902 152.97 42.4957 170.534C55.7072 201.448 65.3351 239.925 58.8627 235.924C57.1159 234.845 55.6884 231.528 55.6884 228.552C55.6884 225.573 51.5901 215.105 46.5827 205.292C34.9601 182.512 22.9845 152.733 20.246 139.801C19.074 134.263 15.186 126.805 11.6098 123.228C8.03364 119.651 2.03455 109.853 -1.72569 101.455C-6.53024 90.725 -9.46783 87.6516 -11.6128 91.1195C-13.8404 94.7264 -16.7517 92.6787 -22.4202 83.515C-29.5763 71.9467 -77.0358 26.0982 -94.556 13.8236C-98.6957 10.9231 -102.084 5.2648 -102.084 1.24841C-102.084 -6.74305 -105.991 -8.15572 -111.858 -2.28705C-114.375 0.230239 -120.389 -2.8882 -129.987 -11.6799C-137.887 -18.9162 -146.704 -24.8375 -149.581 -24.8375C-152.459 -24.8375 -171.264 -33.0656 -191.368 -43.1197C-275.551 -85.2186 -321.718 -98.4213 -399.091 -102.517C-435.149 -104.425 -450.156 -103.381 -487.368 -96.3736C-512.026 -91.7298 -541.499 -84.0952 -552.863 -79.4063C-564.226 -74.7174 -580.285 -68.7323 -588.549 -66.1098C-596.813 -63.4835 -615.254 -52.7005 -629.532 -42.1466C-643.807 -31.5928 -657.515 -23.4022 -659.994 -23.9395C-665.745 -25.1944 -726.465 34.5556 -738.32 53.1384C-743.26 60.8782 -751.731 71.3118 -757.14 76.32C-762.73 81.4936 -766.982 89.5076 -766.982 94.8653C-766.982 100.054 -770.217 107.79 -774.172 112.058C-782.654 121.207 -813.011 201.674 -823.164 241.92C-854.253 365.155 -845.865 504.075 -801.204 605.488C-767.519 681.98 -680.324 790.746 -624.348 826.086C-616.024 831.342 -609.21 836.564 -609.21 837.688C-609.21 838.815 -612.966 837.102 -617.56 833.886C-626.974 827.288 -631.749 826.45 -631.749 831.387C-631.749 835.933 -555.496 891.994 -528.87 907.022C-517.086 913.676 -508.153 919.827 -509.017 920.694C-509.885 921.562 -516.545 918.76 -523.814 914.469C-531.082 910.178 -538.483 907.146 -540.252 907.729C-542.021 908.311 -549.602 904.103 -557.096 898.377C-564.587 892.651 -579.233 885.757 -589.642 883.055C-610.919 877.536 -650.46 847.791 -664.96 826.398C-674.389 812.485 -691.041 799.669 -694.801 803.43C-699.501 808.13 -628.706 874.294 -595.123 896.589C-576.014 909.277 -560.375 920.89 -560.375 922.393C-560.375 923.896 -555.304 926.24 -549.106 927.6C-542.908 928.96 -537.837 932.364 -537.837 935.159C-537.837 937.955 -534.328 941.359 -530.042 942.719C-525.752 944.079 -523.047 945.999 -524.032 946.983C-526.526 949.474 -561.829 931.196 -580.12 917.94C-588.474 911.888 -598.23 906.936 -601.802 906.936C-605.371 906.936 -610.472 904.306 -613.139 901.093C-615.806 897.877 -629.961 888.221 -644.588 879.633C-685.234 855.775 -707.31 838.556 -744.342 801.837C-762.993 783.341 -778.203 770.258 -778.139 772.76C-777.985 779.016 -727.877 829.546 -699.114 852.457C-686.143 862.789 -663.566 879.238 -648.942 889.014C-634.322 898.787 -618.113 911.042 -612.925 916.254C-607.737 921.461 -602.084 925.722 -600.36 925.722C-598.632 925.722 -592.114 929.358 -585.874 933.803C-579.631 938.248 -565.849 946.649 -555.24 952.472L-535.958 963.06L-550.984 960.832C-590.57 954.956 -636.534 934.25 -672.518 906.094C-688.058 893.929 -697.66 888.699 -700.053 891.092C-705.804 896.844 -626.482 954.058 -577.28 979.644C-556.442 990.48 -543.592 1000.51 -541.146 1007.84C-540.26 1010.5 -528.588 1017.58 -515.208 1023.57C-501.827 1029.57 -493.416 1034.51 -496.515 1034.56C-503.119 1034.67 -549.316 1016.2 -576.123 1002.74C-586.397 997.573 -597.197 993.35 -600.127 993.35C-610.446 993.35 -605.281 1000.12 -590.427 1006.06C-582.163 1009.37 -575.401 1012.92 -575.401 1013.95C-575.401 1019.04 -671.06 972.566 -684.636 960.885C-692.288 954.295 -695.609 954.422 -695.609 961.298C-695.609 967.302 -667.003 986.802 -627.233 1007.91C-613.391 1015.25 -602.737 1021.94 -603.564 1022.77C-608.042 1027.25 -712.983 963.008 -740.687 938.823C-756.949 924.628 -780.78 906.936 -783.635 906.936C-789.98 906.936 -783.887 915.179 -769.999 925.395C-757.122 934.866 -755.713 936.993 -762.298 936.993C-767.26 936.993 -775.802 930.486 -784.495 920.086C-792.267 910.787 -800.501 903.179 -802.797 903.179C-809.968 903.179 -867.697 846.818 -877.284 830.455C-882.303 821.885 -889.966 811.658 -894.312 807.724C-901.465 801.251 -902.216 801.18 -902.216 806.973C-902.216 817.02 -856.214 871.765 -817.744 907.496C-795.52 928.137 -784.063 941.302 -786.343 943.583C-788.62 945.86 -785.01 951.139 -776.445 958.048C-769.03 964.033 -755.837 974.974 -747.129 982.361C-725.451 1000.75 -679.471 1030.92 -673.119 1030.92C-670.26 1030.92 -664.43 1034.16 -660.163 1038.11C-655.899 1042.06 -636.621 1053.18 -617.328 1062.82C-598.034 1072.46 -583.125 1081.23 -584.199 1082.3C-586.288 1084.39 -661.267 1051.23 -667.248 1045.57C-669.208 1043.71 -674.111 1042.19 -678.138 1042.19C-682.165 1042.19 -691.206 1036.28 -698.227 1029.04C-708.576 1018.39 -713.813 1015.89 -725.841 1015.89C-734.008 1015.89 -740.657 1017.16 -740.623 1018.71C-740.537 1022.33 -701.77 1045.09 -665.557 1062.79C-633.368 1078.52 -558.76 1104.5 -534.937 1108.27C-526.109 1109.67 -517.98 1112.28 -516.872 1114.07C-513.803 1119.04 -520.046 1118.16 -561.574 1107.77C-604.89 1096.93 -627.741 1088.7 -672.052 1067.94C-689.058 1059.98 -706.924 1053.46 -711.758 1053.46C-716.593 1053.46 -724.076 1049.41 -728.388 1044.45C-732.701 1039.49 -741.457 1034.28 -747.847 1032.88C-754.24 1031.47 -759.469 1028.04 -759.469 1025.24C-759.469 1019.64 -778.65 1004.62 -785.802 1004.62C-792.846 1004.62 -819.573 982.067 -819.573 976.127C-819.573 973.043 -823.296 970.807 -828.435 970.807C-838.074 970.807 -886.123 928.243 -884.249 921.363C-883.663 919.218 -895.007 905.016 -909.455 889.803C-923.902 874.591 -940.423 854.892 -946.167 846.029C-951.914 837.166 -957.639 829.069 -958.89 828.036C-966.395 821.84 -1003.62 750.747 -1001.82 746.047C-1000.6 742.876 -1003.62 736.136 -1008.71 730.677C-1018.37 720.303 -1050.52 648.245 -1047.04 644.758C-1045.9 643.616 -1044.96 644.995 -1044.96 647.816C-1044.96 651.025 -1043.67 651.611 -1041.5 649.383C-1039.38 647.197 -1043.82 623.26 -1052.96 587.578C-1061.16 555.548 -1070.45 516.662 -1073.59 501.164C-1079.69 471.136 -1080.98 395.069 -1075.65 380.281C-1073.91 375.476 -1072.15 358.681 -1071.72 342.961C-1070.72 305.66 -1045.48 185.946 -1029.03 140.477C-1000.55 61.7611 -948.965 -24.8713 -894.616 -85.2637C-881.232 -100.131 -869.072 -115.441 -867.589 -119.288C-866.105 -123.136 -862.281 -126.281 -859.088 -126.281C-855.891 -126.281 -849.922 -127.971 -845.816 -130.038C-841.714 -132.104 -834.975 -135.501 -830.843 -137.582C-821.703 -142.192 -821.155 -138.668 -829.569 -129.373C-838.487 -119.514 -832.458 -115.986 -822.375 -125.161C-817.736 -129.384 -811.741 -132.04 -809.055 -131.063C-806.369 -130.087 -797.53 -133.682 -789.416 -139.055C-781.298 -144.428 -772.422 -148.823 -769.691 -148.823C-766.964 -148.823 -763.124 -150.386 -761.16 -152.299C-759.199 -154.211 -743.223 -162.886 -725.661 -171.58C-708.099 -180.275 -689.246 -190.547 -683.761 -194.405C-667.958 -205.53 -667.995 -202.596 -683.844 -188.274C-691.849 -181.041 -699.437 -175.123 -700.707 -175.123C-706.931 -175.123 -767.711 -135.696 -771.021 -129.512C-773.109 -125.608 -781.648 -118.101 -789.991 -112.834C-798.417 -107.514 -804.359 -101.153 -803.353 -98.5302C-802.357 -95.9303 -804.63 -91.8763 -808.405 -89.5168C-820.035 -82.2542 -854.82 -36.1277 -878.434 3.34116C-902.678 43.8658 -907.524 54.0627 -902.535 54.0627C-899.042 54.0627 -872.164 10.6037 -872.164 4.9492C-872.164 3.03305 -869.147 1.46259 -865.462 1.46259C-861.774 1.46259 -855.823 -3.50813 -852.236 -9.58344C-837.976 -33.7231 -752.892 -105.109 -712.513 -126.807C-704.249 -131.247 -692.416 -138.69 -686.218 -143.349C-673.998 -152.532 -609.086 -183.754 -584.793 -192.132C-545.549 -205.669 -453.319 -227.626 -420.593 -231.225C-385.462 -235.091 -373.952 -235.283 -333.108 -232.691ZM-32.589 -191.437C-22.2587 -184.283 -7.04489 -174.996 1.21938 -170.803C9.48365 -166.606 23.1347 -156.142 31.5568 -147.546C39.975 -138.95 63.6409 -115.96 84.1476 -96.46C117.719 -64.528 145.641 -34.298 130.371 -46.4073C127.137 -48.9734 123.238 -49.8187 121.709 -48.2858C120.176 -46.7567 119.421 -47.1925 120.033 -49.2589C121.99 -55.8715 111.641 -70.577 106.439 -68.5782C103.569 -67.4774 91.9648 -76.5997 79.3355 -89.8925C36.4965 -134.978 0.918871 -166.166 -26.0865 -182.3C-51.3602 -197.4 -61.807 -205.703 -54.4105 -204.816C-52.7388 -204.613 -42.9193 -198.594 -32.589 -191.437ZM-812.597 -152.994C-809.464 -151.006 -808.95 -148.869 -811.264 -147.437C-813.337 -146.156 -815.997 -147.636 -817.184 -150.725C-819.671 -157.213 -819.438 -157.326 -812.597 -152.994ZM112.719 -119.706C116.081 -111.545 117.302 -110.756 118.538 -115.948C119.395 -119.567 121.69 -122.523 123.636 -122.523C128.846 -122.523 142.674 -98.3198 138.301 -96.8508C136.25 -96.1595 134.575 -92.887 134.575 -89.5732C134.575 -79.6017 113.798 -102.1 109.218 -117.027C104.455 -132.555 106.717 -134.287 112.719 -119.706ZM-152.575 -94.1381C-145.573 -88.525 -145.618 -88.4573 -153.736 -92.391C-158.386 -94.6453 -162.188 -97.2753 -162.188 -98.2334C-162.188 -101.108 -160.238 -100.277 -152.575 -94.1381ZM173.777 60.4761C175.813 65.8301 175.385 66.2622 171.674 62.5801C169.104 60.029 167.951 56.997 169.108 55.8436C170.265 54.6864 172.365 56.7716 173.777 60.4761ZM185.156 78.8111C188.657 84.1537 190.667 89.3836 189.622 90.4319C188.574 91.4764 185.017 87.1031 181.711 80.7122C174.408 66.5853 176.418 65.4732 185.156 78.8111ZM72.7467 264.715C74.1103 266.916 74.4183 269.528 73.4341 270.512C72.4499 271.496 70.643 269.693 69.4184 266.503C66.879 259.883 69.0428 258.718 72.7467 264.715ZM38.5438 588.679C37.1314 592.383 35.0315 594.469 33.8745 593.311C32.7175 592.158 33.8708 589.126 36.4402 586.575C40.1516 582.893 40.5798 583.325 38.5438 588.679ZM-4.41535 664.258C-4.41535 664.972 -6.95098 667.662 -10.0501 670.235C-13.2994 672.933 -15.6848 673.297 -15.6848 671.096C-15.6848 668.999 -13.1492 666.309 -10.0501 665.118C-6.95098 663.931 -4.41535 663.544 -4.41535 664.258ZM-765.104 954.231L-753.835 963.913L-766.043 955.835C-772.76 951.39 -778.252 947.021 -778.252 946.13C-778.252 943.316 -776.663 944.297 -765.104 954.231ZM-569.545 1036.76C-562.671 1042.28 -562.791 1042.35 -571.645 1038.14C-583.144 1032.66 -585.273 1030.92 -580.503 1030.92C-578.486 1030.92 -573.557 1033.55 -569.545 1036.76Z" fill="url(#paint0_radial_547_25)"/>
<defs>
<radialGradient id="paint0_radial_547_25" cx="0" cy="0" r="1" gradientUnits="userSpaceOnUse" gradientTransform="translate(-356 396) rotate(-180) scale(850.5 852.859)">
<stop stop-color="#F86969"/>
<stop offset="1" stop-color="#F86969" stop-opacity="0"/>
</radialGradient>
</defs>
</svg>
