<svg width="39" height="39" viewBox="0 0 39 39" fill="none" xmlns="http://www.w3.org/2000/svg">
<path fill-rule="evenodd" clip-rule="evenodd" d="M6.76641 19.0424C3.02466 29.5157 -0.0201642 38.1019 0.000100571 38.1229C0.0531242 38.1777 2.27837 39.0257 2.30031 38.9994C2.31029 38.9873 3.50804 35.6433 4.96178 31.5682C6.41558 27.4931 7.6349 24.1272 7.67139 24.0884C7.70986 24.0475 7.95975 24.2297 8.26631 24.5219C9.19636 25.4089 10.3154 25.9791 11.7728 26.3087C12.5789 26.4911 12.8201 26.5095 14.4122 26.5104C15.5107 26.5112 16.6334 26.4621 17.4214 26.3791C20.4039 26.065 21.0251 26.0096 22.1067 25.9616C26.3988 25.7709 29.0921 27.156 30.9993 30.5347C31.2163 30.9192 31.3238 31.0465 31.3654 30.9688C31.3979 30.9083 33.129 26.0881 35.2122 20.2573L38.8261 10.1423C38.9369 9.83235 38.9119 9.49005 38.7574 9.1994V9.1994C37.7624 7.32706 36.143 5.78908 34.4592 5.11728C33.1907 4.61117 32.6202 4.53171 30.2964 4.53747C28.5486 4.5418 27.8858 4.57853 26.2968 4.75919C24.0565 5.01387 21.469 5.10979 20.3905 4.97816C18.4768 4.74469 17.0016 4.07762 15.7766 2.89182C15.0777 2.21529 14.383 1.30931 13.9528 0.513368C13.8002 0.231027 13.6515 0 13.6224 0C13.5933 0 10.5081 8.56906 6.76641 19.0424ZM30.9589 7.4155C31.4954 7.46232 31.9631 7.52931 31.9983 7.56439C32.0334 7.59955 31.7726 8.43908 31.4188 9.43019L30.8753 10.9522C30.8161 11.1179 30.6542 11.2242 30.4787 11.2126V11.2126C30.3156 11.2019 29.3143 11.1713 28.2536 11.1447C26.5084 11.101 26.3298 11.0841 26.3748 10.9672C26.4713 10.7166 27.63 7.45995 27.63 7.43946C27.63 7.32997 29.7989 7.31437 30.9589 7.4155ZM21.1252 7.87377V7.87377C21.9945 7.89738 22.5877 8.76229 22.2966 9.58169L22.2384 9.7454L21.9 10.698C21.7125 11.226 21.2272 11.5904 20.6678 11.6233V11.6233C20.1523 11.6535 19.2604 11.6393 18.6471 11.591C17.5041 11.5011 17.1929 11.4507 17.1929 11.3558C17.1929 11.2852 18.4011 7.88496 18.4631 7.78131C18.4906 7.73536 18.6774 7.72913 18.9363 7.7657C19.1716 7.79881 20.1566 7.84752 21.1252 7.87377ZM14.5265 10.4287C15.1531 10.8199 16.0184 11.196 16.6405 11.3475C16.8605 11.4011 17.0405 11.4767 17.0405 11.5157C17.0405 11.5972 15.6712 15.4724 15.6255 15.5202C15.5725 15.5756 14.584 15.2739 14.0452 15.0379C13.2694 14.698 11.8704 13.7797 11.863 13.6055C11.86 13.5361 13.2137 9.71127 13.2822 9.59563C13.3017 9.56253 13.4611 9.65625 13.6364 9.80372C13.8116 9.95128 14.2122 10.2325 14.5265 10.4287ZM26.1488 11.4883C25.8063 12.4707 24.8089 15.2408 24.7926 15.2551C24.7543 15.2888 20.227 15.6983 20.2002 15.6704C20.1739 15.6433 21.5768 11.6684 21.6258 11.6312C21.6547 11.6092 25.663 11.2176 26.0078 11.2031V11.2031C26.1249 11.1981 26.21 11.3128 26.1715 11.4235L26.1488 11.4883ZM31.4124 11.5056C32.3699 11.7802 33.606 12.4482 34.3588 13.0982V13.0982C34.4886 13.2101 34.5362 13.3903 34.4788 13.5517L33.8735 15.2532C33.4883 16.3364 33.1515 17.2463 33.1251 17.2754C33.0987 17.3044 32.82 17.1325 32.5057 16.8933C31.7856 16.345 30.7458 15.8204 29.9394 15.5982L29.8093 15.5623C29.5433 15.489 29.3963 15.2044 29.4906 14.9451V14.9451C29.5869 14.6804 29.9156 13.7633 30.221 12.9071C30.5264 12.0509 30.7976 11.3504 30.8236 11.3504C30.8496 11.3504 31.1146 11.4202 31.4124 11.5056ZM28.5959 15.3771C28.9236 15.4242 29.2037 15.475 29.2184 15.4901C29.2331 15.5051 28.9237 16.4154 28.5308 17.5129C27.8528 19.4072 27.807 19.5077 27.628 19.4951C27.5243 19.4878 26.9253 19.4399 26.2968 19.3886C25.6293 19.3343 24.781 19.3181 24.257 19.3499L23.8906 19.3721C23.6399 19.3873 23.4558 19.1406 23.5416 18.9046V18.9046C23.6416 18.6298 23.9733 17.7044 24.2787 16.8482L24.3022 16.7823C24.6211 15.8883 25.4678 15.2915 26.4169 15.2915V15.2915C27.2876 15.2915 28.268 15.33 28.5959 15.3771ZM17.2266 15.7679C17.8156 15.8121 18.7013 15.8243 19.1948 15.7951L19.3912 15.7834C19.7237 15.7637 19.9686 16.0895 19.8572 16.4034V16.4034C19.728 16.7673 19.3969 17.6946 19.1214 18.4641V18.4641C18.8209 19.3032 18.0257 19.8631 17.1344 19.8631H17.0361C15.722 19.8631 14.3329 19.7667 14.2374 19.6689C14.2146 19.6457 15.5716 15.7852 15.6467 15.6594C15.6693 15.6217 15.793 15.6127 15.9217 15.6393C16.0504 15.666 16.6376 15.7238 17.2266 15.7679ZM11.6315 18.7136C12.2339 19.082 12.8848 19.367 13.6619 19.6028V19.6028C13.9172 19.6802 14.056 19.9551 13.9668 20.2065L13.5293 21.4396C13.1986 22.3717 12.8957 23.2105 12.8563 23.3036V23.3036C12.8154 23.4 12.7087 23.4505 12.6083 23.4208L12.189 23.2969C11.4728 23.0852 10.9138 22.8402 10.2917 22.4651C9.74754 22.1371 9.04125 21.5924 9.04125 21.5008C9.04125 21.4511 9.8427 19.1585 10.2705 17.9841V17.9841C10.3037 17.8931 10.416 17.8609 10.4924 17.9206L10.6989 18.082C10.8976 18.2372 11.3172 18.5214 11.6315 18.7136ZM23.252 19.607C23.2235 19.6828 22.9283 20.5048 22.5959 21.4334C22.2635 22.3622 21.9793 23.1347 21.9642 23.1503C21.9336 23.1819 17.3952 23.6319 17.3625 23.6066C17.3511 23.5977 17.639 22.7518 18.0024 21.7268C18.6302 19.9561 18.673 19.8628 18.8612 19.8575C18.9702 19.8543 19.865 19.7701 20.8497 19.6702C23.1893 19.4329 23.3187 19.4295 23.252 19.607ZM28.5389 19.7881C28.8485 19.8769 29.3792 20.0866 29.7182 20.2542C30.3875 20.5851 31.5901 21.4265 31.591 21.5646C31.5918 21.6819 30.3699 25.0889 30.2983 25.1689C30.2669 25.2042 30.0107 25.0526 29.7291 24.8321C29.1076 24.3454 27.8696 23.7157 27.1062 23.4981C26.7972 23.41 26.536 23.3275 26.5258 23.3149C26.4785 23.2565 27.8285 19.6267 27.8976 19.6267C27.9407 19.6267 28.2292 19.6993 28.5389 19.7881Z" fill="url(#paint0_radial_303_4031)"/>
<defs>
<radialGradient id="paint0_radial_303_4031" cx="0" cy="0" r="1" gradientUnits="userSpaceOnUse" gradientTransform="translate(19.5 19.5) rotate(48.6215) scale(24.2551)">
<stop stop-color="#00F8B9"/>
<stop offset="1" stop-color="#00664C"/>
</radialGradient>
</defs>
</svg>
