<svg width="14" height="14" viewBox="0 0 14 14" fill="none" xmlns="http://www.w3.org/2000/svg">
<path fill-rule="evenodd" clip-rule="evenodd" d="M6.66197 0.00434969C4.94214 0.109279 3.38699 0.775971 2.17551 1.9277C0.989398 3.05531 0.255525 4.51401 0.0360438 6.18019C-0.011424 6.54049 -0.0121566 7.44637 0.0347312 7.81304C0.209065 9.17694 0.766193 10.4699 1.62025 11.4927C2.75908 12.8565 4.38766 13.7381 6.18881 13.9657C6.55454 14.0119 7.46068 14.0113 7.82195 13.9647C10.5568 13.6117 12.7987 11.7743 13.6484 9.1897C14.4082 6.87893 13.9197 4.36364 12.3468 2.4872C11.2193 1.14219 9.53628 0.238137 7.80669 0.0484825C7.47896 0.0125598 6.89592 -0.00993394 6.66197 0.00434969ZM8.85986 1.29568C9.55085 1.52253 10.3037 1.9392 10.8261 2.38386C11.0041 2.53536 11.048 2.59262 11.1062 2.74934C11.2279 3.07673 11.2792 3.39079 11.2803 3.81484C11.2812 4.20349 11.279 4.21662 11.1734 4.45578C10.9172 5.03619 10.8723 5.14801 10.8289 5.31481C10.7692 5.54396 10.7704 5.92421 10.8315 6.16053C10.8928 6.39762 11.0397 6.71662 11.2448 7.05808C11.6629 7.75417 11.9533 8.04195 12.2378 8.04195C12.3518 8.04195 12.3905 8.02192 12.5484 7.88098C12.7363 7.71342 12.9349 7.58914 12.9658 7.61997C12.9921 7.64631 12.8988 8.19775 12.8133 8.52057C12.3602 10.2327 11.2029 11.6402 9.61846 12.406C9.29672 12.5615 8.75131 12.7726 8.67139 12.7726C8.63714 12.7726 8.7525 12.4881 8.87848 12.2618C9.03923 11.9731 9.28909 11.6773 9.82738 11.1386C10.3398 10.6258 10.4808 10.4331 10.5414 10.163C10.5903 9.94478 10.5396 9.78201 10.3642 9.59453C10.1776 9.39507 9.83562 9.22587 9.44904 9.14172C8.57414 8.95128 8.62298 8.98485 8.31036 8.35899C8.18444 8.10689 8.02736 7.82977 7.96127 7.74315C7.80837 7.54278 7.57851 7.35368 7.36406 7.25183C7.2082 7.17782 7.16662 7.1722 6.78407 7.17342C6.55741 7.17412 6.21977 7.18984 6.03374 7.20831C5.39139 7.27206 4.96613 7.17888 4.74305 6.9255C4.61188 6.7765 4.56768 6.65295 4.52494 6.31579C4.48822 6.02634 4.3967 5.82035 4.20701 5.6003C4.01473 5.37725 3.97239 5.28951 3.97102 5.11124C3.96946 4.91398 4.07352 4.72485 4.23525 4.63093C4.44591 4.50858 4.61734 4.54099 5.12456 4.79898C5.36043 4.91896 5.61529 5.03268 5.69091 5.05172C5.89189 5.10232 6.06491 5.04806 6.22151 4.88526C6.40772 4.69164 6.4459 4.51593 6.47887 3.70045C6.496 3.27646 6.52439 2.94785 6.55439 2.82576C6.66013 2.39552 6.91951 2.07252 7.2962 1.902C7.75601 1.69385 7.82863 1.65255 7.98361 1.51091C8.07254 1.42966 8.17214 1.31283 8.20493 1.25133C8.2611 1.146 8.27129 1.14051 8.37944 1.15757C8.4426 1.16752 8.65879 1.22966 8.85986 1.29568ZM1.47705 5.76816C1.66753 6.39148 1.93701 6.83446 2.41578 7.31125C2.78563 7.6796 3.08241 7.88531 3.74909 8.23538C3.99962 8.36696 4.24453 8.50653 4.29331 8.5455C4.41376 8.64183 4.43434 8.79745 4.44762 9.71261C4.45754 10.3973 4.46325 10.4626 4.52466 10.5894C4.61609 10.7782 4.8425 10.972 5.20805 11.1742C5.79286 11.4978 5.91448 11.5766 6.06341 11.7284C6.29159 11.9609 6.38162 12.2083 6.40863 12.6769L6.42689 12.9933L6.26205 12.9719C3.86051 12.6611 1.88179 10.9624 1.21276 8.6371C1.05188 8.07796 1.00484 7.71437 1.00353 7.01951C1.00216 6.3056 1.03842 6.01703 1.20491 5.41718L1.30232 5.06619L1.34304 5.26457C1.36545 5.37368 1.42574 5.6003 1.47705 5.76816Z" fill="url(#paint0_radial_468_37)"/>
<defs>
<radialGradient id="paint0_radial_468_37" cx="0" cy="0" r="1" gradientUnits="userSpaceOnUse" gradientTransform="translate(7 7) rotate(90) scale(12.4687)">
<stop stop-color="white"/>
<stop offset="1" stop-color="white" stop-opacity="0"/>
</radialGradient>
</defs>
</svg>
