<svg width="30" height="30" viewBox="0 0 30 30" fill="none" xmlns="http://www.w3.org/2000/svg">
<path fill-rule="evenodd" clip-rule="evenodd" d="M1.45597 0.0975909C0.870235 0.301067 0.401742 0.731841 0.133209 1.31381L0 1.60248V5.00549V8.4085L0.160861 8.7356C0.380254 9.1818 0.800724 9.59251 1.26223 9.81154L1.64384 9.99266H6.86888H12.0939L12.4296 9.83542C12.8984 9.61586 13.3183 9.20381 13.5475 8.73859L13.7378 8.35229V5.00672V1.66116L13.5568 1.27961C13.3351 0.812105 12.9368 0.40304 12.4895 0.183605L12.1526 0.0183243L6.95695 0.00494692C2.07699 -0.00766768 1.7427 -0.00203511 1.45597 0.0975909ZM17.7071 0.106274C17.1424 0.310455 16.6994 0.728673 16.4228 1.31863L16.2622 1.66116V8.76054V15.8599L16.4196 16.1954C16.64 16.6654 17.0533 17.0857 17.5192 17.3136L17.9061 17.5027H23.1311H28.3562L28.7379 17.3219C29.2057 17.1004 29.615 16.7023 29.8346 16.2553L30 15.9186V8.76054V1.60248L29.8422 1.26594C29.6405 0.835985 29.1818 0.377576 28.7516 0.176036L28.4149 0.0183243L23.2192 0.00512294C18.198 -0.007609 18.0129 -0.004206 17.7071 0.106274ZM1.65828 12.5491C1.05358 12.6938 0.448121 13.1884 0.160861 13.7726L0 14.0997V21.2578V28.4158L0.157808 28.7524C0.359472 29.1823 0.81816 29.6407 1.24838 29.8423L1.58513 30H6.86888H12.1526L12.4895 29.8347C12.9368 29.6153 13.3351 29.2062 13.5568 28.7387L13.7378 28.3572V21.2566V14.1559L13.5475 13.7696C13.3183 13.3044 12.8984 12.8924 12.4296 12.6728L12.0939 12.5156L6.9863 12.506C4.13207 12.5007 1.78145 12.5197 1.65828 12.5491ZM17.9519 20.0524C17.3244 20.2041 16.7071 20.7201 16.4196 21.333L16.2622 21.6685V25.0128V28.3572L16.4435 28.7385C16.6626 29.1998 17.0736 29.62 17.5201 29.8392L17.8474 30H23.1311H28.4149L28.7516 29.8423C28.9368 29.7555 29.2225 29.5505 29.3864 29.3868C29.5502 29.2229 29.7554 28.9374 29.8422 28.7524L30 28.4158V25.0128V21.6098L29.8346 21.2732C29.615 20.8261 29.2057 20.428 28.7379 20.2065L28.3562 20.0257L23.2485 20.0162C20.4393 20.011 18.0559 20.0273 17.9519 20.0524Z" fill="url(#paint0_radial_303_4073)" fill-opacity="0.55"/>
<defs>
<radialGradient id="paint0_radial_303_4073" cx="0" cy="0" r="1" gradientUnits="userSpaceOnUse" gradientTransform="translate(15 15) rotate(90) scale(25.6452)">
<stop stop-color="white"/>
<stop offset="1" stop-color="white" stop-opacity="0"/>
</radialGradient>
</defs>
</svg>
