<?xml version="1.0" encoding="UTF-8" standalone="no"?>
<svg
   xmlns:dc="http://purl.org/dc/elements/1.1/"
   xmlns:cc="http://creativecommons.org/ns#"
   xmlns:rdf="http://www.w3.org/1999/02/22-rdf-syntax-ns#"
   xmlns:svg="http://www.w3.org/2000/svg"
   xmlns="http://www.w3.org/2000/svg"
   viewBox="0 0 1525.3333 1925.3333"
   height="1925.3333"
   width="1525.3333"
   xml:space="preserve"
   id="svg2"
   version="1.1"><metadata
     id="metadata8"><rdf:RDF><cc:Work
         rdf:about=""><dc:format>image/svg+xml</dc:format><dc:type
           rdf:resource="http://purl.org/dc/dcmitype/StillImage" /></cc:Work></rdf:RDF></metadata><defs
     id="defs6" /><g
     transform="matrix(1.3333333,0,0,-1.3333333,0,1925.3333)"
     id="g10"><g
       transform="scale(0.1)"
       id="g12"><path
         id="path14"
         style="fill:#1c1e3e;fill-opacity:1;fill-rule:nonzero;stroke:none"
         d="m 5730.52,4995.22 -8.45,2975.37 -8.37,2960.11 L 3130.99,9439.54 3147.81,3504.1 565.105,2013 l -25.253,8903.1 5165.428,2982.3 8.42,-2967.7 1291.34,745.5 1295.56,-738.3 12.63,-4451.57 z m 5691.18,5948.18 c 0.2,187.7 -100.6,361 -263.7,453.7 l -5194.83,2954.7 c -79.96,45.5 -168.95,68.2 -257.89,68.2 -90.08,0 -180.12,-23.3 -260.8,-69.9 L 279.063,11367.9 C 117.215,11274.4 17.7305,11101.6 18.25,10914.7 L 43.4922,2011.5 C 44.0195,1824.5 144.652,1652 307.227,1559.6 L 2894.14,88.1992 C 2974.09,42.6992 3063.08,20 3152.01,20 c 90.08,0 180.12,23.3008 260.81,69.9023 L 5995.53,1581 c 161.62,93.3 261.08,265.9 260.8,452.5 l -2.92,2064.2 1806.13,-1027.3 c 79.96,-45.4 168.93,-68.2 257.88,-68.2 90.08,0 180.12,23.4 260.81,69.9 l 2582.67,1491.16 c 161.9,93.43 261.4,266.32 260.8,453.19 l -3,1066.84 3,4860.11" /><path
         id="path16"
         style="fill:#6dcc9b;fill-opacity:1;fill-rule:nonzero;stroke:none"
         d="M 539.852,10916.1 565.105,2013 3147.81,3504.1 3130.99,9439.54 5713.7,10930.7 5705.28,13898.4 539.852,10916.1" /><path
         id="path18"
         style="fill:#6dcc9b;fill-opacity:1;fill-rule:nonzero;stroke:none"
         d="m 8300.6,10937.9 -1295.56,738.3 -1291.34,-745.5 8.37,-2960.11 8.45,-2975.37 2582.71,1491.11 -12.63,4451.57" /></g></g></svg>