<svg width="10" height="14" viewBox="0 0 10 14" fill="none" xmlns="http://www.w3.org/2000/svg">
<path fill-rule="evenodd" clip-rule="evenodd" d="M2.04145 0.0629417C1.89986 0.147204 1.82889 0.293096 1.8056 0.547662C1.73804 1.28613 1.25273 1.78439 0.533438 1.85375C0.282926 1.8779 0.141506 1.95151 0.0601703 2.10012L0 2.21002V7V11.79L0.0601703 11.8999C0.141165 12.0478 0.283097 12.122 0.527358 12.1439C1.24406 12.2082 1.73804 12.7138 1.8056 13.4523C1.82912 13.7095 1.90082 13.8547 2.04557 13.9382L2.15261 14H5H7.84739L7.95443 13.9382C8.09918 13.8547 8.17088 13.7095 8.1944 13.4523C8.26196 12.7138 8.75594 12.2082 9.47264 12.1439C9.7169 12.122 9.85884 12.0478 9.93983 11.8999L10 11.79V7V2.21002L9.93983 2.10012C9.86909 1.97091 9.70466 1.86687 9.57 1.86617C9.51744 1.86588 9.38517 1.84625 9.27605 1.82251C8.6581 1.68814 8.25531 1.21339 8.1944 0.547662C8.17088 0.290471 8.09918 0.145279 7.95443 0.061775L7.84739 0L4.99614 0.000670854C2.14685 0.00134169 2.1448 0.00137086 2.04145 0.0629417ZM5.24136 3.82078C5.39543 3.91851 5.43571 4.0245 5.44923 4.36771L5.46099 4.66667H5.95045C6.4079 4.66667 6.4481 4.6711 6.56477 4.73445C6.87097 4.9007 6.88534 5.33345 6.59091 5.5218C6.49457 5.58343 6.45869 5.58588 5.43526 5.6C4.41969 5.61403 4.37594 5.61695 4.29889 5.6756C4.01506 5.8917 4.02102 6.26296 4.31151 6.46395C4.39716 6.52321 4.44438 6.528 5.06366 6.54039C5.64983 6.55209 5.74341 6.56069 5.89259 6.61652C6.4669 6.83139 6.80457 7.32763 6.79852 7.94792C6.79148 8.67131 6.30969 9.21862 5.59267 9.31773L5.46091 9.33593L5.45017 9.63369C5.44145 9.87548 5.42787 9.95062 5.37793 10.0335C5.19341 10.3394 4.75668 10.3171 4.60429 9.99387C4.55798 9.89567 4.54545 9.81251 4.54545 9.60353V9.33797L4.02699 9.32835C3.545 9.31942 3.50116 9.31405 3.40401 9.25202C3.29278 9.18103 3.18182 8.98707 3.18182 8.86363C3.18182 8.72212 3.30108 8.53568 3.43642 8.46562C3.5608 8.40123 3.58216 8.4 4.57568 8.4C5.58179 8.4 5.58881 8.39959 5.68403 8.33368C5.98418 8.12604 5.98631 7.74212 5.68849 7.53605C5.60284 7.47682 5.55545 7.47198 4.93634 7.45943C4.34293 7.44739 4.25739 7.43937 4.09724 7.38048C3.50105 7.16135 3.10781 6.49787 3.20599 5.87682C3.2481 5.61056 3.33795 5.39659 3.48795 5.20546C3.71938 4.91053 4.0294 4.73457 4.41051 4.68178L4.54545 4.66308V4.39399C4.54545 4.04836 4.60983 3.89807 4.80114 3.79715C4.95264 3.7172 5.08974 3.72455 5.24136 3.82078Z" fill="url(#paint0_radial_468_55)"/>
<defs>
<radialGradient id="paint0_radial_468_55" cx="0" cy="0" r="1" gradientUnits="userSpaceOnUse" gradientTransform="translate(5 7) rotate(90) scale(12.4687 8.90625)">
<stop stop-color="white"/>
<stop offset="1" stop-color="white" stop-opacity="0"/>
</radialGradient>
</defs>
</svg>
