<svg width="15" height="15" viewBox="0 0 15 15" fill="none" xmlns="http://www.w3.org/2000/svg">
<path fill-rule="evenodd" clip-rule="evenodd" d="M6.60951 0.0321272C5.18816 0.211799 3.88282 0.762489 2.77381 1.65026C2.4538 1.90645 1.9041 2.45568 1.64768 2.7754C0.959594 3.63346 0.450075 4.66339 0.192981 5.71591C0.0327898 6.37177 0 6.67451 0 7.49743C0 8.32036 0.0327898 8.6231 0.192981 9.27896C0.450075 10.3315 0.959594 11.3614 1.64768 12.2195C1.90448 12.5397 2.45427 13.0889 2.77381 13.3443C3.90956 14.2524 5.2186 14.7969 6.67204 14.9658C7.16071 15.0225 8.14329 15.0065 8.6155 14.934C9.9172 14.7342 11.1905 14.1737 12.2262 13.3446C12.5462 13.0884 13.0959 12.5392 13.3523 12.2195C14.0368 11.3659 14.5508 10.3276 14.806 9.28322C14.9672 8.62289 15 8.32159 15 7.49743C15 6.67328 14.9672 6.37198 14.806 5.71165C14.5508 4.66723 14.0368 3.62897 13.3523 2.7754C13.0959 2.45568 12.5462 1.90645 12.2262 1.65026C11.5902 1.14119 10.7036 0.646725 9.98988 0.403086C9.56913 0.25946 9.02533 0.123928 8.6155 0.0604887C8.19114 -0.00517988 7.03404 -0.0215457 6.60951 0.0321272ZM8.63807 1.87806C10.1522 2.20086 11.4334 3.06306 12.2745 4.32531C12.7494 5.03793 13.0602 5.85499 13.1784 6.7012C13.2364 7.11697 13.2371 7.88312 13.1797 8.28933C12.822 10.8244 10.8277 12.8181 8.29694 13.1708C7.87079 13.2302 7.11624 13.2303 6.71117 13.171C5.17037 12.9456 3.84163 12.1644 2.92267 10.9436C2.39832 10.2471 2.06121 9.50137 1.87201 8.61946C1.79645 8.26727 1.79176 8.20152 1.79176 7.49743C1.79176 6.79335 1.79645 6.7276 1.87201 6.37541C2.38861 3.96743 4.23373 2.21435 6.66338 1.8231C6.85609 1.79207 7.11022 1.78336 7.60274 1.79093C8.19496 1.79999 8.32218 1.81069 8.63807 1.87806ZM6.85418 2.67307C5.4493 2.86582 4.18154 3.67047 3.41208 4.85779C2.12356 6.846 2.45906 9.47881 4.20414 11.0737C6.02223 12.7353 8.75021 12.7971 10.6311 11.2194C11.4378 10.5426 12.0103 9.60176 12.2534 8.55329C12.5044 7.47025 12.3492 6.27663 11.8261 5.2684C10.8803 3.44519 8.87104 2.39634 6.85418 2.67307ZM8.60088 6.4123L9.68676 7.49752L8.59339 8.58996L7.5 9.68239L6.40661 8.58996L5.31324 7.49752L6.39912 6.4123C6.99638 5.81542 7.49175 5.32706 7.5 5.32706C7.50825 5.32706 8.00362 5.81542 8.60088 6.4123Z" fill="url(#paint0_radial_837_248)"/>
<defs>
<radialGradient id="paint0_radial_837_248" cx="0" cy="0" r="1" gradientUnits="userSpaceOnUse" gradientTransform="translate(7.5 7.5) rotate(90) scale(14.0625)">
<stop stop-color="white"/>
<stop offset="1" stop-color="white" stop-opacity="0"/>
</radialGradient>
</defs>
</svg>
