<svg width="44" height="38" viewBox="0 0 44 38" fill="none" xmlns="http://www.w3.org/2000/svg">
    <path fill-rule="evenodd" clip-rule="evenodd"
        d="M20.4525 0.108108C18.1615 0.630437 16.336 2.03491 15.2578 4.10469C13.7365 7.02481 14.1735 10.5398 16.364 13.0034C17.3101 14.0673 18.7267 14.9334 20.1516 15.3191C21.1253 15.5826 22.8747 15.5826 23.8484 15.3191C28.6916 14.0083 31.0664 8.56621 28.7422 4.10469C27.7643 2.22747 26.0622 0.819849 24.0633 0.23523C23.2167 -0.0123552 21.2801 -0.0805156 20.4525 0.108108ZM7.90088 7.25566C5.95254 7.49089 4.30199 8.70166 3.43103 10.5344C2.62824 12.2237 2.64698 13.8999 3.48837 15.6558C4.18146 17.1021 5.48434 18.2026 7.08416 18.6928C7.79746 18.9114 9.37897 18.9086 10.0931 18.6876C14.1263 17.4392 15.6275 12.5537 12.9733 9.31431C11.7343 7.80217 9.81759 7.02419 7.90088 7.25566ZM34.7236 7.25355C32.4647 7.5177 30.5191 9.22994 29.9004 11.4981C29.6655 12.3592 29.6465 13.5934 29.8554 14.433C30.3567 16.4486 31.8961 18.0652 33.9069 18.6876C34.621 18.9086 36.2025 18.9114 36.9158 18.6928C38.5157 18.2026 39.8185 17.1021 40.5116 15.6558C41.3531 13.8996 41.3718 12.2227 40.5687 10.5344C39.4844 8.25493 37.1869 6.96541 34.7236 7.25355ZM16.5391 17.3199C14.6373 17.8282 13.0599 19.2047 12.2618 21.0526C11.7574 22.2205 11.7646 22.0857 11.7896 30.0243L11.8125 37.2962L12.1364 37.6263L12.4601 37.9562H22H31.5399L31.8636 37.6263L32.1875 37.2962L32.2104 30.0243C32.2304 23.715 32.2158 22.6749 32.1004 22.1678C31.6481 20.1805 30.2589 18.4843 28.401 17.6512C27.3069 17.1605 27.1867 17.1512 21.957 17.155C17.5634 17.1583 17.0899 17.1726 16.5391 17.3199ZM5.3014 20.5686C3.01141 20.9615 1.07734 22.6631 0.276007 24.99L0.0346021 25.6908L0.00872506 30.187C-0.0135412 34.0705 0.00133162 34.7477 0.118165 35.1572C0.475973 36.4115 1.40505 37.401 2.62729 37.8295C3.0746 37.9863 3.36681 38 6.28258 38H9.45161L9.3855 37.7591C9.34913 37.6266 9.32042 34.0291 9.32171 29.7647L9.32412 22.0112L9.54472 21.2446L9.76532 20.4781L7.73702 20.4884C6.62138 20.494 5.52544 20.5301 5.3014 20.5686ZM34.4531 21.2364L34.6759 22.0112L34.6783 29.7647C34.6796 34.0291 34.6509 37.6266 34.6145 37.7591L34.5484 38H37.7174C40.6332 38 40.9254 37.9863 41.3727 37.8295C42.5949 37.401 43.524 36.4115 43.8818 35.1572C43.9987 34.7477 44.0135 34.0705 43.9913 30.187L43.9654 25.6908L43.724 24.99C43.0042 22.8997 41.5224 21.4389 39.409 20.7359C38.8585 20.5528 38.6121 20.5326 36.5187 20.4986L34.2303 20.4615L34.4531 21.2364Z"
        fill="white" fill-opacity="0.12" />
</svg>
    