<svg width="35" height="35" viewBox="0 0 35 35" fill="none" xmlns="http://www.w3.org/2000/svg">
<path fill-rule="evenodd" clip-rule="evenodd" d="M6.07242 17.0893C2.71444 26.4884 -0.0180961 34.194 9.02561e-05 34.2129C0.0476756 34.262 2.04469 35.0231 2.06438 34.9995C2.07333 34.9886 3.14824 31.9876 4.45288 28.3305C5.75758 24.6733 6.85183 21.6526 6.88458 21.6178C6.91911 21.5811 7.14336 21.7446 7.41848 22.0069C8.25314 22.8029 9.25742 23.3146 10.5653 23.6104C11.2888 23.774 11.5052 23.7906 12.934 23.7914C13.9199 23.7921 14.9274 23.7481 15.6346 23.6736C18.3112 23.3917 18.8686 23.342 19.8394 23.2989C23.6912 23.1278 26.1083 24.3708 27.8199 27.4029C28.0147 27.748 28.1111 27.8622 28.1485 27.7925C28.1776 27.7382 29.7312 23.4124 31.6007 18.1796L35 8.66537L34.7823 8.25587C33.8893 6.57556 32.436 5.19533 30.9249 4.59243C29.7865 4.13823 29.2746 4.06692 27.1891 4.07209C25.6206 4.07598 25.0257 4.10894 23.5997 4.27107C21.5891 4.49963 19.2671 4.58571 18.2992 4.46758C16.5817 4.25806 15.2578 3.6594 14.1585 2.59522C13.5313 1.98808 12.9078 1.17502 12.5217 0.460715C12.3848 0.207332 12.2513 0 12.2252 0C12.1991 0 9.43033 7.69018 6.07242 17.0893ZM27.7836 6.65493C28.2651 6.69695 28.6848 6.75708 28.7164 6.78856C28.7479 6.82011 28.5139 7.57353 28.1963 8.46299L27.6189 10.0801L27.3527 10.0626C27.2063 10.053 26.3077 10.0255 25.3558 10.0017C23.7896 9.96242 23.6293 9.94728 23.6697 9.84237C23.7563 9.6175 24.7962 6.69483 24.7962 6.67644C24.7962 6.57818 26.7426 6.56418 27.7836 6.65493ZM18.9585 7.0662L20.539 7.10914L19.9576 8.74587L19.3762 10.3825L18.5481 10.4311C18.0854 10.4583 17.285 10.4455 16.7345 10.4022C15.7088 10.3215 15.4295 10.2763 15.4295 10.1911C15.4295 10.1277 16.5138 7.07625 16.5694 6.98323C16.5941 6.94199 16.7618 6.9364 16.9941 6.96922C17.2053 6.99893 18.0892 7.04265 18.9585 7.0662ZM13.0366 9.35909C13.5989 9.71017 14.3755 10.0477 14.9338 10.1837C15.1312 10.2317 15.2928 10.2996 15.2928 10.3346C15.2928 10.4077 14.0639 13.8855 14.0229 13.9284C13.9753 13.9781 13.0882 13.7073 12.6047 13.4956C11.9085 13.1905 10.6529 12.3664 10.6463 12.2101C10.6436 12.1478 11.8584 8.71524 11.9199 8.61147C11.9374 8.58176 12.0805 8.66586 12.2378 8.79821C12.395 8.93064 12.7545 9.18303 13.0366 9.35909ZM23.4669 10.31C23.1595 11.1916 22.2644 13.6776 22.2498 13.6905C22.2154 13.7207 18.1525 14.0882 18.1284 14.0632C18.1048 14.0388 19.3638 10.4717 19.4077 10.4383C19.4337 10.4185 23.0309 10.0671 23.3403 10.054L23.5594 10.0448L23.4669 10.31ZM28.1906 10.3256C29.0499 10.572 30.1592 11.1715 30.8348 11.7548L31.028 11.9214L30.3993 13.6888C30.0536 14.6609 29.7513 15.4775 29.7277 15.5036C29.7039 15.5296 29.4538 15.3753 29.1718 15.1606C28.5255 14.6686 27.5924 14.1978 26.8687 13.9984L26.3089 13.8441L26.466 13.4123C26.5524 13.1748 26.8473 12.3517 27.1214 11.5833C27.3955 10.8149 27.6389 10.1862 27.6622 10.1862C27.6855 10.1862 27.9233 10.2489 28.1906 10.3256ZM25.663 13.7999C25.9571 13.8422 26.2085 13.8879 26.2217 13.9014C26.2348 13.9148 25.9571 14.7318 25.6046 15.7167C24.9961 17.4168 24.955 17.5069 24.7944 17.4956C24.7013 17.489 24.1637 17.446 23.5997 17.4001C23.0006 17.3513 22.2393 17.3368 21.7691 17.3653L20.964 17.4141L21.1271 16.9657C21.2168 16.7191 21.5145 15.8886 21.7886 15.1202L22.287 13.7231H23.7075C24.4888 13.7231 25.3688 13.7577 25.663 13.7999ZM15.4598 14.1507C15.9884 14.1903 16.7832 14.2013 17.2261 14.1751L18.0313 14.1272L17.8205 14.721C17.7046 15.0475 17.4074 15.8798 17.1602 16.5703L16.7107 17.8259H15.2888C14.1095 17.8259 12.8629 17.7394 12.7772 17.6516C12.7567 17.6307 13.9745 14.1662 14.0419 14.0533C14.0622 14.0195 14.1732 14.0114 14.2887 14.0353C14.4042 14.0592 14.9312 14.1111 15.4598 14.1507ZM10.4385 16.7943C10.9791 17.1249 11.5633 17.3807 12.2607 17.5923L12.6813 17.7198L12.1417 19.2407C11.8449 20.0771 11.5731 20.8299 11.5377 20.9135L11.4734 21.0654L10.9388 20.9074C10.2961 20.7175 9.79447 20.4976 9.23616 20.161C8.7478 19.8666 8.11394 19.3778 8.11394 19.2955C8.11394 19.251 8.83319 17.1935 9.21715 16.1396L9.27746 15.9741L9.6016 16.2274C9.77991 16.3667 10.1565 16.6218 10.4385 16.7943ZM20.8672 17.596C20.8416 17.6641 20.5767 18.4017 20.2784 19.2351C19.9801 20.0686 19.725 20.7619 19.7115 20.7759C19.684 20.8043 15.6111 21.2082 15.5818 21.1854C15.5715 21.1774 15.8299 20.4183 16.156 19.4984C16.7194 17.9093 16.7578 17.8256 16.9267 17.8208C17.0246 17.818 17.8276 17.7424 18.7113 17.6527C20.8109 17.4398 20.927 17.4368 20.8672 17.596ZM25.6118 17.7586C25.8897 17.8382 26.3659 18.0264 26.6702 18.1768C27.2709 18.4738 28.3501 19.2289 28.3509 19.3528C28.3516 19.4581 27.255 22.5157 27.1908 22.5875C27.1626 22.6192 26.9326 22.4831 26.68 22.2852C26.1222 21.8485 25.0112 21.2833 24.3261 21.088C24.0488 21.009 23.8144 20.935 23.8052 20.9236C23.7628 20.8712 24.9743 17.6137 25.0363 17.6137C25.075 17.6137 25.3339 17.6788 25.6118 17.7586Z" fill="white" fill-opacity="0.12"/>
</svg>
