<svg width="32" height="32" viewBox="0 0 32 32" fill="none" xmlns="http://www.w3.org/2000/svg">
<path fill-rule="evenodd" clip-rule="evenodd" d="M14.5592 0.013834C14.04 0.063181 12.7238 0.288499 12.2139 0.415373C10.7366 0.782782 8.75612 1.62043 7.54337 2.39069C5.5332 3.66739 3.65896 5.54107 2.38189 7.55064C1.61139 8.76303 0.773499 10.7429 0.405981 12.2198C0.0762976 13.5445 0 14.256 0 16.0048C0 17.7535 0.0762976 18.465 0.405981 19.7898C0.773499 21.2666 1.61139 23.2465 2.38189 24.4589C3.65896 26.4684 5.5332 28.3421 7.54337 29.6188C8.75612 30.3891 10.7366 31.2267 12.2139 31.5941C13.5391 31.9237 14.2507 32 16 32C17.7493 32 18.4609 31.9237 19.7861 31.5941C21.2634 31.2267 23.2439 30.3891 24.4566 29.6188C26.4668 28.3421 28.341 26.4684 29.6181 24.4589C30.3886 23.2465 31.2265 21.2666 31.594 19.7898C31.9237 18.465 32 17.7535 32 16.0048C32 14.256 31.9237 13.5445 31.594 12.2198C31.2265 10.7429 30.3886 8.76303 29.6181 7.55064C28.341 5.54107 26.4668 3.66739 24.4566 2.39069C23.6648 1.88777 22.0912 1.14299 21.1679 0.834259C19.3014 0.209969 18.2509 0.0319321 16.2819 0.00600614C15.4895 -0.00445191 14.7143 -0.000882398 14.5592 0.013834ZM17.566 3.86252C19.7916 4.1561 21.9025 5.06163 23.6423 6.46902C25.3843 7.87822 26.8339 9.89369 27.5021 11.8356C27.6844 12.3653 27.6843 12.3625 27.5104 12.2006C27.2335 11.9428 25.2412 11.1384 23.6697 10.6499C18.4601 9.03055 13.5399 9.03055 8.33028 10.6499C6.75879 11.1384 4.76647 11.9428 4.48959 12.2006C4.3157 12.3625 4.31564 12.3653 4.49786 11.8356C5.16612 9.89369 6.61565 7.87822 8.35772 6.46902C10.9382 4.38148 14.2958 3.43111 17.566 3.86252ZM16.9149 13.3778C18.0519 13.7657 18.766 14.7791 18.766 16.0048C18.766 17.5898 17.5855 18.7699 16 18.7699C14.4145 18.7699 13.234 17.5898 13.234 16.0048C13.234 14.0676 15.0785 12.7512 16.9149 13.3778ZM15.514 15.1903C14.6991 15.687 15.0475 16.9437 16 16.9437C16.9525 16.9437 17.3009 15.687 16.486 15.1903C16.2181 15.027 15.7819 15.027 15.514 15.1903ZM4.64156 19.0982C4.73884 19.1185 5.41042 19.2202 6.13394 19.3242C6.85745 19.4281 7.68858 19.5862 7.98086 19.6755C10.0336 20.3028 11.706 21.9742 12.3286 24.0205C12.4177 24.3133 12.5756 25.1446 12.6796 25.8679C12.9183 27.5284 12.9105 27.494 13.1008 27.72L13.2604 27.9097L13.0798 27.8674C12.5188 27.7357 11.432 27.3464 10.8321 27.0619C7.58491 25.5226 5.0855 22.5864 4.19706 19.2675L4.04271 18.691L4.25368 18.8761C4.3697 18.978 4.54422 19.0779 4.64156 19.0982ZM27.8021 19.2707C26.9145 22.5863 24.4137 25.5233 21.1679 27.0619C20.568 27.3464 19.4812 27.7357 18.9202 27.8674L18.7396 27.9097L18.8992 27.72C19.0895 27.494 19.0817 27.5284 19.3204 25.8679C19.4244 25.1446 19.5823 24.3133 19.6714 24.0205C20.2895 21.9888 21.9481 20.3216 23.9868 19.6825C24.2624 19.5961 25.1081 19.4362 25.8661 19.3272C27.4339 19.1018 27.5774 19.0661 27.7783 18.8523C27.8583 18.7672 27.9309 18.6975 27.9396 18.6975C27.9484 18.6975 27.8864 18.9555 27.8021 19.2707Z" fill="url(#paint0_radial_303_3898)" fill-opacity="0.55"/>
<defs>
<radialGradient id="paint0_radial_303_3898" cx="0" cy="0" r="1" gradientUnits="userSpaceOnUse" gradientTransform="translate(16 16) rotate(90) scale(27.3548)">
<stop stop-color="white"/>
<stop offset="1" stop-color="white" stop-opacity="0"/>
</radialGradient>
</defs>
</svg>
