<svg width="126" height="55" viewBox="0 0 126 55" fill="none" xmlns="http://www.w3.org/2000/svg">
    <path fill-rule="evenodd" clip-rule="evenodd"
        d="M90.8326 0.168785C90.6256 0.27239 90.3672 0.456114 90.2584 0.577126C89.7463 1.14618 89.738 1.29545 89.7326 10.0825L89.7274 18.4579L87.6235 18.4582C85.256 18.4583 84.9131 18.5465 84.4257 19.2803C84.1184 19.7431 84.0675 20.6059 84.3206 21.0649C84.5652 21.5086 96.3816 33.8404 96.7418 34.0277C97.2139 34.2733 97.9006 34.2309 98.401 33.9253C98.9966 33.5614 110.342 21.6643 110.686 21.0424C111.152 20.2003 110.897 19.3425 109.997 18.7262C109.625 18.472 109.49 18.4579 107.43 18.4579H105.254V9.89148V1.32502L104.988 0.930863C104.841 0.714114 104.57 0.42452 104.386 0.287293C104.058 0.0422886 103.938 0.0374006 97.6304 0.00914461C91.9785 -0.0161308 91.1638 0.00306406 90.8326 0.168785ZM70.0544 30.2315C69.4999 30.5117 69.1348 31.0964 69.0458 31.8468C69.0053 32.1877 68.9885 37.2416 69.0084 43.0776L69.0445 53.6885L69.303 54.1058C69.4451 54.3353 69.7385 54.6304 69.9549 54.7616C70.3452 54.9982 70.5585 55 97.4909 55C124.42 55 124.637 54.9981 125.036 54.7616C125.257 54.6304 125.551 54.3717 125.688 54.1865C125.937 53.8507 125.937 53.8252 125.969 42.6413L126 31.4326L125.747 30.9801C125.608 30.7313 125.293 30.4141 125.048 30.2752C124.609 30.0269 124.496 30.0226 118.442 30.0226H112.282L111.891 30.2909C111.675 30.4385 111.402 30.6933 111.283 30.8572C111.164 31.0211 110.691 32.4161 110.231 33.957C109.771 35.498 109.312 37.0136 109.211 37.3251L109.028 37.8914H97.5085H85.9889L84.9839 34.5275C84.4311 32.6773 83.8722 31.0062 83.7418 30.8138C83.6114 30.6215 83.3189 30.3648 83.0918 30.2434C82.7052 30.0367 82.2882 30.0226 76.5728 30.0229C70.9962 30.023 70.431 30.0411 70.0544 30.2315Z"
        fill="white" fill-opacity="0.12" />
    <path fill-rule="evenodd" clip-rule="evenodd"
        d="M39.9587 15.0767C39.8643 15.1238 39.7464 15.2073 39.6968 15.2623C39.4632 15.521 39.4595 15.5888 39.457 19.5829L39.4546 23.39L38.4949 23.3901C37.415 23.3901 37.2586 23.4302 37.0363 23.7638C36.8961 23.9741 36.8729 24.3663 36.9883 24.5749C37.0999 24.7767 42.4898 30.382 42.6541 30.4671C42.8695 30.5788 43.1827 30.5595 43.411 30.4206C43.6827 30.2552 48.8576 24.8474 49.0146 24.5647C49.2273 24.1819 49.1109 23.792 48.7002 23.5119C48.5309 23.3964 48.4692 23.39 47.5293 23.39H46.5371V19.4961V15.6023L46.4154 15.4231C46.3485 15.3246 46.2251 15.193 46.1411 15.1306C45.9913 15.0192 45.9365 15.017 43.0595 15.0042C40.4814 14.9927 40.1098 15.0014 39.9587 15.0767ZM30.4809 28.7416C30.228 28.869 30.0615 29.1347 30.0209 29.4758C30.0024 29.6308 29.9947 31.928 30.0038 34.5807L30.0203 39.4039L30.1382 39.5936C30.203 39.6979 30.3369 39.832 30.4356 39.8916C30.6136 39.9992 30.7109 40 42.9958 40C55.2794 40 55.3781 39.9991 55.5602 39.8916C55.6612 39.832 55.795 39.7144 55.8575 39.6302C55.9711 39.4776 55.9714 39.466 55.9857 34.3824L56 29.2875L55.8847 29.0819C55.8213 28.9688 55.6777 28.8246 55.5656 28.7614C55.3654 28.6486 55.3139 28.6467 52.5524 28.6467H49.7429L49.5641 28.7686C49.4659 28.8357 49.3411 28.9515 49.287 29.026C49.2329 29.1005 49.017 29.7346 48.8071 30.435C48.5973 31.1354 48.388 31.8243 48.342 31.9659L48.2584 32.2234H43.0039H37.7493L37.2909 30.6943C37.0388 29.8533 36.7838 29.0937 36.7243 29.0063C36.6649 28.9189 36.5314 28.8022 36.4278 28.747C36.2515 28.653 36.0613 28.6467 33.4543 28.6468C30.9105 28.6468 30.6528 28.6551 30.4809 28.7416Z"
        fill="white" fill-opacity="0.06" />
    <path fill-rule="evenodd" clip-rule="evenodd"
        d="M5.74543 20.046C5.69094 20.0743 5.62294 20.1244 5.59431 20.1574C5.45956 20.3126 5.45738 20.3533 5.45595 22.7498L5.45457 25.034L4.90093 25.034C4.27789 25.0341 4.18765 25.0581 4.05939 25.2583C3.97851 25.3845 3.96513 25.6198 4.03173 25.745C4.0961 25.866 7.20567 29.2292 7.30046 29.2803C7.4247 29.3473 7.60542 29.3357 7.73711 29.2524C7.89384 29.1531 10.8794 25.9085 10.97 25.7388C11.0927 25.5092 11.0255 25.2752 10.7886 25.1071C10.6909 25.0378 10.6553 25.034 10.113 25.034H9.54061V22.6977V20.3614L9.47043 20.2539C9.43182 20.1948 9.36064 20.1158 9.3122 20.0784C9.22574 20.0115 9.19414 20.0102 7.5343 20.0025C6.04699 19.9956 5.83258 20.0008 5.74543 20.046ZM0.277465 28.245C0.131553 28.3214 0.0354845 28.4808 0.01206 28.6855C0.0013926 28.7785 -0.00303654 30.1568 0.00220357 31.7484L0.0117169 34.6423L0.0797448 34.7561C0.117143 34.8187 0.194341 34.8992 0.251296 34.935C0.354009 34.9995 0.410121 35 7.49759 35C14.5843 35 14.6412 34.9995 14.7463 34.935C14.8045 34.8992 14.8817 34.8286 14.9178 34.7781C14.9833 34.6865 14.9835 34.6796 14.9917 31.6294L15 28.5725L14.9335 28.4491C14.8969 28.3813 14.8141 28.2947 14.7494 28.2569C14.6339 28.1892 14.6042 28.188 13.011 28.188H11.3901L11.287 28.2612C11.2303 28.3014 11.1583 28.3709 11.1271 28.4156C11.0959 28.4603 10.9713 28.8407 10.8503 29.261C10.7292 29.6813 10.6085 30.0946 10.5819 30.1796L10.5337 30.334H7.50224H4.47077L4.2063 29.4166C4.06083 28.912 3.91373 28.4562 3.87942 28.4038C3.84511 28.3513 3.76813 28.2813 3.70837 28.2482C3.60662 28.1918 3.49689 28.188 1.99285 28.1881C0.52531 28.1881 0.376591 28.193 0.277465 28.245Z"
        fill="white" fill-opacity="0.03" />
</svg>
    