<svg width="515" height="100" viewBox="0 0 515 100" fill="none" xmlns="http://www.w3.org/2000/svg">
    <g opacity="0.15">
        <path fill-rule="evenodd" clip-rule="evenodd"
            d="M81.6713 -38.0484C80.886 -37.3289 17.0836 53.8787 1.57343 76.4543C-0.342632 79.2432 -0.492782 80.9152 1.03587 82.4431L2.11012 83.5176H30.6445H59.1789L58.9258 85.8155C58.7862 87.079 57.2422 106.105 55.4947 128.095C52.6261 164.186 52.38 168.188 52.9653 169.231C53.7883 170.697 55.5893 171.365 57.198 170.801C58.1361 170.472 67.0226 158.02 97.4739 114.365C118.963 83.5575 137.333 57.1876 138.295 55.766C140.343 52.7381 140.519 51.1266 138.969 49.5776L137.895 48.5031H109.42C93.7596 48.5031 80.9464 48.4335 80.9464 48.3482C80.9464 48.2628 82.4238 29.766 84.2296 7.24375C86.0353 -15.2785 87.5127 -34.4209 87.5127 -35.2949C87.5127 -38.5137 83.991 -40.1738 81.6713 -38.0484Z"
            fill="black" />
        <path fill-rule="evenodd" clip-rule="evenodd"
            d="M81.6713 -38.0484C80.886 -37.3289 17.0836 53.8787 1.57343 76.4543C-0.342632 79.2432 -0.492782 80.9152 1.03587 82.4431L2.11012 83.5176H30.6445H59.1789L58.9258 85.8155C58.7862 87.079 57.2422 106.105 55.4947 128.095C52.6261 164.186 52.38 168.188 52.9653 169.231C53.7883 170.697 55.5893 171.365 57.198 170.801C58.1361 170.472 67.0226 158.02 97.4739 114.365C118.963 83.5575 137.333 57.1876 138.295 55.766C140.343 52.7381 140.519 51.1266 138.969 49.5776L137.895 48.5031H109.42C93.7596 48.5031 80.9464 48.4335 80.9464 48.3482C80.9464 48.2628 82.4238 29.766 84.2296 7.24375C86.0353 -15.2785 87.5127 -34.4209 87.5127 -35.2949C87.5127 -38.5137 83.991 -40.1738 81.6713 -38.0484Z"
            fill="#00F8B9" />
    </g>
    <g opacity="0.15">
        <path fill-rule="evenodd" clip-rule="evenodd"
            d="M181.419 22.3988C181.088 22.7003 154.2 60.9206 147.663 70.3809C146.856 71.5495 146.792 72.2502 147.437 72.8905L147.889 73.3407H159.914H171.94L171.833 74.3036C171.774 74.8331 171.124 82.8059 170.387 92.0206C169.178 107.145 169.074 108.822 169.321 109.259C169.668 109.873 170.427 110.153 171.105 109.917C171.5 109.779 175.245 104.561 188.078 86.2672C197.135 73.3574 204.876 62.3072 205.281 61.7115C206.145 60.4426 206.219 59.7673 205.566 59.1182L205.113 58.668H193.113C186.513 58.668 181.113 58.6388 181.113 58.603C181.113 58.5673 181.736 50.8162 182.497 41.3783C183.258 31.9405 183.88 23.9189 183.88 23.5526C183.88 22.2038 182.396 21.5081 181.419 22.3988Z"
            fill="black" />
        <path fill-rule="evenodd" clip-rule="evenodd"
            d="M181.419 22.3988C181.088 22.7003 154.2 60.9206 147.663 70.3809C146.856 71.5495 146.792 72.2502 147.437 72.8905L147.889 73.3407H159.914H171.94L171.833 74.3036C171.774 74.8331 171.124 82.8059 170.387 92.0206C169.178 107.145 169.074 108.822 169.321 109.259C169.668 109.873 170.427 110.153 171.105 109.917C171.5 109.779 175.245 104.561 188.078 86.2672C197.135 73.3574 204.876 62.3072 205.281 61.7115C206.145 60.4426 206.219 59.7673 205.566 59.1182L205.113 58.668H193.113C186.513 58.668 181.113 58.6388 181.113 58.603C181.113 58.5673 181.736 50.8162 182.497 41.3783C183.258 31.9405 183.88 23.9189 183.88 23.5526C183.88 22.2038 182.396 21.5081 181.419 22.3988Z"
            fill="#00F8B9" />
    </g>
    <g filter="url(#filter0_f_5526_499)">
        <circle opacity="0.25" cx="263.881" cy="152.119" r="98.1188" fill="#34CBFB" />
        <circle opacity="0.25" cx="166" cy="152.119" r="98.1188" fill="#00F8B9" />
        <circle opacity="0.25" cx="68.1188" cy="152.119" r="98.1188" fill="#3478FB" />
    </g>
    <defs>
        <filter id="filter0_f_5526_499" x="-183" y="-99" width="698" height="502.238"
            filterUnits="userSpaceOnUse" color-interpolation-filters="sRGB">
            <feFlood flood-opacity="0" result="BackgroundImageFix" />
            <feBlend mode="normal" in="SourceGraphic" in2="BackgroundImageFix" result="shape" />
            <feGaussianBlur stdDeviation="76.5" result="effect1_foregroundBlur_5526_499" />
        </filter>
    </defs>
</svg>
    