<svg width="18" height="18" viewBox="0 0 18 18" fill="none" xmlns="http://www.w3.org/2000/svg">
    <path fill-rule="evenodd" clip-rule="evenodd"
        d="M6.5389 0.0124361C4.26834 0.2841 2.41157 1.41153 1.18581 3.26276C-0.228181 5.39825 -0.389563 8.17603 0.765943 10.4898C1.66813 12.2963 3.28796 13.6383 5.25614 14.2099C5.97962 14.42 6.33542 14.4657 7.24179 14.4654C7.87871 14.4651 8.14408 14.4508 8.40155 14.4031C9.51449 14.1968 10.4473 13.8211 11.3157 13.2293L11.6875 12.976L14.1301 15.4177C16.0074 17.2944 16.6092 17.8759 16.7307 17.9306C16.915 18.0136 17.2106 18.0234 17.4073 17.9532C17.7426 17.8334 17.9577 17.5449 17.9873 17.1753C18.0229 16.7312 18.1572 16.8898 15.4279 14.1511L12.9736 11.6885L13.2465 11.2811C13.7367 10.5491 14.0639 9.81622 14.2668 8.99553C15.1423 5.45436 13.2778 1.83155 9.88783 0.48681C9.48764 0.328075 8.89725 0.163149 8.41912 0.0765349C8.11466 0.0213719 6.83014 -0.0223926 6.5389 0.0124361ZM8.43669 1.93705C9.49362 2.18937 10.3234 2.65016 11.0742 3.40176C12.2078 4.53647 12.7591 6.01715 12.6501 7.63394C12.5262 9.47173 11.4532 11.1315 9.80731 12.0311C8.32465 12.8416 6.37095 12.8722 4.84692 12.1087C3.95148 11.6601 3.24227 11.0334 2.6994 10.2109C1.65839 8.63369 1.52133 6.61054 2.33952 4.89865C3.08518 3.33854 4.57568 2.20115 6.28091 1.89104C6.84346 1.78873 7.91072 1.8115 8.43669 1.93705Z"
        fill="#00F8B9" />
</svg>
    