<svg width="136" height="54" viewBox="0 0 136 54" fill="none" xmlns="http://www.w3.org/2000/svg">
    <path fill-rule="evenodd" clip-rule="evenodd"
        d="M108.159 7.753C94.9609 12.0071 83.9759 15.5704 83.7475 15.6711C83.2232 15.9024 82.5925 16.5284 82.2931 17.1149C82.0183 17.6527 81.9138 18.7513 82.0791 19.3623C82.2458 19.9781 82.7576 20.7296 83.2563 21.0908C83.582 21.3266 86.0873 22.2035 93.2576 24.5912L102.825 27.777L111.37 21.8417C116.07 18.5773 120.058 15.8073 120.232 15.6862C120.406 15.5651 120.496 15.5355 120.43 15.6202C119.715 16.5506 108.258 33.0512 108.258 33.1505C108.258 33.2242 109.685 37.5654 111.429 42.7976C113.802 49.9142 114.68 52.4199 114.915 52.7445C115.276 53.2427 116.028 53.7544 116.644 53.9209C117.255 54.0862 118.354 53.9817 118.892 53.707C119.452 53.4211 120.076 52.8078 120.311 52.3136C120.408 52.1084 123.979 41.1014 128.246 27.8535C136.873 1.06977 136.295 3.08809 135.701 1.85046C135.333 1.08391 134.877 0.633177 134.106 0.275588C132.896 -0.285585 134.787 -0.830828 108.159 7.753Z"
        fill="white" fill-opacity="0.12" />
    <path fill-rule="evenodd" clip-rule="evenodd"
        d="M52.5013 15.5944C44.6805 18.1153 38.1709 20.2269 38.0356 20.2866C37.7248 20.4237 37.3511 20.7946 37.1737 21.1421C37.0109 21.4609 36.9489 22.1119 37.0469 22.474C37.1457 22.8389 37.4489 23.2842 37.7445 23.4982C37.9375 23.638 39.4221 24.1576 43.6712 25.5726L49.3405 27.4605L54.4046 23.9432C57.1898 22.0088 59.553 20.3673 59.6562 20.2955C59.7594 20.2238 59.8122 20.2062 59.7736 20.2564C59.3499 20.8078 52.5602 30.5859 52.5602 30.6447C52.5602 30.6884 53.406 33.261 54.4397 36.3615C55.8457 40.5788 56.366 42.0636 56.5054 42.256C56.7193 42.5512 57.1647 42.8544 57.5296 42.9531C57.8917 43.0511 58.5429 42.9891 58.8616 42.8264C59.1935 42.657 59.5637 42.2935 59.7027 42.0006C59.7604 41.8791 61.8765 35.3564 64.4053 27.5058C69.5176 11.6339 69.1747 12.83 68.8229 12.0966C68.6049 11.6423 68.3344 11.3752 67.8775 11.1633C67.1603 10.8308 68.2814 10.5077 52.5013 15.5944Z"
        fill="white" fill-opacity="0.06" />
    <path fill-rule="evenodd" clip-rule="evenodd"
        d="M8.23509 21.4408C4.08027 22.78 0.622046 23.9018 0.550139 23.9335C0.385068 24.0063 0.186517 24.2034 0.0922574 24.388C0.00576934 24.5573 -0.0271453 24.9032 0.0249003 25.0955C0.0773777 25.2894 0.238497 25.526 0.395497 25.6397C0.498027 25.7139 1.28675 25.99 3.54407 26.7417L6.55588 27.7446L9.24617 25.8761C10.7258 24.8484 11.9813 23.9764 12.0361 23.9382C12.0909 23.9001 12.119 23.8908 12.0985 23.9175C11.8734 24.2104 8.26637 29.405 8.26637 29.4363C8.26637 29.4595 8.71569 30.8261 9.26484 32.4733C10.0118 34.7137 10.2882 35.5026 10.3622 35.6047C10.4759 35.7616 10.7125 35.9227 10.9064 35.9751C11.0987 36.0271 11.4446 35.9942 11.614 35.9078C11.7903 35.8178 11.987 35.6247 12.0608 35.4691C12.0915 35.4045 13.2157 31.9393 14.559 27.7687C17.275 19.3368 17.0928 19.9722 16.9059 19.5826C16.7901 19.3412 16.6464 19.1993 16.4037 19.0868C16.0227 18.9101 16.6182 18.7384 8.23509 21.4408Z"
        fill="white" fill-opacity="0.03" />
</svg>
    