<svg width="65" height="58" viewBox="0 0 65 58" fill="none" xmlns="http://www.w3.org/2000/svg">
<path fill-rule="evenodd" clip-rule="evenodd" d="M21.0812 5.59428C14.98 8.67107 9.77524 11.3505 9.51519 11.5486C8.60473 12.2423 8.5576 12.4801 8.64807 15.9261C9.01603 29.9255 14.3702 41.798 23.2725 48.3553C26.1411 50.4682 31.0965 52.8608 32.6041 52.8608C33.3771 52.8608 34.9138 52.289 37.3309 51.102C46.5424 46.5781 52.6776 38.0213 55.3518 25.9671C56.1546 22.3484 56.5978 18.4057 56.6004 14.8597C56.602 12.5252 56.5037 12.1662 55.693 11.5486C54.8217 10.8849 33.0598 0 32.6041 0C32.3299 0 28.161 2.02398 21.0812 5.59428ZM33.385 15.6214C33.5345 15.717 34.2217 16.9132 34.9121 18.2798C35.6714 19.7831 36.3111 20.8658 36.531 21.0204C36.7743 21.1916 37.7575 21.4007 39.5044 21.6525C41.0203 21.8711 42.2575 22.1235 42.456 22.255C42.8808 22.536 43.1208 23.1432 43.0014 23.6348C42.9511 23.8418 41.9772 24.9595 40.8116 26.1477C39.2945 27.6946 38.7126 28.3845 38.7126 28.6364C38.7126 28.8282 38.9142 30.1681 39.1604 31.6138C39.5299 33.782 39.5784 34.3153 39.4379 34.6579C39.2334 35.1562 38.4075 35.5948 37.9453 35.4505C37.7674 35.395 36.6401 34.8248 35.4402 34.1836C34.2403 33.5424 33.0502 32.9813 32.7953 32.9368C32.4128 32.8698 31.9183 33.0731 29.9592 34.1019C28.6542 34.7874 27.4408 35.3939 27.2629 35.4499C26.8068 35.5932 25.9753 35.1575 25.7755 34.6705C25.6417 34.3445 25.6972 33.7444 26.0672 31.5179C26.3186 30.0054 26.4871 28.6193 26.442 28.4375C26.3968 28.2557 25.4442 27.19 24.325 26.069C23.016 24.7582 22.2586 23.8867 22.202 23.6263C22.1018 23.1659 22.4331 22.4024 22.8246 22.1912C22.9638 22.1162 24.2231 21.882 25.6229 21.6707C27.0228 21.4596 28.3527 21.2117 28.5783 21.1199C28.9161 20.9828 29.2184 20.4896 30.2926 18.323C31.4246 16.04 31.6586 15.6657 32.0641 15.4886C32.5433 15.2795 32.9072 15.3161 33.385 15.6214ZM4.70225 42.339L0 47.0879L0.412616 47.2522C0.639504 47.3427 2.33055 47.9874 4.17038 48.6852C6.0102 49.383 7.61747 50.0088 7.74197 50.0759C7.8669 50.143 8.61665 51.9492 9.41221 54.0989C10.2062 56.2444 10.89 58 10.9319 58C10.9738 58 12.7664 56.224 14.9153 54.0534L18.8224 50.1069L17.0842 48.3635C14.3409 45.6122 12.1136 42.5912 10.2702 39.1215C9.8225 38.2791 9.44465 37.5899 9.43054 37.5899C9.41629 37.5899 7.28848 39.7269 4.70225 42.339ZM54.9465 39.1057C53.0943 42.5917 50.8716 45.6078 48.124 48.3635L46.3858 50.1069L50.2929 54.0534C52.4418 56.224 54.2344 58 54.2763 58C54.3181 58 55.002 56.2444 55.796 54.0989C56.6474 51.7984 57.3378 50.1447 57.479 50.0685C57.6106 49.9973 59.314 49.3363 61.2643 48.5994C63.2145 47.8625 64.8926 47.213 64.9934 47.1562C65.1144 47.0878 63.579 45.4404 60.4726 42.3053L55.7688 37.558L54.9465 39.1057Z" fill="url(#paint0_radial_841_666)"/>
<defs>
<radialGradient id="paint0_radial_841_666" cx="0" cy="0" r="1" gradientUnits="userSpaceOnUse" gradientTransform="translate(32.5 29) rotate(90) scale(54.375 60.9375)">
<stop stop-color="white"/>
<stop offset="1" stop-color="white" stop-opacity="0"/>
</radialGradient>
</defs>
</svg>
