<svg width="14" height="15" viewBox="0 0 14 15" fill="none" xmlns="http://www.w3.org/2000/svg">
<path fill-rule="evenodd" clip-rule="evenodd" d="M0.63538 0.0566665C0.397883 0.143093 0.221452 0.296633 0.10382 0.519249L0 0.715694V1.81532V2.91495L0.0854157 3.07699C0.148966 3.19753 0.783213 3.87306 2.56178 5.71463L4.9527 8.19022L4.95411 10.1391C4.95496 11.3129 4.9683 12.1638 4.98762 12.2786C5.02927 12.5257 5.17314 12.7983 5.3581 12.9804C5.49448 13.1147 8.11767 14.8699 8.32808 14.9677C8.4543 15.0263 8.69482 15.0023 8.82116 14.9185C9.04372 14.7709 9.02748 15.0244 9.04494 11.4266L9.06067 8.18618L11.4486 5.71175C13.2781 3.81594 13.8556 3.19964 13.9182 3.07614L14 2.91495V1.81532V0.715694L13.8962 0.519249C13.7768 0.293379 13.6003 0.141598 13.3565 0.0553184C13.2011 0.00030905 13.0422 -0.00106838 6.99179 0.000279745C0.998467 0.00159856 0.781357 0.00353283 0.63538 0.0566665Z" fill="url(#paint0_radial_837_234)"/>
<defs>
<radialGradient id="paint0_radial_837_234" cx="0" cy="0" r="1" gradientUnits="userSpaceOnUse" gradientTransform="translate(7 7.5) rotate(90) scale(14.0625 13.125)">
<stop stop-color="white"/>
<stop offset="1" stop-color="white" stop-opacity="0"/>
</radialGradient>
</defs>
</svg>
