<svg width="10" height="12" viewBox="0 0 10 12" fill="none" xmlns="http://www.w3.org/2000/svg">
<path fill-rule="evenodd" clip-rule="evenodd" d="M4.52312 0.0135517C3.75158 0.122245 3.06586 0.534036 2.58573 1.17698C2.34114 1.50453 2.19839 1.80956 2.09555 2.22442C2.02628 2.50395 2.00874 3.04673 2.05907 3.3537C2.20374 4.23603 2.75658 5.01046 3.55351 5.4471C4.40274 5.91241 5.54908 5.89212 6.3728 5.3972C7.38149 4.79115 7.94026 3.66562 7.79283 2.53683C7.70867 1.89248 7.45725 1.36053 7.02024 0.902138C6.43807 0.291534 5.72574 -0.00957052 4.88648 0.000231792C4.72531 0.00210783 4.5618 0.00811116 4.52312 0.0135517ZM2.28 5.81418C1.1635 5.97802 0.437767 6.82855 0.130576 8.33328C0.0297966 8.82693 0.00161874 9.13078 0.000141857 9.74031C-0.00140535 10.3749 0.00764342 10.4457 0.13224 10.7721C0.374191 11.4061 0.930083 11.8448 1.64871 11.9689C1.82702 11.9997 2.28529 12.0035 5.08761 11.9977L8.3208 11.9911L8.52007 11.9359C9.31212 11.7164 9.84808 11.1354 9.97214 10.3617C10.0341 9.97551 9.98829 9.03864 9.87877 8.45053C9.77584 7.89787 9.66957 7.57226 9.45104 7.14C9.06189 6.37014 8.52227 5.9527 7.74911 5.82337C7.45901 5.77485 7.25719 5.78592 7.11569 5.85812C7.05964 5.88673 6.86479 6.00602 6.68271 6.12321C6.04425 6.53406 5.55065 6.70347 4.99197 6.70347C4.43104 6.70347 3.93919 6.53397 3.29778 6.11964C2.76648 5.77644 2.69118 5.75384 2.28 5.81418Z" fill="url(#paint0_radial_468_49)"/>
<defs>
<radialGradient id="paint0_radial_468_49" cx="0" cy="0" r="1" gradientUnits="userSpaceOnUse" gradientTransform="translate(5 6) rotate(90) scale(10.6875 8.90625)">
<stop stop-color="white"/>
<stop offset="1" stop-color="white" stop-opacity="0"/>
</radialGradient>
</defs>
</svg>
