<svg width="250" height="229" viewBox="0 0 250 229" fill="none" xmlns="http://www.w3.org/2000/svg">
<g filter="url(#filter0_d_837_480)">
<mask id="path-1-inside-1_837_480" fill="white">
<path d="M60.4682 147.396C48.4754 132.952 42.0836 116.317 42.0008 99.3339C41.9181 82.3506 48.1476 65.6817 59.9994 51.1735L82.748 61.4861C73.4518 72.8659 68.5655 85.9406 68.6304 99.2619C68.6953 112.583 73.7088 125.631 83.1157 136.96L60.4682 147.396Z"/>
</mask>
<path d="M60.4682 147.396C48.4754 132.952 42.0836 116.317 42.0008 99.3339C41.9181 82.3506 48.1476 65.6817 59.9994 51.1735L82.748 61.4861C73.4518 72.8659 68.5655 85.9406 68.6304 99.2619C68.6953 112.583 73.7088 125.631 83.1157 136.96L60.4682 147.396Z" fill="url(#paint0_radial_837_480)" fill-opacity="0.25"/>
<path d="M60.4682 147.396C48.4754 132.952 42.0836 116.317 42.0008 99.3339C41.9181 82.3506 48.1476 65.6817 59.9994 51.1735L82.748 61.4861C73.4518 72.8659 68.5655 85.9406 68.6304 99.2619C68.6953 112.583 73.7088 125.631 83.1157 136.96L60.4682 147.396Z" stroke="url(#paint1_radial_837_480)" stroke-width="2" mask="url(#path-1-inside-1_837_480)"/>
</g>
<g filter="url(#filter1_d_837_480)">
<mask id="path-2-inside-2_837_480" fill="white">
<path d="M189.532 147.396C201.525 132.952 207.916 116.317 207.999 99.3339C208.082 82.3506 201.852 65.6817 190.001 51.1735L167.255 61.4849C176.551 72.8651 181.438 85.9402 181.373 99.2619C181.308 112.584 176.294 125.632 166.887 136.962L189.532 147.396Z"/>
</mask>
<path d="M189.532 147.396C201.525 132.952 207.916 116.317 207.999 99.3339C208.082 82.3506 201.852 65.6817 190.001 51.1735L167.255 61.4849C176.551 72.8651 181.438 85.9402 181.373 99.2619C181.308 112.584 176.294 125.632 166.887 136.962L189.532 147.396Z" fill="url(#paint2_radial_837_480)" fill-opacity="0.25"/>
<path d="M189.532 147.396C201.525 132.952 207.916 116.317 207.999 99.3339C208.082 82.3506 201.852 65.6817 190.001 51.1735L167.255 61.4849C176.551 72.8651 181.438 85.9402 181.373 99.2619C181.308 112.584 176.294 125.632 166.887 136.962L189.532 147.396Z" stroke="url(#paint3_radial_837_480)" stroke-width="2" mask="url(#path-2-inside-2_837_480)"/>
</g>
<g opacity="0.25" filter="url(#filter2_d_837_480)">
<mask id="path-3-inside-3_837_480" fill="white">
<path d="M217.905 167.385C234.851 146.976 243.882 123.47 243.999 99.4718C244.116 75.4737 235.314 51.9197 218.568 31.4191L201.335 39.2314C216.146 57.3622 223.93 78.1933 223.827 99.4173C223.723 120.641 215.736 141.43 200.75 159.48L217.905 167.385Z"/>
</mask>
<path d="M217.905 167.385C234.851 146.976 243.882 123.47 243.999 99.4718C244.116 75.4737 235.314 51.9197 218.568 31.4191L201.335 39.2314C216.146 57.3622 223.93 78.1933 223.827 99.4173C223.723 120.641 215.736 141.43 200.75 159.48L217.905 167.385Z" fill="url(#paint4_radial_837_480)" fill-opacity="0.25"/>
<path d="M217.905 167.385C234.851 146.976 243.882 123.47 243.999 99.4718C244.116 75.4737 235.314 51.9197 218.568 31.4191L201.335 39.2314C216.146 57.3622 223.93 78.1933 223.827 99.4173C223.723 120.641 215.736 141.43 200.75 159.48L217.905 167.385Z" stroke="url(#paint5_radial_837_480)" stroke-width="2" mask="url(#path-3-inside-3_837_480)"/>
</g>
<g opacity="0.25" filter="url(#filter3_d_837_480)">
<mask id="path-4-inside-4_837_480" fill="white">
<path d="M32.0948 167.385C15.1494 146.976 6.11806 123.47 6.00115 99.4718C5.88424 75.4737 14.6863 51.9197 31.4324 31.4191L48.6622 39.2303C33.8517 57.3615 26.067 78.1929 26.1704 99.4173C26.2738 120.642 34.2612 141.43 49.248 159.481L32.0948 167.385Z"/>
</mask>
<path d="M32.0948 167.385C15.1494 146.976 6.11806 123.47 6.00115 99.4718C5.88424 75.4737 14.6863 51.9197 31.4324 31.4191L48.6622 39.2303C33.8517 57.3615 26.067 78.1929 26.1704 99.4173C26.2738 120.642 34.2612 141.43 49.248 159.481L32.0948 167.385Z" fill="url(#paint6_radial_837_480)" fill-opacity="0.25"/>
<path d="M32.0948 167.385C15.1494 146.976 6.11806 123.47 6.00115 99.4718C5.88424 75.4737 14.6863 51.9197 31.4324 31.4191L48.6622 39.2303C33.8517 57.3615 26.067 78.1929 26.1704 99.4173C26.2738 120.642 34.2612 141.43 49.248 159.481L32.0948 167.385Z" stroke="url(#paint7_radial_837_480)" stroke-width="2" mask="url(#path-4-inside-4_837_480)"/>
</g>
<defs>
<filter id="filter0_d_837_480" x="3.9" y="13.0738" width="117.315" height="172.422" filterUnits="userSpaceOnUse" color-interpolation-filters="sRGB">
<feFlood flood-opacity="0" result="BackgroundImageFix"/>
<feColorMatrix in="SourceAlpha" type="matrix" values="0 0 0 0 0 0 0 0 0 0 0 0 0 0 0 0 0 0 127 0" result="hardAlpha"/>
<feOffset/>
<feGaussianBlur stdDeviation="19.05"/>
<feColorMatrix type="matrix" values="0 0 0 0 0.854167 0 0 0 0 0.854167 0 0 0 0 0.854167 0 0 0 0.25 0"/>
<feBlend mode="normal" in2="BackgroundImageFix" result="effect1_dropShadow_837_480"/>
<feBlend mode="normal" in="SourceGraphic" in2="effect1_dropShadow_837_480" result="shape"/>
</filter>
<filter id="filter1_d_837_480" x="128.787" y="13.0738" width="117.313" height="172.422" filterUnits="userSpaceOnUse" color-interpolation-filters="sRGB">
<feFlood flood-opacity="0" result="BackgroundImageFix"/>
<feColorMatrix in="SourceAlpha" type="matrix" values="0 0 0 0 0 0 0 0 0 0 0 0 0 0 0 0 0 0 127 0" result="hardAlpha"/>
<feOffset/>
<feGaussianBlur stdDeviation="19.05"/>
<feColorMatrix type="matrix" values="0 0 0 0 0.854167 0 0 0 0 0.854167 0 0 0 0 0.854167 0 0 0 0.25 0"/>
<feBlend mode="normal" in2="BackgroundImageFix" result="effect1_dropShadow_837_480"/>
<feBlend mode="normal" in="SourceGraphic" in2="effect1_dropShadow_837_480" result="shape"/>
</filter>
<filter id="filter2_d_837_480" x="162.65" y="-6.68105" width="119.45" height="212.166" filterUnits="userSpaceOnUse" color-interpolation-filters="sRGB">
<feFlood flood-opacity="0" result="BackgroundImageFix"/>
<feColorMatrix in="SourceAlpha" type="matrix" values="0 0 0 0 0 0 0 0 0 0 0 0 0 0 0 0 0 0 127 0" result="hardAlpha"/>
<feOffset/>
<feGaussianBlur stdDeviation="19.05"/>
<feColorMatrix type="matrix" values="0 0 0 0 0.854167 0 0 0 0 0.854167 0 0 0 0 0.854167 0 0 0 0.25 0"/>
<feBlend mode="normal" in2="BackgroundImageFix" result="effect1_dropShadow_837_480"/>
<feBlend mode="normal" in="SourceGraphic" in2="effect1_dropShadow_837_480" result="shape"/>
</filter>
<filter id="filter3_d_837_480" x="-32.1" y="-6.68105" width="119.448" height="212.166" filterUnits="userSpaceOnUse" color-interpolation-filters="sRGB">
<feFlood flood-opacity="0" result="BackgroundImageFix"/>
<feColorMatrix in="SourceAlpha" type="matrix" values="0 0 0 0 0 0 0 0 0 0 0 0 0 0 0 0 0 0 127 0" result="hardAlpha"/>
<feOffset/>
<feGaussianBlur stdDeviation="19.05"/>
<feColorMatrix type="matrix" values="0 0 0 0 0.854167 0 0 0 0 0.854167 0 0 0 0 0.854167 0 0 0 0.25 0"/>
<feBlend mode="normal" in2="BackgroundImageFix" result="effect1_dropShadow_837_480"/>
<feBlend mode="normal" in="SourceGraphic" in2="effect1_dropShadow_837_480" result="shape"/>
</filter>
<radialGradient id="paint0_radial_837_480" cx="0" cy="0" r="1" gradientUnits="userSpaceOnUse" gradientTransform="translate(42 102.209) scale(64.9811 48.407)">
<stop stop-color="white"/>
<stop offset="1" stop-color="#C2C2C2" stop-opacity="0"/>
</radialGradient>
<radialGradient id="paint1_radial_837_480" cx="0" cy="0" r="1" gradientUnits="userSpaceOnUse" gradientTransform="translate(45.1029 102.401) rotate(-180) scale(31.1417 41.845)">
<stop stop-color="#C2C2C1"/>
<stop offset="1" stop-color="#C6C6C6" stop-opacity="0"/>
</radialGradient>
<radialGradient id="paint2_radial_837_480" cx="0" cy="0" r="1" gradientUnits="userSpaceOnUse" gradientTransform="translate(208 102.209) rotate(-180) scale(64.9811 48.407)">
<stop stop-color="white"/>
<stop offset="1" stop-color="#C2C2C2" stop-opacity="0"/>
</radialGradient>
<radialGradient id="paint3_radial_837_480" cx="0" cy="0" r="1" gradientUnits="userSpaceOnUse" gradientTransform="translate(204.897 102.401) scale(31.1417 41.845)">
<stop stop-color="#C2C2C1"/>
<stop offset="1" stop-color="#C6C6C6" stop-opacity="0"/>
</radialGradient>
<radialGradient id="paint4_radial_837_480" cx="0" cy="0" r="1" gradientUnits="userSpaceOnUse" gradientTransform="translate(244 103.535) rotate(-180) scale(91.8154 68.4012)">
<stop stop-color="white"/>
<stop offset="1" stop-color="#C2C2C2" stop-opacity="0"/>
</radialGradient>
<radialGradient id="paint5_radial_837_480" cx="0" cy="0" r="1" gradientUnits="userSpaceOnUse" gradientTransform="translate(239.616 103.805) scale(44.0018 59.1289)">
<stop stop-color="#C2C2C1"/>
<stop offset="1" stop-color="#C6C6C6" stop-opacity="0"/>
</radialGradient>
<radialGradient id="paint6_radial_837_480" cx="0" cy="0" r="1" gradientUnits="userSpaceOnUse" gradientTransform="translate(6 103.535) scale(91.8154 68.4012)">
<stop stop-color="white"/>
<stop offset="1" stop-color="#C2C2C2" stop-opacity="0"/>
</radialGradient>
<radialGradient id="paint7_radial_837_480" cx="0" cy="0" r="1" gradientUnits="userSpaceOnUse" gradientTransform="translate(10.3843 103.805) rotate(-180) scale(44.0018 59.1289)">
<stop stop-color="#C2C2C1"/>
<stop offset="1" stop-color="#C6C6C6" stop-opacity="0"/>
</radialGradient>
</defs>
</svg>
