<svg width="66" height="59" viewBox="0 0 66 59" fill="none" xmlns="http://www.w3.org/2000/svg">
<g opacity="0.05">
<path fill-rule="evenodd" clip-rule="evenodd" d="M10.0667 1.67105C8.77202 3.80292 8.69 3.97061 8.37419 5.13475C7.83593 7.1192 8.12647 9.6414 9.09957 11.4305C9.37166 11.9305 10.0014 12.7401 10.5817 13.3356C11.6587 14.441 11.8493 14.9753 10.8425 14.0666C9.43408 12.7955 7.89899 12.2258 4.88761 11.8564C3.78826 11.7215 2.86661 11.6309 2.8394 11.6548C2.81219 11.6788 2.6755 12.6637 2.53545 13.8435C2.24117 16.3236 2.33325 17.7868 2.87641 19.2611C3.88846 22.0077 6.5603 24.4211 9.14444 24.9227C9.81863 25.0537 9.91689 25.1109 9.91689 25.372C9.91689 25.7436 9.9196 25.7437 9.12652 25.3332C7.33661 24.4066 5.28092 24.2558 2.05393 24.8141C0.956515 25.0039 0.0366725 25.1815 0.0101075 25.2087C-0.0974417 25.3185 0.682484 29.5967 0.964252 30.4431C1.79821 32.948 3.55511 34.9227 5.98373 36.085C7.55583 36.8374 8.58413 37.0438 10.4272 36.9766C11.2814 36.9455 11.9802 36.9583 11.9802 37.0049C11.9802 37.0516 11.4297 37.1589 10.7569 37.2434C8.85223 37.4825 7.71187 37.9788 5.37119 39.5872C4.25418 40.3548 3.34014 41.0269 3.34014 41.0808C3.34014 41.2092 5.42793 44.2797 6.01662 45.0172C7.05806 46.3216 9.11324 47.6034 10.9202 48.0755C12.2378 48.4197 14.3024 48.4195 15.6211 48.075C16.6231 47.8132 17.8434 47.2465 18.7504 46.6218C19.5103 46.0984 19.5637 46.0739 19.6466 46.2111C19.6884 46.2801 19.3229 46.5509 18.8346 46.8131C17.6598 47.4437 16.5904 48.339 15.7616 49.3855C15.1531 50.1538 13.0118 54.1395 13.0118 54.5036C13.0118 54.734 17.0194 56.7267 18.1363 57.0516C19.5498 57.4629 21.8212 57.4624 23.2369 57.0506C25.3074 56.4483 27.1246 55.2391 28.3753 53.6313C28.7911 53.0968 29.1331 52.6189 29.1354 52.5692C29.1376 52.5197 29.2229 52.3666 29.3249 52.2291C29.4759 52.0252 29.5458 52.0091 29.7029 52.1423C29.8697 52.2838 29.8288 52.3969 29.3986 52.9853C28.3802 54.3782 27.747 56.1342 27.622 57.9132L27.5456 59H29.4898H31.434L31.5262 58.2425C31.6516 57.2122 32.0203 56.1611 32.5195 55.4105C32.7483 55.0664 32.9645 54.785 33 54.785C33.0355 54.785 33.2517 55.0664 33.4805 55.4105C33.9797 56.1611 34.3484 57.2122 34.4738 58.2425L34.566 59H36.5102H38.4544L38.378 57.9132C38.253 56.1342 37.6198 54.3782 36.6014 52.9853C36.1712 52.3969 36.1303 52.2838 36.2971 52.1423C36.4542 52.0091 36.5241 52.0252 36.6751 52.2291C36.7771 52.3666 36.8624 52.5197 36.8645 52.5692C36.8771 52.8427 38.4992 54.6949 39.2045 55.2408C40.1662 55.9853 41.741 56.7732 42.9296 57.1045C44.1912 57.4561 46.5609 57.4306 47.8637 57.0516C48.9591 56.733 52.9882 54.736 52.9882 54.5118C52.9882 54.1821 51.0046 50.41 50.4072 49.604C49.613 48.5322 48.3632 47.4561 47.167 46.8139C46.6777 46.5513 46.3116 46.2801 46.3534 46.2111C46.4363 46.0739 46.4897 46.0984 47.2496 46.6218C50.1842 48.643 53.9248 48.9156 57.0033 47.3328C58.1968 46.719 59.2513 45.8952 59.9842 45.0036C60.5848 44.2729 62.4792 41.5066 62.6011 41.1825C62.6512 41.0488 62.0627 40.5724 60.6353 39.5917C58.2877 37.9784 57.1492 37.4827 55.2431 37.2434C54.5703 37.1589 54.0198 37.0516 54.0198 37.0049C54.0198 36.9583 54.711 36.9452 55.5558 36.9761C57.425 37.044 58.5704 36.8176 60.0351 36.0904C62.4884 34.8724 64.2073 32.931 65.0357 30.4431C65.3175 29.5967 66.0974 25.3185 65.9899 25.2087C65.9633 25.1815 65.0435 25.0039 63.9461 24.8141C60.7191 24.2558 58.6634 24.4066 56.8735 25.3332C56.0804 25.7437 56.0831 25.7436 56.0831 25.372C56.0831 25.1109 56.1814 25.0537 56.8556 24.9227C58.1036 24.6805 59.6959 23.8128 60.7415 22.8051C62.5404 21.0716 63.4317 19.2107 63.6305 16.7734C63.696 15.9711 63.3119 11.7883 63.1605 11.6547C63.0373 11.546 59.0179 12.1329 58.2109 12.3774C57.109 12.7112 55.9574 13.3493 55.1554 14.0706C54.1325 14.9903 54.3551 14.4373 55.4765 13.2728C57.1613 11.5234 57.8827 9.73308 57.8866 7.29151C57.8878 6.49544 57.8018 5.78355 57.6258 5.13475C57.31 3.97061 57.228 3.80292 55.9333 1.67105L54.9183 0L53.2116 1.07693C51.0305 2.45343 49.8888 3.58186 49.1482 5.09339C48.4285 6.56223 48.1655 7.84243 48.2525 9.45104C48.3336 10.9489 48.6246 11.8894 49.4633 13.3659C49.7889 13.939 50.1973 14.6589 50.3711 14.9658C51.4986 16.9575 52.0844 20.5941 52.0852 25.6061C52.0861 32.4576 50.4172 37.0823 46.5927 40.8248C44.7098 42.6674 42.6422 44.0601 38.2872 46.4192C36.9751 47.13 35.2486 48.1111 34.4508 48.5994L33 49.4873L31.5492 48.5994C30.7513 48.1111 29.0249 47.13 27.7128 46.4192C23.3578 44.0601 21.2902 42.6674 19.4073 40.8248C15.5769 37.0765 13.9139 32.4682 13.9148 25.6061C13.9156 20.5941 14.5014 16.9575 15.6289 14.9658C15.8027 14.6589 16.2111 13.939 16.5367 13.3659C17.3754 11.8894 17.6664 10.9489 17.7475 9.45104C17.8345 7.84243 17.5715 6.56223 16.8518 5.09339C16.1112 3.58186 14.9695 2.45343 12.7884 1.07693L11.0817 0L10.0667 1.67105Z" fill="white"/>
</g>
</svg>
