<svg width="24" height="27" viewBox="0 0 24 27" fill="none" xmlns="http://www.w3.org/2000/svg">
    <path fill-rule="evenodd" clip-rule="evenodd"
        d="M0 0.790983V1.58197H0.836194C1.88368 1.58197 2.12849 1.64361 2.48226 1.99644C2.63456 2.14842 2.76381 2.34031 2.81524 2.49075L2.89924 2.73664L2.60569 2.90191C1.98545 3.2511 1.51745 3.8707 1.38026 4.52437C1.30668 4.87488 1.30356 6.2715 1.37556 6.65001C1.50735 7.34338 2.04777 8.06951 2.63048 8.33617L2.90749 8.46289L2.90738 9.04326L2.90722 9.62363L2.60738 9.77993C1.9929 10.1002 1.50111 10.7613 1.37471 11.4369C1.30361 11.8169 1.307 13.2133 1.37984 13.5628C1.52083 14.2393 2.0243 14.9004 2.63281 15.208L2.90749 15.3469V15.9251V16.5034L2.63281 16.6422C2.28069 16.8203 1.80037 17.2773 1.62211 17.604C1.39776 18.0152 1.32322 18.4448 1.32238 19.3324C1.32196 19.7707 1.34548 20.2571 1.37471 20.4134C1.49958 21.0805 1.99977 21.7536 2.60543 22.0693C2.89554 22.2205 2.90728 22.2348 2.90828 22.4376C2.90886 22.5536 2.94428 22.8146 2.987 23.0176C3.24523 24.2444 4.2268 25.1687 5.50234 25.3861C5.66812 25.4144 5.70793 25.4528 5.81952 25.6926C6.085 26.263 6.78423 26.8 7.44312 26.9396C7.86962 27.0299 9.37496 27.0159 9.75145 26.9181C10.4092 26.7472 10.9967 26.2828 11.2766 25.7127L11.4218 25.4169H11.9953H12.5689L12.7189 25.7128C13.0079 26.2825 13.6009 26.7498 14.2485 26.9181C14.625 27.0159 16.1304 27.0299 16.5569 26.9396C17.2158 26.8 17.915 26.263 18.1805 25.6926C18.2921 25.4528 18.3319 25.4144 18.4977 25.3861C19.7732 25.1687 20.7548 24.2444 21.013 23.0176C21.0557 22.8146 21.0911 22.5536 21.0917 22.4376C21.0927 22.2348 21.1045 22.2205 21.3946 22.0693C22.0002 21.7536 22.5004 21.0805 22.6253 20.4134C22.6545 20.2571 22.678 19.7707 22.6776 19.3324C22.6768 18.4448 22.6022 18.0152 22.3779 17.604C22.1996 17.2773 21.7193 16.8203 21.3672 16.6422L21.0925 16.5034V15.9273V15.3512L21.4119 15.1814C21.9997 14.869 22.4798 14.2254 22.6195 13.5628C22.6929 13.2147 22.6967 11.8186 22.6253 11.4369C22.499 10.7622 22.0035 10.0941 21.3966 9.78062L21.0928 9.62363L21.0926 9.04326L21.0925 8.46289L21.3695 8.33617C21.9522 8.06951 22.4927 7.34338 22.6244 6.65001C22.6936 6.28616 22.6944 4.95161 22.6256 4.58169C22.5416 4.12972 22.2421 3.57967 21.9204 3.28632C21.7047 3.08963 21.2904 2.82413 21.1059 2.76422C21.0987 2.76185 21.1324 2.64405 21.1808 2.50241C21.2364 2.33978 21.3605 2.15327 21.5177 1.99644C21.8715 1.64361 22.1163 1.58197 23.1638 1.58197H24V0.790983V0L23.1145 0.000896448C21.673 0.00242568 21.1151 0.186039 20.4007 0.894338C19.945 1.34615 19.7173 1.75076 19.5731 2.36509C19.483 2.74851 19.4792 2.75415 19.2211 2.88456C18.8984 3.04776 18.4304 3.48286 18.2531 3.7847C17.9774 4.25407 17.9207 4.56614 17.9207 5.61598C17.9207 6.6681 17.9772 6.97769 18.2558 7.4518C18.4398 7.76508 18.9672 8.24236 19.2638 8.36407L19.5062 8.46352L19.5064 9.04579L19.5066 9.62801L19.2146 9.77086C18.6562 10.0441 18.2127 10.5691 18.0209 11.184C17.9379 11.4499 17.9208 11.6696 17.9213 12.4627C17.922 13.4951 17.963 13.7507 18.2041 14.224C18.3887 14.5864 18.8277 15.0175 19.2047 15.2063L19.5066 15.3576V15.9252V16.4928L19.2126 16.6363C18.7747 16.85 18.379 17.2641 18.1446 17.7538L17.9471 18.1663L17.9292 19.2014C17.9089 20.3774 17.9626 20.7076 18.2531 21.191C18.463 21.5404 18.8625 21.9068 19.2291 22.0863C19.4758 22.2072 19.5066 22.2406 19.5066 22.3874C19.5066 22.9869 19.0944 23.5574 18.5171 23.7572L18.3172 23.8264L18.1666 23.532C17.8681 22.9485 17.2114 22.451 16.5569 22.3123C16.1304 22.222 14.625 22.236 14.2485 22.3338C13.6009 22.5021 13.0079 22.9694 12.7189 23.5391L12.5689 23.835H12H11.4311L11.2809 23.5389C10.9887 22.9627 10.4065 22.504 9.75145 22.3338C9.37496 22.236 7.86962 22.222 7.44312 22.3123C6.78856 22.451 6.13195 22.9485 5.83343 23.532L5.68282 23.8264L5.48183 23.7569C4.90536 23.5574 4.49339 22.9867 4.49339 22.3874C4.49339 22.2406 4.52416 22.2072 4.77093 22.0863C5.13753 21.9068 5.53697 21.5404 5.74694 21.191C6.03737 20.7076 6.09108 20.3774 6.07078 19.2014L6.05286 18.1663L5.85542 17.7538C5.62102 17.2641 5.22529 16.85 4.78737 16.6363L4.49339 16.4928V15.9251V15.3575L4.78948 15.2129C5.34037 14.9441 5.83718 14.3227 6.00555 13.6919C6.05418 13.5098 6.07824 13.1049 6.07866 12.4627C6.07919 11.6696 6.06206 11.4499 5.97912 11.184C5.78759 10.5702 5.31526 10.0143 4.76278 9.75267L4.49339 9.62511L4.4936 9.04432L4.49376 8.46352L4.73625 8.36407C5.03276 8.24236 5.56018 7.76508 5.74425 7.4518C6.02278 6.97769 6.0793 6.6681 6.0793 5.61598C6.0793 4.56614 6.02263 4.25407 5.74689 3.7847C5.56763 3.47948 5.10048 3.04718 4.76902 2.8796C4.53214 2.7599 4.49418 2.71803 4.46506 2.5447C4.25958 1.32105 3.32093 0.329471 2.12971 0.0776746C1.90071 0.0292664 1.45063 0.0014765 0.885463 0.000896448L0 0V0.790983ZM4.12874 4.33828C4.44381 4.54826 4.49323 4.72143 4.49323 5.61598C4.49323 6.26496 4.47663 6.43945 4.40078 6.58778C4.11066 7.15534 3.29318 7.142 3.01322 6.56516C2.92298 6.37918 2.90749 6.23954 2.90749 5.6105C2.90749 4.95013 2.91981 4.84973 3.02643 4.64233C3.23704 4.23266 3.75563 4.08959 4.12874 4.33828ZM20.6704 4.31476C20.7848 4.37451 20.8997 4.49859 20.9736 4.64233C21.0802 4.84973 21.0925 4.95013 21.0925 5.6105C21.0925 6.25183 21.0781 6.37701 20.9812 6.57666C20.7048 7.14627 19.8881 7.15286 19.5992 6.58778C19.5234 6.43945 19.5068 6.26496 19.5068 5.61598C19.5068 4.96806 19.5235 4.79183 19.5992 4.64149C19.7943 4.25407 20.274 4.10773 20.6704 4.31476ZM4.06858 11.1924C4.44539 11.3852 4.49345 11.5327 4.49318 12.4967C4.49302 13.2201 4.48081 13.3348 4.38793 13.4867C4.06525 14.0147 3.29593 13.9929 3.00539 13.4476C2.92335 13.2936 2.90749 13.1425 2.90749 12.515C2.90749 12.1031 2.93286 11.6993 2.96389 11.6177C3.07729 11.3191 3.40256 11.0805 3.70245 11.0758C3.77625 11.0747 3.94102 11.1271 4.06858 11.1924ZM20.7146 11.2182C21.0412 11.4614 21.0648 11.5398 21.0814 12.4353C21.095 13.1644 21.085 13.284 20.9968 13.4467C20.7007 13.9931 19.9351 14.0152 19.6121 13.4867C19.5192 13.3348 19.507 13.2201 19.5068 12.4967C19.5066 11.5381 19.5541 11.393 19.9351 11.1897C20.2042 11.0461 20.4979 11.0568 20.7146 11.2182ZM4.12335 18.0841C4.19604 18.1347 4.30906 18.2544 4.37445 18.3503C4.48515 18.5125 4.49339 18.5812 4.49339 19.3402C4.49339 20.0809 4.48282 20.1745 4.37794 20.3607C4.15797 20.751 3.62178 20.8826 3.28203 20.6296C2.96352 20.3924 2.9353 20.3026 2.91642 19.4677C2.90633 19.0187 2.92261 18.6147 2.95522 18.5058C3.09632 18.0348 3.72529 17.8077 4.12335 18.0841ZM20.6905 18.0802C20.7747 18.1275 20.8936 18.2332 20.9548 18.3151C21.0576 18.4527 21.0661 18.5316 21.0661 19.3527C21.0661 20.1681 21.0571 20.2534 20.9571 20.3871C20.6749 20.7641 20.3113 20.8613 19.9351 20.6605C19.5551 20.4578 19.5066 20.311 19.5066 19.3641C19.5066 18.5003 19.5333 18.3853 19.7889 18.1471C20.025 17.9271 20.372 17.9013 20.6905 18.0802ZM9.51436 23.9274C10.0804 24.211 10.0804 25.0369 9.51436 25.3265C9.35651 25.4072 9.21267 25.4185 8.5015 25.4056C7.60525 25.3894 7.52495 25.3655 7.28384 25.0433C7.03311 24.7083 7.16125 24.1746 7.54583 23.9522C7.72557 23.8484 7.82009 23.8373 8.53745 23.8363C9.18856 23.8353 9.36328 23.8516 9.51436 23.9274ZM16.4411 23.9536C16.7246 24.1461 16.837 24.337 16.837 24.6259C16.837 24.9024 16.7348 25.0868 16.4733 25.2818C16.3429 25.3791 16.2396 25.3921 15.4985 25.4056C14.7873 25.4185 14.6435 25.4072 14.4856 25.3265C13.9196 25.0369 13.9196 24.211 14.4856 23.9274C14.6365 23.8517 14.8134 23.8351 15.4679 23.8351C16.2089 23.835 16.2789 23.8435 16.4411 23.9536Z"
        fill="white" />
</svg>
    