<svg width="27" height="27" viewBox="0 0 27 27" fill="none" xmlns="http://www.w3.org/2000/svg">
    <path fill-rule="evenodd" clip-rule="evenodd"
        d="M6.50806 1.0257C4.79702 1.72005 3.82774 2.14632 3.58607 2.31077C2.82454 2.82903 2.22801 3.48846 1.85924 4.21961C1.63312 4.66802 0.000241089 9.26881 2.08582e-08 9.45817C-0.00018078 9.66528 1.17509 10.8025 1.73105 11.1331C2.31685 11.4815 2.95194 11.7203 3.5871 11.8312C4.25576 11.9479 4.57909 11.9476 4.74669 11.8301C4.81968 11.7789 5.07509 11.453 5.31417 11.1058C5.55331 10.7587 5.76786 10.4951 5.791 10.5202C5.94082 10.6826 5.98506 12.3723 6.01061 18.9058C6.03514 25.1644 6.04581 25.7479 6.13772 25.8615C6.20865 25.9492 6.47642 26.0466 7.05155 26.1939C9.68058 26.867 12.5365 27.1273 15.258 26.9418C17.4166 26.7946 20.5978 26.1799 20.8626 25.8588C20.9546 25.7472 20.9652 25.1677 20.9893 18.9055C21.0145 12.3675 21.0586 10.6832 21.209 10.5202C21.2321 10.4951 21.4467 10.7587 21.6858 11.1058C21.9249 11.453 22.1803 11.7789 22.2533 11.8301C22.4209 11.9476 22.7442 11.9479 23.4129 11.8312C24.0481 11.7203 24.6832 11.4815 25.269 11.1331C25.8244 10.8028 27.0002 9.66527 27 9.45842C26.9998 9.27985 25.3685 4.67134 25.1546 4.24483C24.9395 3.81627 24.4723 3.19189 24.1191 2.86118C23.5219 2.30208 23.0626 2.06295 20.9128 1.19195C18.3019 0.134072 17.9329 -0.0122197 17.916 0.0033445C17.9085 0.0102217 17.8586 0.312879 17.8051 0.675923C17.6896 1.45926 17.4759 2.04569 17.0991 2.613C16.8052 3.05562 16.2076 3.67819 15.8305 3.93469C15.1841 4.37435 14.2177 4.68401 13.4922 4.68401C12.6881 4.68401 11.6596 4.30968 10.9153 3.74623C10.4236 3.37396 9.86939 2.67713 9.57089 2.05565C9.3828 1.66413 9.31337 1.41673 9.2161 0.791207C9.14962 0.363433 9.08918 0.00744664 9.08182 8.68216e-05C9.07447 -0.00727299 7.91626 0.454224 6.50806 1.0257ZM10.1253 0.116999C10.1254 0.156996 10.1669 0.444933 10.2174 0.756941C10.5323 2.70023 12.4497 4.03568 14.2508 3.5661C15.1365 3.33517 16.0572 2.57264 16.477 1.72228C16.6674 1.33668 16.8734 0.507854 16.8747 0.122248C16.8748 0.083277 16.6016 0.155789 16.2271 0.294238C15.1764 0.682559 14.7649 0.770273 13.8241 0.806469C12.5744 0.854549 11.9198 0.734138 10.5318 0.200612C10.2609 0.0964884 10.1251 0.0685572 10.1253 0.116999Z"
        fill="white" />
</svg>
    