<svg width="25" height="25" viewBox="0 0 25 25" fill="none" xmlns="http://www.w3.org/2000/svg">
    <path fill-rule="evenodd" clip-rule="evenodd"
        d="M11.2337 0.0293954C9.57996 0.189016 8.07001 0.604439 6.71238 1.27327C4.24813 2.48728 2.75775 4.3149 2.23242 6.76697C2.14251 7.1866 2.12961 7.45184 2.11066 9.27403L2.08947 11.3118L1.8521 11.3907C1.03324 11.6629 0.258039 12.5596 0.0687329 13.4536C-0.139035 14.4346 0.125095 15.3089 0.849402 16.0378C1.28438 16.4756 1.64707 16.6853 2.20434 16.8216C2.50715 16.8956 2.53397 16.9129 2.564 17.054C2.62583 17.3448 2.98887 18.2844 3.24606 18.8192C5.61146 23.7387 10.7017 26.0945 15.544 24.5106C17.6896 23.8089 19.6624 22.2394 21.0146 20.1586C21.5526 19.3308 22.1498 18.053 22.3983 17.1984L22.486 16.8972L22.8044 16.8194C23.3528 16.6854 23.7175 16.4737 24.1506 16.0378C24.8749 15.3089 25.139 14.4346 24.9313 13.4536C24.742 12.5596 23.9668 11.6629 23.1479 11.3907L22.9106 11.3119L22.89 9.29847C22.871 7.44201 22.861 7.24706 22.7609 6.7964C22.5412 5.80671 22.1954 4.98808 21.6468 4.15934C21.2799 3.60516 20.318 2.6037 19.7531 2.18779C18.3166 1.13022 16.3703 0.37796 14.3552 0.101435C13.6824 0.00911295 11.8755 -0.032576 11.2337 0.0293954ZM9.02465 8.66775C10.98 10.2961 14.4625 11.2384 19.1545 11.4088C19.7387 11.43 20.2265 11.4572 20.2385 11.4692C20.2505 11.4812 20.49 12.2866 20.7707 13.2589L21.281 15.0267L21.2106 15.4323C20.7068 18.3377 18.9781 20.9325 16.631 22.3063C14.2125 23.7219 11.3147 23.8068 8.79295 22.536C6.36376 21.3119 4.45233 18.6884 3.85388 15.757C3.80089 15.4974 3.75772 15.2115 3.75796 15.1216C3.7584 14.9504 4.75905 11.3664 4.82083 11.3146C4.84042 11.2982 5.0982 11.1909 5.39368 11.0762C6.737 10.5549 7.87445 9.71482 8.46918 8.80499C8.60266 8.60075 8.719 8.43365 8.72774 8.43365C8.73644 8.43365 8.87006 8.53897 9.02465 8.66775ZM7.82131 12.5797C7.49813 12.6952 7.2467 12.8937 7.04274 13.1946C6.83468 13.5015 6.77001 13.7598 6.79693 14.1763C6.83356 14.7426 7.14448 15.2059 7.65691 15.4577C7.89037 15.5724 7.9942 15.5934 8.32412 15.5924C8.83485 15.5908 9.13962 15.4594 9.46875 15.099C10.0252 14.4897 10.0252 13.6185 9.46875 13.0092C9.05038 12.5511 8.3861 12.378 7.82131 12.5797ZM16.2363 12.5555C15.9155 12.6619 15.7537 12.7641 15.5419 12.994C15.2909 13.2665 15.2127 13.4179 15.1395 13.7731C14.9994 14.4533 15.3829 15.1796 16.0409 15.4805C16.4117 15.65 16.9717 15.6402 17.3431 15.4577C17.6468 15.3085 17.9054 15.0517 18.0778 14.7283C18.1718 14.5519 18.1896 14.4443 18.1896 14.0541C18.1896 13.534 18.1172 13.3375 17.7927 12.9781C17.4383 12.5855 16.7277 12.3926 16.2363 12.5555ZM9.65181 18.2779C9.18792 18.4465 8.99793 18.917 9.21175 19.3678C9.39652 19.7575 10.5273 20.461 11.3036 20.6693C12.2249 20.9166 13.2984 20.8514 14.2094 20.493C14.8462 20.2425 15.6432 19.6738 15.7893 19.3655C15.9497 19.0275 15.8678 18.6222 15.596 18.4083C15.2713 18.1527 14.8736 18.1836 14.5072 18.4929C13.8719 19.0288 13.2918 19.2468 12.5 19.2468C11.6992 19.2468 11.1684 19.0459 10.474 18.48C10.3237 18.3575 10.1631 18.2569 10.1171 18.2565C10.0712 18.2562 9.98959 18.2456 9.93587 18.233C9.88214 18.2205 9.75432 18.2407 9.65181 18.2779Z"
        fill="white" />
</svg>
    