<svg width="25" height="25" viewBox="0 0 25 25" fill="none" xmlns="http://www.w3.org/2000/svg">
    <path fill-rule="evenodd" clip-rule="evenodd"
        d="M2.44309 0.0748543C1.31458 0.315871 0.310745 1.32902 0.0741921 2.46563C-0.0127817 2.88368 -0.0281645 5.23866 0.05417 5.53516C0.127812 5.8004 0.460031 6.11824 0.747909 6.19882C1.21257 6.32893 1.69969 6.13523 1.94122 5.72426L2.07684 5.4936L2.10125 4.12237C2.12552 2.75905 2.12635 2.75011 2.24776 2.57097C2.3149 2.47188 2.45579 2.33069 2.56083 2.25729L2.75182 2.12376L4.12353 2.09934L5.49523 2.07492L5.72588 1.9393C6.13682 1.69775 6.33049 1.21059 6.2004 0.745891C6.11938 0.456476 5.81666 0.142495 5.5384 0.0593726C5.24672 -0.0278035 2.868 -0.015887 2.44309 0.0748543ZM19.446 0.0548795C19.2097 0.12296 18.8693 0.483874 18.8006 0.739249C18.6752 1.20487 18.873 1.70009 19.28 1.9393L19.5107 2.07492L20.8824 2.09934L22.2541 2.12376L22.4451 2.25729C22.5501 2.33069 22.691 2.47188 22.7581 2.57097C22.8795 2.75011 22.8804 2.75905 22.9046 4.12237L22.9291 5.4936L23.0647 5.72426C23.4111 6.31369 24.2063 6.41659 24.6884 5.93441C24.9973 5.62546 25.0156 5.504 24.9934 3.90235C24.976 2.64018 24.9647 2.4857 24.8686 2.19702C24.6075 1.41258 24.0067 0.707748 23.2953 0.351278C22.6707 0.0382745 22.4093 0.00042492 20.9024 0.00457617C20.1907 0.00652969 19.5353 0.0291418 19.446 0.0548795ZM11.3309 2.13172C7.57875 2.49913 4.71813 4.18395 3.65355 6.65345C3.22586 7.64555 3.12887 8.28494 3.12765 10.121L3.12677 11.4763H1.9528C0.893484 11.4763 0.761144 11.4854 0.597646 11.5695C-0.192199 11.9758 -0.192199 13.028 0.597646 13.4343C0.774475 13.5252 1.06182 13.5275 12.4781 13.5275C22.9446 13.5275 24.1966 13.5195 24.359 13.4516C25.1878 13.1054 25.2171 11.9856 24.4083 11.5695C24.2448 11.4854 24.1125 11.4763 23.0581 11.4763H21.8891L21.8655 9.90124C21.8468 8.66437 21.824 8.24758 21.759 7.95993C21.5752 7.14604 21.2727 6.43349 20.8202 5.74843C20.4991 5.2623 19.5138 4.28842 18.9735 3.92311C17.171 2.7044 14.9427 2.08601 12.43 2.10716C11.9195 2.11146 11.4249 2.12249 11.3309 2.13172ZM10.4763 10.4958C11.1025 10.8073 11.6949 11.0299 12.4297 11.23C12.752 11.3178 13.0706 11.4074 13.1378 11.4291C13.2049 11.4508 11.9115 11.4703 10.2635 11.4724L7.26699 11.4763L7.72408 11.177C8.21486 10.8556 8.82729 10.2727 9.05623 9.90891L9.19741 9.68465L9.59267 9.96879C9.81008 10.1251 10.2077 10.3622 10.4763 10.4958ZM3.29706 15.249C3.44786 16.0077 3.72885 16.8802 3.99309 17.4101C4.47308 18.373 5.24989 19.457 6.00697 20.2206C7.54095 21.7677 9.25635 22.6072 11.4006 22.8601C12.0978 22.9424 13.6082 22.8921 14.2854 22.764C16.4457 22.3556 18.2572 21.2341 19.7382 19.3881C20.8047 18.0586 21.3979 16.8127 21.709 15.248L21.7408 15.0884L20.677 15.1015L19.6131 15.1147L19.4839 15.5543C19.3039 16.1662 19.1447 16.5338 18.845 17.0301C18.0133 18.407 16.8471 19.5376 15.6325 20.1444C14.7128 20.6039 13.7187 20.8176 12.5029 20.817C10.9135 20.8163 9.61782 20.4227 8.43921 19.5828C7.46755 18.8903 6.49829 17.7345 5.92063 16.5799C5.73525 16.2092 5.42198 15.3192 5.42198 15.163C5.42198 15.1008 5.26576 15.0903 4.34377 15.0903H3.26551L3.29706 15.249ZM0.693655 18.8062C0.469408 18.8743 0.118094 19.2382 0.05417 19.4686C-0.0281645 19.7651 -0.0127817 22.1201 0.0741921 22.5381C0.291163 23.5806 1.14571 24.5179 2.19892 24.8685C2.48758 24.9646 2.64204 24.9759 3.90412 24.9934C5.50564 25.0155 5.62709 24.9973 5.93601 24.6883C6.41815 24.2061 6.31526 23.4109 5.72588 23.0645L5.49523 22.9288L4.12411 22.9044C2.76091 22.8801 2.75197 22.8793 2.57285 22.7579C2.47376 22.6907 2.33258 22.5498 2.25918 22.4448L2.12567 22.2538L2.10125 20.882L2.07684 19.5102L1.94122 19.2795C1.70071 18.8702 1.159 18.6647 0.693655 18.8062ZM23.4848 18.8896C23.2947 18.9889 23.1835 19.0909 23.0763 19.2642L22.9291 19.5022L22.9046 20.878L22.8802 22.2538L22.7467 22.4448C22.6733 22.5498 22.5321 22.6907 22.4331 22.7579C22.2539 22.8793 22.245 22.8801 20.8818 22.9044L19.5107 22.9288L19.28 23.0645C18.6912 23.4106 18.5851 24.2035 19.0636 24.682C19.3797 24.9981 19.4939 25.0156 21.1018 24.9934C22.3639 24.9759 22.5183 24.9646 22.807 24.8685C23.7556 24.5527 24.5528 23.7555 24.8686 22.8067C24.9647 22.518 24.976 22.3636 24.9934 21.1014C25.0156 19.5012 24.9971 19.3779 24.69 19.0712C24.3496 18.7313 23.9136 18.6656 23.4848 18.8896Z"
        fill="white" />
</svg>
    