<svg width="30" height="25" viewBox="0 0 30 25" fill="none" xmlns="http://www.w3.org/2000/svg">
    <path fill-rule="evenodd" clip-rule="evenodd"
        d="M12.5704 0.0745024C10.548 0.286019 8.96118 0.812054 7.74059 1.67577C6.9189 2.25714 6.31728 3.17374 6.11644 4.15021C6.06537 4.39852 6.00543 4.61957 5.98328 4.64154C5.96112 4.66351 5.64424 4.76733 5.27913 4.87227C2.25797 5.74038 0.487213 7.8586 0.0502314 11.1271C-0.0411005 11.8102 -0.000692232 13.7516 0.113473 14.1641L0.17063 14.3708L0.518833 13.9602C0.90076 13.5097 0.957467 13.5278 0.957467 14.1003C0.957467 14.7132 1.18527 16.7996 1.37687 17.9418C1.71479 19.9559 2.26766 21.8357 2.94476 23.2725C3.28185 23.9878 3.94273 25.0609 4.00695 24.9973C4.02738 24.977 3.9564 24.6176 3.84929 24.1987C3.32218 22.1365 3.12247 20.6606 3.11864 18.7983C3.11458 16.811 3.40781 15.4064 4.09813 14.1062C4.50049 13.3484 5.54014 12.3334 6.30369 11.9531L6.88045 11.6657L7.37939 11.9782C8.63633 12.7653 10.1169 13.3643 11.7443 13.744C12.5734 13.9374 12.7515 13.9524 14.2517 13.9547C15.6756 13.957 15.9597 13.9367 16.6551 13.7831C17.6024 13.5739 18.6167 13.2082 19.5888 12.7255C20.6665 12.1903 21.2567 12.0337 22.054 12.0715C22.6124 12.0979 22.7941 12.142 23.2708 12.3665C24.7436 13.06 25.7597 14.8074 26.3765 17.7072C26.6118 18.8137 26.841 20.5689 26.9029 21.7402C26.9817 23.2267 27.0351 23.7661 27.0972 23.7018C27.2321 23.5618 27.9974 21.9517 28.2566 21.2622C28.9366 19.453 29.2237 17.8656 29.2309 15.8752C29.2336 15.1278 29.2527 14.5162 29.2734 14.5164C29.294 14.5164 29.4404 14.8624 29.5987 15.2851C29.9844 16.3149 30.0363 16.3773 29.9819 15.7447C29.7972 13.6008 29.4992 11.9962 29.0136 10.5301C27.5085 5.98683 24.5443 3.13128 20.373 2.20627L19.5468 2.02306L19.9598 1.9001C20.7889 1.65343 21.5205 1.54573 22.2033 1.56994C22.5768 1.58319 22.8585 1.57135 22.8294 1.54372C22.5904 1.31656 20.2768 0.605751 19.0962 0.396767C18.0269 0.207445 16.0181 0.205434 15.153 0.39282C14.4329 0.548776 13.6389 0.817044 13.0988 1.08688C12.8984 1.18697 12.7249 1.25825 12.7132 1.24522C12.7015 1.23226 12.6679 1.11004 12.6383 0.97367C12.5894 0.747258 12.6146 0.697358 12.93 0.397735C13.2646 0.0797906 13.3362 -0.0179984 13.2189 0.00263183C13.188 0.00806869 12.8961 0.0403917 12.5704 0.0745024Z"
        fill="white" />
</svg>
    