<svg width="24" height="25" viewBox="0 0 24 25" fill="none" xmlns="http://www.w3.org/2000/svg">
    <path fill-rule="evenodd" clip-rule="evenodd"
        d="M16.0293 0.0147036C13.5877 0.267846 11.3813 1.56995 10.0244 3.55831C9.6887 4.05031 9.62185 4.22848 9.673 4.49517C9.69195 4.59401 10.344 5.58022 11.3474 7.02786L12.9909 9.39868L14.1725 9.41179C14.8225 9.41902 15.3542 9.40963 15.3542 9.391C15.3542 9.37237 15.2417 9.02156 15.1042 8.61147C14.9667 8.20134 14.8547 7.82554 14.8553 7.77634C14.8575 7.59797 15.0509 7.27167 15.2138 7.17175C15.3453 7.09105 15.4397 7.07403 15.674 7.08875C16.1174 7.11668 16.2234 7.25372 16.5556 8.22877L16.8208 9.00688L17.0811 8.24487C17.2242 7.82578 17.3793 7.42611 17.4258 7.35681C17.6065 7.08714 18.14 6.98629 18.4224 7.16842C18.8223 7.42626 18.8439 7.72371 18.5295 8.64062C18.4057 9.00151 18.3045 9.32522 18.3045 9.35994C18.3045 9.40978 18.5516 9.42313 19.4739 9.42313H20.6433L22.2958 7.03608C23.2046 5.72322 23.9634 4.58966 23.9821 4.51708C24.0433 4.27846 23.9547 4.04821 23.6064 3.54109C23.0438 2.7219 22.2546 1.92951 21.4794 1.40537C20.5949 0.807339 19.3093 0.289952 18.2545 0.107578C17.7968 0.0284954 16.442 -0.0280899 16.0293 0.0147036ZM5.55341 0.258798C3.98708 0.85248 2.66027 1.39236 2.47906 1.50979C2.19873 1.69138 1.88621 2.08254 1.73699 2.43853C1.63054 2.69256 1.62774 2.75692 1.61348 5.27866L1.59893 7.85894L4.36371 7.84627L7.12854 7.83366V4.50798C7.12854 1.23855 7.12679 1.17859 7.02413 0.961689C6.90522 0.710454 6.66595 0.458339 6.43608 0.342087C6.27737 0.261831 5.69132 0.206517 5.55341 0.258798ZM0.803017 12.8955V16.4657H4.37831H7.95361V12.8955V9.32532H4.37831H0.803017V12.8955ZM13.6657 17.3827L13.6791 23.8751L13.8181 24.152C13.9782 24.4708 14.2663 24.7454 14.5981 24.8955C14.8219 24.9967 14.8918 25 16.8293 25H18.8295L19.1136 24.8635C19.448 24.703 19.67 24.4718 19.8495 24.0975L19.9796 23.8262L19.9932 17.3583L20.0068 10.8903H16.8295H13.6523L13.6657 17.3827ZM0.0139511 20.9038C0.0277023 23.821 0.0299024 23.8792 0.134811 24.1012C0.288224 24.4257 0.569047 24.7075 0.894974 24.864L1.17805 25H4.37831H7.57858L7.8627 24.8635C8.19703 24.703 8.4191 24.4718 8.59861 24.0975L8.72867 23.8262V20.8918V17.9574L4.36431 17.9449L0 17.9324L0.0139511 20.9038Z"
        fill="white" />
</svg>
    