<svg width="26" height="32" viewBox="0 0 26 32" fill="none" xmlns="http://www.w3.org/2000/svg">
    <path fill-rule="evenodd" clip-rule="evenodd"
        d="M12.2802 0.0658325C12.1079 0.0981541 11.7396 0.233942 11.4618 0.367542C9.30863 1.40314 8.83352 4.27989 10.5376 5.96361C12.2467 7.65227 15.095 7.17382 16.1384 5.02291C17.4056 2.41036 15.1604 -0.474319 12.2802 0.0658325ZM1.18197 8.06345C0.811807 8.17048 0.395848 8.51007 0.193225 8.87061C0.0251869 9.1697 0 9.27554 0 9.68334C0 10.0911 0.0251869 10.197 0.193225 10.4961C0.403241 10.8697 0.813562 11.1967 1.21066 11.3067C1.3542 11.3466 2.71605 11.3709 4.82436 11.3713C6.85547 11.3718 8.29664 11.3967 8.43022 11.4337C8.72889 11.5165 9.03809 11.8286 9.23563 12.2466C9.3954 12.5847 9.39803 12.6127 9.39283 13.9345C9.38807 15.1481 9.36865 15.385 9.19284 16.3727C7.5124 25.8163 6.78461 30.035 6.78474 30.3314C6.78524 31.5425 8.14251 32.374 9.2221 31.8244C9.51175 31.6769 9.90766 31.2596 10.026 30.9769C10.0718 30.8677 10.4629 28.762 10.8953 26.2976C11.5248 22.7095 11.7195 21.7185 11.8722 21.3234C12.4896 19.7257 13.2866 19.5666 13.9587 20.9068C14.2488 21.4851 14.3736 22.0709 15.1306 26.4068C15.5448 28.7793 15.9154 30.8166 15.9541 30.934C15.9929 31.0515 16.1408 31.2738 16.2826 31.428C17.2744 32.5061 19.0108 31.9783 19.2363 30.5303C19.264 30.3523 18.9556 28.4759 18.1373 23.8436C16.6788 15.5882 16.72 15.8282 16.6326 15.073C16.5482 14.3435 16.5826 12.7711 16.6904 12.4267C16.7869 12.1188 16.9947 11.8272 17.2826 11.5959L17.5233 11.4026L21.1671 11.3713C24.7777 11.3404 24.8134 11.3388 25.07 11.2018C25.4007 11.0253 25.6874 10.7388 25.8614 10.4107C25.9666 10.2123 25.9988 10.0433 26 9.68334C26.0012 9.27404 25.9768 9.17076 25.8082 8.87061C25.5982 8.49695 25.1878 8.16998 24.7907 8.05995C24.4948 7.97793 1.46585 7.98136 1.18197 8.06345Z"
        fill="white" />
</svg>
    