<svg width="26" height="33" viewBox="0 0 26 33" fill="none" xmlns="http://www.w3.org/2000/svg">
    <path fill-rule="evenodd" clip-rule="evenodd"
        d="M15.6396 0.147888C15.4609 0.229198 15.2565 0.364286 15.1854 0.448011C15.0623 0.59292 12.4377 5.06707 12.1587 5.60766C12.0855 5.74943 12.0256 6.01381 12.0256 6.19535C12.0256 6.37689 12.0855 6.64127 12.1587 6.78304C12.4377 7.32363 15.0623 11.7978 15.1854 11.9427C15.2565 12.0264 15.4609 12.1615 15.6396 12.2428C15.9365 12.378 16.2267 12.3907 19.0099 12.3907C21.8065 12.3907 22.0826 12.3785 22.3883 12.2409C22.5713 12.1584 22.7945 11.9871 22.8841 11.8603C22.9738 11.7333 23.7011 10.5064 24.5004 9.13379C25.9025 6.7258 25.9536 6.62259 25.9536 6.19535C25.9536 5.76811 25.9025 5.6649 24.5004 3.25691C23.7011 1.8843 22.9738 0.657405 22.8841 0.530448C22.7945 0.403572 22.5713 0.232257 22.3883 0.14982C22.0826 0.0122368 21.8065 0 19.0099 0C16.2267 0 15.9365 0.0127199 15.6396 0.147888ZM3.52806 7.07285C3.16341 7.29537 3.02974 7.49688 1.46656 10.1804C-0.0672176 12.8134 -0.158906 13.0484 0.129804 13.6086C0.499808 14.3264 3.05101 18.6562 3.20345 18.8249C3.56468 19.2247 3.67919 19.2372 6.99047 19.2372C10.3013 19.2372 10.4125 19.2251 10.7805 18.8249C10.8774 18.7195 11.6254 17.4922 12.4429 16.0975C13.9165 13.5833 13.9293 13.5575 13.9317 13.0785C13.9341 12.5964 13.9313 12.5906 12.3911 9.95148C11.3527 8.17215 10.7684 7.25069 10.6044 7.1338C10.3657 6.96369 10.2939 6.95975 7.07168 6.93881C3.94403 6.91861 3.77007 6.92521 3.52806 7.07285ZM15.6396 13.8765C15.5056 13.9355 15.3167 14.07 15.2199 14.1753C15.123 14.2805 14.375 15.5078 13.5575 16.9025C12.0839 19.4167 12.0711 19.4425 12.0687 19.9215C12.0662 20.4036 12.0691 20.4094 13.6093 23.0485C14.6477 24.8278 15.232 25.7493 15.396 25.8662C15.6344 26.0361 15.7087 26.0403 18.885 26.0626C21.1209 26.0784 22.1979 26.0578 22.3473 25.9965C22.4666 25.9474 22.6572 25.8104 22.771 25.6918C22.8848 25.5733 23.6441 24.3352 24.4584 22.9404C26.0715 20.1776 26.1605 19.954 25.8706 19.3914C25.5006 18.6736 22.9494 14.3438 22.7969 14.1751C22.435 13.7746 22.3239 13.7626 18.9922 13.766C16.5829 13.7684 15.8284 13.7933 15.6396 13.8765ZM3.61211 20.7591C3.42906 20.8416 3.20589 21.0129 3.11623 21.1397C3.02657 21.2667 2.29923 22.4936 1.50002 23.8662C0.0978868 26.2742 0.0468044 26.3774 0.0468044 26.8047C0.0468044 27.2319 0.0978868 27.3351 1.50002 29.7431C2.29923 31.1157 3.02657 32.3426 3.11623 32.4696C3.20589 32.5964 3.42906 32.7677 3.61211 32.8502C3.91779 32.9878 4.19392 33 6.99047 33C9.7737 33 10.0639 32.9873 10.3608 32.8521C10.5394 32.7708 10.744 32.6357 10.8153 32.552C10.9363 32.41 13.5452 27.9608 13.8407 27.3923C14.0118 27.0635 14.0122 26.5472 13.8417 26.217C13.5627 25.6764 10.938 21.2022 10.8149 21.0573C10.7439 20.9736 10.5394 20.8385 10.3608 20.7572C10.0639 20.622 9.7737 20.6093 6.99047 20.6093C4.19392 20.6093 3.91779 20.6215 3.61211 20.7591Z"
        fill="white" />
</svg>
    