<svg width="17" height="21" viewBox="0 0 17 21" fill="none" xmlns="http://www.w3.org/2000/svg">
    <path fill-rule="evenodd" clip-rule="evenodd"
        d="M7.92981 0.0602049C7.31459 0.226235 6.72585 0.695977 6.46722 1.22713C6.00778 2.17064 6.16666 3.19361 6.88433 3.91287C7.79124 4.82179 9.20855 4.822 10.1136 3.91336C10.56 3.46524 10.7874 2.91817 10.7874 2.29236C10.7874 1.23801 10.0795 0.32724 9.05085 0.0582356C8.7509 -0.0202052 8.22424 -0.0192616 7.92981 0.0602049ZM0.696015 5.31685C0.449314 5.4046 0.153535 5.70839 0.0672291 5.96263C-0.0788623 6.39307 0.0159847 6.82601 0.324064 7.13534C0.655354 7.4679 0.600923 7.46154 3.12232 7.46182C4.60089 7.46195 5.38602 7.47696 5.49541 7.50712C5.70779 7.5657 5.97329 7.84221 6.06715 8.1026C6.16372 8.37033 6.19391 9.20336 6.12976 9.82818C6.10254 10.0933 5.70501 12.4504 5.24638 15.0662C4.78776 17.682 4.4125 19.8624 4.4125 19.9114C4.4125 20.113 4.54175 20.4217 4.70333 20.606C4.92576 20.8597 5.14259 20.9664 5.4854 20.9912C5.73394 21.0091 5.78743 20.9982 6.02224 20.8822C6.27752 20.756 6.41806 20.6167 6.55054 20.3584C6.58736 20.2866 6.84252 18.9329 7.12747 17.2976C7.71425 13.9303 7.76198 13.7471 8.16449 13.3198C8.53657 12.9248 8.93104 13.1845 9.23724 14.0261C9.33637 14.2986 9.47499 15.0125 9.8744 17.3077C10.432 20.5118 10.4293 20.5017 10.7511 20.7575C10.9781 20.938 11.1626 21 11.4728 21C12.0487 21 12.5053 20.5938 12.5713 20.0229C12.5878 19.8802 12.3812 18.622 11.7684 15.1333C11.3146 12.5498 10.9159 10.2052 10.8824 9.92311C10.8073 9.28959 10.8285 8.43893 10.9272 8.12689C11.0144 7.85103 11.2756 7.56972 11.5025 7.50712C11.6119 7.47696 12.3971 7.46195 13.8756 7.46182C16.397 7.46154 16.3426 7.4679 16.6739 7.13534C17.1935 6.61366 17.0767 5.75881 16.4339 5.37949L16.2428 5.26671L8.56027 5.25949C1.66046 5.25297 0.859188 5.25884 0.696015 5.31685Z"
        fill="black" />
    <path fill-rule="evenodd" clip-rule="evenodd"
        d="M7.92981 0.0602049C7.31459 0.226235 6.72585 0.695977 6.46722 1.22713C6.00778 2.17064 6.16666 3.19361 6.88433 3.91287C7.79124 4.82179 9.20855 4.822 10.1136 3.91336C10.56 3.46524 10.7874 2.91817 10.7874 2.29236C10.7874 1.23801 10.0795 0.32724 9.05085 0.0582356C8.7509 -0.0202052 8.22424 -0.0192616 7.92981 0.0602049ZM0.696015 5.31685C0.449314 5.4046 0.153535 5.70839 0.0672291 5.96263C-0.0788623 6.39307 0.0159847 6.82601 0.324064 7.13534C0.655354 7.4679 0.600923 7.46154 3.12232 7.46182C4.60089 7.46195 5.38602 7.47696 5.49541 7.50712C5.70779 7.5657 5.97329 7.84221 6.06715 8.1026C6.16372 8.37033 6.19391 9.20336 6.12976 9.82818C6.10254 10.0933 5.70501 12.4504 5.24638 15.0662C4.78776 17.682 4.4125 19.8624 4.4125 19.9114C4.4125 20.113 4.54175 20.4217 4.70333 20.606C4.92576 20.8597 5.14259 20.9664 5.4854 20.9912C5.73394 21.0091 5.78743 20.9982 6.02224 20.8822C6.27752 20.756 6.41806 20.6167 6.55054 20.3584C6.58736 20.2866 6.84252 18.9329 7.12747 17.2976C7.71425 13.9303 7.76198 13.7471 8.16449 13.3198C8.53657 12.9248 8.93104 13.1845 9.23724 14.0261C9.33637 14.2986 9.47499 15.0125 9.8744 17.3077C10.432 20.5118 10.4293 20.5017 10.7511 20.7575C10.9781 20.938 11.1626 21 11.4728 21C12.0487 21 12.5053 20.5938 12.5713 20.0229C12.5878 19.8802 12.3812 18.622 11.7684 15.1333C11.3146 12.5498 10.9159 10.2052 10.8824 9.92311C10.8073 9.28959 10.8285 8.43893 10.9272 8.12689C11.0144 7.85103 11.2756 7.56972 11.5025 7.50712C11.6119 7.47696 12.3971 7.46195 13.8756 7.46182C16.397 7.46154 16.3426 7.4679 16.6739 7.13534C17.1935 6.61366 17.0767 5.75881 16.4339 5.37949L16.2428 5.26671L8.56027 5.25949C1.66046 5.25297 0.859188 5.25884 0.696015 5.31685Z"
        fill="#F86969" />
</svg>
    