<svg width="15" height="19" viewBox="0 0 15 19" fill="none" xmlns="http://www.w3.org/2000/svg">
    <path fill-rule="evenodd" clip-rule="evenodd"
        d="M7.36961 0.077376C5.19663 0.428999 3.34901 1.86445 2.36482 3.96557C1.86772 5.0269 1.66704 6.01382 1.66676 7.39878L1.66659 8.16856L0.833293 9.95258C0.131834 11.4543 0 11.7619 0 11.8968C0 12.0852 0.100551 12.2663 0.275056 12.392C0.386301 12.4722 0.424146 12.4764 1.02832 12.4764H1.66443L1.67419 14.0635L1.68395 15.6507L1.78703 15.8682C1.96327 16.2401 2.29926 16.4813 2.68439 16.5122C2.83945 16.5247 3.16467 16.482 3.85398 16.3587C4.37913 16.2648 4.85178 16.1785 4.90428 16.167L4.99976 16.146V17.3574C4.99976 18.6977 5 18.6993 5.22412 18.8821C5.29027 18.936 5.40491 18.9888 5.4789 18.9995C5.56588 19.0119 6.81405 18.8048 9.0088 18.4138C12.6286 17.7687 12.518 17.7947 12.6872 17.5507C12.7583 17.4481 12.7602 17.4025 12.7795 15.3046C12.8014 12.9152 12.7969 12.9629 13.0555 12.3836C13.1284 12.2202 13.335 11.8777 13.5145 11.6225C13.9234 11.0412 14.0465 10.8349 14.2835 10.3335C15.5827 7.58564 15.084 4.28374 13.0394 2.0976C11.5442 0.498722 9.42715 -0.255609 7.36961 0.077376Z"
        fill="black" />
    <path fill-rule="evenodd" clip-rule="evenodd"
        d="M7.36961 0.077376C5.19663 0.428999 3.34901 1.86445 2.36482 3.96557C1.86772 5.0269 1.66704 6.01382 1.66676 7.39878L1.66659 8.16856L0.833293 9.95258C0.131834 11.4543 0 11.7619 0 11.8968C0 12.0852 0.100551 12.2663 0.275056 12.392C0.386301 12.4722 0.424146 12.4764 1.02832 12.4764H1.66443L1.67419 14.0635L1.68395 15.6507L1.78703 15.8682C1.96327 16.2401 2.29926 16.4813 2.68439 16.5122C2.83945 16.5247 3.16467 16.482 3.85398 16.3587C4.37913 16.2648 4.85178 16.1785 4.90428 16.167L4.99976 16.146V17.3574C4.99976 18.6977 5 18.6993 5.22412 18.8821C5.29027 18.936 5.40491 18.9888 5.4789 18.9995C5.56588 19.0119 6.81405 18.8048 9.0088 18.4138C12.6286 17.7687 12.518 17.7947 12.6872 17.5507C12.7583 17.4481 12.7602 17.4025 12.7795 15.3046C12.8014 12.9152 12.7969 12.9629 13.0555 12.3836C13.1284 12.2202 13.335 11.8777 13.5145 11.6225C13.9234 11.0412 14.0465 10.8349 14.2835 10.3335C15.5827 7.58564 15.084 4.28374 13.0394 2.0976C11.5442 0.498722 9.42715 -0.255609 7.36961 0.077376Z"
        fill="#F86969" />
</svg>
    