<svg width="40" height="988" viewBox="0 0 40 988" fill="none" xmlns="http://www.w3.org/2000/svg">
    <path fill-rule="evenodd" clip-rule="evenodd"
        d="M0.199872 32.7386C0.363577 32.886 2.33094 33.0669 12.4954 33.8696C19.1507 34.3951 24.6124 34.8414 24.6325 34.8615C24.6527 34.8815 23.9066 35.149 22.9745 35.4559C21.1459 36.0579 20.9253 36.2155 21.0758 36.8117C21.1382 37.0587 21.4426 37.2387 23.3424 38.153L25.537 39.209L25.537 83.4307C25.537 116.544 25.568 122.157 25.6603 122.332C25.7281 122.46 25.8368 122.6 25.9017 122.643C26.1305 122.795 26.5788 122.722 26.7808 122.5C26.981 122.28 26.9859 126.919 27.0156 83.4395C27.0323 59.0251 27.0179 38.8928 26.9836 38.7012C26.9248 38.3734 26.8238 38.304 25.2903 37.5395L23.6596 36.7264L26.2692 35.8546C27.7045 35.3751 28.9227 34.9138 28.9764 34.8295C29.1424 34.5685 29.0872 34.1318 28.8626 33.9296C28.6741 33.76 27.6149 33.655 20.169 33.0672C15.5056 32.6992 11.6396 32.3813 11.578 32.3609C11.4673 32.3242 13.3583 32.2141 30.6326 31.2516C38.3211 30.8231 39.4632 30.7379 39.6976 30.5749C40.0428 30.3349 40.1071 29.8281 39.8245 29.5739C39.6704 29.4352 38.1104 29.137 33.5704 28.3782C30.2435 27.8221 27.4159 27.3435 27.2868 27.3146C27.0565 27.263 27.0512 27.221 27.0186 25.2227L26.9852 23.1833L26.2918 22.5829C25.9104 22.2528 25.4276 21.8289 25.219 21.6408L24.8397 21.2991L25.4297 20.7886C25.7542 20.5077 26.2369 20.0767 26.5025 19.8308L26.9852 19.3836V10.0541C26.9852 1.0294 26.9786 0.717283 26.7808 0.500105C26.5788 0.278127 26.1305 0.205275 25.9017 0.357172C25.5473 0.592591 25.537 0.859694 25.537 9.85722L25.537 18.8129L24.3301 19.8692C23.3247 20.749 23.1176 20.9823 23.0896 21.2662C23.0521 21.6481 23.06 21.6569 24.5983 22.969L25.537 23.7696V25.8836C25.537 27.9247 25.5453 28.0069 25.7783 28.268C26.0018 28.5183 26.2681 28.5796 29.37 29.0939C31.2126 29.3994 32.7035 29.666 32.6831 29.6863C32.6628 29.7066 28.862 29.9373 24.2372 30.1991C19.6124 30.4609 12.3767 30.8702 8.15803 31.1087C2.17678 31.4468 0.434595 31.5767 0.246323 31.6984C-0.0575938 31.8949 -0.0838765 32.4833 0.199872 32.7386Z"
        fill="url(#paint0_radial_3525_579)" />
    <path fill-rule="evenodd" clip-rule="evenodd"
        d="M0.197992 154.381C0.361697 154.529 2.32906 154.71 12.4935 155.512C19.1489 156.038 24.6106 156.484 24.6306 156.504C24.6508 156.524 23.9047 156.792 22.9727 157.099C21.144 157.701 20.9234 157.858 21.074 158.455C21.1363 158.701 21.4407 158.882 23.3405 159.796L25.5351 160.852L25.5351 205.074C25.5351 238.187 25.5661 250.157 25.6585 250.332C25.8998 250.5 25.8349 250.457 25.8998 250.5C26.1287 250.652 26.577 250.722 26.779 250.5C26.9791 250.28 26.984 249.222 27.0137 205.082C27.0304 180.668 27.016 160.536 26.9817 160.344C26.9229 160.016 26.8219 159.947 25.2885 159.182L23.6577 158.369L26.2674 157.497C27.7026 157.018 28.9209 156.557 28.9745 156.472C29.1406 156.211 29.0853 155.775 28.8607 155.572C28.6722 155.403 27.613 155.298 20.1671 154.71C15.5037 154.342 11.6377 154.024 11.5762 154.004C11.4654 153.967 13.3564 153.857 30.6308 152.894C38.3192 152.466 39.4613 152.381 39.6957 152.218C40.0409 151.978 40.1052 151.471 39.8226 151.217C39.6686 151.078 38.1085 150.78 33.5686 150.021C30.2417 149.465 27.414 148.986 27.2849 148.957C27.0547 148.906 27.0493 148.864 27.0167 146.865L26.9833 144.826L26.2899 144.226C25.9085 143.896 25.4258 143.472 25.2171 143.284L24.8378 142.942L25.4278 142.431C25.7523 142.151 26.2351 141.72 26.5006 141.474L26.9833 141.026V131.697C26.9833 122.672 26.9767 122.36 26.779 122.143C26.577 121.921 26.1286 121.848 25.8998 122C25.5454 122.235 25.5351 122.503 25.5351 131.5L25.5351 140.456L24.3282 141.512C23.3228 142.392 23.1158 142.625 23.0878 142.909C23.0502 143.291 23.0582 143.3 24.5964 144.612L25.5351 145.412V147.526C25.5351 149.568 25.5435 149.65 25.7765 149.911C25.9999 150.161 26.2662 150.222 29.3681 150.737C31.2107 151.042 32.7016 151.309 32.6813 151.329C32.6609 151.349 28.8601 151.58 24.2353 151.842C19.6105 152.104 12.3748 152.513 8.15615 152.751C2.1749 153.09 0.432715 153.22 0.244443 153.341C-0.0594738 153.538 -0.0857566 154.126 0.197992 154.381Z"
        fill="url(#paint1_radial_3525_579)" />
    <path fill-rule="evenodd" clip-rule="evenodd"
        d="M0.199872 282.461C0.363577 282.609 2.33094 282.79 12.4954 283.592C19.1507 284.118 24.6124 284.564 24.6325 284.584C24.6527 284.604 23.9066 284.872 22.9745 285.179C21.1459 285.781 20.9253 285.938 21.0758 286.534C21.1382 286.781 21.4426 286.961 23.3424 287.876L25.537 288.932L25.537 333.153C25.537 366.267 25.568 377.434 25.6603 377.608C25.7281 377.736 25.8368 377.876 25.9017 377.92C26.1305 378.071 26.5788 377.999 26.7808 377.777C26.981 377.557 26.9859 376.642 27.0156 333.162C27.0323 308.748 27.0179 288.616 26.9836 288.424C26.9248 288.096 26.8238 288.027 25.2903 287.262L23.6596 286.449L26.2692 285.577C27.7045 285.098 28.9227 284.637 28.9764 284.552C29.1424 284.291 29.0872 283.855 28.8626 283.652C28.6741 283.483 27.6149 283.378 20.169 282.79C15.5056 282.422 11.6396 282.104 11.578 282.084C11.4673 282.047 13.3583 281.937 30.6326 280.974C38.3211 280.546 39.4632 280.461 39.6976 280.298C40.0428 280.058 40.1071 279.551 39.8245 279.297C39.6704 279.158 38.1104 278.86 33.5704 278.101C30.2435 277.545 27.4159 277.066 27.2868 277.037C27.0565 276.986 27.0512 276.944 27.0186 274.945L26.9852 272.906L26.2918 272.306C25.9104 271.976 25.4276 271.552 25.219 271.364L24.8397 271.022L25.4297 270.511C25.7542 270.23 26.2369 269.799 26.5025 269.554L26.9852 269.106V259.777C26.9852 250.752 26.9786 250.44 26.7808 250.223C26.5788 250.001 26.1305 249.928 25.9017 250.08C25.5473 250.316 25.537 250.583 25.537 259.58L25.537 268.536L24.3301 269.592C23.3247 270.472 23.1176 270.705 23.0896 270.989C23.0521 271.371 23.06 271.38 24.5983 272.692L25.537 273.492V275.606C25.537 277.647 25.5453 277.73 25.7783 277.991C26.0018 278.241 26.2681 278.302 29.37 278.817C31.2126 279.122 32.7035 279.389 32.6831 279.409C32.6628 279.429 28.862 279.66 24.2372 279.922C19.6124 280.184 12.3767 280.593 8.15803 280.831C2.17678 281.17 0.434595 281.299 0.246323 281.421C-0.0575938 281.618 -0.0838765 282.206 0.199872 282.461Z"
        fill="url(#paint2_radial_3525_579)" />
    <path fill-rule="evenodd" clip-rule="evenodd"
        d="M0.199872 409.542C0.363577 409.689 2.33094 409.87 12.4954 410.673C19.1507 411.198 24.6124 411.644 24.6325 411.664C24.6527 411.684 23.9066 411.952 22.9745 412.259C21.1459 412.861 20.9253 413.018 21.0758 413.615C21.1382 413.862 21.4426 414.042 23.3424 414.956L25.537 416.012L25.537 460.234C25.537 493.347 25.568 504.514 25.6603 504.688C25.7281 504.816 25.8368 504.957 25.9017 505C26.1305 505.152 26.5788 505.079 26.7808 504.857C26.981 504.637 26.9859 503.722 27.0156 460.242C27.0323 435.828 27.0179 415.696 26.9836 415.504C26.9248 415.176 26.8238 415.107 25.2903 414.342L23.6596 413.529L26.2692 412.658C27.7045 412.178 28.9227 411.717 28.9764 411.632C29.1424 411.371 29.0872 410.935 28.8626 410.733C28.6741 410.563 27.6149 410.458 20.169 409.87C15.5056 409.502 11.6396 409.184 11.578 409.164C11.4673 409.127 13.3583 409.017 30.6326 408.055C38.3211 407.626 39.4632 407.541 39.6976 407.378C40.0428 407.138 40.1071 406.631 39.8245 406.377C39.6704 406.238 38.1104 405.94 33.5704 405.181C30.2435 404.625 27.4159 404.146 27.2868 404.118C27.0565 404.066 27.0512 404.024 27.0186 402.026L26.9852 399.986L26.2918 399.386C25.9104 399.056 25.4276 398.632 25.219 398.444L24.8397 398.102L25.4297 397.591C25.7542 397.311 26.2369 396.88 26.5025 396.634L26.9852 396.187V386.857C26.9852 377.832 26.9786 377.52 26.7808 377.303C26.5788 377.081 26.1305 377.008 25.9017 377.16C25.5473 377.396 25.537 377.663 25.537 386.66L25.537 395.616L24.3301 396.672C23.3247 397.552 23.1176 397.785 23.0896 398.069C23.0521 398.451 23.06 398.46 24.5983 399.772L25.537 400.573V402.687C25.537 404.728 25.5453 404.81 25.7783 405.071C26.0018 405.321 26.2681 405.383 29.37 405.897C31.2126 406.202 32.7035 406.469 32.6831 406.489C32.6628 406.51 28.862 406.74 24.2372 407.002C19.6124 407.264 12.3767 407.673 8.15803 407.912C2.17678 408.25 0.434595 408.38 0.246323 408.501C-0.0575938 408.698 -0.0838765 409.286 0.199872 409.542Z"
        fill="url(#paint3_radial_3525_579)" />
    <path fill-rule="evenodd" clip-rule="evenodd"
        d="M0.199872 526.462C0.363577 526.609 2.33094 526.79 12.4954 527.593C19.1507 528.119 24.6124 528.565 24.6325 528.585C24.6527 528.605 23.9066 528.872 22.9745 529.179C21.1459 529.781 20.9253 529.939 21.0758 530.535C21.1382 530.782 21.4426 530.962 23.3424 531.876L25.537 532.932L25.537 577.154C25.537 610.268 25.568 621.434 25.6603 621.609C25.7281 621.737 25.8368 621.877 25.9017 621.92C26.1305 622.072 26.5788 621.999 26.7808 621.777C26.981 621.557 26.9859 620.643 27.0156 577.163C27.0323 552.748 27.0179 532.616 26.9836 532.425C26.9248 532.097 26.8238 532.027 25.2903 531.263L23.6596 530.45L26.2692 529.578C27.7045 529.099 28.9227 528.637 28.9764 528.553C29.1424 528.292 29.0872 527.855 28.8626 527.653C28.6741 527.483 27.6149 527.378 20.169 526.791C15.5056 526.423 11.6396 526.105 11.578 526.084C11.4673 526.048 13.3583 525.937 30.6326 524.975C38.3211 524.547 39.4632 524.461 39.6976 524.298C40.0428 524.058 40.1071 523.552 39.8245 523.297C39.6704 523.159 38.1104 522.86 33.5704 522.102C30.2435 521.545 27.4159 521.067 27.2868 521.038C27.0565 520.986 27.0512 520.944 27.0186 518.946L26.9852 516.906L26.2918 516.306C25.9104 515.976 25.4276 515.552 25.219 515.364L24.8397 515.022L25.4297 514.511C25.7542 514.231 26.2369 513.8 26.5025 513.554L26.9852 513.106V503.777C26.9852 494.752 26.9786 494.44 26.7808 494.223C26.5788 494.001 26.1305 493.928 25.9017 494.08C25.5473 494.315 25.537 494.582 25.537 503.58L25.537 512.536L24.3301 513.592C23.3247 514.472 23.1176 514.705 23.0896 514.989C23.0521 515.371 23.06 515.38 24.5983 516.692L25.537 517.493V519.607C25.537 521.648 25.5453 521.73 25.7783 521.991C26.0018 522.242 26.2681 522.303 29.37 522.817C31.2126 523.123 32.7035 523.389 32.6831 523.41C32.6628 523.43 28.862 523.661 24.2372 523.922C19.6124 524.184 12.3767 524.594 8.15803 524.832C2.17678 525.17 0.434595 525.3 0.246323 525.422C-0.0575938 525.618 -0.0838765 526.207 0.199872 526.462Z"
        fill="url(#paint4_radial_3525_579)" />
    <path fill-rule="evenodd" clip-rule="evenodd"
        d="M0.199872 643.382C0.363577 643.529 2.33094 643.71 12.4954 644.513C19.1507 645.038 24.6124 645.485 24.6325 645.505C24.6527 645.525 23.9066 645.792 22.9745 646.099C21.1459 646.701 20.9253 646.859 21.0758 647.455C21.1382 647.702 21.4426 647.882 23.3424 648.796L25.537 649.852L25.537 694.074C25.537 727.188 25.568 738.354 25.6603 738.529C25.7281 738.657 25.8368 738.797 25.9017 738.84C26.1305 738.992 26.5788 738.919 26.7808 738.697C26.981 738.477 26.9859 737.562 27.0156 694.083C27.0323 669.668 27.0179 649.536 26.9836 649.344C26.9248 649.017 26.8238 648.947 25.2903 648.183L23.6596 647.37L26.2692 646.498C27.7045 646.018 28.9227 645.557 28.9764 645.473C29.1424 645.212 29.0872 644.775 28.8626 644.573C28.6741 644.403 27.6149 644.298 20.169 643.71C15.5056 643.342 11.6396 643.025 11.578 643.004C11.4673 642.967 13.3583 642.857 30.6326 641.895C38.3211 641.466 39.4632 641.381 39.6976 641.218C40.0428 640.978 40.1071 640.471 39.8245 640.217C39.6704 640.078 38.1104 639.78 33.5704 639.021C30.2435 638.465 27.4159 637.987 27.2868 637.958C27.0565 637.906 27.0512 637.864 27.0186 635.866L26.9852 633.826L26.2918 633.226C25.9104 632.896 25.4276 632.472 25.219 632.284L24.8397 631.942L25.4297 631.432C25.7542 631.151 26.2369 630.72 26.5025 630.474L26.9852 630.027V620.697C26.9852 611.673 26.7808 614.92 26.7808 611.143C25.537 622.559 26.1305 610.848 25.9017 611C25.5473 611.236 25.537 611.503 25.537 620.5L25.537 629.456L24.3301 630.512C23.3247 631.392 23.1176 631.625 23.0896 631.909C23.0521 632.291 23.06 632.3 24.5983 633.612L25.537 634.413V636.527C25.537 638.568 25.5453 638.65 25.7783 638.911C26.0018 639.161 26.2681 639.223 29.37 639.737C31.2126 640.043 32.7035 640.309 32.6831 640.33C32.6628 640.35 28.862 640.581 24.2372 640.842C19.6124 641.104 12.3767 641.513 8.15803 641.752C2.17678 642.09 0.434595 642.22 0.246323 642.342C-0.0575938 642.538 -0.0838765 643.127 0.199872 643.382Z"
        fill="url(#paint5_radial_3525_579)" />
    <path fill-rule="evenodd" clip-rule="evenodd"
        d="M0.199872 770.462C0.363577 770.609 2.33094 770.79 12.4954 771.593C19.1507 772.119 24.6124 772.565 24.6325 772.585C24.6527 772.605 23.9066 772.872 22.9745 773.179C21.1459 773.781 20.9253 773.939 21.0758 774.535C21.1382 774.782 21.4426 774.962 23.3424 775.876L25.537 776.932L25.537 821.154C25.537 854.268 25.568 865.434 25.6603 865.609C25.7281 865.737 25.8368 865.877 25.9017 865.92C26.1305 866.072 26.5788 865.999 26.7808 865.777C26.981 865.557 26.9859 864.643 27.0156 821.163C27.0323 796.748 27.0179 776.616 26.9836 776.425C26.9248 776.097 26.8238 776.027 25.2903 775.263L23.6596 774.45L26.2692 773.578C27.7045 773.099 28.9227 772.637 28.9764 772.553C29.1424 772.292 29.0872 771.855 28.8626 771.653C28.6741 771.483 27.6149 771.378 20.169 770.791C15.5056 770.423 11.6396 770.105 11.578 770.084C11.4673 770.048 13.3583 769.937 30.6326 768.975C38.3211 768.547 39.4632 768.461 39.6976 768.298C40.0428 768.058 40.1071 767.552 39.8245 767.297C39.6704 767.159 38.1104 766.86 33.5704 766.102C30.2435 765.545 27.4159 765.067 27.2868 765.038C27.0565 764.986 27.0512 764.944 27.0186 762.946L26.9852 760.907L26.2918 760.306C25.9104 759.976 25.4276 759.552 25.219 759.364L24.8397 759.022L25.4297 758.512C25.7542 758.231 26.2369 757.8 26.5025 757.554L26.9852 757.107V747.778C26.9852 738.753 26.9786 738.441 26.7808 738.224C26.5788 738.002 26.1305 737.929 25.9017 738.081C25.5473 738.316 25.537 738.583 25.537 747.581L25.537 756.536L24.3301 757.593C23.3247 758.472 23.1176 758.706 23.0896 758.99C23.0521 759.372 23.06 759.38 24.5983 760.692L25.537 761.493V763.607C25.537 765.648 25.5453 765.73 25.7783 765.991C26.0018 766.242 26.2681 766.303 29.37 766.817C31.2126 767.123 32.7035 767.389 32.6831 767.41C32.6628 767.43 28.862 767.661 24.2372 767.922C19.6124 768.184 12.3767 768.594 8.15803 768.832C2.17678 769.17 0.434595 769.3 0.246323 769.422C-0.0575938 769.618 -0.0838765 770.207 0.199872 770.462Z"
        fill="url(#paint6_radial_3525_579)" />
    <path fill-rule="evenodd" clip-rule="evenodd"
        d="M0.199872 892.462C0.363577 892.609 2.33094 892.79 12.4954 893.593C19.1507 894.119 24.6124 894.565 24.6325 894.585C24.6527 894.605 23.9066 894.872 22.9745 895.179C21.1459 895.781 20.9253 895.939 21.0758 896.535C21.1382 896.782 21.4426 896.962 23.3424 897.876L25.537 898.932L25.537 943.154C25.537 976.268 25.568 987.434 25.6603 987.609C25.7281 987.737 25.8368 987.877 25.9017 987.92C26.1305 988.072 26.5788 987.999 26.7808 987.777C26.981 987.557 26.9859 986.643 27.0156 943.163C27.0323 918.748 27.0179 898.616 26.9836 898.425C26.9248 898.097 26.8238 898.027 25.2903 897.263L23.6596 896.45L26.2692 895.578C27.7045 895.099 28.9227 894.637 28.9764 894.553C29.1424 894.292 29.0872 893.855 28.8626 893.653C28.6741 893.483 27.6149 893.378 20.169 892.791C15.5056 892.423 11.6396 892.105 11.578 892.084C11.4673 892.048 13.3583 891.937 30.6326 890.975C38.3211 890.547 39.4632 890.461 39.6976 890.298C40.0428 890.058 40.1071 889.552 39.8245 889.297C39.6704 889.159 38.1104 888.86 33.5704 888.102C30.2435 887.545 27.4159 887.067 27.2868 887.038C27.0565 886.986 27.0512 886.944 27.0186 884.946L26.9852 882.907L26.2918 882.306C25.9104 881.976 25.4276 881.552 25.219 881.364L24.8397 881.022L25.4297 880.512C25.7542 880.231 26.2369 879.8 26.5025 879.554L26.9852 879.107V869.778C26.9852 860.753 26.9786 860.441 26.7808 860.224C26.5788 860.002 26.1305 859.929 25.9017 860.081C25.5473 860.316 25.537 860.583 25.537 869.581L25.537 878.536L24.3301 879.593C23.3247 880.472 23.1176 880.706 23.0896 880.99C23.0521 881.372 23.06 881.38 24.5983 882.692L25.537 883.493V885.607C25.537 887.648 25.5453 887.73 25.7783 887.991C26.0018 888.242 26.2681 888.303 29.37 888.817C31.2126 889.123 32.7035 889.389 32.6831 889.41C32.6628 889.43 28.862 889.661 24.2372 889.922C19.6124 890.184 12.3767 890.594 8.15803 890.832C2.17678 891.17 0.434595 891.3 0.246323 891.422C-0.0575938 891.618 -0.0838765 892.207 0.199872 892.462Z"
        fill="url(#paint7_radial_3525_579)" />
    <defs>
        <radialGradient id="paint0_radial_3525_579" cx="0" cy="0" r="1"
            gradientUnits="userSpaceOnUse"
            gradientTransform="translate(20 497) scale(280.5 446.987)">
            <stop stop-color="#F86969" />
            <stop offset="1" stop-color="#F86969" stop-opacity="0" />
        </radialGradient>
        <radialGradient id="paint1_radial_3525_579" cx="0" cy="0" r="1"
            gradientUnits="userSpaceOnUse"
            gradientTransform="translate(20 497) scale(280.5 446.987)">
            <stop stop-color="#F86969" />
            <stop offset="1" stop-color="#F86969" stop-opacity="0" />
        </radialGradient>
        <radialGradient id="paint2_radial_3525_579" cx="0" cy="0" r="1"
            gradientUnits="userSpaceOnUse"
            gradientTransform="translate(20 497) scale(280.5 446.987)">
            <stop stop-color="#F86969" />
            <stop offset="1" stop-color="#F86969" stop-opacity="0" />
        </radialGradient>
        <radialGradient id="paint3_radial_3525_579" cx="0" cy="0" r="1"
            gradientUnits="userSpaceOnUse"
            gradientTransform="translate(20 497) scale(280.5 446.987)">
            <stop stop-color="#F86969" />
            <stop offset="1" stop-color="#F86969" stop-opacity="0" />
        </radialGradient>
        <radialGradient id="paint4_radial_3525_579" cx="0" cy="0" r="1"
            gradientUnits="userSpaceOnUse"
            gradientTransform="translate(20 497) scale(280.5 446.987)">
            <stop stop-color="#F86969" />
            <stop offset="1" stop-color="#F86969" stop-opacity="0" />
        </radialGradient>
        <radialGradient id="paint5_radial_3525_579" cx="0" cy="0" r="1"
            gradientUnits="userSpaceOnUse"
            gradientTransform="translate(20 497) scale(280.5 446.987)">
            <stop stop-color="#F86969" />
            <stop offset="1" stop-color="#F86969" stop-opacity="0" />
        </radialGradient>
        <radialGradient id="paint6_radial_3525_579" cx="0" cy="0" r="1"
            gradientUnits="userSpaceOnUse"
            gradientTransform="translate(20 497) scale(280.5 446.987)">
            <stop stop-color="#F86969" />
            <stop offset="1" stop-color="#F86969" stop-opacity="0" />
        </radialGradient>
        <radialGradient id="paint7_radial_3525_579" cx="0" cy="0" r="1"
            gradientUnits="userSpaceOnUse"
            gradientTransform="translate(20 497) scale(280.5 446.987)">
            <stop stop-color="#F86969" />
            <stop offset="1" stop-color="#F86969" stop-opacity="0" />
        </radialGradient>
    </defs>
</svg>
    