<svg width="19" height="19" viewBox="0 0 19 19" fill="none" xmlns="http://www.w3.org/2000/svg">
    <path fill-rule="evenodd" clip-rule="evenodd"
        d="M11.3386 0.0649681C11.0362 0.152955 10.9193 0.21954 10.6752 0.442778C10.1441 0.928639 10.009 1.72379 10.3411 2.41004C10.4708 2.67809 10.583 2.79617 13.2831 5.50594C14.8271 7.05541 16.1865 8.39606 16.3041 8.4852C17.1001 9.0887 18.2224 8.89433 18.7503 8.06161C19.0861 7.53195 19.0829 6.80048 18.7426 6.25576C18.5937 6.0174 13.0001 0.419703 12.7513 0.260115C12.3588 0.00826694 11.7992 -0.0690562 11.3386 0.0649681ZM8.20105 5.28155C6.43827 7.07889 6.26584 7.28515 5.8488 8.09502C5.45526 8.85929 5.23787 9.56442 5.13864 10.3985C5.07241 10.9554 5.06907 11.3221 5.12535 11.8614L5.16748 12.265L3.61285 13.8214L2.05819 15.3778L2.8469 16.1672L3.63557 16.9566L5.18879 15.4023L6.74201 13.848L7.24135 13.8943C8.85875 14.044 10.5553 13.5513 11.8947 12.543C12.0585 12.4197 12.9068 11.6071 13.78 10.7372L15.3675 9.15569L14.5785 8.36526L13.7894 7.57482L13.0092 8.35508L12.2291 9.13529L11.0507 7.95546L9.87239 6.77562L10.6574 5.9899L11.4424 5.20419L10.6532 4.42951C10.2192 4.00339 9.85309 3.65052 9.83965 3.64528C9.82617 3.64004 9.0888 4.37634 8.20105 5.28155ZM10.8854 10.4746C10.2952 11.0555 9.9636 11.294 9.49121 11.4775C9.02725 11.6577 8.66334 11.7121 8.09198 11.6867C7.81549 11.6743 7.54494 11.6537 7.49078 11.6409C7.36731 11.6117 7.35283 11.5523 7.32402 10.9561C7.29046 10.2626 7.3842 9.79624 7.67127 9.2283C7.87593 8.82333 7.99387 8.67243 8.55097 8.1026L9.07028 7.57141L10.2523 8.75284L11.4344 9.93428L10.8854 10.4746ZM0.734239 16.7055C0.116701 17.3304 0.0310217 17.4655 0.00570391 17.8538C-0.00936795 18.0844 0.00136054 18.1475 0.0878196 18.3369C0.209211 18.6028 0.36535 18.7714 0.610138 18.9011C0.768466 18.985 0.842155 18.9995 1.1113 19C1.54485 19.0007 1.67107 18.9245 2.32989 18.2638L2.85592 17.7364L2.06617 16.9466L1.27642 16.1567L0.734239 16.7055Z"
        fill="black" />
    <path fill-rule="evenodd" clip-rule="evenodd"
        d="M11.3386 0.0649681C11.0362 0.152955 10.9193 0.21954 10.6752 0.442778C10.1441 0.928639 10.009 1.72379 10.3411 2.41004C10.4708 2.67809 10.583 2.79617 13.2831 5.50594C14.8271 7.05541 16.1865 8.39606 16.3041 8.4852C17.1001 9.0887 18.2224 8.89433 18.7503 8.06161C19.0861 7.53195 19.0829 6.80048 18.7426 6.25576C18.5937 6.0174 13.0001 0.419703 12.7513 0.260115C12.3588 0.00826694 11.7992 -0.0690562 11.3386 0.0649681ZM8.20105 5.28155C6.43827 7.07889 6.26584 7.28515 5.8488 8.09502C5.45526 8.85929 5.23787 9.56442 5.13864 10.3985C5.07241 10.9554 5.06907 11.3221 5.12535 11.8614L5.16748 12.265L3.61285 13.8214L2.05819 15.3778L2.8469 16.1672L3.63557 16.9566L5.18879 15.4023L6.74201 13.848L7.24135 13.8943C8.85875 14.044 10.5553 13.5513 11.8947 12.543C12.0585 12.4197 12.9068 11.6071 13.78 10.7372L15.3675 9.15569L14.5785 8.36526L13.7894 7.57482L13.0092 8.35508L12.2291 9.13529L11.0507 7.95546L9.87239 6.77562L10.6574 5.9899L11.4424 5.20419L10.6532 4.42951C10.2192 4.00339 9.85309 3.65052 9.83965 3.64528C9.82617 3.64004 9.0888 4.37634 8.20105 5.28155ZM10.8854 10.4746C10.2952 11.0555 9.9636 11.294 9.49121 11.4775C9.02725 11.6577 8.66334 11.7121 8.09198 11.6867C7.81549 11.6743 7.54494 11.6537 7.49078 11.6409C7.36731 11.6117 7.35283 11.5523 7.32402 10.9561C7.29046 10.2626 7.3842 9.79624 7.67127 9.2283C7.87593 8.82333 7.99387 8.67243 8.55097 8.1026L9.07028 7.57141L10.2523 8.75284L11.4344 9.93428L10.8854 10.4746ZM0.734239 16.7055C0.116701 17.3304 0.0310217 17.4655 0.00570391 17.8538C-0.00936795 18.0844 0.00136054 18.1475 0.0878196 18.3369C0.209211 18.6028 0.36535 18.7714 0.610138 18.9011C0.768466 18.985 0.842155 18.9995 1.1113 19C1.54485 19.0007 1.67107 18.9245 2.32989 18.2638L2.85592 17.7364L2.06617 16.9466L1.27642 16.1567L0.734239 16.7055Z"
        fill="#F86969" />
</svg>
    