<svg width="16" height="18" viewBox="0 0 16 18" fill="none" xmlns="http://www.w3.org/2000/svg">
    <path fill-rule="evenodd" clip-rule="evenodd"
        d="M6.56707 0.052099C5.59784 0.222548 4.74046 0.672656 4.04957 1.37379C3.32772 2.10625 2.90963 3.02251 2.84737 4.00858C2.83112 4.26588 2.9211 5.99317 3.12189 9.27686C3.28617 11.9639 3.40936 14.2593 3.39565 14.3777C3.35939 14.6906 3.19603 14.9906 2.93793 15.2183C2.66484 15.4591 2.55281 15.5009 1.56974 15.7291C1.13982 15.829 0.725865 15.9357 0.64985 15.9663C0.29903 16.1078 0.0463959 16.4667 0.00767983 16.8788C-0.0122408 17.0909 0.000386623 17.1472 0.120702 17.383C0.261064 17.6581 0.475273 17.8477 0.760122 17.9491C0.856349 17.9833 1.64467 17.9971 3.62857 17.9993C6.24334 18.0023 6.37612 17.9988 6.63175 17.9227C7.44904 17.6791 7.93226 16.9362 7.86017 16.0341C7.82887 15.6421 7.73885 15.4105 7.46871 15.0265C7.07884 14.4724 7.03508 14.2702 7.08151 13.2375C7.12002 12.3806 7.18553 12.1414 7.50005 11.7095C8.37035 10.5147 8.72213 9.43798 8.77772 7.79915C8.79144 7.39557 8.80848 7.06532 8.81565 7.06532C8.8284 7.06532 11.9045 7.69662 13.2495 7.97531C14.2832 8.18947 14.6852 8.15991 15.1938 7.8322C15.5849 7.58021 15.8557 7.19492 15.9532 6.75173C15.985 6.60697 16 5.73583 16 4.03596C16 1.31376 15.9976 1.28232 15.7625 0.865542C15.6094 0.594006 15.2599 0.289256 14.9272 0.137223L14.6456 0.00851168L10.7698 0.00155538C7.56606 -0.00419461 6.83734 0.00457111 6.56707 0.052099Z"
        fill="black" />
    <path fill-rule="evenodd" clip-rule="evenodd"
        d="M6.56707 0.052099C5.59784 0.222548 4.74046 0.672656 4.04957 1.37379C3.32772 2.10625 2.90963 3.02251 2.84737 4.00858C2.83112 4.26588 2.9211 5.99317 3.12189 9.27686C3.28617 11.9639 3.40936 14.2593 3.39565 14.3777C3.35939 14.6906 3.19603 14.9906 2.93793 15.2183C2.66484 15.4591 2.55281 15.5009 1.56974 15.7291C1.13982 15.829 0.725865 15.9357 0.64985 15.9663C0.29903 16.1078 0.0463959 16.4667 0.00767983 16.8788C-0.0122408 17.0909 0.000386623 17.1472 0.120702 17.383C0.261064 17.6581 0.475273 17.8477 0.760122 17.9491C0.856349 17.9833 1.64467 17.9971 3.62857 17.9993C6.24334 18.0023 6.37612 17.9988 6.63175 17.9227C7.44904 17.6791 7.93226 16.9362 7.86017 16.0341C7.82887 15.6421 7.73885 15.4105 7.46871 15.0265C7.07884 14.4724 7.03508 14.2702 7.08151 13.2375C7.12002 12.3806 7.18553 12.1414 7.50005 11.7095C8.37035 10.5147 8.72213 9.43798 8.77772 7.79915C8.79144 7.39557 8.80848 7.06532 8.81565 7.06532C8.8284 7.06532 11.9045 7.69662 13.2495 7.97531C14.2832 8.18947 14.6852 8.15991 15.1938 7.8322C15.5849 7.58021 15.8557 7.19492 15.9532 6.75173C15.985 6.60697 16 5.73583 16 4.03596C16 1.31376 15.9976 1.28232 15.7625 0.865542C15.6094 0.594006 15.2599 0.289256 14.9272 0.137223L14.6456 0.00851168L10.7698 0.00155538C7.56606 -0.00419461 6.83734 0.00457111 6.56707 0.052099Z"
        fill="#F86969" />
</svg>
    