<svg width="16" height="17" viewBox="0 0 16 17" fill="none" xmlns="http://www.w3.org/2000/svg">
    <path fill-rule="evenodd" clip-rule="evenodd"
        d="M6.16303 0.0163631C5.8952 0.0815266 5.80494 0.151968 4.62478 1.21676C3.82203 1.94105 3.67673 2.09232 3.51813 2.36919C3.35036 2.66202 1.40768 7.13404 0.859509 8.48928C0.0463659 10.4996 -0.108528 11.5687 0.0619776 13.9946C0.131787 14.9884 0.171132 15.133 0.444774 15.4018C0.80813 15.7587 2.15114 16.2594 3.52962 16.5517C5.1278 16.8907 6.69214 16.9999 9.95018 17C12.1624 17.0001 12.9879 16.9609 13.4849 16.8323C14.3277 16.614 15.0197 16.124 15.4623 15.4319C16.1237 14.3979 16.1798 12.9699 15.6036 11.8422C15.2933 11.2351 14.6458 10.6533 13.9754 10.3794C13.4929 10.1823 13.2201 10.1308 12.6643 10.1323C12.203 10.1335 12.0969 10.148 11.8017 10.2503C11.373 10.3989 11.0028 10.6214 10.5956 10.9755C10.4182 11.1297 10.2535 11.2559 10.2294 11.2559C10.2054 11.2559 10.0314 11.1872 9.84276 11.1034C9.38177 10.8983 8.78311 10.7501 8.29242 10.7195C7.28887 10.6569 6.15222 11.0252 5.51059 11.6208C5.14408 11.961 5.01469 12.048 4.95897 11.9916C4.93553 11.9679 4.89977 11.6921 4.87948 11.3787C4.8592 11.0654 4.81813 10.4546 4.78821 10.0215C4.68605 8.54202 4.74357 7.53843 4.98439 6.60107C5.12565 6.05116 5.48858 5.12925 5.63245 4.95487L5.75402 4.80761L6.33724 4.78599L6.92046 4.76432L7.34126 4.56487C7.75885 4.36691 7.96475 4.30252 8.33151 4.25519C8.59577 4.22109 8.76577 4.10396 8.87139 3.88323C8.99814 3.61849 8.99203 3.32413 8.85612 3.14387C8.72382 2.96843 8.72462 2.91965 8.86428 2.64614C9.02124 2.3388 9.02641 1.97472 8.87716 1.74684C8.75626 1.56228 7.07006 0.257992 6.77319 0.119408C6.54171 0.0112982 6.33047 -0.0243694 6.16303 0.0163631Z"
        fill="black" />
    <path fill-rule="evenodd" clip-rule="evenodd"
        d="M6.16303 0.0163631C5.8952 0.0815266 5.80494 0.151968 4.62478 1.21676C3.82203 1.94105 3.67673 2.09232 3.51813 2.36919C3.35036 2.66202 1.40768 7.13404 0.859509 8.48928C0.0463659 10.4996 -0.108528 11.5687 0.0619776 13.9946C0.131787 14.9884 0.171132 15.133 0.444774 15.4018C0.80813 15.7587 2.15114 16.2594 3.52962 16.5517C5.1278 16.8907 6.69214 16.9999 9.95018 17C12.1624 17.0001 12.9879 16.9609 13.4849 16.8323C14.3277 16.614 15.0197 16.124 15.4623 15.4319C16.1237 14.3979 16.1798 12.9699 15.6036 11.8422C15.2933 11.2351 14.6458 10.6533 13.9754 10.3794C13.4929 10.1823 13.2201 10.1308 12.6643 10.1323C12.203 10.1335 12.0969 10.148 11.8017 10.2503C11.373 10.3989 11.0028 10.6214 10.5956 10.9755C10.4182 11.1297 10.2535 11.2559 10.2294 11.2559C10.2054 11.2559 10.0314 11.1872 9.84276 11.1034C9.38177 10.8983 8.78311 10.7501 8.29242 10.7195C7.28887 10.6569 6.15222 11.0252 5.51059 11.6208C5.14408 11.961 5.01469 12.048 4.95897 11.9916C4.93553 11.9679 4.89977 11.6921 4.87948 11.3787C4.8592 11.0654 4.81813 10.4546 4.78821 10.0215C4.68605 8.54202 4.74357 7.53843 4.98439 6.60107C5.12565 6.05116 5.48858 5.12925 5.63245 4.95487L5.75402 4.80761L6.33724 4.78599L6.92046 4.76432L7.34126 4.56487C7.75885 4.36691 7.96475 4.30252 8.33151 4.25519C8.59577 4.22109 8.76577 4.10396 8.87139 3.88323C8.99814 3.61849 8.99203 3.32413 8.85612 3.14387C8.72382 2.96843 8.72462 2.91965 8.86428 2.64614C9.02124 2.3388 9.02641 1.97472 8.87716 1.74684C8.75626 1.56228 7.07006 0.257992 6.77319 0.119408C6.54171 0.0112982 6.33047 -0.0243694 6.16303 0.0163631Z"
        fill="#F86969" />
</svg>
    