<svg width="335" height="486" viewBox="0 0 335 486" fill="none" xmlns="http://www.w3.org/2000/svg">
    <path d="M1.37271 176.985L167.642 1.77459L333.91 159.558L167.642 334.769L1.37271 176.985Z"
        fill="url(#paint0_radial_0_1)" fill-opacity="0.25" stroke="url(#paint1_linear_0_1)"
        stroke-width="1.41844" />
    <path d="M1.37271 317.985L167.642 475.769L333.91 300.558L167.642 142.775L1.37271 317.985Z"
        fill="url(#paint2_radial_0_1)" fill-opacity="0.25" stroke="url(#paint3_linear_0_1)"
        stroke-width="1.41844" />
    <path fill-rule="evenodd" clip-rule="evenodd"
        d="M165.494 48.9237C164.818 49.0231 163.346 49.3897 162.625 49.6382C159.31 50.7812 156.292 52.9531 154.176 55.7182C151.903 58.6887 150.56 62.0974 150.238 65.7097C150.196 66.181 150.163 68.6159 150.164 71.238C150.166 76.4756 150.147 76.2803 150.686 76.7357C150.826 76.8537 152.527 78.1187 154.466 79.5468L157.992 82.1432L157.993 84.6411C157.993 86.7163 158.012 87.1856 158.105 87.4137C158.252 87.7707 158.405 87.9331 158.751 88.0989C158.998 88.2174 159.153 88.2248 160.001 88.1586C160.932 88.086 160.979 88.0744 161.238 87.8551C161.718 87.4478 161.798 87.1716 161.798 85.9187C161.798 85.3146 161.819 84.7125 161.844 84.5808C161.945 84.0503 162.514 83.7257 162.981 83.932C163.404 84.1188 163.437 84.2371 163.481 85.7036C163.511 86.731 163.548 87.0859 163.64 87.2575C163.88 87.7055 164.328 87.9452 164.871 87.9167C165.359 87.8912 165.768 87.6478 166.024 87.232C166.22 86.9137 166.227 86.8694 166.262 85.5637C166.302 84.0936 166.336 83.9669 166.748 83.7417C167.043 83.5805 167.241 83.5716 167.545 83.7058C167.948 83.884 168.019 84.1459 168.019 85.4607C168.019 86.942 168.133 87.2653 168.766 87.5683C169.28 87.8144 170.081 87.6351 170.449 87.1916C170.737 86.8456 170.8 86.5081 170.8 85.3149C170.8 83.9879 170.869 83.7318 171.288 83.5026C171.767 83.2407 172.335 83.4991 172.437 84.0256C172.462 84.1547 172.483 84.7623 172.483 85.3759C172.483 86.6387 172.541 86.8357 173.028 87.2206C173.297 87.4336 173.315 87.4364 174.274 87.4106C175.128 87.3876 175.283 87.364 175.53 87.2196C175.876 87.0175 176.029 86.839 176.176 86.4667C176.269 86.2287 176.288 85.7577 176.288 83.68V81.1798L179.522 78.46C181.301 76.964 183 75.5275 183.297 75.2676C184.178 74.4986 184.115 74.9454 184.117 69.4095C184.119 64.5812 184.085 63.7548 183.824 62.3113C183.318 59.51 182.067 56.7665 180.307 54.5957C177.542 51.1863 173.353 49.0362 168.955 48.7694C168.297 48.7295 166.17 48.8243 165.494 48.9237ZM161.103 65.6484C161.304 65.6813 161.732 65.826 162.054 65.97C163.059 66.4193 163.728 67.0807 164.21 68.1016C164.559 68.8407 164.667 69.3149 164.67 70.1177C164.673 70.9655 164.549 71.5443 164.201 72.3212C163.839 73.1272 163.04 74.0504 162.303 74.5145C161.035 75.3125 159.339 75.449 158.039 74.8575C157.096 74.4281 156.337 73.677 155.877 72.7189C155.243 71.3994 155.289 69.6305 155.991 68.2733C156.399 67.4854 157.246 66.6084 158.002 66.1911C159.002 65.6393 159.989 65.4664 161.103 65.6484ZM175.373 64.9334C176.973 65.2442 178.355 66.6242 178.736 68.2929C178.867 68.8666 178.883 69.8616 178.77 70.4399C178.727 70.6642 178.543 71.1775 178.361 71.5805C178.098 72.1647 177.925 72.4287 177.508 72.8843C176.602 73.8715 175.507 74.4021 174.233 74.4712C172.935 74.5416 171.886 74.138 170.938 73.2037C170.036 72.3146 169.601 71.2288 169.606 69.8762C169.612 68.0585 170.57 66.3833 172.119 65.4793C173.145 64.881 174.196 64.7046 175.373 64.9334ZM167.533 74.4238C167.678 74.5084 167.968 74.9549 168.478 75.8788C169.342 77.4441 169.401 77.7001 168.987 78.1062L168.748 78.3411L167.141 78.4253L165.533 78.5096L165.294 78.2998C164.881 77.9369 164.939 77.6749 165.803 76.019C166.557 74.5724 166.746 74.3322 167.141 74.3115C167.241 74.3062 167.418 74.3567 167.533 74.4238Z"
        fill="url(#paint4_radial_0_1)" fill-opacity="0.25" />
    <defs>
        <radialGradient id="paint0_radial_0_1" cx="0" cy="0" r="1" gradientUnits="userSpaceOnUse"
            gradientTransform="translate(167.642 -6.07404) rotate(90) scale(114.846 114.688)">
            <stop stop-color="#F86969" stop-opacity="0.972549" />
            <stop offset="1" stop-color="#F86969" stop-opacity="0" />
        </radialGradient>
        <linearGradient id="paint1_linear_0_1" x1="167.642" y1="0.7716" x2="173.133" y2="105.559"
            gradientUnits="userSpaceOnUse">
            <stop stop-color="#F86969" />
            <stop offset="1" stop-color="#F86969" stop-opacity="0" />
        </linearGradient>
        <radialGradient id="paint2_radial_0_1" cx="0" cy="0" r="1" gradientUnits="userSpaceOnUse"
            gradientTransform="translate(167.642 483.617) rotate(-90) scale(114.846 114.688)">
            <stop stop-color="#F86969" stop-opacity="0.972549" />
            <stop offset="1" stop-color="#F86969" stop-opacity="0" />
        </radialGradient>
        <linearGradient id="paint3_linear_0_1" x1="167.642" y1="476.772" x2="162.15" y2="371.985"
            gradientUnits="userSpaceOnUse">
            <stop stop-color="#F86969" />
            <stop offset="1" stop-color="#F86969" stop-opacity="0" />
        </linearGradient>
        <radialGradient id="paint4_radial_0_1" cx="0" cy="0" r="1" gradientUnits="userSpaceOnUse"
            gradientTransform="translate(167.141 68.2978) rotate(90) scale(29.5 25.6827)">
            <stop stop-color="white" />
            <stop offset="1" stop-color="white" stop-opacity="0" />
        </radialGradient>
    </defs>
</svg>
    