<svg width="16" height="18" viewBox="0 0 16 18" fill="none" xmlns="http://www.w3.org/2000/svg">
    <path fill-rule="evenodd" clip-rule="evenodd"
        d="M9.43293 0.052099C10.4022 0.222548 11.2595 0.672656 11.9504 1.37379C12.6723 2.10625 13.0904 3.02251 13.1526 4.00858C13.1689 4.26588 13.0789 5.99317 12.8781 9.27686C12.7138 11.9639 12.5906 14.2593 12.6044 14.3777C12.6406 14.6906 12.804 14.9906 13.0621 15.2183C13.3352 15.4591 13.4472 15.5009 14.4303 15.7291C14.8602 15.829 15.2741 15.9357 15.3502 15.9663C15.701 16.1078 15.9536 16.4667 15.9923 16.8788C16.0122 17.0909 15.9996 17.1472 15.8793 17.383C15.7389 17.6581 15.5247 17.8477 15.2399 17.9491C15.1437 17.9833 14.3553 17.9971 12.3714 17.9993C9.75666 18.0023 9.62388 17.9988 9.36825 17.9227C8.55096 17.6791 8.06774 16.9362 8.13983 16.0341C8.17113 15.6421 8.26115 15.4105 8.53129 15.0265C8.92116 14.4724 8.96492 14.2702 8.91849 13.2375C8.87998 12.3806 8.81447 12.1414 8.49995 11.7095C7.62965 10.5147 7.27787 9.43798 7.22228 7.79915C7.20856 7.39557 7.19152 7.06532 7.18435 7.06532C7.1716 7.06532 4.09553 7.69662 2.75055 7.97531C1.71676 8.18947 1.31485 8.15991 0.806203 7.8322C0.415083 7.58021 0.14432 7.19492 0.0468416 6.75173C0.0150442 6.60697 0 5.73583 0 4.03596C0 1.31376 0.00237465 1.28232 0.237464 0.865542C0.390619 0.594006 0.740148 0.289256 1.07276 0.137223L1.35444 0.00851168L5.23021 0.00155538C8.43394 -0.00419461 9.16266 0.00457111 9.43293 0.052099Z"
        fill="black" />
    <path fill-rule="evenodd" clip-rule="evenodd"
        d="M9.43293 0.052099C10.4022 0.222548 11.2595 0.672656 11.9504 1.37379C12.6723 2.10625 13.0904 3.02251 13.1526 4.00858C13.1689 4.26588 13.0789 5.99317 12.8781 9.27686C12.7138 11.9639 12.5906 14.2593 12.6044 14.3777C12.6406 14.6906 12.804 14.9906 13.0621 15.2183C13.3352 15.4591 13.4472 15.5009 14.4303 15.7291C14.8602 15.829 15.2741 15.9357 15.3502 15.9663C15.701 16.1078 15.9536 16.4667 15.9923 16.8788C16.0122 17.0909 15.9996 17.1472 15.8793 17.383C15.7389 17.6581 15.5247 17.8477 15.2399 17.9491C15.1437 17.9833 14.3553 17.9971 12.3714 17.9993C9.75666 18.0023 9.62388 17.9988 9.36825 17.9227C8.55096 17.6791 8.06774 16.9362 8.13983 16.0341C8.17113 15.6421 8.26115 15.4105 8.53129 15.0265C8.92116 14.4724 8.96492 14.2702 8.91849 13.2375C8.87998 12.3806 8.81447 12.1414 8.49995 11.7095C7.62965 10.5147 7.27787 9.43798 7.22228 7.79915C7.20856 7.39557 7.19152 7.06532 7.18435 7.06532C7.1716 7.06532 4.09553 7.69662 2.75055 7.97531C1.71676 8.18947 1.31485 8.15991 0.806203 7.8322C0.415083 7.58021 0.14432 7.19492 0.0468416 6.75173C0.0150442 6.60697 0 5.73583 0 4.03596C0 1.31376 0.00237465 1.28232 0.237464 0.865542C0.390619 0.594006 0.740148 0.289256 1.07276 0.137223L1.35444 0.00851168L5.23021 0.00155538C8.43394 -0.00419461 9.16266 0.00457111 9.43293 0.052099Z"
        fill="#F86969" />
</svg>
    