<svg width="16" height="17" viewBox="0 0 16 17" fill="none" xmlns="http://www.w3.org/2000/svg">
    <path fill-rule="evenodd" clip-rule="evenodd"
        d="M9.83697 0.0163631C10.1048 0.0815266 10.1951 0.151968 11.3752 1.21676C12.178 1.94105 12.3233 2.09232 12.4819 2.36919C12.6496 2.66202 14.5923 7.13404 15.1405 8.48928C15.9536 10.4996 16.1085 11.5687 15.938 13.9946C15.8682 14.9884 15.8289 15.133 15.5552 15.4018C15.1919 15.7587 13.8489 16.2594 12.4704 16.5517C10.8722 16.8907 9.30786 16.9999 6.04982 17C3.83757 17.0001 3.0121 16.9609 2.51514 16.8323C1.67229 16.614 0.980293 16.124 0.537702 15.4319C-0.123661 14.3979 -0.179836 12.9699 0.396399 11.8422C0.706651 11.2351 1.35417 10.6533 2.02458 10.3794C2.50706 10.1823 2.77995 10.1308 3.33569 10.1323C3.79697 10.1335 3.90309 10.148 4.19832 10.2503C4.62698 10.3989 4.99716 10.6214 5.40444 10.9755C5.58181 11.1297 5.74655 11.2559 5.77062 11.2559C5.79465 11.2559 5.96865 11.1872 6.15724 11.1034C6.61823 10.8983 7.21689 10.7501 7.70758 10.7195C8.71113 10.6569 9.84778 11.0252 10.4894 11.6208C10.8559 11.961 10.9853 12.048 11.041 11.9916C11.0645 11.9679 11.1002 11.6921 11.1205 11.3787C11.1408 11.0654 11.1819 10.4546 11.2118 10.0215C11.314 8.54202 11.2564 7.53843 11.0156 6.60107C10.8744 6.05116 10.5114 5.12925 10.3675 4.95487L10.246 4.80761L9.66276 4.78599L9.07954 4.76432L8.65874 4.56487C8.24115 4.36691 8.03525 4.30252 7.66849 4.25519C7.40423 4.22109 7.23423 4.10396 7.12861 3.88323C7.00186 3.61849 7.00797 3.32413 7.14388 3.14387C7.27618 2.96843 7.27538 2.91965 7.13572 2.64614C6.97876 2.3388 6.97359 1.97472 7.12284 1.74684C7.24374 1.56228 8.92994 0.257992 9.22681 0.119408C9.45829 0.0112982 9.66953 -0.0243694 9.83697 0.0163631Z"
        fill="black" />
    <path fill-rule="evenodd" clip-rule="evenodd"
        d="M9.83697 0.0163631C10.1048 0.0815266 10.1951 0.151968 11.3752 1.21676C12.178 1.94105 12.3233 2.09232 12.4819 2.36919C12.6496 2.66202 14.5923 7.13404 15.1405 8.48928C15.9536 10.4996 16.1085 11.5687 15.938 13.9946C15.8682 14.9884 15.8289 15.133 15.5552 15.4018C15.1919 15.7587 13.8489 16.2594 12.4704 16.5517C10.8722 16.8907 9.30786 16.9999 6.04982 17C3.83757 17.0001 3.0121 16.9609 2.51514 16.8323C1.67229 16.614 0.980293 16.124 0.537702 15.4319C-0.123661 14.3979 -0.179836 12.9699 0.396399 11.8422C0.706651 11.2351 1.35417 10.6533 2.02458 10.3794C2.50706 10.1823 2.77995 10.1308 3.33569 10.1323C3.79697 10.1335 3.90309 10.148 4.19832 10.2503C4.62698 10.3989 4.99716 10.6214 5.40444 10.9755C5.58181 11.1297 5.74655 11.2559 5.77062 11.2559C5.79465 11.2559 5.96865 11.1872 6.15724 11.1034C6.61823 10.8983 7.21689 10.7501 7.70758 10.7195C8.71113 10.6569 9.84778 11.0252 10.4894 11.6208C10.8559 11.961 10.9853 12.048 11.041 11.9916C11.0645 11.9679 11.1002 11.6921 11.1205 11.3787C11.1408 11.0654 11.1819 10.4546 11.2118 10.0215C11.314 8.54202 11.2564 7.53843 11.0156 6.60107C10.8744 6.05116 10.5114 5.12925 10.3675 4.95487L10.246 4.80761L9.66276 4.78599L9.07954 4.76432L8.65874 4.56487C8.24115 4.36691 8.03525 4.30252 7.66849 4.25519C7.40423 4.22109 7.23423 4.10396 7.12861 3.88323C7.00186 3.61849 7.00797 3.32413 7.14388 3.14387C7.27618 2.96843 7.27538 2.91965 7.13572 2.64614C6.97876 2.3388 6.97359 1.97472 7.12284 1.74684C7.24374 1.56228 8.92994 0.257992 9.22681 0.119408C9.45829 0.0112982 9.66953 -0.0243694 9.83697 0.0163631Z"
        fill="#F86969" />
</svg>
    