<svg width="19" height="19" viewBox="0 0 19 19" fill="none" xmlns="http://www.w3.org/2000/svg">
    <path fill-rule="evenodd" clip-rule="evenodd"
        d="M0.0250196 0.410285C0.10153 1.6651 0.440933 3.3928 0.861128 4.66612C1.77494 7.43543 3.33818 9.08777 5.29853 9.3565C5.59233 9.39674 6.18133 9.41795 6.21007 9.38932C6.24347 9.35605 6.161 8.52339 6.07838 8.05952C5.91159 7.12324 5.59411 6.08701 5.16476 5.07748C5.03542 4.77337 4.94349 4.53973 4.96051 4.55827C5.14398 4.7581 6.16808 6.28861 6.57126 6.96547C7.5548 8.61677 8.33525 10.3452 8.69971 11.6792C9.14369 13.3044 9.35666 14.9931 9.42476 17.4281L9.4459 18.1847C9.44978 18.3235 9.4904 18.4588 9.56363 18.5768C9.77149 18.9117 10.2101 19.0802 10.5678 18.9627C10.7516 18.9022 10.9902 18.6841 11.0747 18.4993C11.1876 18.2523 11.1653 16.6612 11.0263 15.0403C10.9827 14.5319 10.9843 14.497 11.0671 14.1502C11.2674 13.3118 11.5785 12.5241 12.0041 11.7779C12.1293 11.5584 12.317 11.2285 12.4213 11.045C13.1615 9.74127 14.0896 8.52814 14.979 7.70197C15.5477 7.17367 15.8361 6.96814 15.5803 7.2734C15.2885 7.62164 14.731 8.4899 14.4999 8.95608C14.1762 9.6088 13.9365 10.3829 13.9365 10.7756C13.9365 10.8372 13.9884 10.8861 14.0499 10.8824L14.3468 10.8644C14.9772 10.8263 15.438 10.7013 15.9374 10.4329C17.5271 9.57887 18.5964 7.40405 18.9461 4.3138C18.9749 4.05883 18.9989 3.7601 18.9993 3.64996C18.9997 3.54164 18.9082 3.45565 18.8001 3.46271L18.6286 3.47391C17.5402 3.54497 16.1532 3.83161 15.0162 4.22042C14.5337 4.38545 13.6791 4.80045 13.2967 5.05545C12.3429 5.69156 11.7493 6.49266 11.5106 7.46614C11.4319 7.78738 11.4439 8.81767 11.5311 9.21624C11.5753 9.41822 11.5182 9.62906 11.378 9.7811L11.3688 9.79107C11.0813 10.1031 10.739 10.5563 10.5408 10.8873C10.4585 11.025 10.3804 11.1377 10.3673 11.1377C10.3543 11.1377 10.2879 10.9583 10.2198 10.739C9.95776 9.89543 9.50827 8.87259 9.12832 8.25526L9.08312 8.18181C9.01289 8.0677 8.98983 7.93073 9.01882 7.79991C9.17087 7.11341 9.2106 6.88102 9.24634 6.46959C9.40837 4.60389 8.61732 3.05825 6.92816 1.94021C6.05969 1.36537 5.17902 0.982861 3.90261 0.626128C2.82438 0.324765 1.52981 0.10462 0.368965 0.0252558C0.173375 0.0118676 0.0105777 0.173458 0.0225106 0.369142L0.0250196 0.410285Z"
        fill="#00F8B9" />
</svg>
    