<svg width="19" height="22" viewBox="0 0 19 22" fill="none" xmlns="http://www.w3.org/2000/svg">
    <path fill-rule="evenodd" clip-rule="evenodd"
        d="M14.4644 0.0279287C14.4567 0.129253 13.5814 1.00673 13.0874 1.40853C12.8069 1.63667 12.0462 2.20001 11.397 2.66044C10.0374 3.62465 9.49532 4.06253 8.93814 4.64656C8.30192 5.31346 7.90508 5.98055 7.69505 6.73615C7.57623 7.16367 7.55264 8.07154 7.64918 8.50368C7.7644 9.01953 8.01159 9.47651 8.36955 9.83548L8.56938 10.0359C8.61489 10.0815 8.69272 10.0608 8.70958 9.99865C8.73045 9.92175 8.80107 9.64276 8.8665 9.37868C9.27499 7.73046 10.3774 5.78853 11.6673 4.44471C12.1439 3.94829 12.2346 3.88309 12.3343 3.96549C12.4703 4.07795 12.3976 4.21041 11.935 4.69298C11.421 5.22915 10.9621 5.81547 10.5548 6.4566C10.1907 7.02963 9.63314 8.17104 9.42788 8.76356C9.24481 9.29204 9.01849 10.2107 9.06108 10.2525C9.13423 10.3245 9.73479 10.2551 10.0616 10.137C10.9963 9.79922 11.7899 9.28384 12.5677 8.50946C13.8314 7.25134 14.5682 5.72654 14.8165 3.85559C14.9257 3.03288 14.8853 1.78269 14.7217 0.92013C14.6157 0.36159 14.476 -0.123079 14.4644 0.0279287ZM2.24631 8.16484C1.75661 8.19258 1.09844 8.30532 0.945039 8.38777C0.904044 8.40981 0.973399 8.47912 1.15563 8.59815C1.56123 8.86311 2.37767 9.70959 3.11333 10.6278C4.14645 11.9174 4.7062 12.4602 5.31551 12.7632C5.74011 12.9744 5.93436 13.0241 6.34113 13.0253C6.7845 13.0267 7.07778 12.9096 7.2982 12.6433L7.32404 12.6121C7.39023 12.5321 7.39465 12.4177 7.33484 12.3329C7.27915 12.2539 7.0117 11.9614 6.74055 11.683C6.22966 11.1585 5.56653 10.6305 5.06401 10.3482C4.76179 10.1784 4.67943 10.0648 4.77527 9.94981C4.86653 9.84028 4.97009 9.86876 5.38598 10.1177C6.0998 10.5449 6.87557 11.2056 7.40518 11.8376L7.49537 11.9452C7.54748 12.0074 7.64795 11.9857 7.66973 11.9075C7.75294 11.609 7.73337 11.0016 7.62976 10.6677C7.29085 9.57555 5.9646 8.61353 4.32882 8.27334C3.84932 8.17361 2.93377 8.12593 2.24631 8.16484ZM8.59558 10.6924C8.55505 10.9883 8.47054 12.0307 8.43357 12.6906L8.42768 12.7956C8.41941 12.9431 8.22509 12.9908 8.14955 12.8638C7.88261 12.4151 7.83918 12.396 7.72252 12.6765C7.67137 12.7995 7.68372 12.8405 7.86464 13.149C7.97363 13.3348 8.13233 13.6369 8.21736 13.8202C8.31938 14.04 8.37572 14.2783 8.38296 14.5206L8.40951 15.4084L8.44124 16.4695C8.44454 16.5797 8.53064 16.6696 8.6406 16.6776C8.74433 16.6851 8.83196 16.6015 8.82938 16.4976L8.80945 15.6964L8.7942 15.0821C8.78841 14.8489 8.91565 14.6327 9.12234 14.5245C9.36606 14.397 9.45241 14.3284 9.43294 14.2779C9.41815 14.2394 9.3933 14.1575 9.37772 14.0957C9.36218 14.034 9.33766 13.9836 9.3232 13.9836C9.30878 13.9836 9.18154 14.0484 9.04044 14.1277C8.92788 14.191 8.7894 14.1069 8.79366 13.9778L8.81759 13.2538C8.84801 12.3328 8.86949 11.9978 8.96678 10.9263L8.97933 10.7881C8.98941 10.6772 8.9173 10.5754 8.80931 10.5481C8.70933 10.5228 8.60957 10.5903 8.59558 10.6924ZM12.171 11.1884C10.9443 11.4445 10.0381 12.2319 9.75622 13.2866C9.71887 13.4264 9.68803 13.6073 9.68775 13.6886C9.68748 13.7592 9.75881 13.8077 9.82434 13.7813L10.0923 13.6737C10.639 13.4542 11.6221 13.2085 12.3198 13.117C12.7586 13.0595 13.1451 13.0469 13.9692 13.0634C15.088 13.0858 15.303 13.1204 15.303 13.2776C15.303 13.4663 15.2122 13.4818 14.4513 13.4232C12.9543 13.3078 11.5188 13.513 10.1394 14.0398L9.95208 14.1114C9.86692 14.1439 9.84243 14.2527 9.90546 14.3186C10.1838 14.6095 11.1128 14.964 12.0505 15.1372C12.5727 15.2336 13.9487 15.2443 14.4606 15.156C15.9857 14.8929 17.0785 14.2651 18.0303 13.1053C18.2941 12.7839 19 11.7621 19 11.7016C19 11.6865 18.7947 11.6937 18.5437 11.7176C17.8716 11.7818 16.9414 11.6926 15.3966 11.4158C14.1774 11.1973 13.9905 11.1755 13.2204 11.161C12.7571 11.1524 12.2849 11.1647 12.171 11.1884ZM7.88416 17.0616C6.3446 17.2621 5.03481 18.2723 4.47235 19.6929C4.27809 20.1836 4.2713 20.1871 3.89603 19.9867C2.88828 19.4485 1.80856 19.542 0.930439 20.2436C0.478791 20.6044 0 21.4509 0 21.8884C0 21.95 0.0499756 22 0.111624 22H8.75563H17.2646C17.3955 22 17.4967 21.8852 17.4803 21.7553C17.3294 20.5613 16.5164 19.6024 15.3732 19.2701C15.0321 19.171 14.3558 19.1598 13.9926 19.2472C13.6287 19.3349 13.2163 19.5303 12.9163 19.7574C12.7747 19.8645 12.6186 19.9462 12.5694 19.939C12.5084 19.9301 12.4044 19.7777 12.2418 19.4589C11.9398 18.8664 11.7871 18.6502 11.3965 18.2613C10.4708 17.3397 9.16741 16.8945 7.88416 17.0616Z"
        fill="#00F8B9" />
</svg>
    