<svg width="26" height="22" viewBox="0 0 26 22" fill="none" xmlns="http://www.w3.org/2000/svg">
    <path
        d="M15.0833 22C14.531 22 14.0833 21.5523 14.0833 21V19.7C14.0833 19.1477 14.531 18.7 15.0833 18.7H17.4167C17.969 18.7 18.4167 19.1477 18.4167 19.7V21C18.4167 21.5523 17.969 22 17.4167 22H15.0833ZM8.58333 22C8.03105 22 7.58333 21.5523 7.58333 21V18.6C7.58333 18.0477 7.13562 17.6 6.58333 17.6H1.81489C1.02722 17.6 0.548752 16.7316 0.969538 16.0658L3.64833 11.8268C3.8751 11.468 3.61725 11 3.19276 11V11C2.75852 11 2.5026 10.5127 2.74906 10.1552L8.92669 1.19426C9.32416 0.617706 10.1758 0.617706 10.5733 1.19426L16.7519 10.1566C16.998 10.5135 16.7425 11 16.309 11V11C15.8845 11 15.6272 11.4686 15.855 11.8267L18.5497 16.0633C18.9731 16.7291 18.4949 17.6 17.7059 17.6H12.9167C12.3644 17.6 11.9167 18.0477 11.9167 18.6V21C11.9167 21.5523 11.469 22 10.9167 22H8.58333ZM21.4014 17.6C21.0604 17.6 20.743 17.4263 20.5591 17.1391L17.8841 12.9603C17.6459 12.5883 17.9131 12.1 18.3548 12.1V12.1C18.8051 12.1 19.0706 11.5947 18.8151 11.2239L14.0663 4.33237C13.8318 3.99199 13.8308 3.54237 14.064 3.20101L15.4281 1.20352C15.8241 0.623684 16.6787 0.621804 17.0772 1.1999L23.2509 10.1552C23.4974 10.5127 23.2415 11 22.8072 11V11C22.3827 11 22.1249 11.468 22.3517 11.8268L25.0305 16.0658C25.4512 16.7316 24.9728 17.6 24.1851 17.6H21.4014Z"
        fill="#00F8B9" />
</svg>
    