<svg width="39" height="39" viewBox="0 0 39 39" fill="none" xmlns="http://www.w3.org/2000/svg">
    <path fill-rule="evenodd" clip-rule="evenodd"
        d="M4.5187 0.0919367C3.41388 0.333618 2.49483 0.840858 1.67408 1.66187C1.06207 2.27409 0.703863 2.80879 0.397589 3.5674C-0.0313152 4.62956 -0.0126307 3.85073 0.00925682 19.7569L0.0294666 34.4227L0.209829 34.9567C0.86638 36.9009 2.20358 38.226 4.10955 38.8213L4.68153 39H19.5147H34.3479L34.9199 38.8213C36.8463 38.2197 38.214 36.8506 38.8212 34.9159L39 34.3464V19.5084V4.6703L38.8214 4.09814C38.2262 2.19154 36.9015 0.853904 34.958 0.197138L34.4242 0.0167165L19.7054 0.0031372C7.63825 -0.00800088 4.90231 0.00801964 4.5187 0.0919367ZM22.6034 8.22106C25.8429 8.59106 28.2976 11.0536 28.6644 14.3017C28.9811 17.1063 27.4707 19.8401 24.8913 21.1309C23.6394 21.7573 22.8127 21.8718 19.5363 21.8727L17.1555 21.8733L17.134 26.0637C17.1129 30.1596 17.1089 30.2587 16.9552 30.4646C16.5716 30.9784 16.5263 30.9897 14.8627 30.9897C13.199 30.9897 13.1537 30.9784 12.7702 30.4645C12.6134 30.2545 12.6128 30.2212 12.5904 19.8652C12.5781 14.1514 12.589 9.32914 12.6147 9.14903C12.671 8.75393 13.019 8.32481 13.3643 8.22472C13.7002 8.12738 21.755 8.12417 22.6034 8.22106ZM17.1506 15.0074V17.296L19.7626 17.2959L22.3746 17.2958L22.8322 17.0764C24.0133 16.5097 24.4966 15.1995 23.9472 14.0538C23.6814 13.4994 23.3514 13.1734 22.7941 12.9148L22.3746 12.7202L19.7626 12.7195L17.1506 12.7187V15.0074Z"
        fill="white" fill-opacity="0.12" />
</svg>
    