<svg width="103" height="69" viewBox="0 0 103 69" fill="none" xmlns="http://www.w3.org/2000/svg">
    <path fill-rule="evenodd" clip-rule="evenodd"
        d="M43.6196 0.207388C42.2838 0.308571 39.7654 0.591625 38.0231 0.836708C25.4448 2.60515 20.6766 5.58174 16.2833 14.4082L14.8827 17.2219H12.3875C10.1416 17.2219 9.82077 17.2709 9.1796 17.7125C7.48314 18.8803 7.01599 20.8274 8.02905 22.5076C8.31521 22.9822 8.55238 23.5321 8.55597 23.7295C8.55998 23.95 8.04046 24.3867 7.20986 24.8613C3.90985 26.7465 2.81717 28.2524 2.02965 32.0002C1.17076 36.0885 0.874248 39.6837 0.8639 46.1313C0.853763 52.546 0.95809 53.7811 1.93061 58.7488C2.86342 63.5132 3.46129 64.7645 5.0925 65.3671C5.61202 65.5591 5.81708 65.766 5.81708 66.0989C5.81708 66.7412 6.6367 67.9219 7.49011 68.5094C8.19505 68.9948 8.27509 69 15.1093 69C21.9435 69 22.0236 68.9948 22.7285 68.5094C23.6035 67.9073 24.4015 66.7364 24.4015 66.0555C24.4015 65.6025 24.4976 65.5481 25.2991 65.5479C25.7928 65.5477 27.147 65.313 28.3085 65.0262C31.4421 64.253 32.5941 64.0707 36.5448 63.7238C46.5817 62.8423 56.774 62.8434 66.6389 63.727C70.4918 64.0722 71.6603 64.2589 74.7697 65.0262C75.9312 65.313 77.238 65.5477 77.6735 65.5479C78.3641 65.5481 78.4654 65.6131 78.4654 66.0555C78.4654 66.7364 79.2635 67.9073 80.1384 68.5094C80.8434 68.9948 80.9234 69 87.7577 69C94.5919 69 94.6719 68.9948 95.3769 68.5094C96.2303 67.9219 97.0499 66.7412 97.0499 66.0989C97.0499 65.766 97.2549 65.5591 97.7745 65.3671C99.3998 64.7667 100.018 63.4813 100.956 58.7522C102.377 51.5922 102.518 43.4676 101.368 35.0206C100.533 28.8804 99.5108 27.063 95.6571 24.8613C94.1642 24.0085 94.028 23.6799 94.7686 22.7181C95.4822 21.7913 95.5469 19.9269 94.8989 18.953C93.9119 17.4691 93.2821 17.2219 90.4891 17.2219H88.0035L86.8022 14.7948C85.0595 11.2734 83.913 9.59368 81.7544 7.39915C80.3034 5.92391 79.4215 5.23051 78.1218 4.54337C73.8358 2.27722 67.4345 0.839513 58.7194 0.18603C55.2919 -0.0711348 47.1424 -0.0594849 43.6196 0.207388ZM56.7132 7.0887C65.3097 7.63237 72.1093 9.02973 75.2328 10.8948C77.2021 12.0706 79.5047 15.2211 81.3067 19.2052C82.0883 20.9335 82.1946 21.5156 81.8488 22.1755C81.4434 22.9494 80.7032 22.9872 72.341 22.6601C61.4727 22.2351 41.4353 22.2398 30.6457 22.67C25.7863 22.8638 22.0103 22.9278 21.7357 22.821C21.1917 22.6098 20.8114 21.9926 20.8114 21.321C20.8114 20.7312 22.0318 18.0327 23.2915 15.8379C24.4301 13.8537 26.3628 11.6538 27.6342 10.8948C32.308 8.1042 45.49 6.37891 56.7132 7.0887ZM16.2419 32.0898C20.9721 33.5309 24.4015 35.254 24.4015 36.1891C24.4015 37.0236 23.8972 37.2119 20.9869 37.4641C10.2695 38.3922 8.03074 37.8704 7.59929 34.3432C7.52284 33.7175 7.54522 32.8386 7.64913 32.3899C7.92853 31.1832 8.44847 30.989 11.0968 31.1025C12.9068 31.18 13.8521 31.3614 16.2419 32.0898ZM94.6016 31.1595C95.4379 31.4872 95.5262 34.8124 94.7342 36.1431C93.9182 37.5135 91.6853 38.0419 87.5465 37.844C82.9783 37.6255 79.0147 37.2548 78.7294 37.0195C77.1683 35.7311 81.7424 33.2306 88.708 31.5646C90.7263 31.0818 93.855 30.8667 94.6016 31.1595ZM59.6698 45.3775C65.4438 46.1121 69.4716 46.9673 71.8964 47.9738C74.0506 48.8678 75.2507 50.2691 74.9722 51.5648C74.7659 52.5246 73.5528 53.7762 72.2865 54.3354C70.552 55.1015 66.809 55.2294 48.8992 55.1347C34.22 55.0572 32.6391 55.0147 31.6024 54.6713C28.7414 53.7233 27.2661 51.8724 28.0838 50.2574C28.816 48.8109 31.2501 47.5947 35.2156 46.6944C37.4677 46.1831 44.7593 45.1637 47.5265 44.9734C49.9429 44.8071 57.043 45.0434 59.6698 45.3775Z"
        fill="url(#paint0_radial_3144_863)" fill-opacity="0.55" />
    <defs>
        <radialGradient id="paint0_radial_3144_863" cx="0" cy="0" r="1"
            gradientUnits="userSpaceOnUse"
            gradientTransform="translate(51.5004 34.5) rotate(90) scale(58.9839 86.5731)">
            <stop stop-color="white" />
            <stop offset="1" stop-color="white" stop-opacity="0" />
        </radialGradient>
    </defs>
</svg>
    