<svg width="50" height="20" viewBox="0 0 50 20" fill="none" xmlns="http://www.w3.org/2000/svg">
    <path fill-rule="evenodd" clip-rule="evenodd"
        d="M28.5897 0.0927786C23.653 0.493551 19.4576 1.76373 13.7776 4.57702C12.282 5.31769 12.151 5.36269 10.7956 5.60034C6.55226 6.34414 3.02687 7.62443 1.63541 8.92696C0.631994 9.86614 0.0181939 11.463 0.00108414 13.1785C-0.00693301 13.9786 0.0246467 14.1574 0.262032 14.6575C0.743354 15.6711 1.70023 16.3834 2.87621 16.6031L3.2184 16.6671L3.23141 15.8329C3.2667 13.5653 4.7355 11.7295 6.98216 11.145C8.50864 10.7479 10.3693 11.3931 11.4901 12.7081C12.2753 13.6293 12.6532 14.6908 12.6532 15.9754V16.8697H24.6088H36.5643L36.5251 16.1508C36.3983 13.8297 37.9783 11.71 40.2478 11.1565C41.0385 10.9637 41.4824 10.9664 42.2713 11.1691C43.2075 11.4097 43.9254 11.8205 44.5645 12.4816C45.5249 13.4749 46.0586 14.8829 45.9685 16.1855C45.9245 16.8218 45.935 16.8697 46.1197 16.8697C46.4962 16.8697 47.9845 15.9218 48.6119 15.2825C49.5386 14.338 49.9997 13.1016 50 11.5604C50.0001 10.9938 49.8497 10.7026 49.303 10.2104L48.9467 9.88981L48.9104 8.34861C48.8786 6.9947 48.8473 6.75209 48.653 6.35233C48.5314 6.10204 47.7722 5.14637 46.9658 4.22863C45.9541 3.07718 45.4706 2.44887 45.4056 2.20121C45.2911 1.76453 44.8887 1.35739 44.4285 1.21268C43.4438 0.902819 39.2991 0.348331 36.3594 0.133029C34.1868 -0.0260463 30.3008 -0.0461719 28.5897 0.0927786ZM32.1095 3.72107V5.94397L31.8895 5.9909C31.6758 6.03651 17.7485 7.16551 17.4332 7.16278C17.3143 7.16166 17.262 7.02352 17.2196 6.59817C17.1887 6.28842 17.1124 5.97148 17.0501 5.89381C16.9633 5.78571 16.9784 5.5703 17.1143 4.97415L17.2917 4.19566L17.93 3.89582C19.5542 3.1329 22.5905 2.29293 25.1189 1.90713C27.0362 1.61446 28.1643 1.5281 30.2763 1.51202L32.1095 1.49816V3.72107ZM36.8814 1.96366C38.6649 2.22335 41.1893 2.74447 41.5015 2.9174C41.6032 2.97363 41.7314 3.10671 41.7864 3.213C41.9858 3.5984 41.8922 3.90755 41.3809 4.55204C41.1029 4.90255 40.8611 5.20806 40.8437 5.23092C40.8189 5.26348 34.4089 5.82808 33.8938 5.84315C33.7997 5.84588 33.7715 5.3552 33.7715 3.71682V1.58705L34.4804 1.65208C34.8703 1.68788 35.9507 1.82804 36.8814 1.96366ZM7.27586 11.9258C4.68388 12.3751 3.25233 15.3708 4.45979 17.8189C4.71878 18.344 5.46193 19.1543 5.9631 19.4582C7.04669 20.115 8.40843 20.1789 9.5496 19.6266C11.1181 18.8673 11.9502 17.432 11.8509 15.657C11.7176 13.2744 9.57531 11.5273 7.27586 11.9258ZM40.6503 11.9186C39.1529 12.1335 37.8271 13.3685 37.439 14.9098C36.8168 17.3808 38.515 19.8204 40.9707 19.9834C42.1621 20.0625 43.2345 19.6438 44.0453 18.7827C44.9054 17.8694 45.328 16.5259 45.1268 15.3444C44.7367 13.0538 42.8422 11.604 40.6503 11.9186ZM7.56917 14.0273C7.56917 14.793 7.41244 14.8731 6.88263 14.378C6.66871 14.1781 6.4937 13.9722 6.4937 13.9203C6.4937 13.8196 7.24252 13.4373 7.44696 13.4336C7.53114 13.432 7.56917 13.6168 7.56917 14.0273ZM9.15774 13.7175L9.42641 13.8792L9.01998 14.3075C8.68873 14.6566 8.58021 14.7175 8.43356 14.6363C8.29198 14.5579 8.25356 14.4169 8.25356 13.9759V13.4152L8.57131 13.4855C8.74603 13.5242 9.01001 13.6285 9.15774 13.7175ZM40.9088 13.984C40.9088 14.4172 40.8698 14.5582 40.7288 14.6363C40.582 14.7175 40.4731 14.6561 40.1387 14.3037L39.7287 13.8715L40.001 13.7308C40.8118 13.3116 40.9088 13.3387 40.9088 13.984ZM42.2531 13.6309C42.4816 13.7382 42.6686 13.8604 42.6686 13.9025C42.6686 13.9446 42.5107 14.1463 42.3177 14.3507C41.8031 14.8959 41.5931 14.8019 41.5931 14.0263C41.5931 13.3538 41.6237 13.3354 42.2531 13.6309ZM6.42839 14.8297C6.93777 15.3694 6.85124 15.555 6.0903 15.555H5.51228L5.57671 15.2769C5.66138 14.9115 5.89232 14.4426 5.98754 14.4426C6.029 14.4426 6.22737 14.6168 6.42839 14.8297ZM10.1071 14.7207C10.1758 14.8736 10.2678 15.124 10.3115 15.2769L10.3908 15.555H9.8215C9.06984 15.555 8.98459 15.3673 9.49211 14.8297C9.69313 14.6168 9.88554 14.4426 9.91976 14.4426C9.95407 14.4426 10.0383 14.5678 10.1071 14.7207ZM39.997 15.3939C39.9521 15.515 39.7998 15.555 39.3841 15.555H38.8311L38.8937 15.2316C38.928 15.0538 39.0263 14.7977 39.1119 14.6625L39.2676 14.4167L39.6622 14.8248C39.9205 15.092 40.0361 15.2885 39.997 15.3939ZM43.3778 14.6717C43.4576 14.7976 43.5541 15.0479 43.5923 15.2279L43.6619 15.555H43.1133C42.389 15.555 42.3161 15.3759 42.822 14.8399C43.0283 14.6214 43.2052 14.4426 43.215 14.4426C43.2247 14.4426 43.2981 14.5457 43.3778 14.6717ZM6.67878 16.4399C6.7566 16.5817 6.69579 16.7016 6.37286 17.0436L5.96985 17.4704L5.80315 17.1869C5.71144 17.031 5.60585 16.7593 5.5685 16.5832L5.50045 16.2629H6.04112C6.45381 16.2629 6.60467 16.3048 6.67878 16.4399ZM10.3438 16.541C10.2663 16.8754 10.0465 17.3423 9.93227 17.4153C9.88681 17.4443 9.68413 17.2927 9.48175 17.0783C9.20281 16.7828 9.12958 16.6372 9.17915 16.4758C9.23586 16.2908 9.32062 16.2629 9.82629 16.2629H10.4082L10.3438 16.541ZM39.9839 16.478C40.0347 16.6438 39.9612 16.785 39.6641 17.0922L39.2784 17.4911L39.1085 17.2228C39.0149 17.0753 38.9141 16.7989 38.8842 16.6087L38.83 16.2629H39.374C39.8429 16.2629 39.9269 16.2926 39.9839 16.478ZM43.6442 16.4399C43.643 16.5372 43.5537 16.8182 43.4458 17.0643L43.2496 17.5118L42.8613 17.1196C42.4965 16.7512 42.3879 16.4858 42.5383 16.3304C42.5741 16.2933 42.8381 16.2629 43.1249 16.2629C43.5571 16.2629 43.6459 16.2932 43.6442 16.4399ZM7.54922 17.851L7.57817 18.4763L7.29404 18.392C7.03427 18.3149 6.60408 18.1119 6.50005 18.0171C6.41255 17.9374 7.22932 17.1684 7.37177 17.1964C7.48167 17.2181 7.52781 17.3885 7.54922 17.851ZM9.06926 17.5613C9.37097 17.881 9.41194 17.9702 9.30068 18.0656C9.18766 18.1626 8.40941 18.4878 8.29013 18.4878C8.26999 18.4878 8.25356 18.2184 8.25356 17.8894C8.25356 17.3164 8.3087 17.2038 8.60035 17.1811C8.65667 17.1767 8.86765 17.3478 9.06926 17.5613ZM40.7541 17.2345C40.8712 17.281 40.9088 17.4423 40.9088 17.8986C40.9088 18.4766 40.8998 18.4986 40.6888 18.4327C40.3456 18.3257 39.8333 18.0667 39.8333 18.0001C39.8333 17.9455 40.5292 17.1731 40.5784 17.1731C40.59 17.1731 40.669 17.2007 40.7541 17.2345ZM42.3247 17.5758C42.5337 17.7972 42.6856 17.9959 42.6623 18.0171C42.5589 18.1113 42.1288 18.3147 41.8729 18.3907L41.5931 18.4736V17.8824C41.5931 17.3429 41.6463 17.2176 41.891 17.1811C41.9205 17.1767 42.1156 17.3543 42.3247 17.5758Z"
        fill="white" />
</svg>
    