<svg width="49" height="15" viewBox="0 0 49 15" fill="none" xmlns="http://www.w3.org/2000/svg">
    <path
        d="M8.38129 7.35928C6.34992 7.35928 4.70312 9.00509 4.70312 11.037C4.70312 11.1942 4.71594 11.3481 4.73567 11.4994C4.96346 13.3124 6.5072 14.7146 8.38129 14.7146C10.3072 14.7146 11.8844 13.2345 12.0442 11.3505C12.0535 11.2465 12.06 11.1425 12.06 11.036C12.0604 9.00509 10.4137 7.35928 8.38129 7.35928ZM6.53876 9.65148L7.28918 10.4014C7.23051 10.5015 7.18515 10.61 7.15557 10.7249H6.09797C6.15368 10.324 6.30702 9.95964 6.53876 9.65148ZM6.09501 11.3624H7.16C7.19057 11.4753 7.23396 11.5828 7.29313 11.6809L6.54172 12.4323C6.309 12.1261 6.15171 11.7608 6.09501 11.3624ZM8.06328 13.3223C7.6644 13.2675 7.3025 13.1107 6.99631 12.8805L7.74427 12.132C7.84239 12.1892 7.95037 12.2311 8.06328 12.2612V13.3223ZM8.06328 9.81419C7.94741 9.84476 7.83894 9.88963 7.73786 9.94929L6.98793 9.19935C7.29609 8.96515 7.66144 8.81083 8.06328 8.75511V9.81419ZM8.69981 8.75511C9.10066 8.81083 9.4665 8.96614 9.77466 9.19985L9.02522 9.94929C8.92414 9.88963 8.81518 9.84377 8.69981 9.81419V8.75511ZM8.69981 13.3218V12.2612C8.81271 12.2311 8.9202 12.1892 9.01832 12.131L9.76726 12.8805C9.46108 13.1102 9.09868 13.267 8.69981 13.3218ZM10.2238 12.4353L9.46946 11.6804C9.52764 11.5823 9.57645 11.4763 9.60653 11.3619H10.6636C10.6074 11.7608 10.4566 12.1291 10.2238 12.4353ZM9.60702 10.7254C9.57695 10.6105 9.53208 10.502 9.4734 10.4019L10.2238 9.65197C10.4561 9.96013 10.6094 10.3245 10.6646 10.7263L9.60702 10.7254Z"
        fill="white" />
    <path
        d="M38.764 7.39133C36.741 7.39133 35.1016 9.03023 35.1016 11.0537C35.1016 11.21 35.1139 11.3629 35.1331 11.5142C35.3599 13.3188 36.8973 14.7161 38.7635 14.7161C40.6809 14.7161 42.2513 13.2424 42.4101 11.3663C42.4194 11.2628 42.4259 11.1592 42.4259 11.0537C42.4268 9.03023 40.7874 7.39133 38.764 7.39133ZM36.9298 9.67367L37.6773 10.4211C37.6191 10.5207 37.5737 10.6287 37.5441 10.7431H36.491C36.5457 10.3427 36.6986 9.98034 36.9298 9.67367ZM36.4875 11.3772H37.5476C37.5782 11.4901 37.6216 11.5961 37.6802 11.6947L36.9313 12.4441C36.701 12.1384 36.5437 11.7736 36.4875 11.3772ZM38.4474 13.3292C38.0505 13.2739 37.6906 13.1176 37.3854 12.8874L38.1299 12.1429C38.2275 12.1996 38.3355 12.242 38.4479 12.2711L38.4474 13.3292ZM38.4474 9.83539C38.3325 9.86546 38.2241 9.91033 38.124 9.9695L37.3775 9.22302C37.6842 8.99079 38.048 8.83646 38.4474 8.78075V9.83539ZM39.0815 8.78075C39.4818 8.83646 39.8452 8.99177 40.1514 9.22351L39.4054 9.9695C39.3048 9.91033 39.1969 9.86448 39.0815 9.83539V8.78075ZM39.0815 13.3287V12.2711C39.1944 12.242 39.3014 12.1991 39.3995 12.1419L40.1445 12.8874C39.8393 13.1171 39.4789 13.2729 39.0815 13.3287ZM40.5986 12.4456L39.8477 11.6942C39.9054 11.5961 39.9542 11.4911 39.9838 11.3772H41.0359C40.9802 11.7736 40.8303 12.1399 40.5986 12.4456ZM39.9848 10.7426C39.9552 10.6282 39.9108 10.5202 39.8516 10.4206L40.5991 9.67317C40.8303 9.97985 40.9827 10.3422 41.0374 10.7426H39.9848Z"
        fill="white" />
    <path
        d="M48.9858 8.49725C48.9729 8.01258 48.8226 7.54023 48.5509 7.13692L48.3527 6.84108L47.4864 4.55579C47.3232 4.12437 46.9248 3.8241 46.4658 3.78564C45.6138 3.71366 44.1667 3.6042 42.7851 3.55341C37.9562 0.989049 29.027 -1.58912 21.4547 1.22078C19.9011 1.79716 15.4622 4.05288 15.4622 4.05288C15.4622 4.05288 8.25373 3.87045 3.11267 5.70411C1.08721 6.42643 -0.190284 8.4371 0.0232073 10.5774C0.0661028 11.0059 0.129214 11.387 0.191338 11.6947C0.289455 12.1813 0.691293 12.5482 1.18484 12.6029L4.38327 12.9535C4.1821 12.5334 4.0406 12.0793 3.97995 11.5951C3.95431 11.3974 3.94149 11.2145 3.94149 11.037C3.94149 8.58797 5.93392 6.59555 8.38291 6.59555C10.8324 6.59555 12.8253 8.58846 12.8253 11.037C12.8253 11.1652 12.8169 11.2904 12.8066 11.4156C12.7597 11.9654 12.6098 12.4865 12.3786 12.9613H34.5881L34.7681 12.951C34.5709 12.5358 34.4313 12.0867 34.3717 11.6099C34.346 11.4112 34.3337 11.2288 34.3337 11.0542C34.3337 8.61361 36.3188 6.62759 38.7599 6.62759C41.201 6.62759 43.1865 8.61262 43.1865 11.0542C43.1865 11.1819 43.1781 11.3062 43.1677 11.4309C43.1372 11.7928 43.0578 12.1399 42.9444 12.4712L43.4438 12.4412L46.8849 11.9861C47.4834 11.9067 48.0115 11.5542 48.3137 11.0315L48.6564 10.4404C48.8926 10.0311 49.0119 9.56421 48.9991 9.09187L48.9858 8.49725ZM36.7965 4.09281H19.9534C19.9534 4.09281 20.0535 3.69393 19.6132 3.21222C19.6132 3.21222 23.919 0.434859 30.5688 1.12858C32.3985 1.31989 34.6345 1.44956 37.6786 3.03176L36.7965 4.09281Z"
        fill="white" />
</svg>
    