<svg width="37" height="20" viewBox="0 0 37 20" fill="none" xmlns="http://www.w3.org/2000/svg">
    <path fill-rule="evenodd" clip-rule="evenodd"
        d="M27.6631 0.569019C27.5172 0.881965 27.3828 1.13804 27.3645 1.13804C27.3461 1.13804 27.0831 1.00878 26.78 0.850733C25.8912 0.387358 25.6721 0.344947 25.0108 0.508162C24.2686 0.691291 23.9787 0.814751 23.664 1.08193C23.4161 1.29224 23.403 1.3241 23.4443 1.61518C23.5316 2.23066 23.6528 2.32827 24.8415 2.7391C26.2195 3.2154 27.7098 3.9113 28.0604 4.24207C28.5804 4.73276 28.4785 5.10622 27.7714 5.3015C27.5219 5.37039 27.2982 5.48449 27.2111 5.58734C27.0873 5.73322 27.0146 5.75523 26.7182 5.73651L26.3703 5.7145L25.752 4.35204C25.4119 3.60269 25.1256 2.98057 25.1157 2.96953C25.0777 2.92726 23.8904 3.37855 23.5861 3.55092C23.2888 3.7193 23.2697 3.74767 23.3108 3.95951L23.355 4.18715L22.7168 3.88853C19.6883 2.4715 16.4853 3.02277 13.9065 5.40491C13.4061 5.86717 13.3897 5.87569 12.9066 5.92572C11.9674 6.0229 10.9429 5.93354 10.1975 5.68949C9.82602 5.56784 9.37056 5.38465 9.18534 5.28236C8.64182 4.98227 7.88085 4.36336 7.5579 3.95889C7.3823 3.73894 7.1383 3.52912 6.96891 3.45247C6.25999 3.13156 4.69725 2.95465 2.57105 2.95465H1.339L1.5386 3.15601L1.73821 3.35738L1.46175 3.48789C1.25166 3.58711 1.1853 3.66012 1.1853 3.79218C1.1853 4.02582 1.4486 4.13999 2.10771 4.19204L2.6312 4.23333L3.24571 4.8222C4.88703 6.39496 6.46827 7.32248 7.65572 7.40905C8.07633 7.43972 8.30399 7.52867 9.82457 8.2558L11.5235 9.06824L12.2641 10.291C12.8389 11.24 13.0048 11.5713 13.0051 11.771C13.0056 12.0531 13.0248 12.0413 12.3344 12.1841C11.8632 12.2816 11.8508 12.2749 11.6736 11.8281C11.3182 10.9316 10.3181 9.78294 9.38524 9.19974C7.43948 7.98324 4.95202 7.95068 2.89775 9.11485C2.28151 9.46406 1.17416 10.5695 0.809797 11.1993C-0.269932 13.0651 -0.269932 15.2025 0.809797 17.0683C1.22506 17.786 2.227 18.7606 2.99268 19.1915C4.90836 20.2698 7.15551 20.2695 9.1609 19.1906C9.81171 18.8406 11.008 17.6801 11.3309 17.0858C11.4614 16.8456 11.5992 16.6491 11.6372 16.6491C11.6753 16.6491 11.9982 16.8692 12.3549 17.1382L13.0035 17.6273L17.3242 17.6263C21.2256 17.6254 23.8658 17.5577 24.1532 17.4511C24.244 17.4174 24.2358 17.3263 24.0959 16.8201C23.6207 15.1004 23.7118 13.6308 24.345 12.7987C24.5698 12.5032 25.1363 12 25.1878 12.0499C25.2042 12.0657 25.1476 12.2817 25.0621 12.5298C24.9299 12.9134 24.9059 13.1484 24.9023 14.0989C24.8986 15.0815 24.9185 15.2794 25.0664 15.7347C25.6135 17.4179 26.7439 18.7063 28.296 19.4156C29.3177 19.8825 29.7158 19.9636 30.9709 19.9611C31.9919 19.959 32.0955 19.9459 32.7422 19.738C33.1199 19.6165 33.6892 19.3706 34.0073 19.1915C34.773 18.7606 35.7749 17.786 36.1902 17.0683C37.2699 15.2025 37.2699 13.0651 36.1902 11.1993C35.8258 10.5695 34.7185 9.46406 34.1022 9.11485C33.1991 8.60298 32.0376 8.26565 31.1728 8.26391L30.754 8.26307L31.1007 8.04395L31.4474 7.82484L31.2634 7.6392C31.0327 7.40646 31.0337 7.38229 31.2782 7.32486C31.5705 7.25604 32.0006 6.96419 32.0554 6.79734C32.0851 6.70707 32.0435 6.54169 31.9455 6.3601C31.767 6.02905 30.664 4.60448 29.4009 3.07378C28.7086 2.23471 28.5548 2.00771 28.5846 1.86852C28.6048 1.7742 28.6377 1.62042 28.6577 1.52679C28.7324 1.17737 28.5511 0.66474 28.2329 0.324964L27.9284 0L27.6631 0.569019ZM7.11387 10.1892C7.87492 10.3807 8.44374 10.7008 9.03085 11.268C9.53966 11.7593 10.0621 12.5301 9.95601 12.6327C9.93078 12.6571 8.94547 12.8757 7.76647 13.1184C6.58741 13.3612 5.60868 13.5736 5.59147 13.5902C5.5567 13.6238 5.8119 15.0302 5.86142 15.078C5.89041 15.106 7.97982 15.026 9.51732 14.9379C10.3053 14.8927 10.291 14.8705 9.97126 15.6421C8.86117 18.3214 5.2639 19.056 3.14312 17.0364C2.38952 16.3187 1.97028 15.448 1.89488 14.4438C1.74833 12.493 3.00294 10.7522 4.94465 10.212C5.50016 10.0575 6.54685 10.0464 7.11387 10.1892ZM31.9793 10.1881C33.1336 10.4787 34.1761 11.3036 34.6813 12.3261C35.0184 13.0084 35.1279 13.4575 35.1279 14.1575C35.1279 15.9751 33.7534 17.6656 31.9395 18.0788C30.4564 18.4167 29.0419 18.0311 27.9619 16.9947C27.1164 16.1832 26.7226 15.2743 26.7226 14.1338C26.7226 13.1075 27.105 12.136 27.7904 11.4204C28.6502 10.523 29.656 10.0855 30.8654 10.0828C31.2561 10.082 31.7389 10.1277 31.9793 10.1881ZM13.5194 15.0945C13.6003 15.2771 13.7181 15.4814 13.781 15.5487C13.8892 15.6642 13.862 15.6709 13.2879 15.6716C12.9537 15.6718 12.5118 15.6917 12.306 15.7156L11.9317 15.759L11.9947 15.4879C12.0292 15.3388 12.0758 15.1319 12.0983 15.0281C12.1359 14.8535 12.17 14.8375 12.5542 14.8143C12.7825 14.8004 13.06 14.7831 13.1708 14.7758C13.3468 14.7643 13.3908 14.8045 13.5194 15.0945Z"
        fill="white" />
</svg>
    