<svg width="55" height="15" viewBox="0 0 55 15" fill="none" xmlns="http://www.w3.org/2000/svg">
    <path
        d="M9.88835 6.63053C7.65652 6.72076 5.92095 8.59928 6.01118 10.8306C6.01879 11.0023 6.03781 11.1714 6.06662 11.3382C6.3971 13.3195 8.15387 14.792 10.2107 14.7077C12.3262 14.6235 13.9927 12.9298 14.0862 10.8539C14.0906 10.7398 14.0944 10.624 14.0895 10.5088C13.9998 8.27695 12.1185 6.5403 9.88835 6.63053ZM9.60081 8.17857L9.64592 9.34014C9.52036 9.37874 9.40458 9.43418 9.29479 9.5043L8.43869 8.71506C8.76863 8.44274 9.16216 8.25576 9.60081 8.17857ZM7.96634 9.22817L8.82298 10.019C8.76482 10.1316 8.71862 10.2533 8.6909 10.3794L7.53041 10.4267C7.57226 9.98426 7.72391 9.57605 7.96634 9.22817ZM7.5527 11.1252L8.72188 11.079C8.76102 11.2024 8.81428 11.3176 8.88277 11.4252L8.08973 12.2829C7.82284 11.9563 7.6326 11.5606 7.5527 11.1252ZM8.60991 12.7542L9.39915 11.8997C9.50732 11.9568 9.62961 12.0008 9.75409 12.0264L9.80029 13.1923C9.36219 13.1483 8.95615 12.9917 8.60991 12.7542ZM12.5436 10.2261L11.3826 10.2729C11.3456 10.1479 11.2902 10.0321 11.2211 9.92283L12.0126 9.06511C12.2811 9.39396 12.4659 9.78858 12.5436 10.2261ZM10.2998 8.1503C10.7439 8.19379 11.1505 8.34762 11.4984 8.59167L10.7091 9.44668C10.5971 9.38472 10.4748 9.33906 10.3466 9.31134L10.2998 8.1503ZM10.4998 13.164L10.4536 11.9987C10.5776 11.9622 10.6917 11.909 10.7983 11.841L11.6516 12.6319C11.326 12.8988 10.9352 13.0863 10.4998 13.164ZM12.1349 12.1231L11.2739 11.3279C11.332 11.217 11.3809 11.0991 11.4098 10.9714L12.5692 10.9251C12.5246 11.366 12.3773 11.7774 12.1349 12.1231Z"
        fill="white" />
    <path
        d="M41.0284 5.67987C38.7971 5.7701 37.0621 7.64862 37.1518 9.88045C37.1594 10.0522 37.1789 10.2213 37.2072 10.3876C37.5371 12.3694 39.2939 13.8413 41.3518 13.7565C43.4668 13.6728 45.1338 11.9786 45.2263 9.90328C45.2311 9.78859 45.2355 9.67336 45.2295 9.55758C45.1393 7.32629 43.2575 5.59018 41.0284 5.67987ZM40.7403 7.22791L40.7854 8.39003C40.6609 8.42808 40.5441 8.48352 40.4354 8.55364L39.5787 7.76494C39.907 7.49208 40.3027 7.30455 40.7403 7.22791ZM39.1058 8.27751L39.9625 9.06784C39.9038 9.18144 39.8581 9.30265 39.8304 9.4293L38.6688 9.47605C38.7118 9.03414 38.8634 8.62539 39.1058 8.27751ZM38.6933 10.1745L39.8619 10.1283C39.9011 10.2517 39.9538 10.3669 40.0217 10.474L39.2298 11.3317C38.9629 11.0067 38.7726 10.6104 38.6933 10.1745ZM39.7489 11.8035L40.5381 10.9491C40.6474 11.0072 40.7686 11.0496 40.893 11.0757L40.9398 12.2416C40.5022 12.1976 40.0962 12.0416 39.7489 11.8035ZM43.6831 9.27493L42.5215 9.32168C42.4846 9.1972 42.4302 9.08197 42.3606 8.97272L43.1521 8.11445C43.42 8.4433 43.6054 8.83737 43.6831 9.27493ZM41.4388 7.19964C41.8834 7.24258 42.2894 7.39695 42.6379 7.64155L41.8486 8.49602C41.7366 8.43406 41.6143 8.3884 41.4855 8.36068L41.4388 7.19964ZM41.6404 12.2134L41.5937 11.0475C41.7182 11.011 41.8318 10.9589 41.9383 10.8909L42.7917 11.6812C42.4661 11.9481 42.0742 12.1362 41.6404 12.2134ZM43.2738 11.1725L42.4128 10.3778C42.4715 10.2664 42.5199 10.1484 42.5487 10.0207L43.7087 9.97449C43.6652 10.4153 43.5179 10.8273 43.2738 11.1725Z"
        fill="white" />
    <path
        d="M53.9648 7.26214C53.8946 7.13658 53.7598 7.05885 53.6153 7.0632L52.9945 7.08223C52.9945 7.08223 53.3071 5.53418 53.4141 4.7406C53.425 4.65906 53.3995 4.57644 53.344 4.51502C53.288 4.45414 53.2092 4.4199 53.1272 4.42262C51.0671 4.48621 42.1512 2.55986 39.3665 0.482938C39.0708 0.262255 38.7143 0.147565 38.3452 0.113321C36.24 -0.0823582 31.9856 0.0230917 30.2327 0.0785342C29.7185 0.0948408 29.2227 0.23236 28.7716 0.481852C28.7716 0.481852 24.5531 3.02079 23.042 3.64968C20.4895 4.71233 14.4767 4.40359 12.8112 4.30466C10.7055 4.17965 7.24468 4.05789 3.49742 6.73707C3.49742 6.73707 1.72381 7.198 0.345897 7.96061C0.145325 8.07204 0.0154161 8.2775 0.00128365 8.50634C-0.0128488 8.73517 0.0904265 8.95531 0.275778 9.08957C0.487221 9.24285 0.594845 9.2684 0.594845 9.2684L0.686705 9.62334C0.873688 10.3474 1.39006 10.942 2.08038 11.2268L3.3773 11.7628C4.11653 12.0682 4.90631 12.2346 5.70534 12.2536C5.60859 11.9905 5.53521 11.7171 5.489 11.4312C5.45693 11.2415 5.43411 11.0491 5.4265 10.8518C5.37649 9.61736 5.81024 8.43622 6.64895 7.52794C7.48656 6.6202 8.62911 6.09296 9.86407 6.04349C12.4351 5.96522 14.574 7.95735 14.6756 10.4827C14.6805 10.6137 14.6767 10.7441 14.6713 10.8757C14.6463 11.4312 14.5169 11.9644 14.3087 12.4542L15.3974 12.4803L37.6734 12.7194C37.1412 12.0987 36.7684 11.3334 36.6259 10.4816C36.5939 10.2925 36.5705 10.0995 36.564 9.90218C36.5134 8.66777 36.9483 7.48663 37.7859 6.57889C38.624 5.67062 39.7661 5.14337 41.0016 5.09445C43.5726 5.01563 45.7109 7.0083 45.8131 9.53311C45.818 9.66411 45.8136 9.79456 45.8087 9.92556C45.7881 10.3936 45.6941 10.8436 45.5413 11.2676L49.9218 11.1339C50.0284 11.1306 50.1311 11.0822 50.2012 11.0012L51.2231 9.82446L52.3417 9.79076C52.4662 9.78695 52.582 9.72335 52.651 9.61953L53.9495 7.66383C54.0284 7.54262 54.0349 7.3877 53.9648 7.26214ZM35.4497 3.36975L35.3491 3.39041C35.0366 3.45455 34.7594 3.63283 34.5708 3.89156C33.6098 4.49491 28.9493 4.51937 25.8473 4.1579L29.4211 1.24663C29.6043 1.0977 29.8326 1.01508 30.0674 1.01073L35.2877 0.937348C35.5905 0.933543 35.84 1.17271 35.8481 1.47438L35.8894 2.81152C35.8981 3.08113 35.7128 3.31648 35.4497 3.36975Z"
        fill="white" />
</svg>
    