<svg width="41" height="19" viewBox="0 0 41 19" fill="none" xmlns="http://www.w3.org/2000/svg">
    <path
        d="M6.10468 10.3537C3.7433 10.3537 1.82812 12.2681 1.82812 14.6303C1.82812 14.8129 1.84311 14.9911 1.86619 15.168C2.1314 17.2755 3.92551 18.9064 6.10468 18.9064C8.34216 18.9064 10.1772 17.1856 10.3626 14.9951C10.3723 14.8744 10.3808 14.7534 10.3808 14.6303C10.3808 12.2681 8.46647 10.3537 6.10468 10.3537ZM4.49682 13.4192L5.15155 14.0744C5.10053 14.1618 5.06044 14.2562 5.03534 14.3566H4.11217C4.15954 14.0075 4.29356 13.6877 4.49682 13.4192ZM4.10812 14.9133H5.03858C5.06449 15.0125 5.10336 15.1056 5.15479 15.1919L4.49844 15.8482C4.29518 15.5798 4.15792 15.2615 4.10812 14.9133ZM5.82692 16.6244C5.47911 16.5758 5.16248 16.4394 4.89524 16.2373L5.54754 15.585C5.63378 15.6357 5.72772 15.6721 5.82652 15.6972L5.82692 16.6244ZM5.82692 13.5618C5.72529 13.5873 5.63135 13.6282 5.54309 13.68L4.88917 13.0253C5.15803 12.8212 5.47709 12.686 5.82692 12.6374V13.5618ZM6.38325 12.6378C6.73309 12.6864 7.05255 12.8216 7.321 13.0261L6.66668 13.6804C6.57923 13.6286 6.48407 13.5877 6.38325 13.5622V12.6378ZM6.38325 16.6236V15.6972C6.48205 15.6721 6.57558 15.6344 6.66183 15.5842L7.31452 16.2369C7.04729 16.439 6.73025 16.575 6.38325 16.6236ZM7.71254 15.8498L7.05417 15.1911C7.106 15.1044 7.1473 15.0129 7.17362 14.9129H8.09679C8.04699 15.2607 7.91621 15.583 7.71254 15.8498ZM7.17483 14.357C7.14933 14.2562 7.10924 14.1622 7.05863 14.0748L7.71376 13.4196C7.91621 13.6885 8.05023 14.0075 8.09801 14.357H7.17483Z"
        fill="white" />
    <path
        d="M32.5031 10.3537C30.1421 10.3537 28.2266 12.2681 28.2266 14.6303C28.2266 14.8129 28.2415 14.9911 28.265 15.168C28.5302 17.2755 30.3239 18.9064 32.5031 18.9064C34.741 18.9064 36.5764 17.1856 36.7615 14.9951C36.7708 14.8744 36.7797 14.7534 36.7797 14.6303C36.7797 12.2681 34.8653 10.3537 32.5031 10.3537ZM30.8953 13.4192L31.5504 14.0744C31.499 14.1618 31.4589 14.2562 31.4334 14.3566H30.511C30.5584 14.0075 30.692 13.6877 30.8953 13.4192ZM30.507 14.9133H31.4374C31.4625 15.0125 31.5022 15.1056 31.5536 15.1919L30.8969 15.8482C30.6936 15.5798 30.5568 15.2615 30.507 14.9133ZM32.2254 16.6244C31.878 16.5758 31.5609 16.4394 31.2937 16.2373L31.9464 15.585C32.0322 15.6357 32.1262 15.6721 32.225 15.6972L32.2254 16.6244ZM32.2254 13.5618C32.1241 13.5873 32.0302 13.6282 31.9419 13.68L31.288 13.0253C31.5569 12.8212 31.8759 12.686 32.2254 12.6374V13.5618ZM32.7821 12.6378C33.1323 12.6864 33.451 12.8216 33.7194 13.0261L33.0659 13.6804C32.9777 13.6286 32.8825 13.5877 32.7821 13.5622V12.6378ZM32.7821 16.6236V15.6972C32.8809 15.6721 32.9748 15.6344 33.0607 15.5842L33.7138 16.2369C33.4461 16.439 33.1291 16.575 32.7821 16.6236ZM34.1114 15.8498L33.4526 15.1911C33.5048 15.1044 33.5457 15.0129 33.5729 14.9129H34.4952C34.4458 15.2607 34.3155 15.583 34.1114 15.8498ZM33.5737 14.357C33.5482 14.2562 33.5081 14.1622 33.4575 14.0748L34.113 13.4196C34.3155 13.6885 34.4491 14.0075 34.4964 14.357H33.5737Z"
        fill="white" />
    <path
        d="M30.7364 0.000426726L19.2635 0.144976C18.9194 0.149025 18.644 0.431646 18.6485 0.775811C18.6521 1.11471 18.9271 1.38681 19.2639 1.39085C19.2696 1.39085 19.2741 1.39085 19.2793 1.39085L30.7522 1.2463C31.0963 1.24226 31.3717 0.959635 31.3676 0.61547C31.3628 0.271305 31.0708 -0.0125301 30.7364 0.000426726Z"
        fill="white" />
    <path
        d="M26.1995 14.5132H12.654C12.3098 14.5132 12.0312 14.7922 12.0312 15.1364C12.0312 15.481 12.3098 15.7595 12.654 15.7595H26.1995C26.5437 15.7595 26.8223 15.481 26.8223 15.1364C26.8223 14.7922 26.5437 14.5132 26.1995 14.5132Z"
        fill="white" />
    <path
        d="M39.9467 10.9574C39.8021 10.7809 39.5843 10.6788 39.3563 10.6788H38.6481L37.9286 2.8003C37.889 2.36543 37.5213 2.03463 37.084 2.04111L16.8277 2.34478C16.5126 2.34964 16.2163 2.49703 16.0227 2.74604L13.3378 6.197L4.54582 6.7416C4.06763 6.77156 3.62993 7.02057 3.36108 7.41697L2.86588 8.14538C2.86588 8.14538 2.01802 8.4438 1.79087 8.63167C1.59369 8.79484 1.20134 9.46941 1.20134 9.46941C1.12684 9.57468 1.11793 9.71356 1.17745 9.82734C1.23657 9.94193 1.3548 10.0136 1.48396 10.0136V10.7813H0.752305C0.336472 10.7817 0 11.1186 0 11.5336V12.92C0 13.435 0.417452 13.8533 0.933295 13.8533H1.43335L2.72214 10.2974C2.83957 9.97351 3.14729 9.7577 3.49146 9.7577H7.9899C8.24498 9.7577 8.4859 9.87674 8.64057 10.08L11.6708 14.0577H27.4879L29.7075 10.3124C29.8545 10.0638 30.1217 9.91156 30.4113 9.91156H34.5416C34.8332 9.91156 35.1024 10.0666 35.2494 10.3185L37.4257 14.0581H38.2064C39.0271 14.0581 39.7341 13.4771 39.8928 12.6714L40.105 11.5919C40.1507 11.3672 40.0924 11.1348 39.9467 10.9574ZM20.6774 6.99263H16.0098V5.55888H15.0643L16.479 3.69108C16.5398 3.6105 16.6345 3.56272 16.7353 3.5611L21.4702 3.49065V5.55888L20.6774 6.99263ZM28.3961 6.99263H23.3623V3.46231L29.433 3.37202V5.95528L28.3961 6.99263ZM30.9903 6.99263V3.34853L36.2163 3.27079C36.3054 3.26958 36.3791 3.338 36.386 3.42668L36.6313 6.99263H30.9903Z"
        fill="white" />
</svg>
    