<svg width="55" height="21" viewBox="0 0 55 21" fill="none" xmlns="http://www.w3.org/2000/svg">
    <path
        d="M9.6034 11.9852C7.31152 11.9852 5.45312 13.8431 5.45312 16.1355C5.45312 16.3122 5.46757 16.4862 5.4898 16.6568C5.74711 18.7025 7.48825 20.2847 9.60284 20.2847C11.7747 20.2847 13.5553 18.6152 13.7359 16.489C13.7453 16.3728 13.7531 16.2544 13.7531 16.1349C13.7537 13.8431 11.8958 11.9852 9.6034 11.9852ZM7.52604 14.5716L8.37188 15.418C8.3063 15.5309 8.25461 15.6526 8.22127 15.7826H7.02865C7.08978 15.3313 7.26262 14.919 7.52604 14.5716ZM7.02309 16.5012H8.22516C8.25906 16.629 8.30908 16.7502 8.37577 16.8613L7.52771 17.7088C7.26484 17.3642 7.08811 16.9519 7.02309 16.5012ZM9.24439 18.7136C8.79479 18.6508 8.38632 18.4746 8.04065 18.214L8.88427 17.3698C8.99542 17.4348 9.11712 17.4826 9.24439 17.516V18.7136ZM9.24439 14.755C9.11379 14.7895 8.99153 14.8406 8.8776 14.9079L8.03232 14.0626C8.37966 13.7986 8.79202 13.6241 9.24439 13.5613V14.755ZM9.96296 13.5602C10.4153 13.623 10.8283 13.7986 11.175 14.062L10.3303 14.9073C10.2169 14.8401 10.0936 14.7889 9.96352 14.7545L9.96296 13.5602ZM9.96296 18.7125V17.5165C10.0908 17.4826 10.2114 17.4354 10.3225 17.3698L11.1667 18.214C10.821 18.4746 10.412 18.6497 9.96296 18.7125ZM11.6813 17.7127L10.8305 16.8607C10.8972 16.749 10.9511 16.6296 10.985 16.5017H12.1776C12.1142 16.9508 11.9447 17.3665 11.6813 17.7127ZM10.9866 15.7826C10.9527 15.6526 10.9016 15.5309 10.836 15.418L11.683 14.5716C11.9447 14.919 12.1176 15.3313 12.1798 15.7832H10.9866V15.7826Z"
        fill="white" />
    <path
        d="M44.0643 11.9852C41.7725 11.9852 39.9141 13.8431 39.9141 16.1355C39.9141 16.3122 39.9285 16.4862 39.9507 16.6568C40.2081 18.7025 41.9492 20.2847 44.0632 20.2847C46.2351 20.2847 48.0157 18.6152 48.1968 16.489C48.2063 16.3728 48.2141 16.2544 48.2141 16.1349C48.2152 13.8431 46.3568 11.9852 44.0643 11.9852ZM41.987 14.5716L42.8323 15.418C42.7667 15.5309 42.715 15.6526 42.6816 15.7826H41.489C41.5507 15.3313 41.7236 14.919 41.987 14.5716ZM41.4846 16.5012H42.6867C42.7206 16.629 42.7706 16.7502 42.8373 16.8613L41.9898 17.7088C41.7258 17.3642 41.5485 16.9519 41.4846 16.5012ZM43.7053 18.7136C43.2557 18.6508 42.8473 18.4746 42.5016 18.214L43.3452 17.3698C43.4564 17.4348 43.5781 17.4826 43.7053 17.516V18.7136ZM43.7053 14.755C43.5747 14.7895 43.4525 14.8406 43.3385 14.9079L42.4933 14.0626C42.8406 13.7986 43.2524 13.6241 43.7053 13.5613V14.755ZM44.4245 13.5602C44.8768 13.623 45.2897 13.7986 45.6365 14.062L44.7912 14.9073C44.6779 14.8401 44.5545 14.7878 44.4245 14.7545V13.5602ZM44.4245 18.7125V17.5165C44.5523 17.4826 44.6729 17.4354 44.784 17.3698L45.6282 18.214C45.2825 18.4746 44.8729 18.6497 44.4245 18.7125ZM46.1423 17.7127L45.2914 16.8619C45.3581 16.7496 45.4126 16.6307 45.4459 16.5023H46.6385C46.5752 16.9508 46.4062 17.3665 46.1423 17.7127ZM45.4476 15.7826C45.4137 15.6526 45.3631 15.5309 45.297 15.418L46.1434 14.5716C46.4057 14.919 46.5779 15.3313 46.6407 15.7832H45.4476V15.7826Z"
        fill="white" />
    <path
        d="M54.0272 9.83674V6.76571C54.0272 6.27166 53.6682 5.85319 53.1803 5.77705C52.0093 5.59366 49.9336 5.24743 49.0011 4.96011C47.664 4.54775 42.4978 2.36036 40.7089 1.94966C38.9194 1.53897 30.8512 -0.653982 23.1236 2.02469C21.8159 2.47762 15.9334 5.28966 12.4745 6.75182C11.4558 6.77405 1.373 8.87586 0.836157 10.3163C0.299312 11.7574 0.130922 12.4565 0.0320003 12.8222C-0.0669216 13.1879 0.0320003 14.9379 0.781139 16.1566C1.54473 16.5884 3.01466 16.8785 4.71412 17.073C4.69467 16.9691 4.67355 16.8669 4.66021 16.7618C4.63076 16.5373 4.61686 16.3322 4.61686 16.1366C4.61686 13.3885 6.85205 11.1522 9.60074 11.1522C12.3494 11.1522 14.5846 13.3879 14.5846 16.1366C14.5846 16.2778 14.5752 16.4178 14.5646 16.5556C14.5385 16.8641 14.4829 17.1636 14.4023 17.4521C14.4062 17.4521 14.4157 17.4521 14.4157 17.4521L39.155 16.9541C39.1439 16.8902 39.1295 16.8268 39.1211 16.7618C39.0917 16.5384 39.0778 16.3328 39.0778 16.1366C39.0778 13.3885 41.313 11.1527 44.0617 11.1527C46.8104 11.1527 49.0461 13.3879 49.0461 16.1366C49.0461 16.1472 49.045 16.1561 49.0444 16.1661L49.15 16.1572L53.3798 15.3608C53.3798 15.3608 54.9998 14.4983 54.9998 12.1253C55.0003 10.5425 54.0272 9.83674 54.0272 9.83674ZM29.4863 6.92521L20.2471 7.20808C20.4171 5.82373 19.5974 5.51307 19.5974 5.51307C23.2703 2.17918 30.6728 2.06637 30.6728 2.06637L29.4863 6.92521ZM39.8553 6.50229L31.4358 6.78516L32.1988 2.06692C36.5503 2.01024 39.0361 2.97056 39.0361 2.97056L40.2793 4.97678L39.8553 6.50229ZM44.6019 6.47339H42.2561L39.9108 3.25288C41.6703 3.95311 43.0786 4.64334 43.9172 5.07959C44.4262 5.34413 44.7041 5.90932 44.6019 6.47339Z"
        fill="white" />
</svg>
    