<svg width="51" height="15" viewBox="0 0 51 15" fill="none" xmlns="http://www.w3.org/2000/svg">
    <path fill-rule="evenodd" clip-rule="evenodd"
        d="M26.7694 0.0214964C24.5954 0.162759 21.7625 0.622314 20.32 1.06786C19.1723 1.42234 17.0566 2.19902 14.0142 3.38282C12.5892 3.93726 10.9973 4.49721 10.4767 4.62701C9.20384 4.94445 7.88797 5.39605 6.41016 6.02255C3.89252 7.09003 2.50798 7.97804 0.280813 9.9537L0 10.2027L0.205378 10.7131C0.403681 11.2057 0.405176 11.2475 0.248028 11.914C0.109017 12.5031 0.105529 12.6253 0.223714 12.747C0.326951 12.8532 1.32763 12.9422 4.14891 13.0959C6.23159 13.2093 7.96879 13.2823 8.00934 13.2581C8.0499 13.234 7.97357 12.9841 7.83984 12.7029C6.8837 10.6933 7.59938 7.99736 9.43314 6.70095C10.2531 6.12136 10.9747 5.89105 11.9714 5.89105C12.9694 5.89105 13.6899 6.12136 14.5136 6.70371C16.2854 7.95628 17.006 10.4153 16.2137 12.5046C16.0766 12.8662 15.974 13.1683 15.9858 13.176C15.9976 13.1836 20.7157 13.1295 26.4704 13.0557C32.2252 12.9819 37.4823 12.9182 38.1529 12.9143L39.3722 12.9071L39.1826 12.3946C38.5092 10.5752 38.8512 8.61431 40.0842 7.22588C41.8691 5.21584 44.7628 5.17105 46.5975 7.12516C47.736 8.33762 48.2026 10.1047 47.81 11.7165C47.6754 12.2695 47.6755 12.2703 47.913 12.2703C48.2509 12.2703 48.7917 12.0101 48.9533 11.7697C49.029 11.6572 49.3324 11.4253 49.6274 11.2545C50.1619 10.9449 50.1658 10.9388 50.6096 9.74918C50.8546 9.09222 51.0285 8.48111 50.9961 8.39101C50.9636 8.3009 50.7992 8.17598 50.6307 8.11336C50.4622 8.05085 50.3436 7.94567 50.3671 7.87966C50.3907 7.81364 50.4679 7.41363 50.5386 6.99069C50.6825 6.13017 50.6112 5.94306 50.0433 5.69258L49.7644 5.56947L49.9009 4.80723C50.098 3.70642 50.0806 3.38919 49.8134 3.20813C49.4642 2.97156 43.7369 1.6604 40.521 1.08091C38.7464 0.761029 35.8099 0.363669 33.7947 0.170507C32.5989 0.0558841 27.8054 -0.0456855 26.7694 0.0214964ZM30.1202 2.50606C30.3738 3.29409 30.5718 3.95074 30.5605 3.96528C30.4555 4.09858 24.525 4.76955 22.2579 4.90466L21.0349 4.97746L21.0532 4.42515C21.0862 3.43292 20.5648 3.22925 18.988 3.61875C18.2827 3.79292 18.0526 3.8982 17.8087 4.15801C17.5523 4.43109 17.6245 4.61523 18.1194 4.94944L18.5874 5.26551H17.9666H17.3459L17.3741 4.0868L17.4023 2.90809L18.7937 2.44079C22.2143 1.29222 23.8 1.03666 27.3673 1.05894L29.6592 1.07327L30.1202 2.50606ZM33.4957 1.51415C34.7194 1.72737 36.2037 2.13767 36.667 2.3908L37.0318 2.59012L36.634 2.70325C36.0322 2.87434 33.6349 3.43345 32.8706 3.58086C32.4569 3.66068 32.1615 3.67299 32.1074 3.6127C32.0206 3.51602 31.4031 1.49186 31.4031 1.30411C31.4031 1.19745 32.0523 1.26272 33.4957 1.51415ZM16.8542 4.16321V5.18347L16.3809 5.10801C16.1205 5.06661 15.5573 4.91484 15.1292 4.77093C14.0626 4.41231 14.1122 4.28346 15.56 3.65091C16.1896 3.37582 16.7385 3.14901 16.7795 3.14678C16.8206 3.14466 16.8542 3.60198 16.8542 4.16321ZM42.5684 6.3366C40.2919 6.81196 38.8632 9.41285 39.5619 11.8101C40.4582 14.8847 44.1464 15.845 46.2452 13.5501C49.0181 10.5181 46.4713 5.52182 42.5684 6.3366ZM10.7756 6.63196C8.44969 7.42796 7.30502 10.2088 8.34227 12.544C9.10818 14.2683 10.9163 15.2735 12.643 14.9346C15.9077 14.2939 17.1313 10.141 14.7902 7.64755C13.7645 6.55523 12.1748 6.15309 10.7756 6.63196ZM43.0621 8.49883C43.0621 8.95351 43.0225 9.10146 42.8787 9.18339C42.7288 9.26883 42.6161 9.20207 42.263 8.81893L41.8308 8.34993L42.2721 8.13671C42.987 7.79125 43.0621 7.82574 43.0621 8.49883ZM44.6135 8.19869L44.8703 8.37785L44.4737 8.80025C43.9393 9.36944 43.7597 9.29207 43.7597 8.49257V7.89229L44.0582 7.95586C44.2223 7.99088 44.4723 8.10009 44.6135 8.19869ZM11.5728 8.66504C11.5728 9.49903 11.4054 9.58457 10.8677 9.02536C10.5526 8.69762 10.5002 8.59128 10.6009 8.48398C10.6961 8.38262 11.2308 8.12758 11.5479 8.03238C11.5617 8.02835 11.5728 8.313 11.5728 8.66504ZM13.1921 8.34781C13.3428 8.42253 13.4662 8.51391 13.4662 8.55116C13.4662 8.58831 13.2856 8.80641 13.065 9.03587C12.5694 9.55135 12.3373 9.47218 12.289 8.77149C12.235 7.98855 12.3541 7.93272 13.1921 8.34781ZM41.7998 9.38642C42.317 9.95062 42.2301 10.1476 41.464 10.1476H40.8838L40.9646 9.85574C41.08 9.43949 41.2894 8.98015 41.3639 8.98015C41.3988 8.98015 41.5949 9.16291 41.7998 9.38642ZM45.5943 9.2459C45.6842 9.39215 45.7846 9.65483 45.8175 9.82963L45.8772 10.1476H45.3217C44.5456 10.1476 44.4328 9.92494 44.9317 9.37814C45.1314 9.1593 45.3255 8.98015 45.3628 8.98015C45.4002 8.98015 45.5043 9.09976 45.5943 9.2459ZM14.4091 10.0237L14.4785 10.3599H13.9274C13.5068 10.3599 13.3531 10.3159 13.2775 10.1741C13.1982 10.0253 13.2602 9.89947 13.5893 9.54053L14.0001 9.09265L14.17 9.39014C14.2635 9.55379 14.3711 9.83897 14.4091 10.0237ZM10.4101 9.59869C10.9293 10.165 10.8411 10.3599 10.0655 10.3599H9.47639L9.54206 10.068C9.62835 9.68455 9.86372 9.19241 9.96078 9.19241C10.003 9.19241 10.2052 9.37517 10.4101 9.59869ZM42.1187 11.1139C42.2156 11.439 41.4903 12.2336 41.2907 12.0212C41.1285 11.8483 40.8693 11.0833 40.9349 10.9704C40.9604 10.9265 41.2222 10.8905 41.5167 10.8905C41.9735 10.8905 42.0619 10.9233 42.1187 11.1139ZM45.8501 11.0763C45.8489 11.1784 45.7579 11.4733 45.6479 11.7315L45.4479 12.2012L45.0522 11.7896C44.6804 11.4029 44.5697 11.1244 44.723 10.9613C44.7594 10.9224 45.0285 10.8905 45.3209 10.8905C45.7614 10.8905 45.8519 10.9223 45.8501 11.0763ZM10.7186 11.2803C10.7618 11.4001 10.6615 11.5897 10.4101 11.864C10.2052 12.0875 10.003 12.2703 9.96078 12.2703C9.86372 12.2703 9.62835 11.7781 9.54206 11.3947L9.47639 11.1028H10.0655C10.5242 11.1028 10.6688 11.1421 10.7186 11.2803ZM14.4605 11.2355C14.4572 11.4359 14.0846 12.2703 13.9984 12.2703C13.9569 12.2703 13.7581 12.0989 13.5567 11.8893C13.0195 11.3307 13.1121 11.1028 13.8764 11.1028C14.2801 11.1028 14.462 11.1441 14.4605 11.2355ZM42.9045 11.9101C43.0236 11.9589 43.0621 12.1278 43.0621 12.602V13.2295L42.7881 13.1595C42.4423 13.0712 41.966 12.8183 41.966 12.723C41.966 12.6593 42.6703 11.8457 42.7254 11.8457C42.7373 11.8457 42.8178 11.8747 42.9045 11.9101ZM44.5052 12.2683C44.7183 12.5008 44.8731 12.7092 44.8493 12.7315C44.744 12.8303 44.3056 13.0439 44.0448 13.1236L43.7597 13.2106V12.5901C43.7597 12.0239 43.8139 11.8924 44.0633 11.8541C44.0933 11.8495 44.2922 12.0359 44.5052 12.2683ZM11.6525 12.7213C11.6873 13.4309 11.6151 13.4677 10.8828 13.1139L10.4419 12.9009L10.832 12.4754C11.394 11.8623 11.6137 11.9282 11.6525 12.7213ZM13.1026 12.4665L13.4772 12.875L13.2221 13.053C13.0818 13.1508 12.8327 13.2595 12.6686 13.2945L12.37 13.3581V12.7788C12.37 11.9077 12.5285 11.8402 13.1026 12.4665Z"
        fill="white" />
</svg>
    