<svg width="46" height="16" viewBox="0 0 46 16" fill="none" xmlns="http://www.w3.org/2000/svg">
    <path
        d="M45.5829 8.99484L45.2685 8.94583C45.3814 4.63474 44.7045 3.76642 43.9471 1.12632H44.3637C44.5616 1.12632 44.7211 0.965879 44.7211 0.768449V0.357407C44.7211 0.159978 44.5607 0 44.3637 0H19.0136C18.6414 0 18.2766 0.0998707 17.9567 0.288978L10.2736 4.82755C10.2736 4.82755 2.58213 5.13779 1.39015 6.31729C0.787689 6.91327 0.243024 8.08907 0.0442069 9.44611C-0.15461 10.8027 0.364625 12.249 0.659614 12.5611C0.955065 12.8732 1.42853 13.0225 1.42853 13.0225L1.61625 13.379C1.73739 13.6083 1.97689 13.7493 2.23628 13.7429L3.47264 13.7133V10.2996C3.47264 8.97588 4.54717 7.90089 5.87185 7.90089H9.15417C10.3152 7.90089 11.257 8.8418 11.257 10.0042V13.5237L11.313 13.5223L31.387 13.2139L31.676 13.243V10.2992C31.676 8.97542 32.7505 7.90042 34.0747 7.90042H37.3579C38.5194 7.90042 39.4603 8.84133 39.4603 10.0037V13.852L42.2303 13.2639C42.376 13.2329 42.5008 13.1362 42.5674 13.0022L42.7699 12.599L45.5714 12.2323C45.8164 12.2004 46 11.991 46 11.7431V9.48078C45.9991 9.23943 45.8225 9.03275 45.5829 8.99484ZM21.4697 5.04902C21.4082 5.11468 21.3222 5.15213 21.2316 5.15213H15.1168C15.1168 5.15213 15.4923 4.95932 15.6888 4.68421C15.8857 4.41003 15.7766 3.76041 15.5556 3.54125C15.3526 3.34058 14.9444 3.20419 14.9444 3.20419L18.0196 1.3108C18.2165 1.1892 18.4431 1.12539 18.6747 1.12539H21.2769C21.3638 1.12539 21.4471 1.16007 21.5081 1.22203C21.5691 1.28399 21.6029 1.36721 21.6015 1.4546L21.5566 4.80397C21.5627 4.89459 21.5317 4.9829 21.4697 5.04902ZM29.1496 4.77715C28.9443 5.02636 28.6396 5.1734 28.3159 5.18079L23.4218 5.28714C23.3344 5.28899 23.2494 5.25616 23.1869 5.19513C23.1241 5.13363 23.0889 5.04948 23.0889 4.9621V1.45044C23.0889 1.27104 23.2341 1.12586 23.4135 1.12586H28.8454C29.0137 1.12586 29.1538 1.25393 29.1685 1.42177L29.3877 3.88294C29.4418 4.20151 29.3549 4.5284 29.1496 4.77715ZM43.6276 4.77992C43.5989 4.82847 43.5467 4.8576 43.4903 4.85806L33.5485 4.93297C33.1181 4.9362 32.7167 4.71658 32.486 4.3527L31.4438 1.56418C31.4064 1.46431 31.4203 1.35288 31.4808 1.26549C31.5419 1.1781 31.6417 1.12586 31.7476 1.12586H42.2646C42.406 1.12586 42.53 1.21648 42.5739 1.35057L43.6318 4.62133C43.6586 4.67173 43.6567 4.73184 43.6276 4.77992Z"
        fill="white" />
    <path
        d="M7.36022 8.59396C5.40211 8.59396 3.8125 10.1813 3.8125 12.1412C3.8125 12.2933 3.82498 12.4404 3.84348 12.5879C4.06403 14.3365 5.55238 15.6899 7.35976 15.6899C9.21939 15.6899 10.7396 14.263 10.8941 12.4441C10.9029 12.3428 10.9093 12.2434 10.9093 12.1412C10.9098 10.1813 9.32111 8.59396 7.36022 8.59396ZM5.58336 10.805L6.30834 11.5277C6.25147 11.6262 6.20616 11.7302 6.17934 11.8412H5.15891C5.21161 11.4537 5.35957 11.1014 5.58336 10.805ZM5.15521 12.4552H6.1835C6.21263 12.5634 6.25471 12.6674 6.3125 12.7631L5.58613 13.4876C5.36235 13.1931 5.20977 12.8399 5.15521 12.4552ZM7.05321 14.3453C6.66991 14.294 6.3199 14.1428 6.02445 13.9199L6.7462 13.1977C6.84006 13.2532 6.94502 13.2934 7.05321 13.3226V14.3453ZM7.05321 10.9617C6.94271 10.9904 6.83775 11.0352 6.73973 11.0921L6.01798 10.3694C6.31435 10.1433 6.66668 9.994 7.05275 9.93991L7.05321 10.9617ZM7.66723 9.94037C8.05562 9.994 8.40794 10.1429 8.70478 10.3708L7.9821 11.0926C7.88547 11.0362 7.77959 10.9904 7.66677 10.9627L7.66723 9.94037ZM7.66723 14.3453V13.3221C7.77681 13.2934 7.88085 13.2532 7.97655 13.1968L8.69738 13.9199C8.40239 14.1423 8.05238 14.2931 7.66723 14.3453ZM9.13801 13.4895L8.41118 12.7622C8.46666 12.6674 8.51382 12.5652 8.54249 12.4552H9.56154C9.50791 12.8399 9.36319 13.1954 9.13801 13.4895ZM8.54249 11.8412C8.51567 11.7306 8.47128 11.6262 8.41534 11.5277L9.13848 10.805C9.36319 11.1028 9.51114 11.4537 9.56385 11.8412H8.54249Z"
        fill="white" />
    <path
        d="M35.5643 8.59396C33.6057 8.59396 32.0156 10.1813 32.0156 12.1412C32.0156 12.2933 32.0276 12.4404 32.0471 12.5879C32.2672 14.3365 33.756 15.6899 35.5633 15.6899C37.4225 15.6899 38.9428 14.263 39.0972 12.4441C39.1064 12.3428 39.1125 12.2434 39.1125 12.1412C39.1134 10.1813 37.5256 8.59396 35.5643 8.59396ZM33.7874 10.805L34.5115 11.5277C34.4546 11.6262 34.4097 11.7302 34.3829 11.8412H33.363C33.4152 11.4537 33.5632 11.1014 33.7874 10.805ZM33.3588 12.4552H34.3871C34.4162 12.5634 34.4578 12.6674 34.5156 12.7631L33.7902 13.4876C33.5659 13.1931 33.4134 12.8399 33.3588 12.4552ZM35.2568 14.3453C34.873 14.294 34.523 14.1428 34.2276 13.9199L34.9498 13.1977C35.0437 13.2532 35.1491 13.2934 35.2568 13.3226V14.3453ZM35.2568 10.9617C35.1468 10.9904 35.0413 11.0352 34.9429 11.0921L34.2211 10.3694C34.517 10.1433 34.8693 9.994 35.2559 9.93991L35.2568 10.9617ZM35.8717 9.94037C36.2597 9.994 36.612 10.1429 36.9088 10.3708L36.1862 11.0926C36.0895 11.0362 35.9836 10.9904 35.8713 10.9627L35.8717 9.94037ZM35.8717 14.3453V13.3221C35.9804 13.2934 36.0849 13.2532 36.1806 13.1968L36.9014 13.9199C36.606 14.1423 36.2564 14.2931 35.8717 14.3453ZM37.3421 13.4895L36.6148 12.7622C36.6702 12.6674 36.7179 12.5652 36.7465 12.4552H37.7656C37.712 12.8399 37.5668 13.1954 37.3421 13.4895ZM36.7465 11.8412C36.7193 11.7306 36.6749 11.6262 36.6199 11.5277L37.3425 10.805C37.5663 11.1028 37.7152 11.4537 37.7679 11.8412H36.7465Z"
        fill="white" />
</svg>
    