<svg width="28" height="32" viewBox="0 0 28 32" fill="none" xmlns="http://www.w3.org/2000/svg">
    <path fill-rule="evenodd" clip-rule="evenodd"
        d="M4.70389 0.466239C4.30825 0.723757 3.95429 0.989345 3.91742 1.05648C3.87168 1.13963 3.85036 4.06692 3.85036 10.2482V19.3178L3.32039 19.3398C2.92256 19.3564 2.71835 19.3983 2.50135 19.5079C2.09453 19.7134 1.69927 20.1078 1.52544 20.4818C1.37911 20.7967 1.37693 20.8358 1.35797 23.4676L1.3387 26.1345L0.824091 26.1634C0.0155878 26.209 0.0327395 26.1748 0.00730114 27.7908C-0.0155677 29.2464 0.00730117 29.4771 0.192372 29.6573C0.30678 29.7687 0.413929 29.7789 1.46846 29.7789H2.61961L2.64081 30.588C2.66375 31.4655 2.70544 31.5811 3.10423 31.871C3.27272 31.9935 3.36523 32 4.94241 32C6.53038 32 6.61112 31.9942 6.78457 31.8683C7.14302 31.6081 7.22068 31.3851 7.24554 30.5454L7.26822 29.7789H14H20.7318L20.7545 30.5454C20.7793 31.3851 20.857 31.6081 21.2154 31.8683C21.3889 31.9942 21.4696 32 23.0576 32C24.6348 32 24.7273 31.9935 24.8958 31.871C25.2946 31.5811 25.3363 31.4655 25.3592 30.588L25.3804 29.7789H26.5315C27.5861 29.7789 27.6932 29.7687 27.8076 29.6573C27.9927 29.4771 28.0156 29.2464 27.9927 27.7908C27.9673 26.1748 27.9844 26.209 27.1759 26.1634L26.6613 26.1345L26.642 23.4676C26.6231 20.8358 26.6209 20.7967 26.4746 20.4818C26.3007 20.1078 25.9055 19.7134 25.4986 19.5079C25.2817 19.3983 25.0774 19.3564 24.6796 19.3398L24.1496 19.3178V10.2349C24.1496 2.46788 24.1363 1.13356 24.058 1.02451C23.9121 0.821733 22.5887 -0.00224773 22.4124 4.60864e-06C22.2274 0.00231951 22.0803 0.100484 21.976 0.291057C21.9224 0.389096 21.9007 1.2386 21.8991 3.29418L21.8969 6.16065L21.6221 5.50072C21.3102 4.75219 21.0785 4.39469 20.6629 4.02168C20.2522 3.65299 19.9176 3.46173 19.3698 3.2826L18.8916 3.12625L14.0208 3.127C8.72803 3.12782 8.83839 3.12118 8.10171 3.48231C7.66065 3.69853 7.07801 4.21388 6.80326 4.63088C6.69007 4.80274 6.48669 5.21724 6.35141 5.55202L6.10538 6.16065L6.10203 3.29418C6.09863 0.361255 6.0906 0.26015 5.84733 0.0782109C5.64138 -0.0757616 5.42259 -0.00149692 4.70389 0.466239ZM21.2589 11.3223V13.6997H14H6.74108V11.3223V8.9448H14H21.2589V11.3223ZM17.791 17.219C17.9599 17.3024 18.1292 17.4491 18.2061 17.5788C18.332 17.791 18.3361 17.8992 18.3361 21.0824C18.3361 24.2832 18.3327 24.3726 18.2041 24.5859C18.1315 24.7062 17.9755 24.868 17.8574 24.9456L17.6426 25.0866H14H10.3574L10.1426 24.9456C10.0245 24.868 9.86845 24.7062 9.79586 24.5859C9.66726 24.3726 9.66392 24.2832 9.66392 21.0824C9.66392 17.8992 9.66796 17.791 9.79387 17.5788C9.87083 17.4491 10.0401 17.3024 10.209 17.219L10.4941 17.0782H14H17.5059L17.791 17.219ZM10.5954 17.7837C10.3526 17.9051 10.2463 18.162 10.3509 18.3747C10.5151 18.7081 10.4913 18.7061 14.0736 18.6893C17.2336 18.6744 17.3976 18.668 17.5264 18.5545C17.7102 18.3924 17.7102 18.0164 17.5264 17.8544C17.3977 17.7409 17.2334 17.7344 14.0736 17.7193C11.474 17.7068 10.7212 17.7208 10.5954 17.7837ZM10.5506 19.7183C10.3901 19.7938 10.2603 20.0944 10.3188 20.2552C10.3403 20.3144 10.4014 20.4122 10.4545 20.4724C10.5442 20.5741 10.7938 20.5819 13.9778 20.5819C17.319 20.5819 17.4078 20.5788 17.5331 20.4568C17.7244 20.2704 17.7044 19.9356 17.4923 19.7731C17.3259 19.6456 17.2678 19.6435 14.0074 19.6477C11.809 19.6505 10.6442 19.6743 10.5506 19.7183ZM10.5458 21.6248C10.5009 21.6424 10.4192 21.7416 10.3641 21.8453C10.2816 22.0006 10.2778 22.066 10.3421 22.2174C10.3851 22.3184 10.4722 22.4281 10.5357 22.4612C10.6054 22.4976 11.9847 22.5214 14.0158 22.5214C17.313 22.5214 17.3832 22.5188 17.521 22.3938C17.71 22.2223 17.71 21.882 17.521 21.7105C17.383 21.5853 17.3167 21.583 14.0039 21.5879C12.1469 21.5906 10.5907 21.6072 10.5458 21.6248ZM6.967 23.2096C7.34749 23.5562 7.42952 24.0313 7.1734 24.4047C6.91433 24.7824 6.71268 24.8361 5.55267 24.8361C4.43261 24.8361 4.20887 24.783 3.96566 24.4595C3.82716 24.2752 3.75336 23.9083 3.8104 23.6871C3.86044 23.4928 4.14996 23.1529 4.32687 23.0805C4.40043 23.0505 4.98589 23.0321 5.62796 23.0396C6.77551 23.053 6.79818 23.0558 6.967 23.2096ZM23.8617 23.2096C24.1325 23.4563 24.2323 23.6951 24.196 24.0092C24.1573 24.3434 23.993 24.5789 23.6954 24.7267C23.5129 24.8173 23.2991 24.8361 22.4473 24.8361C21.2839 24.8361 21.0872 24.7832 20.8209 24.3984C20.6048 24.0861 20.6456 23.6 20.911 23.3269C21.014 23.2208 21.1561 23.1097 21.2268 23.08C21.2975 23.0503 21.8806 23.0321 22.5226 23.0396C23.6702 23.053 23.6928 23.0558 23.8617 23.2096ZM10.4545 23.6319C10.4014 23.6921 10.3403 23.7899 10.3188 23.8492C10.2572 24.0183 10.3932 24.3115 10.5695 24.3897C10.6827 24.44 11.6994 24.4609 14.0265 24.4609C17.2643 24.4609 17.3261 24.4586 17.4923 24.3312C17.7044 24.1687 17.7244 23.8339 17.5331 23.6476C17.4078 23.5256 17.319 23.5224 13.9778 23.5224C10.7938 23.5224 10.5442 23.5302 10.4545 23.6319Z"
        fill="white" />
</svg>
    