<svg width="111" height="112" viewBox="0 0 111 112" fill="none" xmlns="http://www.w3.org/2000/svg">
    <g filter="url(#filter0_d_4303_70)">
        <path
            d="M32.8528 23.985C32.9322 23.9847 33.0116 23.9844 33.0933 23.9842C33.36 23.9834 33.6267 23.9835 33.8934 23.9835C34.0862 23.9832 34.2791 23.9827 34.4719 23.9823C35.0025 23.9812 35.533 23.9808 36.0636 23.9805C36.6356 23.98 37.2076 23.979 37.7796 23.978C39.1612 23.9758 40.5429 23.9747 41.9246 23.9737C42.5754 23.9732 43.2261 23.9726 43.8769 23.972C46.0403 23.9701 48.2037 23.9685 50.3672 23.9677C50.9285 23.9675 51.4899 23.9673 52.0513 23.9671C52.2606 23.967 52.2606 23.967 52.4741 23.9669C54.7342 23.966 56.9942 23.9632 59.2543 23.9596C61.5749 23.9559 63.8955 23.9539 66.2162 23.9535C67.519 23.9533 68.8218 23.9523 70.1246 23.9495C71.2342 23.9471 72.3438 23.9462 73.4534 23.9473C74.0193 23.9478 74.5852 23.9476 75.1511 23.9454C75.6698 23.9434 76.1885 23.9436 76.7072 23.9453C76.8942 23.9455 77.0812 23.9451 77.2682 23.9437C79.289 23.9303 80.859 24.4379 82.3521 25.8349C83.382 26.9358 83.9564 28.2965 83.9585 29.7963C83.9588 29.8757 83.959 29.9551 83.9593 30.0368C83.9601 30.3035 83.96 30.5702 83.96 30.8368C83.9603 31.0297 83.9607 31.2225 83.9612 31.4154C83.9623 31.9459 83.9627 32.4765 83.963 33.007C83.9635 33.579 83.9645 34.151 83.9655 34.723C83.9677 36.1047 83.9688 37.4864 83.9698 38.8681C83.9703 39.5189 83.9709 40.1696 83.9715 40.8204C83.9733 42.9838 83.975 45.1472 83.9758 47.3106C83.976 47.872 83.9762 48.4334 83.9764 48.9948C83.9765 49.1343 83.9765 49.2739 83.9766 49.4176C83.9775 51.6777 83.9803 53.9377 83.9839 56.1978C83.9876 58.5184 83.9896 60.839 83.9899 63.1596C83.9902 64.4625 83.9912 65.7653 83.994 67.0681C83.9964 68.1777 83.9973 69.2873 83.9962 70.3969C83.9957 70.9628 83.9959 71.5287 83.9981 72.0946C84 72.6133 83.9999 73.132 83.9982 73.6507C83.9979 73.8377 83.9984 74.0247 83.9997 74.2117C84.0131 76.2325 83.5056 77.8025 82.1086 79.2956C81.0077 80.3255 79.647 80.8999 78.1472 80.902C78.0281 80.9024 78.0281 80.9024 77.9067 80.9028C77.64 80.9035 77.3733 80.9035 77.1066 80.9034C76.9138 80.9038 76.7209 80.9042 76.5281 80.9047C75.9975 80.9058 75.467 80.9062 74.9364 80.9065C74.3644 80.9069 73.7924 80.908 73.2204 80.909C71.8387 80.9112 70.4571 80.9123 69.0754 80.9133C68.4246 80.9138 67.7739 80.9144 67.1231 80.9149C64.9597 80.9168 62.7963 80.9184 60.6329 80.9192C60.0715 80.9195 59.5101 80.9197 58.9487 80.9199C58.8092 80.9199 58.6696 80.92 58.5259 80.92C56.2658 80.921 54.0058 80.9238 51.7457 80.9274C49.4251 80.9311 47.1045 80.9331 44.7838 80.9334C43.481 80.9337 42.1782 80.9346 40.8754 80.9375C39.7658 80.9399 38.6562 80.9408 37.5466 80.9397C36.9807 80.9392 36.4148 80.9394 35.8489 80.9416C35.3302 80.9435 34.8115 80.9434 34.2928 80.9417C34.1058 80.9414 33.9188 80.9419 33.7318 80.9432C31.711 80.9566 30.141 80.4491 28.6479 79.0521C27.618 77.9512 27.0436 76.5905 27.0415 75.0907C27.0412 75.0113 27.041 74.9319 27.0407 74.8501C27.0399 74.5835 27.04 74.3168 27.04 74.0501C27.0397 73.8573 27.0393 73.6644 27.0388 73.4716C27.0377 72.941 27.0373 72.4105 27.037 71.8799C27.0365 71.3079 27.0355 70.7359 27.0345 70.1639C27.0323 68.7822 27.0312 67.4005 27.0302 66.0188C27.0297 65.3681 27.0291 64.7173 27.0285 64.0666C27.0267 61.9032 27.025 59.7397 27.0242 57.5763C27.024 57.0149 27.0238 56.4536 27.0236 55.8922C27.0235 55.7526 27.0235 55.6131 27.0234 55.4694C27.0225 53.2093 27.0197 50.9492 27.0161 48.6892C27.0124 46.3686 27.0104 44.0479 27.0101 41.7273C27.0098 40.4245 27.0088 39.1217 27.006 37.8188C27.0036 36.7092 27.0027 35.5996 27.0038 34.49C27.0043 33.9241 27.0041 33.3583 27.0019 32.7924C27 32.2737 27.0001 31.755 27.0018 31.2363C27.0021 31.0492 27.0016 30.8622 27.0003 30.6752C26.9869 28.6545 27.4944 27.0845 28.8914 25.5914C29.9923 24.5615 31.353 23.9871 32.8528 23.985ZM36.2783 32.6663C36.3668 32.8272 36.4555 32.9881 36.5442 33.1488C36.5936 33.2384 36.6429 33.328 36.6938 33.4203C36.8484 33.6917 37.0191 33.939 37.2089 34.1871C37.6682 34.8053 38.1025 35.4388 38.5352 36.0759C38.644 36.2359 38.644 36.2359 38.7549 36.3992C38.8991 36.6115 39.0434 36.8239 39.1876 37.0362C39.4665 37.4462 39.7471 37.855 40.0282 38.2633C40.0771 38.3343 40.1259 38.4052 40.1762 38.4783C40.2731 38.6191 40.37 38.7598 40.4669 38.9005C41.2266 40.0035 41.9843 41.1078 42.7403 42.2134C43.276 42.9965 43.8133 43.7785 44.3511 44.5602C44.6047 44.9287 44.858 45.2973 45.1114 45.6659C45.2133 45.814 45.3151 45.9622 45.417 46.1103C48.4724 50.5546 48.4724 50.5546 48.6254 50.7771C48.7267 50.9244 48.828 51.0718 48.9293 51.2191C49.1924 51.6018 49.4554 51.9845 49.7181 52.3675C49.7723 52.4465 49.8265 52.5255 49.8823 52.6069C49.985 52.7564 50.0875 52.906 50.19 53.0557C50.2371 53.1242 50.2841 53.1927 50.3326 53.2633C50.378 53.33 50.4234 53.3966 50.4701 53.4652C50.5679 53.6041 50.6696 53.7404 50.7741 53.8744C51.1726 54.3908 51.1726 54.3908 51.1419 54.6679C50.998 55.0351 50.7247 55.3055 50.4654 55.5962C50.3432 55.7359 50.2209 55.8757 50.0987 56.0154C50.036 56.0866 49.9733 56.1577 49.9087 56.231C49.6214 56.5585 49.3387 56.8898 49.0557 57.2211C48.9445 57.3509 48.8333 57.4807 48.722 57.6104C48.5011 57.8681 48.2803 58.1259 48.0597 58.3838C47.4261 59.1241 46.7898 59.862 46.1512 60.5979C45.5236 61.3214 44.9007 62.0488 44.2781 62.7765C43.5349 63.6453 42.7895 64.5121 42.0402 65.3756C41.4126 66.099 40.7897 66.8264 40.1671 67.5541C39.9473 67.8111 39.7274 68.0681 39.5074 68.325C39.4256 68.4206 39.4256 68.4206 39.3421 68.5181C38.9905 68.9283 38.637 69.3367 38.2825 69.7444C37.7652 70.3394 37.2502 70.936 36.7436 71.5401C36.6085 71.7013 36.6085 71.7013 36.4706 71.8657C36.2669 72.0723 36.2669 72.0723 36.2783 72.2207C36.7188 72.2484 37.1589 72.2684 37.6001 72.2817C37.8226 72.29 38.0449 72.3041 38.2672 72.3183C39.0921 72.3454 39.0921 72.3454 39.8109 71.9896C40.0654 71.7083 40.2855 71.4219 40.5004 71.1096C40.592 70.9997 40.6835 70.8899 40.7778 70.7767C40.849 70.6872 40.9201 70.5977 40.9935 70.5055C41.4223 69.9752 41.8751 69.4729 42.3368 68.9712C42.6945 68.5728 43.0291 68.1578 43.3654 67.7412C43.6853 67.3535 44.0233 66.9842 44.3619 66.6128C44.6183 66.3242 44.862 66.0282 45.1045 65.7278C45.5333 65.1976 45.9861 64.6952 46.4477 64.1936C46.8055 63.7951 47.1401 63.3802 47.4764 62.9636C47.7963 62.5759 48.1343 62.2065 48.4729 61.8351C48.7293 61.5466 48.973 61.2506 49.2155 60.9502C49.5572 60.5276 49.9099 60.1209 50.2779 59.721C50.7359 59.2234 51.1662 58.7094 51.5908 58.1833C51.9549 57.7398 52.337 57.313 52.7223 56.8878C53.109 57.2436 53.3901 57.6437 53.6737 58.0822C53.7725 58.2327 53.8715 58.3832 53.9705 58.5336C54.0213 58.6108 54.0721 58.688 54.1244 58.7675C54.3679 59.1347 54.6177 59.4974 54.8681 59.8599C54.9707 60.0086 55.0732 60.1574 55.1758 60.3061C55.2283 60.3822 55.2808 60.4583 55.3349 60.5368C55.6317 60.9679 55.9269 61.4 56.2222 61.8321C56.8192 62.7052 57.4178 63.5772 58.0174 64.4485C58.2709 64.817 58.5243 65.1856 58.7777 65.5542C58.8795 65.7024 58.9814 65.8505 59.0832 65.9986C60.9165 68.6652 60.9165 68.6652 61.0695 68.8878C61.1706 69.0348 61.2717 69.1819 61.3729 69.3289C61.6389 69.7157 61.9046 70.1026 62.1699 70.4898C62.2252 70.5703 62.2804 70.6508 62.3373 70.7337C62.4428 70.8876 62.5483 71.0415 62.6536 71.1955C62.7014 71.2651 62.7492 71.3348 62.7984 71.4065C62.8401 71.4673 62.8818 71.5281 62.9247 71.5908C62.9678 71.652 63.0109 71.7132 63.0553 71.7762C63.1085 71.8904 63.1085 71.8904 63.1628 72.0069C63.5374 72.3614 63.9709 72.2787 64.4668 72.2711C64.5774 72.2712 64.688 72.2713 64.8019 72.2713C65.1681 72.271 65.5342 72.2676 65.9003 72.2641C66.1539 72.2633 66.4075 72.2626 66.6611 72.2622C67.3291 72.2605 67.9971 72.2561 68.6651 72.2512C69.3465 72.2467 70.028 72.2446 70.7094 72.2424C72.0468 72.2376 73.3842 72.23 74.7217 72.2207C74.517 71.7985 74.2681 71.4147 74.0064 71.0263C73.933 70.9168 73.933 70.9168 73.8582 70.8051C73.3513 70.0508 72.8361 69.3023 72.3198 68.5544C72.0691 68.1912 71.819 67.8276 71.569 67.4639C71.5191 67.3914 71.4693 67.3189 71.418 67.2443C70.9567 66.5733 70.4971 65.9012 70.0374 65.2291C69.5018 64.4459 68.9645 63.6639 68.4266 62.8822C68.1731 62.5138 67.9197 62.1451 67.6663 61.7765C67.5645 61.6284 67.4626 61.4803 67.3608 61.3321C65.5275 58.6655 63.6942 55.9989 61.8609 53.3323C61.8104 53.2589 61.76 53.1855 61.708 53.1099C61.6067 52.9626 61.5055 52.8154 61.4043 52.6681C61.1401 52.2838 60.8759 51.8996 60.6114 51.5156C60.5567 51.4361 60.502 51.3566 60.4456 51.2747C60.3416 51.1236 60.2376 50.9726 60.1335 50.8216C60.0399 50.6856 59.9468 50.5493 59.8541 50.4126C59.7261 50.2271 59.592 50.0457 59.4578 49.8646C59.2777 49.5547 59.2777 49.5547 59.2777 49.3225C59.4261 49.039 59.6128 48.8356 59.8332 48.6033C60.1998 48.2083 60.5506 47.8078 60.8887 47.3881C61.29 46.8921 61.7094 46.4181 62.1391 45.9467C62.3956 45.6582 62.6393 45.3621 62.8817 45.0618C63.3106 44.5315 63.7633 44.0292 64.225 43.5275C64.5827 43.1291 64.9174 42.7141 65.2536 42.2975C65.5736 41.9098 65.9116 41.5405 66.2501 41.1691C66.5065 40.8805 66.7503 40.5845 66.9927 40.2841C67.4215 39.7539 67.8743 39.2515 68.336 38.7499C68.6937 38.3514 69.0284 37.9365 69.3646 37.5199C69.6846 37.1322 70.0226 36.7628 70.3611 36.3914C70.6175 36.1029 70.8613 35.8069 71.1037 35.5065C71.5391 34.9683 71.9975 34.4563 72.4652 33.9462C73.0814 33.3729 73.0814 33.3729 73.3884 32.6663C72.9479 32.6358 72.5079 32.6138 72.0667 32.5991C71.844 32.5901 71.6217 32.5745 71.3995 32.5589C70.5648 32.5296 70.5648 32.5296 69.858 32.9223C69.6048 33.2335 69.3837 33.5516 69.1663 33.8885C69.0677 34.0059 68.9666 34.1213 68.8607 34.2322C68.3158 34.8149 67.8022 35.414 67.3013 36.0347C66.9813 36.4223 66.6433 36.7917 66.3048 37.1631C66.0484 37.4517 65.8046 37.7477 65.5622 38.0481C65.1334 38.5783 64.6806 39.0807 64.2189 39.5823C63.8612 39.9807 63.5265 40.3957 63.1903 40.8123C62.8704 41.2 62.5324 41.5694 62.1938 41.9408C61.9374 42.2293 61.6936 42.5253 61.4512 42.8257C61.0224 43.356 60.5696 43.8583 60.1079 44.36C59.7514 44.757 59.4177 45.1704 59.0832 45.586C58.7429 45.9973 58.3816 46.3877 58.0169 46.7774C57.8096 46.9797 57.8096 46.9797 57.8333 47.2214C57.3343 46.7621 56.9727 46.2493 56.5972 45.6867C56.4687 45.4966 56.3403 45.3065 56.2118 45.1164C56.1481 45.0217 56.0843 44.927 56.0186 44.8294C55.7511 44.4329 55.4799 44.0389 55.2083 43.6451C55.1085 43.5 55.0087 43.3549 54.9089 43.2098C54.8599 43.1386 54.8108 43.0673 54.7603 42.9939C54.5068 42.6254 54.2534 42.2568 54 41.8882C53.8982 41.7401 53.7963 41.5919 53.6945 41.4438C50.639 36.9995 50.639 36.9995 50.4862 36.7771C50.3846 36.6294 50.283 36.4817 50.1814 36.3341C49.9222 35.9571 49.6633 35.5799 49.4051 35.2022C49.3524 35.1253 49.2997 35.0483 49.2454 34.969C49.147 34.8252 49.0488 34.6815 48.9507 34.5375C48.8583 34.4027 48.7634 34.2695 48.6661 34.1381C48.5002 33.8885 48.5002 33.8885 48.3656 33.5818C48.1549 33.1766 47.976 32.9459 47.6113 32.6663C46.7905 32.4342 45.8885 32.5246 45.0454 32.5469C44.7926 32.5492 44.5398 32.551 44.287 32.5522C43.6234 32.5568 42.9602 32.5688 42.2968 32.5824C41.619 32.5949 40.9413 32.6005 40.2635 32.6066C38.9349 32.6197 37.6067 32.6405 36.2783 32.6663Z"
            fill="url(#paint0_radial_4303_70)" shape-rendering="crispEdges" />
    </g>
    <path
        d="M40.7266 35.1107C41.4676 35.0767 42.2085 35.0534 42.9502 35.0374C43.2021 35.0307 43.454 35.0216 43.7057 35.0101C45.9098 34.9113 45.9098 34.9113 46.4239 35.3711C46.6842 35.716 46.8713 36.0558 47.0597 36.4439C47.1975 36.6462 47.3388 36.8461 47.4837 37.0433C47.6227 37.2438 47.7615 37.4445 47.9 37.6453C48.0549 37.869 48.2098 38.0926 48.3648 38.3163C48.443 38.4293 48.5212 38.5424 48.6017 38.6588C48.9803 39.2058 49.3602 39.7519 49.7402 40.298C49.8139 40.4039 49.8875 40.5099 49.9635 40.619C50.6336 41.5822 51.3064 42.5437 51.9798 43.5047C52.3028 43.9657 52.6256 44.4269 52.9484 44.8881C53.0781 45.0733 53.2077 45.2585 53.3373 45.4437C53.7262 45.9992 53.7262 45.9992 54.1151 46.5548C54.1792 46.6464 54.2434 46.738 54.3094 46.8324C54.4393 47.0179 54.5691 47.2033 54.6989 47.3888C55.02 47.8477 55.3413 48.3065 55.6628 48.7652C56.428 49.8574 57.1909 50.9513 57.9521 52.0464C58.6258 53.0153 59.3023 53.9823 59.9796 54.9488C60.3026 55.4098 60.6254 55.871 60.9482 56.3322C61.0778 56.5174 61.2074 56.7026 61.3371 56.8878C62.1148 57.9989 62.8926 59.1099 63.6703 60.221C63.7345 60.3127 63.7986 60.4043 63.8647 60.4987C63.9945 60.6842 64.1243 60.8696 64.2541 61.0551C64.5753 61.5139 64.8966 61.9728 65.218 62.4315C65.9076 63.4156 66.5954 64.4009 67.2813 65.3875C67.8612 66.2217 68.4419 67.0552 69.0243 67.8875C69.087 67.9771 69.1497 68.0666 69.2142 68.1589C69.2734 68.2435 69.3327 68.3281 69.3937 68.4152C69.4495 68.495 69.5052 68.5748 69.5627 68.657C69.6713 68.8105 69.7813 68.963 69.8926 69.1144C70.2812 69.6433 70.2812 69.6433 70.2812 69.8874C69.536 69.9128 68.7909 69.9303 68.0454 69.9423C67.792 69.9474 67.5386 69.9542 67.2853 69.9628C66.9204 69.975 66.5558 69.9807 66.1907 69.9851C66.078 69.9902 65.9654 69.9954 65.8493 70.0007C65.3789 70.001 65.0733 69.9986 64.7123 69.6781C64.5117 69.4232 64.3386 69.1645 64.1703 68.8874C64.0598 68.7352 64.0598 68.7352 63.947 68.5799C63.888 68.4943 63.8289 68.4088 63.768 68.3206C63.6994 68.2217 63.6309 68.1228 63.5603 68.0208C63.4889 67.9172 63.4175 67.8137 63.344 67.7069C63.187 67.4802 63.03 67.2535 62.873 67.0268C62.7935 66.9117 62.7139 66.7965 62.6319 66.6779C62.2522 66.129 61.8711 65.5812 61.4898 65.0334C61.4162 64.9275 61.3425 64.8216 61.2666 64.7125C60.5964 63.7492 59.9237 62.7877 59.2502 61.8267C58.9272 61.3657 58.6044 60.9044 58.2816 60.4432C58.152 60.2581 58.0224 60.0729 57.8927 59.8877C57.6335 59.5173 57.3742 59.147 57.115 58.7766C57.0508 58.685 56.9867 58.5933 56.9206 58.4989C56.7908 58.3135 56.661 58.128 56.5312 57.9426C56.21 57.4837 55.8887 57.0249 55.5673 56.5662C54.802 55.4739 54.0392 54.38 53.278 53.285C52.6042 52.316 51.9277 51.3491 51.2505 50.3826C50.9274 49.9216 50.6046 49.4603 50.2818 48.9991C50.1522 48.814 50.0226 48.6288 49.893 48.4436C49.1152 47.3325 48.3375 46.2214 47.5597 45.1104C47.4955 45.0187 47.4314 44.9271 47.3653 44.8327C47.2355 44.6472 47.1057 44.4618 46.9759 44.2763C46.6547 43.8174 46.3334 43.3586 46.012 42.8999C45.2473 41.8085 44.485 40.7154 43.7244 39.6212C43.1041 38.7291 42.4815 37.8386 41.858 36.9487C41.8012 36.8673 41.7443 36.7858 41.6857 36.7019C41.5538 36.5143 41.4207 36.3275 41.2869 36.1413C41.1799 35.9914 41.1799 35.9914 41.0707 35.8385C40.9721 35.7015 40.9721 35.7015 40.8716 35.5617C40.7266 35.3329 40.7266 35.3329 40.7266 35.1107Z"
        fill="#00F8B9" />
    <defs>
        <filter id="filter0_d_4303_70" x="0" y="0.943481" width="111" height="111"
            filterUnits="userSpaceOnUse" color-interpolation-filters="sRGB">
            <feFlood flood-opacity="0" result="BackgroundImageFix" />
            <feColorMatrix in="SourceAlpha" type="matrix"
                values="0 0 0 0 0 0 0 0 0 0 0 0 0 0 0 0 0 0 127 0" result="hardAlpha" />
            <feOffset dy="4" />
            <feGaussianBlur stdDeviation="13.5" />
            <feComposite in2="hardAlpha" operator="out" />
            <feColorMatrix type="matrix"
                values="0 0 0 0 0 0 0 0 0 0.972549 0 0 0 0 0.72549 0 0 0 0.55 0" />
            <feBlend mode="normal" in2="BackgroundImageFix" result="effect1_dropShadow_4303_70" />
            <feBlend mode="normal" in="SourceGraphic" in2="effect1_dropShadow_4303_70"
                result="shape" />
        </filter>
        <radialGradient id="paint0_radial_4303_70" cx="0" cy="0" r="1"
            gradientUnits="userSpaceOnUse"
            gradientTransform="translate(55.5 52.4435) rotate(61.5571) scale(59.8384 85.1391)">
            <stop stop-color="#00F8B9" />
            <stop offset="1" stop-color="#00F8B9" stop-opacity="0" />
        </radialGradient>
    </defs>
</svg>
    