<svg width="115" height="96" viewBox="0 0 115 96" fill="none" xmlns="http://www.w3.org/2000/svg">
    <g filter="url(#filter0_d_4303_60)">
        <path
            d="M57.3603 23.0001C57.4974 23.0001 57.6345 23.0001 57.7758 23.0001C72.9736 23.0022 72.9736 23.0022 79.5215 23.8871C79.6562 23.9052 79.791 23.9233 79.9298 23.942C82.1981 24.2845 84.1648 25.2214 85.5843 27.0334C87.5892 29.8579 87.6484 33.8871 87.8497 37.2153C87.8551 37.2955 87.8604 37.3757 87.8659 37.4583C88.0045 39.5593 88.0013 41.6621 87.9996 43.7666C87.9995 43.8592 87.9995 43.9518 87.9995 44.0473C87.9982 46.7974 87.9901 49.5382 87.7235 52.2786C87.715 52.368 87.7064 52.4574 87.6976 52.5496C86.974 60.0578 86.974 60.0578 84.4427 62.2378C81 64.9009 75.7131 64.5583 71.5403 64.7432C71.4339 64.748 71.3275 64.7528 71.2178 64.7577C66.8005 64.9527 62.3808 65.0023 57.9596 64.9999C57.7705 64.9999 57.7705 64.9999 57.5776 64.9999C33.7875 64.9963 33.7875 64.9963 30.3128 61.6226C25.824 56.8049 27.1095 45.6495 27.3675 39.5415C27.8527 28.6188 27.8527 28.6188 30.7569 25.895C31.9302 24.9199 33.2567 24.2705 34.7653 24.0116C34.8828 23.9912 35.0004 23.9709 35.1216 23.9499C37.9399 23.4956 40.8206 23.3865 43.6692 23.2569C43.826 23.2496 43.826 23.2496 43.9859 23.2423C44.8108 23.2052 45.6358 23.1752 46.461 23.1479C46.6235 23.1425 46.786 23.1371 46.9534 23.1315C50.4222 23.0187 53.8898 22.9984 57.3603 23.0001ZM51.6346 35.2235C51.6346 41.016 51.6346 46.8085 51.6346 52.7766C52.1203 52.5849 52.5431 52.3876 52.997 52.1385C53.1376 52.0615 53.2783 51.9845 53.4232 51.9051C53.5736 51.8222 53.724 51.7392 53.8744 51.6561C53.9511 51.6139 54.0278 51.5717 54.1069 51.5283C55.1646 50.9464 56.2147 50.3534 57.2558 49.7431C59.5564 48.3961 61.8887 47.1004 64.2123 45.7923C64.8675 45.4234 65.5225 45.054 66.1774 44.6847C66.3937 44.5628 66.6099 44.4409 66.8261 44.319C66.9146 44.2691 67.0032 44.2192 67.0944 44.1678C67.187 44.1155 67.187 44.1155 67.2816 44.0623C66.9119 43.7775 66.532 43.5394 66.1252 43.3095C65.9957 43.2361 65.8662 43.1626 65.7328 43.087C65.5933 43.0083 65.4537 42.9296 65.3099 42.8485C65.1627 42.7651 65.0155 42.6817 64.8683 42.5983C64.5625 42.425 64.2567 42.2519 63.9508 42.0789C63.2516 41.6833 62.5537 41.2854 61.8556 40.8878C61.5819 40.732 61.3081 40.5762 61.0344 40.4204C60.4908 40.111 59.9473 39.8014 59.4039 39.4916C57.813 38.585 56.2199 37.6822 54.6237 36.7847C54.4172 36.6686 54.4172 36.6686 54.2066 36.5501C54.0736 36.4753 53.9406 36.4005 53.8035 36.3234C53.2605 36.015 52.7222 35.6988 52.1846 35.3813C51.9063 35.2038 51.9063 35.2038 51.6346 35.2235Z"
            fill="url(#paint0_radial_4303_60)" shape-rendering="crispEdges" />
    </g>
    <defs>
        <filter id="filter0_d_4303_60" x="0" y="0" width="115" height="96"
            filterUnits="userSpaceOnUse" color-interpolation-filters="sRGB">
            <feFlood flood-opacity="0" result="BackgroundImageFix" />
            <feColorMatrix in="SourceAlpha" type="matrix"
                values="0 0 0 0 0 0 0 0 0 0 0 0 0 0 0 0 0 0 127 0" result="hardAlpha" />
            <feOffset dy="4" />
            <feGaussianBlur stdDeviation="13.5" />
            <feComposite in2="hardAlpha" operator="out" />
            <feColorMatrix type="matrix"
                values="0 0 0 0 0.980392 0 0 0 0 0.219608 0 0 0 0 0.219608 0 0 0 0.55 0" />
            <feBlend mode="normal" in2="BackgroundImageFix" result="effect1_dropShadow_4303_60" />
            <feBlend mode="normal" in="SourceGraphic" in2="effect1_dropShadow_4303_60"
                result="shape" />
        </filter>
        <radialGradient id="paint0_radial_4303_60" cx="0" cy="0" r="1"
            gradientUnits="userSpaceOnUse"
            gradientTransform="translate(57.5 44) rotate(51.8076) scale(49.3285 81.4405)">
            <stop stop-color="#FA3838" />
            <stop offset="1" stop-color="#FA3838" stop-opacity="0" />
        </radialGradient>
    </defs>
</svg>
    