<svg width="149" height="198" viewBox="0 0 149 198" fill="none" xmlns="http://www.w3.org/2000/svg">
<path d="M0 0H149V198H0V0Z" fill="#96B1CD" fill-opacity="0.62"/>
<path fill-rule="evenodd" clip-rule="evenodd" d="M70.8616 41.0775C66.778 41.3665 63.8624 41.8525 59.0839 43.0406C55.289 43.9842 50.5639 45.9501 45.6144 48.6449C38.1055 52.7331 30.7031 59.6268 25.6468 67.2404C20.3581 75.204 17.2837 83.7206 16.246 93.2819C15.9177 96.3065 15.9181 103.011 16.2466 106.007C17.2489 115.147 20.3848 123.8 25.5264 131.612C31.9699 141.402 40.8642 148.776 51.9524 153.521C57.3382 155.826 62.9796 157.224 69.365 157.837C72.116 158.102 77.7406 158.035 80.8662 157.702C97.6739 155.907 112.943 146.829 122.711 132.821C128.112 125.076 131.551 116.062 132.766 106.462C132.951 105.006 132.997 103.636 133 99.5796C133.004 93.1158 132.769 90.9484 131.501 85.7507C128.851 74.8925 123.516 65.6027 115.352 57.6305C106.046 48.5427 94.1842 42.876 81.4029 41.4113C78.2181 41.0462 73.4411 40.895 70.8616 41.0775ZM79.5809 47.1845C85.6929 47.6749 91.781 49.3972 97.7354 52.3207C104.842 55.8097 110.782 60.5538 115.718 66.684C122.891 75.5919 126.897 86.6654 127.175 98.351C127.303 103.746 126.688 108.78 125.319 113.538C125.062 114.431 124.776 115.424 124.683 115.746C124.49 116.416 123.678 118.572 123.045 120.096C122.358 121.747 120.316 125.679 119.335 127.238C113.896 135.877 107.519 141.695 98.256 146.468C91.2873 150.059 84.491 151.784 76.2624 152.05C69.0589 152.283 62.1888 151.195 56.0919 148.856C45.2921 144.713 36.8042 137.994 30.5871 128.666C25.9615 121.726 22.8518 113.13 22.0373 105.033C21.8339 103.012 21.835 95.8542 22.0391 93.9623C23.0682 84.4197 26.9061 74.8456 32.6442 67.5068C35.8551 63.4001 40.2548 59.201 44.3781 56.308C47.4806 54.1312 52.0908 51.7136 55.8304 50.3024C59.8772 48.7753 63.4139 47.9277 69.1047 47.1212C70.6001 46.9093 76.6033 46.9456 79.5809 47.1845ZM71.9678 59.8606C67.8988 60.4866 65.4388 61.6048 63.0049 63.9345C61.6306 65.2502 60.8841 66.257 60.197 67.7219C59.2554 69.7296 58.9967 71.1339 58.6952 75.872C58.4889 79.1135 58.4084 79.7776 58.2216 79.7776C57.9962 79.7776 57.5941 80.6182 57.3856 81.5256C57.1231 82.6675 57.1178 84.9496 57.3744 86.2701C57.7686 88.2984 58.5221 89.8414 60.3876 92.44C61.1534 93.5066 61.7239 94.4559 61.9342 95.0135C62.3707 96.1706 63.452 98.1956 64.1992 99.255C66.0033 101.813 69.0326 104.084 71.5773 104.784C72.771 105.113 75.4044 105.177 76.7281 104.909C78.8778 104.475 80.8272 103.406 82.6966 101.636C84.3564 100.065 85.3465 98.6429 86.7488 95.814C87.4699 94.3595 88.2745 92.9673 88.8794 92.1281C90.2853 90.1774 91.1997 88.3395 91.5466 86.767C91.6203 86.4331 91.7429 85.6022 91.8192 84.9204C92.0315 83.0191 91.6476 80.7383 90.9818 79.946C90.5779 79.4654 90.536 79.2177 90.3819 76.4015C90.1487 72.138 89.8229 70.7105 88.7149 69.0945C87.7398 67.6722 87.5303 67.2906 87.3086 66.533C86.9743 65.3907 86.2131 64.0674 85.4319 63.2707C84.8506 62.678 84.3886 62.3787 83.0879 61.752C81.1183 60.8031 79.804 60.3825 77.9521 60.1081C76.5642 59.9025 72.7271 59.7438 71.9678 59.8606ZM85.2389 101.972C82.4709 104.691 80.943 105.733 78.5688 106.521C75.2245 107.631 71.6539 107.304 68.3342 105.582C66.7991 104.785 65.5141 103.764 63.7317 101.924C62.8628 101.028 62.0704 100.294 61.9707 100.294C61.8709 100.294 61.0049 100.622 60.0462 101.022C59.0874 101.423 57.6003 102.042 56.7414 102.399C51.4792 104.581 48.6903 105.937 47.1588 107.058C45.8333 108.027 43.5899 110.299 42.5952 111.678C40.5998 114.445 38.9308 119.131 38.2563 123.861C37.8746 126.538 37.9993 126.997 39.2781 127.621C40.209 128.075 43.4857 129.162 45.1701 129.575C52.4191 131.351 59.8981 132.078 72.1726 132.199C85.8157 132.333 94.2399 131.687 102.42 129.878C104.555 129.406 108.645 128.13 109.827 127.568C110.88 127.066 111.011 126.789 110.889 125.32C110.21 117.179 106.797 110.363 101.693 106.958C100.05 105.861 96.7127 104.204 93.636 102.957C92.5593 102.52 87.2041 100.274 87.1259 100.227C87.0883 100.204 86.2391 100.989 85.2389 101.972Z" fill="#658DB6" fill-opacity="0.69"/>
</svg>
