<svg width="120" height="25" viewBox="0 0 120 25" fill="none" xmlns="http://www.w3.org/2000/svg">
<path d="M3.82802 0.897461H9.54516V3.18432H3.99373C3.70649 3.18432 3.48554 3.26165 3.33088 3.41632C3.17621 3.57098 3.09888 3.75879 3.09888 3.97975C3.09888 4.16756 3.15964 4.33879 3.28116 4.49346C3.40268 4.64813 3.57392 4.75308 3.79488 4.80832L7.75545 5.73632C8.57297 5.92413 9.19716 6.30527 9.62802 6.87975C10.0589 7.44318 10.2743 8.07841 10.2743 8.78546C10.2743 9.65822 9.97602 10.415 9.37945 11.0557C8.79392 11.6855 7.9764 12.0003 6.92688 12.0003H0.977732V9.69689H6.84402C7.12021 9.69689 7.34116 9.60851 7.50688 9.43175C7.68364 9.25498 7.77202 9.0506 7.77202 8.8186C7.77202 8.36565 7.52345 8.08394 7.0263 7.97346L3.04916 7.02889C2.24268 6.83003 1.62402 6.45441 1.19316 5.90203C0.762304 5.3386 0.546875 4.71441 0.546875 4.02946C0.546875 3.17879 0.834113 2.44413 1.40859 1.82546C1.99411 1.20679 2.80059 0.897461 3.82802 0.897461Z" fill="#2C2E37" fill-opacity="0.9"/>
<path d="M22.3233 12.0003H19.6553L18.7273 9.64717H14.0707L13.1593 12.0003H10.5741L15.1313 0.897461H17.7496L22.3233 12.0003ZM16.3907 3.73118L14.8827 7.57575H17.8987L16.3907 3.73118Z" fill="#2C2E37" fill-opacity="0.9"/>
<path d="M31.3664 8.18889V0.897461H33.7195V12.0003H31.3664L25.6824 4.26146V12.0003H23.3292V0.897461H26.0138L31.3664 8.18889Z" fill="#2C2E37" fill-opacity="0.9"/>
<path d="M50.7731 12.0003H48.1051L47.1771 9.64717H42.5205L41.6091 12.0003H39.0239L43.5811 0.897461H46.1993L50.7731 12.0003ZM44.8405 3.73118L43.3325 7.57575H46.3485L44.8405 3.73118Z" fill="#2C2E37" fill-opacity="0.9"/>
<path d="M59.8161 8.18889V0.897461H62.1693V12.0003H59.8161L54.1321 4.26146V12.0003H51.779V0.897461H54.4636L59.8161 8.18889Z" fill="#2C2E37" fill-opacity="0.9"/>
<path d="M64.3694 12.0003V0.897461H69.0425C70.6886 0.897461 72.0475 1.4167 73.1191 2.45517C74.1907 3.49365 74.7265 4.81384 74.7265 6.41575V6.46546C74.7265 8.06737 74.1907 9.39308 73.1191 10.4426C72.0475 11.4811 70.6886 12.0003 69.0425 12.0003H64.3694ZM69.0094 3.18432H66.7225V9.69689H69.0094C69.9926 9.69689 70.7881 9.3986 71.3957 8.80203C72.0143 8.20546 72.3237 7.4266 72.3237 6.46546V6.41575C72.3237 5.4546 72.0143 4.67575 71.3957 4.07918C70.7881 3.4826 69.9926 3.18432 69.0094 3.18432Z" fill="#2C2E37" fill-opacity="0.9"/>
<path d="M78.6171 12.0003H76.2639V0.897461H81.9479C83.0969 0.897461 84.0194 1.16813 84.7154 1.70946C85.4224 2.25079 85.7759 3.01308 85.7759 3.99632C85.7759 5.02375 85.4114 5.8026 84.6822 6.33289V6.3826C85.5881 6.6146 86.0411 7.30508 86.0411 8.45403V12.0003H83.6879V8.88489C83.6879 8.44298 83.4559 8.22203 82.9919 8.22203H78.6171V12.0003ZM78.6171 3.18432V6.08432H81.7656C82.2628 6.08432 82.6605 5.95727 82.9588 5.70318C83.2681 5.43803 83.4228 5.07898 83.4228 4.62603C83.4228 4.18413 83.2681 3.83613 82.9588 3.58203C82.6495 3.31689 82.2573 3.18432 81.7822 3.18432H78.6171Z" fill="#2C2E37" fill-opacity="0.9"/>
<path d="M96.433 12.0003H87.9319V0.897461H96.433V3.18432H90.285V5.25575H95.7205V7.44318H90.285V9.71346H96.433V12.0003Z" fill="#2C2E37" fill-opacity="0.9"/>
<path d="M109.145 12.0003H106.477L105.549 9.64717H100.893L99.9813 12.0003H97.3961L101.953 0.897461H104.572L109.145 12.0003ZM103.213 3.73118L101.705 7.57575H104.721L103.213 3.73118Z" fill="#2C2E37" fill-opacity="0.9"/>
<path d="M112.869 0.897461H118.586V3.18432H113.035C112.748 3.18432 112.527 3.26165 112.372 3.41632C112.217 3.57098 112.14 3.75879 112.14 3.97975C112.14 4.16756 112.201 4.33879 112.322 4.49346C112.444 4.64813 112.615 4.75308 112.836 4.80832L116.797 5.73632C117.614 5.92413 118.238 6.30527 118.669 6.87975C119.1 7.44318 119.316 8.07841 119.316 8.78546C119.316 9.65822 119.017 10.415 118.421 11.0557C117.835 11.6855 117.018 12.0003 115.968 12.0003H110.019V9.69689H115.885C116.161 9.69689 116.382 9.60851 116.548 9.43175C116.725 9.25498 116.813 9.0506 116.813 8.8186C116.813 8.36565 116.565 8.08394 116.068 7.97346L112.09 7.02889C111.284 6.83003 110.665 6.45441 110.234 5.90203C109.804 5.3386 109.588 4.71441 109.588 4.02946C109.588 3.17879 109.875 2.44413 110.45 1.82546C111.035 1.20679 111.842 0.897461 112.869 0.897461Z" fill="#2C2E37" fill-opacity="0.9"/>
<path d="M0.894875 23.9904V17.3386H3.5695C4.52402 17.3386 5.31282 17.6535 5.9359 18.2832C6.55899 18.9063 6.87053 19.6951 6.87053 20.6496V20.6794C6.87053 21.6339 6.55899 22.426 5.9359 23.0557C5.31282 23.6788 4.52402 23.9904 3.5695 23.9904H0.894875ZM3.55956 18.2832H1.85933V23.0458H3.55956C4.2423 23.0458 4.80242 22.8271 5.2399 22.3896C5.67739 21.9455 5.89613 21.3754 5.89613 20.6794V20.6496C5.89613 19.9536 5.67739 19.3868 5.2399 18.9493C4.80242 18.5052 4.2423 18.2832 3.55956 18.2832Z" fill="#2C2E37" fill-opacity="0.9"/>
<path d="M11.9742 24.0003H11.0098V17.3386H14.3605C14.9969 17.3386 15.5172 17.5043 15.9216 17.8357C16.3259 18.1672 16.5281 18.6212 16.5281 19.1979C16.5281 19.8011 16.3093 20.2618 15.8718 20.58V20.5999C16.369 20.7258 16.6176 21.1069 16.6176 21.7433V24.0003H15.6531V21.9421C15.6531 21.6439 15.4874 21.4947 15.156 21.4947H11.9742V24.0003ZM11.9742 18.2832V20.5501H14.3108C14.6688 20.5501 14.9637 20.4474 15.1957 20.2419C15.4344 20.0364 15.5537 19.7647 15.5537 19.4266C15.5537 19.0885 15.4344 18.8135 15.1957 18.6013C14.9571 18.3892 14.6621 18.2832 14.3108 18.2832H11.9742Z" fill="#2C2E37" fill-opacity="0.9"/>
<path d="M21.0082 24.0003V17.3386H21.9726V24.0003H21.0082Z" fill="#2C2E37" fill-opacity="0.9"/>
<path d="M29.1609 22.837L31.4875 17.3386H32.5414L29.6779 24.0003H28.6041L25.7306 17.3386H26.8044L29.1609 22.837Z" fill="#2C2E37" fill-opacity="0.9"/>
<path d="M41.1788 24.0003H36.2472V17.3386H41.1788V18.2832H37.2116V20.0928H40.8805V21.0373H37.2116V23.0557H41.1788V24.0003Z" fill="#2C2E37" fill-opacity="0.9"/>
<path d="M46.4235 24.0003H45.4591V17.3386H48.8098C49.4462 17.3386 49.9665 17.5043 50.3708 17.8357C50.7752 18.1672 50.9774 18.6212 50.9774 19.1979C50.9774 19.8011 50.7586 20.2618 50.3211 20.58V20.5999C50.8183 20.7258 51.0668 21.1069 51.0668 21.7433V24.0003H50.1024V21.9421C50.1024 21.6439 49.9367 21.4947 49.6052 21.4947H46.4235V24.0003ZM46.4235 18.2832V20.5501H48.7601C49.118 20.5501 49.413 20.4474 49.645 20.2419C49.8836 20.0364 50.003 19.7647 50.003 19.4266C50.003 19.0885 49.8836 18.8135 49.645 18.6013C49.4064 18.3892 49.1114 18.2832 48.7601 18.2832H46.4235Z" fill="#2C2E37" fill-opacity="0.9"/>
<path d="M60.7272 24.0003V17.3386H61.7016V23.0458H65.4103V24.0003H60.7272Z" fill="#2C2E37" fill-opacity="0.9"/>
<path d="M69.2691 24.0003V17.3386H70.2336V24.0003H69.2691Z" fill="#2C2E37" fill-opacity="0.9"/>
<path d="M80.0131 21.4649H81.0373C80.8782 22.2471 80.497 22.8867 79.8938 23.3839C79.2973 23.881 78.5714 24.1296 77.7163 24.1296C76.7154 24.1296 75.8968 23.7948 75.2605 23.1253C74.6307 22.4559 74.3159 21.6372 74.3159 20.6695C74.3159 19.7083 74.6341 18.8897 75.2704 18.2136C75.9067 17.5375 76.7221 17.1994 77.7163 17.1994C78.5515 17.1994 79.2674 17.4447 79.864 17.9352C80.4672 18.4191 80.8517 19.0455 81.0174 19.8144H80.0032C79.8574 19.3239 79.579 18.9228 79.168 18.6113C78.7637 18.2997 78.2864 18.144 77.7362 18.144C77.027 18.144 76.4403 18.3925 75.9763 18.8897C75.519 19.3802 75.2903 19.9735 75.2903 20.6695C75.2903 21.3721 75.519 21.9687 75.9763 22.4592C76.4403 22.9431 77.027 23.185 77.7362 23.185C78.3129 23.185 78.8034 23.0259 79.2078 22.7077C79.6187 22.3829 79.8872 21.9687 80.0131 21.4649Z" fill="#2C2E37" fill-opacity="0.9"/>
<path d="M90.0515 24.0003H85.1198V17.3386H90.0515V18.2832H86.0843V20.0928H89.7532V21.0373H86.0843V23.0557H90.0515V24.0003Z" fill="#2C2E37" fill-opacity="0.9"/>
<path d="M99.3628 22.3498V17.3386H100.327V24.0003H99.3628L95.2962 18.6113V24.0003H94.3317V17.3386H95.5149L99.3628 22.3498Z" fill="#2C2E37" fill-opacity="0.9"/>
<path d="M106.375 17.3386H109.666V18.2832H106.434C106.176 18.2832 105.967 18.3594 105.808 18.5119C105.655 18.6643 105.579 18.8466 105.579 19.0587C105.579 19.2377 105.632 19.4001 105.738 19.5459C105.851 19.6851 106.01 19.7812 106.215 19.8343L108.661 20.4308C109.125 20.5435 109.48 20.7656 109.725 21.097C109.971 21.4284 110.093 21.7897 110.093 22.1808C110.093 22.6713 109.921 23.0988 109.576 23.4634C109.238 23.8213 108.774 24.0003 108.184 24.0003H104.754V23.0458H108.144C108.416 23.0458 108.632 22.9629 108.791 22.7972C108.956 22.6249 109.039 22.426 109.039 22.2007C109.039 22.0151 108.98 21.846 108.86 21.6936C108.748 21.5345 108.582 21.4284 108.363 21.3754L105.907 20.7788C105.456 20.6661 105.112 20.4507 104.873 20.1325C104.641 19.8144 104.525 19.4664 104.525 19.0885C104.525 18.6179 104.691 18.2103 105.022 17.8656C105.354 17.5143 105.804 17.3386 106.375 17.3386Z" fill="#2C2E37" fill-opacity="0.9"/>
<path d="M119.153 24.0003H114.222V17.3386H119.153V18.2832H115.186V20.0928H118.855V21.0373H115.186V23.0557H119.153V24.0003Z" fill="#2C2E37" fill-opacity="0.9"/>
</svg>
